<svg version="1.1" xmlns="http://www.w3.org/2000/svg" xmlns:xlink="http://www.w3.org/1999/xlink" width="48.03088" height="117.66667" viewBox="0,0,48.03088,117.66667"><g transform="translate(-420.45898,-102.77762)"><g data-paper-data="{&quot;isPaintingLayer&quot;:true}" fill-rule="nonzero" stroke-linejoin="miter" stroke-miterlimit="10" stroke-dasharray="" stroke-dashoffset="0" style="mix-blend-mode: normal"><path d="M420.45899,220.4443v-117.66667h48.03088v117.66667z" fill="#3a3a3a" stroke="#747474" stroke-width="0" stroke-linecap="butt"/><g fill="#5d5d5d" stroke="#5d5d5d" stroke-width="0" stroke-linecap="butt"><path d="M433.53763,125.03085c0,-5.79134 4.6948,-10.48614 10.48614,-10.48614c5.79134,0 10.48614,4.69481 10.48614,10.48614c0,5.79133 -4.6948,10.48614 -10.48614,10.48614c-5.79134,0 -10.48614,-4.69481 -10.48614,-10.48614zM444.1851,128.58c2.22744,0 4.03313,-1.80569 4.03313,-4.03313c0,-2.22743 -1.8057,-4.03313 -4.03313,-4.03313c-2.22744,0 -4.03313,1.8057 -4.03313,4.03313c0,2.22743 1.80569,4.03313 4.03313,4.03313z"/><path d="M433.56692,125.24239l6.66573,0.11111c0.37369,1.84091 2.00126,3.22651 3.95245,3.22651c1.95119,0 3.57877,-1.38559 3.95246,-3.22651l5.67641,-0.22222c0,0 0.31497,2.86617 -0.53954,4.80502c-1.85292,4.2042 -9.25065,19.6476 -9.25065,19.6476c0,0 -7.35964,-15.18609 -9.25178,-19.47929c-0.93447,-2.12027 -1.20507,-4.86222 -1.20507,-4.86222z"/></g><g stroke-linecap="butt"><path d="M429.48602,200.68192c-0.46823,-2.81802 4.39205,-7.25332 6.05484,-9.31455c0.70399,-0.87069 1.27163,-2.17822 2.52299,-2.38833c0.59002,-0.09906 1.30626,-0.20297 1.78846,0.15117c0.14291,0.10496 0.25062,0.32361 0.31413,0.57028c0.49168,-0.74579 1.23541,-1.60823 1.36374,-1.73954c2.80997,-2.87525 6.54873,-4.31601 9.6977,-6.81357c0.74941,-0.07238 1.65405,-0.67952 2.24822,-0.21713c1.43501,1.11672 0.65896,3.77676 -0.05452,5.02923c-1.26074,2.21317 -3.95018,3.45745 -6.34455,4.92222c0.82592,1.63374 0.47765,5.17189 0.15819,6.14162c-0.19936,0.60517 -0.83087,1.09143 -0.8163,1.72842c0.04392,1.9195 1.53079,2.10214 1.77814,3.85182c0.24179,1.71035 -1.22474,2.92813 -2.49811,3.62759c-2.62769,0.17675 -4.81479,0.34993 -7.31361,1.32288l-1.14403,0.31473c0,0 -0.86813,0.23785 -1.10598,-0.63028c-0.06158,-0.22476 -0.04903,-0.40726 0.0034,-0.55434c-2.09624,-1.66864 -6.27966,-3.75711 -6.6527,-6.00223z" data-paper-data="{&quot;index&quot;:null}" fill="#5d5d5d" stroke="none" stroke-width="0.5"/><path d="M447.73197,181.3156c0,-3.3694 2.73144,-6.10083 6.10083,-6.10083c3.3694,0 6.10083,2.73144 6.10083,6.10083c0,3.3694 -2.73144,6.10083 -6.10083,6.10083c-3.3694,0 -6.10083,-2.73144 -6.10083,-6.10083z" fill="none" stroke="#5d5d5d" stroke-width="2.5"/></g><path d="M421.67666,162.92666h45.33333" fill="none" stroke="#5d5d5d" stroke-width="1.5" stroke-linecap="round"/></g></g></svg>