<svg version="1.1" xmlns="http://www.w3.org/2000/svg" xmlns:xlink="http://www.w3.org/1999/xlink" width="72" height="108.16129" viewBox="0,0,72,108.16129"><defs><linearGradient x1="380.00695" y1="177.26667" x2="380.00695" y2="205.73333" gradientUnits="userSpaceOnUse" id="color-1"><stop offset="0" stop-color="#00f5ff" stop-opacity="0"/><stop offset="1" stop-color="#00f5ff"/></linearGradient></defs><g transform="translate(-344,-134.54445)"><g data-paper-data="{&quot;isPaintingLayer&quot;:true}" fill-rule="nonzero" stroke-linejoin="miter" stroke-miterlimit="10" stroke-dasharray="" stroke-dashoffset="0" style="mix-blend-mode: normal"><path d="M344.91667,242.04174v-106h70.25v106z" fill="#006eff" stroke="none" stroke-width="0" stroke-linecap="butt"/><path d="M345.14461,205.92786v-70.26119h69.5v70.26119z" fill="#ffffff" stroke="#000000" stroke-width="0" stroke-linecap="butt"/><path d="M354.64461,170.41666c0,-14.3594 11.6406,-26 26,-26c14.3594,0 26,11.6406 26,26c0,14.3594 -11.6406,26 -26,26c-14.3594,0 -26,-11.6406 -26,-26z" fill="#ff0000" stroke="#000000" stroke-width="0" stroke-linecap="butt"/><path d="M351.80095,206.20592c-0.4168,-0.2084 -0.2084,-0.6252 -0.2084,-0.6252l0.15791,-0.20582c0.00027,-0.07986 0.00299,-0.15865 0.00773,-0.23659c-0.05372,-0.01913 -0.10661,-0.03886 -0.15859,-0.05923c0.11666,-0.60642 0.26424,-1.19858 0.44697,-1.77425c0.00624,-0.04983 0.01188,-0.09998 0.01682,-0.1505c0.16562,-1.69445 0.33385,-3.12092 1.19823,-4.63813c0.7261,-0.88138 0.54926,-4.18628 1.38823,-2.93633c0.03159,0.04707 0.99618,-0.16624 1.13237,-0.31658c0.00989,-0.04917 0.18908,0.58616 0.18908,0.58616c0.45507,-1.13245 0.43833,-0.24854 1.28276,-1.1408c0.4479,-0.47327 0.80801,-0.90431 1.59117,-0.52024c0.19987,0.09802 0.33953,0.22826 0.42949,0.38007c0.33762,-0.6054 0.88677,-1.1222 1.26227,-1.68551c0.30931,-0.464 0.50292,-1.00092 0.83031,-1.45235c0.24051,-0.33163 0.60969,-0.57749 0.77909,-0.95048c0.35547,-0.78268 0.16662,-1.98285 0.16662,-2.81309c0,-0.92095 -0.00377,-1.842 0.00117,-2.76294c0.0019,-0.35403 -0.22596,-0.79657 0.00823,-1.06208c0.23998,-0.27207 0.71407,-0.1355 1.07552,-0.1666c0.91545,-0.07877 1.87678,-0.01235 2.79591,-0.01839c3.72788,-0.02453 7.45577,-0.04905 11.18365,-0.07358c4.03854,-0.02657 8.07708,-0.05314 12.11562,-0.07971c2.03379,-0.01338 4.15104,0.2492 6.05671,-0.52028c4.6279,-1.52237 10.90693,-0.59513 13.95113,3.52563c1.61216,1.19098 3.55178,2.2398 4.35264,4.20473c0.64838,1.59084 -0.05058,3.77614 -0.17869,5.37417c-0.0677,0.84449 -0.01783,1.68004 -0.32673,2.47429c-0.12769,0.78863 -0.15069,1.62764 -0.32018,2.4038c-0.16067,0.73577 -0.43852,1.3004 -0.49219,2.06007c-0.02133,0.30197 0.05828,1.3931 -0.10445,1.60861c-0.31745,0.42042 -2.01687,0.53591 -2.4891,0.58251c-0.73383,0.07241 -1.44394,0.35209 -2.18213,0.4149c-1.09901,0.0935 -2.22366,0.02543 -3.31374,0.20711c-4.67026,0.01333 -9.33859,0.00159 -14.0183,0.00159c-3.84189,0 -7.65998,-0.20711 -11.49456,-0.20711c0,0 -0.27016,0 -0.39907,-0.2057c-1.40198,0.20195 -2.70902,0.30977 -4.12837,0.30836c-1.71459,0.21432 -3.47882,0.10445 -5.20669,0.10445c-3.24471,0 -6.48942,0 -9.73413,0c-0.99354,0 -1.88965,0.14251 -2.87631,0.20653c-0.23932,0.01553 -1.24389,0.00229 -1.35997,-0.10985c-0.0512,-0.04946 -0.09527,-0.1248 -0.13278,-0.21834c-0.7621,-0.05742 -1.62826,-0.14841 -2.42225,-0.3237l-0.24781,0.60199c0,0 -0.2084,0.4168 -0.6252,0.2084z" fill="#1c1a1e" stroke="none" stroke-width="0.5" stroke-linecap="butt"/><path d="M362.2615,187.82601c0.1355,-0.10716 0.31042,-0.10716 0.31042,-0.10716h0.31066c0.55985,0 1.33131,-0.12459 1.86749,0.01247c1.95065,0.49861 2.94677,3.3997 1.83529,5.05935c-0.53959,0.8057 -1.37317,0.88398 -2.1835,1.21169c-0.33693,0.12971 -0.71906,0.10141 -1.06125,0.21653c-0.95659,0.3218 -1.8891,0.94316 -2.87636,1.3378c-1.43043,0.57179 -2.93007,0.88606 -4.29558,1.6317c-0.76794,0.41934 -2.37006,1.80737 -3.30254,0.8883c-0.22921,-0.22592 0.07985,-0.64048 0.16032,-0.95209c0.14769,-0.57187 0.56198,-1.01601 0.85899,-1.51219c1.42769,-2.4953 3.01894,-4.70113 5.55306,-6.17372c0.60192,-0.34978 1.06336,-0.89262 1.65615,-1.24224c0.35274,-0.20804 0.75925,-0.30221 1.16686,-0.37043z" fill="#564f5c" stroke="none" stroke-width="0.5" stroke-linecap="butt"/><path d="M397.26465,184.30155c0.18822,-0.16893 0.45608,-0.07964 0.45608,-0.07964c1.03135,0.34707 1.69307,0.93007 2.57658,1.49159c1.29827,0.82512 2.36895,1.60791 3.16707,2.96161c0.44793,0.75974 0.80512,2.15461 0.78826,3.03059c-0.01152,0.59833 0.1099,1.2769 -0.75583,1.48463c-0.38147,0.09154 -0.76873,-0.15695 -1.1531,-0.23543c-0.4864,-0.35377 -0.96312,-0.54503 -1.47111,-0.83928c-1.00186,-0.5803 -1.90803,-1.56611 -3.02913,-1.93431c-1.69983,-0.55826 -4.95348,-0.36658 -5.87023,-2.21386c-0.28365,-0.57157 -0.14508,-1.39385 -0.12325,-2.00106c0.25958,-0.37363 0.39876,-0.85522 0.75697,-1.13569c1.1165,-0.87422 3.12075,-0.52915 4.44862,-0.52915z" fill="#564f5c" stroke="none" stroke-width="0.5" stroke-linecap="butt"/><path d="M389.35364,197.47496c0.00954,-0.00285 0.01935,-0.00555 0.02944,-0.00807c0.45208,-0.11302 0.5651,0.33906 0.5651,0.33906c0.21551,0.87631 0.15034,1.80471 0.40694,2.6665c0.19802,0.66508 0.67426,0.90503 0.74381,1.64634c0.05252,0.55979 -0.17321,1.44487 -0.01464,1.99262c0.17767,0.61371 0.71155,0.52436 0.27838,1.36833c-0.511,0.9956 -2.79719,0.56826 -3.73055,0.56826c-1.02882,0 -1.63813,-0.03175 -2.52319,-0.58737c-0.23955,-0.15038 -0.57649,-0.18457 -0.73984,-0.41548c-0.45127,-0.63792 -0.30961,-1.7381 -0.30961,-2.46623c0,-1.71855 -0.3393,-4.01676 0.95591,-5.39441c0.16987,-0.18069 0.36601,-0.36766 0.60538,-0.43251c0.5,-0.13546 2.43451,-0.19393 2.98714,0c0.24879,0.08731 0.42448,0.31286 0.63673,0.46929z" fill="#dec7b6" stroke="none" stroke-width="0.5" stroke-linecap="butt"/><path d="M364.93342,180.23039l-0.1892,-0.12634c-0.14759,-0.11911 -0.29519,-0.23821 -0.44278,-0.35732c-0.96408,-1.20269 -2.44562,-2.01398 -2.91756,-3.62992c-0.25498,-0.87307 0.03072,-2.19122 0.23121,-3.0226c0.19027,-0.78901 0.31958,-1.83206 0.64881,-2.56577c0.69564,-1.55032 2.43254,-2.72935 3.94442,-3.33295c1.09779,-0.66949 2.44406,-1.12142 3.62524,-1.57579c1.21377,-0.4669 2.3421,-1.22814 3.67204,-1.42151c2.38302,-0.34647 5.0479,0.21037 7.41002,0.35038c1.59586,0.44587 3.57424,0.84258 4.90466,1.92785c0.75518,0.61602 0.94222,1.77954 0.94546,2.68899c0.00869,2.43295 -0.73197,5.07028 -1.50607,7.38846c-1.19137,2.77739 0.4361,6.24712 -1.97272,8.00304c-0.80925,0.5899 -2.41992,3.74921 -3.3995,4.05593c-0.88973,0.27858 -4.87473,1.25244 -5.72947,1.26341c-2.08082,-0.00922 -2.68151,-5.76142 -4.52229,-6.62029c-1.62042,-0.75605 -3.04525,-1.56705 -4.49893,-2.6052c0,0 -0.2326,-0.16614 -0.20333,-0.42036z" fill="#dec7b6" stroke="none" stroke-width="0.5" stroke-linecap="butt"/><path d="M370.28353,186.05439c0.21626,-0.02416 0.38449,0.14408 0.38449,0.14408l-0.06498,0.0375c0.01026,0.01162 0.01962,0.02332 0.02816,0.03507c0.38245,0.01345 0.76553,0.0903 1.12817,0.21118c1.09047,-0.00825 2.05793,0.38533 3.0275,0.86877c0.576,0.28721 1.4077,0.84559 2.07558,0.88563c0.45365,0.0272 0.70699,-0.69506 0.91315,-0.89906c1.20702,-1.19437 2.79659,-2.14096 3.83152,-3.52085c0.73279,-0.55172 1.04148,-1.29359 1.91687,-1.65647c0.65701,-0.27236 1.13462,-0.4978 1.86838,-0.44596c0.63408,0.0448 1.8362,0.02773 2.38467,0.38084c0.39953,0.25722 0.54656,0.8114 0.76927,1.18479c0.87228,1.46243 0.9442,3.22093 1.70363,4.76084c0.15725,0.91164 0.47253,1.76648 0.53944,2.69994c0.079,1.102 0.00117,2.24212 0.00117,3.34678c0,0.74334 0.11418,1.59595 -0.12453,2.31287c-0.556,1.66986 -1.85576,3.12127 -2.65585,4.69065c-0.93823,0.92672 -1.21876,2.46407 -1.58823,3.69183c-0.19547,0.64955 -0.00236,0.89931 -0.69198,1.48791c-0.46217,0.39447 -1.4493,0.14661 -1.99446,0.18993c-0.4136,0.03287 -0.79622,0.24412 -1.20645,0.30623c-1.53721,0.23276 -3.2834,0.00602 -4.83816,0.00602c-0.56142,0 -1.48391,0.14886 -2.01134,-0.02391c-1.01538,-0.33261 -1.79443,-2.02112 -2.06026,-2.89992c-0.3627,-1.19903 -1.33441,-2.5768 -2.01293,-3.60247c-0.26251,-0.39683 -0.71017,-0.65439 -0.95005,-1.0653c-0.45894,-0.78614 -0.49381,-1.7129 -0.45621,-2.5877c-0.65204,-1.04364 -1.07249,-2.32785 -1.6264,-3.44051c-0.44604,-0.89598 -1.22303,-1.56732 -0.96691,-2.69355c0.36333,-1.5977 1.28756,-2.92074 2.25538,-4.21116c0,0 0.16988,-0.22651 0.42137,-0.19399z" fill="#989898" stroke="none" stroke-width="0.5" stroke-linecap="butt"/><path d="M363.6297,172.8626c0.02279,-0.10729 0.07355,-0.18342 0.07355,-0.18342l0.10866,-0.16075c1.56644,-1.97149 4.62631,-0.88608 6.34303,0.28729c0.10915,0.45781 0.36561,1.42192 0.14015,1.89768c-0.57662,1.2168 -2.24478,1.06404 -3.35407,1.30819c-0.61416,0.13518 -1.29449,0.56466 -1.94835,0.39448c-0.99557,-0.25912 -1.29936,-2.29021 -1.45011,-3.16989c0,0 -0.03556,-0.21336 0.08713,-0.37358z" fill="#ffffff" stroke="none" stroke-width="0.5" stroke-linecap="butt"/><path d="M365.15612,173.69213c0,-1.10298 0.89414,-1.99712 1.99712,-1.99712c1.10298,0 1.99712,0.89414 1.99712,1.99712c0,1.10298 -0.89414,1.99712 -1.99712,1.99712c-1.10298,0 -1.99712,-0.89414 -1.99712,-1.99712z" fill="#3a5375" stroke="#000000" stroke-width="0" stroke-linecap="butt"/><path d="M364.40968,171.66427c0.74008,-0.4904 1.8405,-1.01701 2.76571,-0.95796c0.58064,0.03706 1.05406,0.43522 1.56534,0.66097l0.41973,0.32673c0,0 0.14865,0.12387 0.17455,0.30776c0.65369,0.34644 1.22916,0.80762 1.65272,1.36639c0,0 0.2796,0.3728 -0.0932,0.65239c-0.3728,0.2796 -0.65239,-0.0932 -0.65239,-0.0932c-0.93172,-1.25825 -2.91677,-1.92102 -4.48415,-1.68277c-0.90486,0.13755 -1.55849,0.73433 -2.37537,1.07885l-0.18663,0.18994c0,0 -0.35381,0.30327 -0.65708,-0.05054c-0.30327,-0.35381 0.05054,-0.65708 0.05054,-0.65708l0.4347,-0.34262c0.44063,-0.18094 0.83279,-0.42426 1.23672,-0.64222c0.06387,-0.10002 0.14882,-0.15665 0.14882,-0.15665z" fill="#000000" stroke="none" stroke-width="0.5" stroke-linecap="butt"/><path d="M376.15326,169.99482l0.07315,0.00514c1.67607,-1.04682 2.83927,-2.19564 4.9533,-1.98428c0.75613,0.0756 1.12471,0.10942 1.65365,0.67819c0,0 0.03343,0.039 0.06514,0.10221l0.29402,0.16834c0.18723,0.13532 0.45378,0.2017 0.5617,0.40596c0.66858,1.26533 -1.17983,2.08195 -2.08298,2.35425c-1.01384,0.30567 -2.34057,0.67482 -3.40852,0.47669c-0.84915,-0.15754 -1.59331,-0.73748 -2.38278,-1.06537c0,0 -0.43015,-0.17923 -0.25092,-0.60938c0.04807,-0.11536 0.11418,-0.18689 0.1852,-0.2298c0.07273,-0.23536 0.33904,-0.30194 0.33904,-0.30194z" fill="#ffffff" stroke="none" stroke-width="0.5" stroke-linecap="butt"/><path d="M377.58267,170.1195c0,-1.10298 0.89414,-1.99712 1.99712,-1.99712c1.10298,0 1.99712,0.89414 1.99712,1.99712c0,1.10298 -0.89414,1.99712 -1.99712,1.99712c-1.10298,0 -1.99712,-0.89414 -1.99712,-1.99712z" fill="#3a5375" stroke="#000000" stroke-width="0" stroke-linecap="butt"/><path d="M378.17341,169.45574c0,0 -0.30248,0.35289 -0.6557,0.05172c-0.6214,0.37455 -1.15294,0.82164 -1.50492,1.27731c0,0 -0.28609,0.36784 -0.65393,0.08174c-0.36784,-0.28609 -0.08174,-0.65393 -0.08174,-0.65393c0.66129,-0.84518 1.73937,-1.60728 2.9337,-2.08446c0.84021,-0.66215 1.85143,-0.99191 3.01391,-0.77881l0.32412,0.1437c0,0 0.16351,0.08176 0.2345,0.24527c0.30521,0.07483 0.59742,0.18476 0.87073,0.33373l0.32368,0.25058c0,0 0.36388,0.2911 0.07278,0.65499c-0.2911,0.36388 -0.65499,0.07278 -0.65499,0.07278l-0.19409,-0.16364c-0.96381,-0.54862 -2.29339,-0.41903 -3.50998,0.04727c-0.18484,0.15806 -0.35764,0.33446 -0.51808,0.52174z" fill="#000000" stroke="none" stroke-width="0.5" stroke-linecap="butt"/><path d="M376.34649,179.2702c0.04328,-0.13522 0.15417,-0.30845 0.43829,-0.30845c0.466,0 0.466,0.466 0.466,0.466l-0.28243,0.58365c-0.649,0.27101 -1.05548,0.71491 -1.74632,0.94624c-0.85691,0.28694 -1.73171,0.21926 -2.5889,0.00952c0,0 -0.45208,-0.11302 -0.33906,-0.5651c0.11302,-0.45208 0.5651,-0.33906 0.5651,-0.33906c1.48488,0.38067 2.26732,-0.22194 3.48732,-0.79279z" fill="#000000" stroke="none" stroke-width="0.5" stroke-linecap="butt"/><path d="M373.22949,177.1405c-0.45695,-0.09139 -0.36556,-0.54834 -0.36556,-0.54834l0.05594,-0.27073c0.02071,-0.1864 0.04142,-0.3728 0.06213,-0.55919c0,0 0.05146,-0.46315 0.51461,-0.41169c0.46315,0.05146 0.41169,0.51461 0.41169,0.51461c-0.02071,0.1864 -0.04142,0.3728 -0.06213,0.55919l-0.06833,0.35059c0,0 -0.09139,0.45695 -0.54834,0.36556z" fill="#000000" stroke="none" stroke-width="0.5" stroke-linecap="butt"/><path d="M394.30134,196.50249c0.12451,0.018 0.21676,0.07951 0.21676,0.07951l0.39131,0.33466c0.45027,0.90467 0.86096,1.82312 1.55513,2.56664c0.03803,0.30882 0.17475,0.62127 0.11411,0.92645c-0.105,0.52849 -0.79038,1.25356 -1.05386,1.75048c-0.14196,0.26774 -0.21155,0.58211 -0.40919,0.81184c-0.23766,0.27624 -0.50043,0.67763 -0.86473,0.66885c-0.28285,-0.00682 -0.31174,-0.47249 -0.47827,-0.70122c-0.43268,-0.59427 -1.44731,-1.4021 -1.45437,-2.18038c-0.00235,-0.2597 0.25277,-0.45383 0.37334,-0.68385c0.26518,-0.50591 0.59515,-1.05505 0.82403,-1.56845c0.1837,-0.41208 0.04502,-1.18993 0.04502,-1.61495c0,0 0,-0.466 0.466,-0.466c0.11968,0 0.20862,0.03074 0.27472,0.07642z" fill="#cb9338" stroke="none" stroke-width="0.5" stroke-linecap="butt"/><path d="M381.03654,192.62403c0.64796,0.08725 1.07804,0.29895 1.68572,0.50298l0.03451,0.03215l0.00648,-0.01134l0.53581,0.30617c0.14459,0.07911 0.24265,0.23265 0.24265,0.40909c0,0.19597 -0.12097,0.36368 -0.2923,0.43255l-0.53379,0.22877l-0.0099,-0.02311c-0.0497,0.02376 -0.10099,0.04418 -0.15429,0.06039c-0.29086,0.08842 -1.34517,-0.4198 -1.64005,-0.52225l-0.04719,-0.07198l-0.02122,0.02652l-0.38497,-0.30797c-0.10854,-0.08532 -0.17825,-0.2178 -0.17825,-0.36657c0,-0.18654 0.10961,-0.34748 0.26793,-0.42193c0.12002,-0.31957 0.48886,-0.27346 0.48886,-0.27346z" fill="#293d65" stroke="none" stroke-width="0.5" stroke-linecap="butt"/><path d="M378.5684,194.75496c-0.03388,-0.04553 -0.05447,-0.09346 -0.06589,-0.14068c-0.11698,0.24627 -0.32024,0.46962 -0.43376,0.67162c-0.23512,0.41836 -0.52045,0.81235 -0.7045,1.25554c-0.37547,0.90417 -0.22035,1.73023 -0.65293,2.62109c-0.12297,0.15501 -0.80482,1.02371 -0.86262,1.04395c-1.05339,0.36887 -2.11037,-1.22463 -2.60025,-1.8441c-0.15801,-0.19981 -0.43837,-0.3371 -0.48982,-0.58659c-0.12824,-0.62191 0.39703,-0.99699 0.70341,-1.39811c0.51288,-0.67147 0.98127,-1.35593 1.61398,-1.92982c0.29467,-0.26729 0.7044,-0.39219 0.98449,-0.67471c0.27315,-0.27553 0.44432,-0.64864 0.74383,-0.89526c0,0 0.36388,-0.2911 0.65499,0.07278c0.11674,0.14592 0.12815,0.28015 0.09992,0.38858c0.36986,0.1838 0.8941,0.46065 0.98116,0.6682c0.02547,0.06073 0.04072,0.12035 0.04748,0.17887l0.04461,-0.08842c0.12487,-0.21015 0.18687,-0.47389 0.37461,-0.63044c0.32432,-0.27044 0.68888,-0.61273 1.11114,-0.6085c0.30046,0.00301 0.47401,0.3815 0.64851,0.62612c0.40252,0.56426 0.40843,1.35983 0.872,1.93361c0.25578,0.31659 0.79891,0.35236 0.9935,0.70984c0.30379,0.5581 -0.06746,1.38165 -0.41086,2.05279v0.26408c0,0.25736 -0.20864,0.466 -0.466,0.466c-0.18603,0 -0.3466,-0.10901 -0.42131,-0.26663l-0.20295,-0.4059c-1.07843,-1.06031 -1.8229,-1.86391 -2.51084,-3.23537c0,0 -0.05589,-0.11179 -0.0519,-0.24852z" fill="#252129" stroke="none" stroke-width="0.5" stroke-linecap="butt"/><path d="M379.74918,192.77243l0.14224,0.23633c0,0.58844 0.13401,1.30121 -0.39367,1.75002c-0.75368,0.64103 -2.07353,-0.01309 -2.43948,-0.78337c-0.75595,-1.5912 0.99791,-2.86586 2.35409,-1.79123c0.17712,0.14035 0.2301,0.38739 0.33682,0.58825z" fill="#cb9338" stroke="none" stroke-width="0.5" stroke-linecap="butt"/><text transform="translate(366.43791,216.78372) scale(0.26141,0.26141)" font-size="40" xml:space="preserve" fill="#000000" fill-rule="nonzero" stroke="none" stroke-width="1" stroke-linecap="butt" stroke-linejoin="miter" stroke-miterlimit="10" stroke-dasharray="" stroke-dashoffset="0" font-family="Serif" font-weight="normal" text-anchor="start" style="mix-blend-mode: normal"><tspan x="0" dy="0">Elaina</tspan></text><path d="M414.16667,220.66676h-69" fill="none" stroke="#000000" stroke-width="2" stroke-linecap="round"/><path d="M379.86404,241.16676v-20" fill="none" stroke="#000000" stroke-width="2" stroke-linecap="round"/><text transform="translate(363.70833,235.28344) scale(0.335,0.335)" font-size="40" xml:space="preserve" fill="#000000" fill-rule="nonzero" stroke="none" stroke-width="1" stroke-linecap="butt" stroke-linejoin="miter" stroke-miterlimit="10" stroke-dasharray="" stroke-dashoffset="0" font-family="Serif" font-weight="normal" text-anchor="start" style="mix-blend-mode: normal"><tspan x="0" dy="0">15</tspan></text><text transform="translate(398.95834,235.53344) scale(0.335,0.335)" font-size="40" xml:space="preserve" fill="#000000" fill-rule="nonzero" stroke="none" stroke-width="1" stroke-linecap="butt" stroke-linejoin="miter" stroke-miterlimit="10" stroke-dasharray="" stroke-dashoffset="0" font-family="Serif" font-weight="normal" text-anchor="start" style="mix-blend-mode: normal"><tspan x="0" dy="0">35</tspan></text><path d="M383.45796,236.51931l3.27037,-3.27037l1.76777,1.76777l-3.27037,3.27037z" fill="#ff0000" stroke="#000000" stroke-width="0" stroke-linecap="butt"/><path d="M384.34184,232.27665l1.5026,-1.5026l5.21491,5.21491l-1.5026,1.5026z" fill="#ff0000" stroke="none" stroke-width="0" stroke-linecap="butt"/><path d="M385.49089,233.07215l8.22012,-8.22012l3.35876,-0.17678l-0.35355,3.18198l-8.22012,8.22012z" fill="#ff0000" stroke="none" stroke-width="0" stroke-linecap="butt"/><path d="M349.17335,235.88481c0,0 1.42085,-2.5278 2.13852,-3.65838c0.62016,-0.97697 1.91788,-2.73179 1.91788,-2.73179c0,0 0.07703,-3.52541 0.09996,-4.57511c0.00435,-0.19933 -0.7259,-0.41937 -0.72154,-0.61902c0.0077,-0.35209 0.74906,-0.6408 0.74906,-0.6408l3.60865,-0.00852c0,0 0.74322,0.37251 0.75244,0.79405c0.00396,0.18055 -0.72696,0.37011 -0.72317,0.54324c0.02324,1.06096 0.09887,4.51589 0.09887,4.51589c0,0 1.90235,1.97548 2.65155,3.00119c0.78807,1.07894 1.96618,3.32081 1.96618,3.32081c0,0 0.07654,1.14783 -1.72265,1.41073c-2.62094,0.38297 -7.57276,-0.0721 -8.86113,-0.06609c-1.99069,0.00928 -1.95463,-1.28619 -1.95463,-1.28619z" fill="#00d0ff" stroke="#000000" stroke-width="0" stroke-linecap="butt"/><path d="M382.10485,173.07875c0.80971,-0.14879 1.08567,0.67909 1.08567,0.67909l-0.07566,1.74215c-1.67972,1.42667 -2.8613,1.63643 -4.27367,0.96458l-0.08185,0.20464l-1.08948,-0.43579c-0.37979,-0.14181 -0.65024,-0.50789 -0.65024,-0.93713c0,-0.44044 0.28474,-0.81437 0.68017,-0.94776l1.20031,-0.43648l0.00255,0.00701l0.02118,-0.01531c0.94407,-0.29046 1.89506,-0.56002 2.85325,-0.79984c0,0 0.14042,-0.0351 0.32776,-0.02518z" fill="#de9292" stroke="none" stroke-width="0.5" stroke-linecap="butt"/><path d="M369.2946,178.51539l-0.33054,1.22536c-1.29234,0 -4.27793,0.46941 -3.71566,-2.23583c0.24005,-1.15494 3.4819,-0.98562 4.27121,-0.98639c0,0 1,0 1,1c0,1 -1,1 -1,1c-0.07617,-0.00008 -0.15123,-0.00115 -0.22501,-0.00313z" fill="#de9292" stroke="none" stroke-width="0.5" stroke-linecap="butt"/><path d="M368.6298,179.48272c0.00006,0.00232 0.00006,0.00354 0.00006,0.00354l-0.00109,0.00147c-0.00165,0.00777 -0.00356,0.01556 -0.00574,0.02339c0.21128,1.18986 1.18496,1.29237 2.07019,1.86082c0.71237,0.45745 1.1186,1.19851 1.84745,1.64678c0.28627,0.17606 0.65687,0.15395 0.96896,0.27864c0.76808,0.30689 1.30998,0.88629 2.05603,1.18471c0.47239,0.47239 1.21301,0.60906 1.59131,1.18231c0.39978,0.6058 0.1539,1.4637 -0.06406,2.05942c-0.28543,0.78013 -0.27568,1.52229 -0.63379,2.30882c-0.24198,0.53145 -0.69134,1.05726 -0.79356,1.64418c-0.2648,1.52043 0.10957,3.25068 0.10957,4.79242c0,1.56475 0.35112,3.27939 0.09754,4.83816c-0.07172,0.44086 -0.27011,0.85937 -0.30582,1.3046c-0.06693,0.83437 0.27348,2.13315 -0.38515,2.81957c-0.11889,0.12391 -1.2175,0.09869 -1.42588,0.09869c-0.96651,0 -1.93302,0 -2.89953,0c-0.54939,-0.00187 -1.11413,-0.03798 -1.65687,-0.10355c-0.29411,-0.03553 -0.70406,0.07834 -0.87334,-0.16479c-0.20318,-0.29182 -0.05669,-0.71856 0.01597,-1.06664c0.08248,-0.39515 0.49999,-0.65415 0.6224,-1.0388c0.04954,-0.15567 -0.06007,-0.33508 -0.0083,-0.49002c0.08819,-0.26395 0.32113,-0.46262 0.41422,-0.72488c0.13509,-0.3806 -0.05062,-1.0659 -0.01402,-1.47215c0.09846,-1.09292 0.53041,-2.14267 0.62133,-3.21019c0.06406,-0.75214 -0.00198,-1.54203 0.0019,-2.2967c0.61355,-2.45422 1.05006,-5.33941 0.23909,-7.84199c-0.0674,-0.20798 -0.59715,-0.57193 -0.6833,-0.63838c-0.88875,-0.68549 -1.76101,-1.45975 -2.83041,-1.8196c-1.21016,-0.88979 -2.3662,-1.6381 -2.52566,-3.26638c-0.0907,-0.92613 0.44801,-1.51919 0.76019,-2.30033c0.18024,-0.45099 0.30136,-1.02793 0.72631,-1.26308c1.01048,-0.55916 2.3027,0.53494 2.87088,1.27036c0,0 0.13322,0.17762 0.09314,0.37961z" fill="#c7ad98" stroke="none" stroke-width="0.5" stroke-linecap="butt"/><path d="M355.58664,155.05968c-0.07021,-0.17553 -0.08061,-0.32543 -0.05614,-0.45177c-0.10649,-0.45536 0.31126,-0.76867 0.31126,-0.76867c0.78041,-0.52555 0.49149,-0.83345 0.82891,-1.67805c0.22252,-0.557 0.53341,-1.07449 0.80167,-1.61096c0.54416,-1.08823 1.04556,-1.92128 1.16917,-3.15613c0.09428,-0.94179 -0.05685,-1.80605 0.17445,-2.75133c0.40912,-1.67191 0.75376,-3.20767 0.75376,-4.93874c0.03657,-0.93789 0.39975,-2.15607 1.22267,-2.78047c0.721,-0.54707 2.32798,-0.72539 3.21789,-0.78951c2.43541,-0.17549 4.92057,-0.15798 7.36466,-0.15798c0.83422,0 1.83493,0.16866 2.6491,0.01401c0.27393,-0.05203 0.50278,-0.25836 0.77666,-0.31066c1.10749,-0.21149 2.43088,-0.01401 3.56417,-0.01401c1.84504,0 3.68405,-0.02782 5.51314,0.15911c0.49307,0.05039 2.11306,0.41403 2.22012,0.85848c0.1303,0.54092 -0.50637,1.00013 -0.85579,1.43312c-0.67462,0.83596 -1.64962,0.46185 -1.7553,1.66445c-0.0562,0.63946 0.13417,1.40048 0.58052,1.88862c0.18126,0.19823 0.47807,0.27486 0.64087,0.48851c0.40749,0.53482 0.53091,1.23804 0.85744,1.82579c0.25304,0.45546 0.60155,0.85225 0.86709,1.30053c0.3963,0.39189 1.05536,0.99667 1.29671,1.47676c0.25863,0.51448 0.64391,1.06334 0.56242,1.63338c-0.06958,0.48671 -0.57039,0.81837 -0.95643,1.12284c-0.91108,0.71859 -2.70184,0.72355 -3.78681,1.03038c-2.71583,0.76804 -5.72308,0.43216 -8.52476,0.64743c-1.44237,0.11083 -2.70234,0.63489 -4.11817,0.92069c-0.90321,0.17875 -1.71695,0.54555 -2.60574,0.76884c-1.4859,0.3733 -3.01092,0.67953 -4.4925,1.08421c-0.31656,0.08646 -1.67837,0.5892 -1.93892,0.63732c-1.46968,0.27139 -3.10637,-0.01304 -4.49592,0.57581l-0.77666,0.31066c0,0 -0.72111,0.28845 -1.00955,-0.43267z" fill="#11111d" stroke="none" stroke-width="0.5" stroke-linecap="butt"/><path d="M405.54053,150.95697c0.22932,-0.20711 0.55109,-0.20711 0.55109,-0.20711c2.11259,0 3.9509,0.36848 5.89694,1.20149c0.47751,0.2044 1.75379,0.61285 2.08063,1.08191c0.57517,0.82545 0.35857,2.31742 0.35857,3.25677c0,2.10561 0,4.21122 0,6.31683c-0.0024,1.79182 0.42016,3.49193 0.41422,5.28128c-0.00217,0.65198 0.08224,1.68922 -0.43459,2.20605c-0.732,0.732 -2.34094,0.42438 -3.22381,0.32628c-2.91573,-0.32397 -5.99085,-0.31037 -8.92348,-0.30591c-1.77015,0 -3.47649,-0.09266 -5.2198,-0.42799c-0.62254,-0.11975 -1.61718,-0.24547 -2.13173,-0.70102c-0.98704,-0.87386 -1.22782,-2.59957 -1.57497,-3.7798c-0.81915,-2.78497 -1.9446,-5.36093 -3.08168,-8.005c-0.29872,-0.79928 -0.99422,-2.28847 -0.48181,-3.14118c0.59613,-0.99202 2.28089,-1.32331 3.25282,-1.78567c3.78754,-1.80178 8.12973,-1.31694 12.24024,-1.31694z" fill="#2f2848" stroke="none" stroke-width="0.5" stroke-linecap="butt"/><path d="M382.83368,146.00579c0,0 -0.64531,-0.12906 -0.6291,-0.7436c-0.84073,-0.71822 -1.80771,-1.12912 -2.77743,-1.66758c-1.04,-0.57052 -2.11226,-0.86839 -3.22115,-1.26746c-1.41333,-0.50863 -2.78031,-1.15271 -4.25665,-1.44962c-3.47452,-0.69875 -7.13015,-0.14999 -10.60534,-0.76998c-1.53554,-0.23985 -2.66924,-0.12568 -4.1317,0.35958c-0.20033,0.06647 -1.51452,0.36793 -1.57632,0.71686c-0.02302,0.12996 0.17637,0.19796 0.24703,0.30944c0.13694,0.21604 0.25485,0.44372 0.37387,0.67013c0.43027,0.81853 0.7185,2.08307 1.51703,2.65886c0.32257,0.2326 0.9044,0.18377 1.05852,0.55037c0.10043,0.23888 -0.39159,2.16533 -0.38888,2.66739c0,0 0,0.77666 -0.77666,0.77666c-0.15301,0 -0.27588,-0.03015 -0.37454,-0.07856c-0.39692,0.0948 -0.7183,-0.22659 -0.7183,-0.22659c-1.0759,-1.0759 -2.65281,-2.16771 -3.39245,-3.51296c-0.86237,-1.56847 -0.78304,-3.95985 -0.47261,-5.64182c0.15755,-0.85363 0.59036,-2.37485 1.39093,-2.86581c0.33067,-0.20279 0.77191,-0.08142 1.15932,-0.10081c0.9509,-0.04761 1.92188,0 2.87364,0c3.71275,0 7.43449,-0.06515 11.14142,0.07846c1.77122,0.06862 3.71119,-0.16737 5.42048,0.42957c0.79675,0.27825 1.54476,0.7729 2.33399,1.08871c0.50689,0.15152 1.01369,0.3033 1.52043,0.45532l0.43482,0.20457c0,0 0.11454,0.05727 0.22735,0.17182c1.39821,0.25395 2.66406,0.64759 3.9644,1.30274c1.00559,0.50665 1.8006,1.2968 2.72889,1.91524c0.72329,0.48187 1.47539,0.95025 2.11406,1.55069c0.89913,0.8453 1.65578,1.99118 2.41492,2.96629l0.30407,0.37998c0,0 0.1431,0.17888 0.17672,0.42006c0.73185,0.05583 1.40624,0.24189 1.83049,0.73018c0.27782,0.31976 0.27448,0.80148 0.41172,1.20222c-0.0918,0.45757 0.03125,1.02092 -0.27541,1.37272c-0.29321,0.33638 -0.83677,0.32493 -1.27548,0.40651c-0.89301,0.16607 -1.92511,-0.03892 -2.83382,0.00282c-1.14018,0.05237 -2.20901,0.33385 -3.34313,0.38849c-3.52855,0.17001 -6.91715,0.68716 -10.36778,1.3837l0.03969,0.01076c0,0 -0.41875,0.20937 -0.76857,-0.02212c-0.00758,0.00222 -0.01172,0.00326 -0.01172,0.00326l-0.54428,0.13176c-2.2407,0.81302 -4.53183,1.43652 -6.74539,2.32568c-1.38529,0.48647 -2.85492,0.28641 -4.25083,0.71822c-1.99709,0.61777 -4.04543,1.37275 -6.01432,2.08268c-1.21044,0.43645 -2.20147,1.79247 -3.46982,0.32623c-0.34537,-0.39926 -0.13353,-2.29025 -0.13353,-2.84306c0,0 0,-0.4512 0.3439,-0.66579c0.18936,-0.27971 0.54766,-0.33484 0.54766,-0.33484c0.78068,-0.11539 1.50496,-0.47689 2.26582,-0.68634c0.3069,-0.08448 0.64179,-0.00822 0.95142,-0.08209c1.93028,-0.46053 3.52879,-1.60365 5.28165,-2.43458c0.57987,-0.27488 1.23635,-0.34839 1.84024,-0.56546c2.01829,-0.72548 4.07763,-1.1453 6.22409,-1.36034c1.75376,-0.26995 3.45394,-0.75224 5.16523,-1.21883l0.76726,-0.23024c0,0 0.58066,-0.1742 0.86987,0.29822c2.08355,0.11061 4.16784,-0.33965 6.21006,-0.7078c0.66148,-0.11925 1.33593,-0.16624 2.01335,-0.18132c-0.77644,-0.70712 -1.59282,-1.16102 -2.80915,-1.39859z" fill="#b7dcdd" stroke="none" stroke-width="0.5" stroke-linecap="butt"/><path d="M408.55342,182.46489c1.12415,1.45478 2.7356,2.11558 3.90367,3.59169c0.36893,0.27165 1.37296,0.98811 1.52732,1.25198c0.31124,0.53205 0.2612,1.48711 0.26212,2.10168c0.00174,1.1668 -0.23128,2.59259 -0.01401,3.73642c0.05203,0.27393 0.25836,0.50278 0.31066,0.77666c0.3273,1.71394 0.01401,3.84762 0.01401,5.58349c0,1.24653 0.23793,2.76964 -0.33687,3.92841l-0.3037,1.21482c-0.07849,0.34586 -0.3878,0.60405 -0.75741,0.60405c-0.42894,0 -0.77666,-0.34772 -0.77666,-0.77666v-0.73899c-0.31479,-0.4329 -0.41266,-0.99642 -0.58326,-1.50614c-0.24337,-0.72715 -0.59272,-1.44038 -0.65744,-2.20444c-0.16098,-1.90053 0.32931,-3.97432 0.00555,-5.84994c-0.3858,-2.23505 -0.59095,-4.97586 -1.7555,-7.00001c-0.25782,-0.44813 -0.99208,-0.97561 -1.52695,-1.40235c-0.03345,0.01155 -0.06629,0.02351 -0.09835,0.03603c-0.54243,0.21173 -0.82516,0.18971 -1.27959,0.15685c-0.06052,0.37588 -0.4364,0.56383 -0.4364,0.56383l-0.94644,0.18178c-0.51068,-0.20591 -0.95357,-0.56427 -1.47219,-0.74929c-0.77999,-0.27827 -1.69519,0.65973 -2.43333,0.64951c-1.31698,-0.01824 -2.15076,-1.56807 -3.32703,-1.59317c-0.4037,0.35619 -0.7451,0.78186 -1.16562,1.11802c-0.3973,0.31759 -0.81236,0.30688 -1.0116,0.79216c-0.49358,1.20214 0.39739,1.81279 -1.10302,2.68882c-0.68306,0.39881 -1.54251,0.37474 -2.27646,0.66958c-2.50778,1.00743 -5.03787,1.42973 -7.31819,2.88141c-0.0506,0.03221 -1.66492,0.80498 -1.74732,0.94383c-0.12537,0.21126 0.07396,0.48658 0.08608,0.73194c0.02777,0.56225 0.10161,1.13229 0.28465,1.66464c0.11587,0.60213 0.46543,1.13792 0.62657,1.72956c0.0708,0.25995 -0.04348,0.54353 0.00676,0.80823c0.11725,0.61766 0.51493,1.14781 0.73997,1.73485c0.18128,0.47286 0.70659,2.11633 0.67145,2.48046c-0.05307,0.55001 -0.2221,1.16238 -0.63263,1.53224c-0.30695,0.27655 -0.81835,0.122 -1.23078,0.1466c-0.59315,0.03538 -2.00766,0.07157 -2.46461,-0.4396c-0.27246,-0.30478 -0.11616,-0.80932 -0.17408,-1.214c-0.20066,-1.40183 -0.43215,-3.30048 0.04588,-4.67269c0.09762,-0.28022 0.37035,-0.47909 0.46067,-0.76174c0.33062,-1.03455 0.20557,-1.769 -0.38813,-2.59323c-0.18606,-0.32822 -0.46093,-0.62012 -0.55819,-0.98466c-0.23253,-0.87162 0.06575,-1.31521 0.1298,-2.13536c0.08078,-1.03444 -0.00265,-2.165 -0.00265,-3.19791c0,-0.78439 -0.17863,-1.59446 0.02078,-2.35309c0.21477,-0.81705 0.63074,-1.56838 0.9884,-2.33374c0.10856,-0.23231 0.3537,-0.39795 0.41699,-0.64644c0.17466,-0.68572 -0.02818,-1.41505 -0.02818,-2.12266c0,-1.26204 0.11512,-2.49069 0.14715,-3.74115l-0.13207,-0.3005c-0.30924,-1.54722 -0.59222,-3.38027 -0.31173,-4.95914c0.18038,-1.01534 0.94931,-2.27182 0.92644,-3.31145c-0.00404,-0.18382 -0.21677,-0.29716 -0.33099,-0.44124c-0.43495,-0.54862 -1.0169,-0.98287 -1.62327,-1.33286c-0.45461,-0.26239 -0.80711,-0.71176 -1.30272,-0.88464c-0.31713,-0.11063 -0.67665,-0.03354 -0.99981,-0.12506c-0.85654,-0.24258 -1.58663,-0.5051 -2.43815,-0.69869c-0.31098,0.57984 -0.84775,1.03665 -1.19611,1.60184c-0.55432,0.89937 -0.85926,1.85521 -1.38125,2.76757c-0.14919,0.26076 -0.30647,0.55245 -0.47723,0.8457c0.19668,0.24921 0.43381,0.47756 0.55579,0.76731c0.01011,0.02401 0.01994,0.04812 0.02951,0.07231l0.01609,-0.01073l0.61544,0.92316c0.08599,0.12501 0.13633,0.27645 0.13633,0.43965c0,0.42894 -0.34772,0.77666 -0.77666,0.77666c-0.21447,0 -0.40863,-0.08693 -0.54918,-0.22748l-0.52438,-0.52438c-0.58492,-0.19231 -0.84947,-0.22683 -1.12825,-0.44404c-0.46,0.19593 -0.99707,0.18603 -1.63719,-0.17121c-0.63611,-0.355 -0.88191,-1.16015 -1.29964,-1.75694c-0.37245,-0.5321 -0.70331,-1.08675 -1.02611,-1.64466c-0.05246,0.01299 -0.10446,0.02795 -0.15602,0.04471c-0.19887,0.52264 -0.8255,0.92379 -1.15587,1.3331c-0.41056,0.50867 -0.59524,1.17058 -0.98251,1.69718l-0.45052,1.05122c-0.11477,0.28556 -0.3943,0.48717 -0.72091,0.48717c-0.27148,0 -0.51042,-0.13929 -0.64927,-0.3503c-0.02213,0.15401 -0.04284,0.30756 -0.00024,0.45364c0.08452,0.28984 0.38753,0.48512 0.466,0.77666c0.17032,0.63281 0.0455,1.33548 0.28601,1.94507c0.32609,0.82649 1.05902,1.59037 1.35122,2.38636c0.17915,0.48801 0.578,1.0778 0.3165,1.52709c-0.24545,0.42171 -0.84745,0.51371 -1.36054,0.54873c0.06138,0.19535 0.04379,0.39991 0.2387,0.67312c0.1701,0.23844 0.51024,0.35031 0.62133,0.62133c0.21085,0.51441 0.2036,1.09308 0.3054,1.63962c-0.24198,0.04519 -0.48395,0.09038 -0.72593,0.13557c0.10539,0.18384 0.17433,0.40223 0.28279,0.58274c0.52335,0.87108 0.75684,1.75817 1.35894,2.58181c0.21587,0.2953 0.50413,0.54137 0.67663,0.86393c0.88866,1.6617 0.40215,3.43562 0.40509,5.18644c0.00505,3.00806 0.15533,5.99734 0.15533,9.00925c0,0.52208 0.22501,2.54836 -0.08199,2.98797c-0.97186,1.39166 -1.74116,1.0006 -2.7164,-0.03992c-0.36132,-0.38551 -0.73311,-2.25279 -0.81156,-2.53701c-0.69614,-2.5221 -0.74827,-5.12948 -1.19164,-7.71549c-0.17203,-1.00341 -0.41714,-2.32231 -0.87462,-3.24426c-0.43055,-0.86766 -1.01687,-1.67523 -1.28637,-2.60559c-0.04166,-0.14383 -0.1221,-0.66236 -0.19427,-1.15923c-0.05041,0.24885 -0.11573,0.46509 -0.20027,0.62456c-0.24689,0.46571 -0.60696,1.16138 -1.13106,1.10512c-2.04819,-0.21984 -1.64572,-1.43116 -1.76106,-2.57463c-0.1136,-1.12624 -0.4169,-2.24519 -0.31069,-3.38971c0.08896,-0.95876 0.87249,-2.31372 0.4967,-3.28389c-0.11006,-0.28414 -0.35619,-0.49449 -0.53428,-0.74174c-0.12184,-0.20295 -0.98035,-1.61773 -1.02418,-1.76132c-0.08836,-0.2894 0.00771,-0.60656 -0.0244,-0.90745c-0.16824,-1.5764 -0.15911,-3.14288 -0.15911,-4.73648c0,-1.1928 -0.10543,-2.66844 0.61259,-3.71609c0.41041,-0.59881 1.5453,-0.9788 2.08573,-1.29387c1.0075,-0.58738 1.66137,-0.96623 2.89362,-0.89265c0.41242,0.02463 0.91668,-0.12181 1.23078,0.1466c0.24521,0.20953 0.39702,0.45968 0.49053,0.73028c0.21707,-0.10457 0.45751,-0.17533 0.66635,-0.29489c0.12379,-0.07087 0.26484,-0.17259 0.41289,-0.29142l0.55627,-0.97347c0.08697,-0.15896 0.22791,-0.28417 0.39818,-0.351l-0.07169,-0.14234c0.31229,-0.51703 0.44876,-1.13914 0.81889,-1.61648c1.19074,-1.53566 3.20661,-2.42835 4.97416,-3.01389c0.6128,-0.203 1.86937,-0.70949 2.84801,-0.67276c0.14196,-0.04457 0.25752,-0.04457 0.25752,-0.04457c1.21152,0.01006 1.55957,0.17903 2.63738,-0.4339c0.74634,-0.42443 1.33413,-1.08225 2.02728,-1.58891c0.79675,-0.58239 1.68985,-1.02136 2.50976,-1.57065c0.42296,-0.28336 1.13241,-1.03865 1.62971,-1.28845c1.88462,-0.94666 4.23933,-1.22486 6.10851,-0.26684c0.1109,-0.07898 0.26128,-0.13253 0.46522,-0.13253c0.77666,0 0.77666,0.77666 0.77666,0.77666c-0.00123,0.32985 -0.06828,1.19318 0.10602,1.59164c0.30507,0.69742 0.81121,1.29936 1.08381,2.0101c0.33705,0.87879 0.22216,2.0994 0.60668,2.91621c0.14994,0.3185 0.51572,0.50881 0.64503,0.83623c0.10476,0.26527 -0.06049,0.58259 0.023,0.8553c0.2969,0.9697 0.91648,2.1751 1.34667,3.11363c0.90345,1.97101 2.49201,3.48614 3.11574,5.60235c0.55644,-0.07522 0.7841,0.49392 0.7841,0.49392c0.48364,1.24183 1.383,2.16934 2.39507,2.99387c0.03051,0.01713 0.05993,0.03419 0.08811,0.05121c1.4713,0.8885 2.88248,2.03593 4.13918,3.18057c0.76982,0.70118 1.60038,1.14781 2.2716,1.96474c0.25454,0.30979 0.57203,0.64712 0.88169,1.00382z" fill="#386880" stroke="none" stroke-width="0.5" stroke-linecap="butt"/><path d="M380.30653,150.78917c1.14471,0.0014 2.32928,-0.02952 3.4726,-0.10205c0.82427,-0.05229 1.93094,-0.33767 2.74068,-0.10506h0.93199c0.23481,0 0.44528,0.1042 0.58769,0.26888c4.14906,-0.13897 8.29588,-0.57702 12.46018,-0.57955c1.33547,0.00119 2.6361,-0.53704 3.93508,-0.41422c1.08709,0.10278 2.53043,0.057 1.45849,2.05922c-0.47739,0.89169 -2.34659,0.64458 -3.14239,0.73298c-0.88105,0.09786 -1.75722,0.34836 -2.62634,0.50835c-0.66499,0.12241 -1.35254,0.04533 -2.0254,0.11212c-1.14232,0.11339 -2.42509,0.37549 -3.54672,0.60879c-0.89638,0.18645 -1.77172,0.59811 -2.66649,0.82243c-2.13191,0.53298 -4.18317,1.27014 -6.29788,1.85899c-2.35696,0.65631 -4.36131,1.23515 -6.38338,2.67949l-0.59115,0.42225c-0.1053,0.10997 -0.23684,0.16959 -0.34852,0.20192c-0.06521,0.02296 -0.14175,0.04215 -0.22454,0.04799c-0.44168,0.16728 -0.8809,0.34138 -1.31539,0.52646c-0.59234,0.35447 -1.2421,0.60332 -1.85238,0.92593c-1.08058,0.57125 -2.01788,1.42695 -3.12794,1.97847c-1.11744,0.55518 -2.4079,0.79402 -3.51475,1.34316c-0.59034,0.29288 -1.05238,0.80046 -1.62696,1.12317c-0.90507,0.50834 -1.89309,0.76691 -2.80941,1.25001c-0.47721,0.2516 -0.83066,0.6913 -1.27727,0.99391c-0.94436,0.63988 -2.31805,0.97936 -3.3696,1.42904c-0.61726,0.20552 -1.26613,0.30867 -1.88014,0.52371c-3.07035,1.07533 -5.43212,3.43948 -8.6864,4.16845c-1.28555,0.28797 -2.45022,1.34413 -3.46927,-0.02823c-0.26928,-0.36263 0.09174,-1.31271 0.04376,-1.76184c-0.09817,-0.91913 0.61067,-1.76994 0.60954,-2.69607c0,-1.76042 -0.57414,-3.09229 -0.57143,-4.85271c0.00112,-0.72551 -0.35398,-2.35233 0.02445,-2.9898c0.79033,-1.33134 0.66982,-0.81795 1.82446,-1.18339c0.84957,-0.26889 1.5315,-0.78186 2.39153,-1.03852c1.28353,-0.38305 2.63958,-0.60415 3.96689,-0.75228c0,0 0.22612,-0.02512 0.44719,0.07421c0.69497,-0.20927 1.39176,-0.34122 2.09276,-0.55928c1.01255,-0.31498 1.97007,-0.84839 2.94411,-1.22098c0.64963,-0.24849 1.37635,-0.23084 2.03969,-0.44001c0.28554,-0.09004 0.51711,-0.31174 0.80145,-0.4055c0.98474,-0.32474 2.1103,-0.24285 3.07863,-0.61111c1.54138,-0.5862 3.10589,-1.17768 4.66732,-1.76323c1.94779,-0.72742 3.8775,-1.19458 5.88597,-1.68378c1.2375,-0.30141 2.2696,-1.064 3.53817,-1.35026l0.39781,-0.17005c0,0 0.38968,-0.15587 0.7107,0.048z" fill="#11111d" stroke="none" stroke-width="0.5" stroke-linecap="butt"/><path d="M383.10295,192.44444c-1,0 -1,-1 -1,-1l0.00341,-1.08248c0.17607,-1.07655 0.36071,-2.15169 0.54561,-3.22676c1.45998,-2.96529 2.85939,-6.09058 4.40175,-8.99428c1.34308,-2.52851 2.5732,-4.15552 2.06142,-7.2075c-0.59002,-3.51857 -3.43546,-6.47112 -4.31566,-9.91311c0,0 -0.24254,-0.97014 0.72761,-1.21268c0.97014,-0.24254 1.21268,0.72761 1.21268,0.72761c0.85757,3.52718 3.72597,6.46029 4.351,10.08689c0.59288,3.44009 -0.73795,5.59603 -2.27192,8.45917c-1.5009,2.80141 -2.8103,5.81981 -4.26491,8.67238c-0.14845,0.9249 -0.29711,1.8498 -0.45439,2.77324l0.00341,0.91752c0,0 0,1 -1,1z" fill="#213e4c" stroke="none" stroke-width="0.5" stroke-linecap="butt"/><path d="M386.76961,189.94444c-1,0 -1,-1 -1,-1v-0.16667c0.00131,-0.83511 -0.06289,-2.25917 0.29402,-2.98836c0.54315,-1.10968 1.18666,-0.55036 1.62554,-1.58453c0.89952,-2.11966 2.24352,-4.52339 2.96509,-6.74334c0,0 0.31623,-0.94868 1.26491,-0.63246c0.94868,0.31623 0.63246,1.26491 0.63246,1.26491c-0.75423,2.21841 -2.02595,4.85316 -3.03491,6.92333c-0.35697,0.73243 -1.33148,1.02612 -1.7078,1.7488c-0.30976,0.59486 -0.04048,1.34097 -0.03931,2.01164v0.16667c0,0 0,1 -1,1z" fill="#213e4c" stroke="none" stroke-width="0.5" stroke-linecap="butt"/><path d="M409.36961,186.91111c-0.8,0.6 -1.4,-0.2 -1.4,-0.2l-0.59443,-0.81945c-2.2506,-4.52186 -9.25248,-2.47148 -11.83333,-7.33333c0,0 -0.44721,-0.89443 0.44721,-1.34164c0.89443,-0.44721 1.34164,0.44721 1.34164,0.44721c1.46463,3.23809 6.35011,2.95224 9.13998,4.18395c1.46964,0.64884 2.01975,1.80767 2.69336,3.14938l0.40557,0.51388c0,0 0.6,0.8 -0.2,1.4z" fill="#213e4c" stroke="none" stroke-width="0.5" stroke-linecap="butt"/><path d="M359.60295,180.27778l0.01361,-0.49773c0.01524,-0.07898 0.031,-0.15895 0.04728,-0.23983c-0.9741,-2.00546 -1.84632,-4.22723 -1.89422,-6.26243c0,0 0,-1 1,-1c1,0 1,1 1,1c-0.03698,1.0046 0.25051,2.08799 0.67599,3.16723c0.50546,-1.64981 1.17205,-3.312 1.99196,-4.55526c0,0 0.5547,-0.83205 1.38675,-0.27735c0.83205,0.5547 0.27735,1.38675 0.27735,1.38675c-1.02746,1.52123 -1.96085,4.2064 -2.35987,6.18939c0.33169,0.63847 0.65389,1.24651 0.91946,1.80315c0.99523,2.08611 0.0977,4.51584 0.73656,6.67804l0.20386,0.22002c0,0 0.5547,0.83205 -0.27735,1.38675c-0.83205,0.5547 -1.38675,-0.27735 -1.38675,-0.27735l-0.46281,-0.77998c-0.53424,-1.92174 0.32429,-4.59017 -0.59678,-6.32196c-0.1074,-0.20194 -0.21742,-0.40895 -0.32897,-0.62042c-0.94607,-0.03529 -0.94607,-0.99901 -0.94607,-0.99901z" fill="#213e4c" stroke="none" stroke-width="0.5" stroke-linecap="butt"/><path d="M374.11908,161.93222c0,0 0.17889,-0.98387 1.16276,-0.80498c0.98387,0.17889 0.80498,1.16276 0.80498,1.16276c-0.4787,2.55989 -1.55694,6.08965 -3.21565,8.12797l-0.39445,0.40026c0,0 -0.04067,0.04067 -0.11226,0.09275c0.11995,0.28191 0.19745,0.74693 -0.30348,1.14768c-0.78087,0.6247 -1.40556,-0.15617 -1.40556,-0.15617l-0.82943,-1.12702c-0.06678,-1.77432 -0.16274,-3.38566 0.31544,-5.10573c0,0 0.27472,-0.96152 1.23625,-0.6868c0.96152,0.27472 0.6868,1.23625 0.6868,1.23625c-0.23518,0.79597 -0.28036,1.56681 -0.30036,2.35293c1.21769,-1.79786 2.01014,-4.67831 2.35497,-6.63987z" fill="#213e4c" stroke="none" stroke-width="0.5" stroke-linecap="butt"/><path d="M387.55016,171.6722c-0.89443,0.44721 -1.34164,-0.44721 -1.34164,-0.44721l-0.16667,-0.33333c-1.76817,-3.65882 -5.88745,-5.86574 -8.38644,-8.98919c0,0 -0.6247,-0.78087 0.15617,-1.40556c0.78087,-0.6247 1.40556,0.15617 1.40556,0.15617c2.63943,3.2996 6.64679,5.50798 8.61356,9.34415l0.16667,0.33333c0,0 0.44721,0.89443 -0.44721,1.34164z" fill="#213e4c" stroke="none" stroke-width="0.5" stroke-linecap="butt"/><path d="M394.10295,175.77778c-1,0 -1,-1 -1,-1l0.05132,-0.48289c0.84113,-2.2937 -1.05559,-3.83781 -1.68141,-5.9158c-0.60364,-2.00436 -0.56932,-4.25672 -2.34342,-5.66642c0,0 -0.76822,-0.64018 -0.12804,-1.40841c0.64018,-0.76822 1.40841,-0.12804 1.40841,-0.12804c2.13122,1.83641 2.27559,4.1703 2.98991,6.66691c0.76489,2.67335 2.59102,4.07319 1.65192,7.0842l0.05132,-0.14956c0,0 0,1 -1,1z" fill="#213e4c" stroke="none" stroke-width="0.5" stroke-linecap="butt"/><path d="M364.55016,201.33887c-0.89443,0.44721 -1.34164,-0.44721 -1.34164,-0.44721l-0.43891,-1.11388c0,-3.55933 1,-6.98452 1,-10.66667c0,0 0,-1 1,-1c1,0 1,1 1,1c0,3.67087 -1,7.13441 -1,10.66667l0.22776,0.21945c0,0 0.44721,0.89443 -0.44721,1.34164z" fill="#213e4c" stroke="none" stroke-width="0.5" stroke-linecap="butt"/><path d="M389.60295,189.11111c0,-1 1,-1 1,-1l0.38612,0.10557c1.62157,-0.58433 1.11388,-3.64866 1.11388,-5.10557c0,0 0,-1 1,-1c1,0 1,1 1,1c0,2.65259 0.34205,5.43034 -2.21945,6.89443l-1.28055,0.10557c0,0 -1,0 -1,-1z" fill="#213e4c" stroke="none" stroke-width="0.5" stroke-linecap="butt"/><path d="M382.43628,204.77778c-1,0 -1,-1 -1,-1v-0.16667c0,-2.89707 -0.16667,-5.76652 -0.16667,-8.66667c0,0 0,-1 1,-1c1,0 1,1 1,1c0,2.90015 0.16667,5.76911 0.16667,8.66667v0.16667c0,0 0,1 -1,1z" fill="#213e4c" stroke="none" stroke-width="0.5" stroke-linecap="butt"/><path d="M413.10295,194.44444c-1,0 -1,-1 -1,-1l0.08085,-0.27275c-0.49268,-1.16618 -0.69535,-2.24426 -1.04238,-3.45253c0,0 -0.27472,-0.96152 0.6868,-1.23625c0.96152,-0.27472 1.23625,0.6868 1.23625,0.6868c0.32024,1.12621 0.4899,2.14134 0.95762,3.21414l0.08085,1.06059c0,0 0,1 -1,1z" fill="#213e4c" stroke="none" stroke-width="0.5" stroke-linecap="butt"/><path d="M344.90695,205.73333v-28.46667h70.2v28.46667z" fill="url(#color-1)" stroke="#000000" stroke-width="0" stroke-linecap="butt"/><g fill="none" stroke="#000000" stroke-width="2"><path d="M345,241.70574v-106.16129h70v106.16129z" stroke-linecap="butt"/><path d="M413.66666,206.08278h-68.33333" stroke-linecap="round"/></g></g></g></svg>