<svg version="1.1" xmlns="http://www.w3.org/2000/svg" xmlns:xlink="http://www.w3.org/1999/xlink" width="60.16666" height="62.16667" viewBox="0,0,60.16666,62.16667"><defs><radialGradient cx="353.66473" cy="153.02779" r="28.33334" gradientUnits="userSpaceOnUse" id="color-1"><stop offset="0" stop-color="#395b31"/><stop offset="1" stop-color="#506f47"/></radialGradient><radialGradient cx="385.95106" cy="178.29933" r="13.80877" gradientUnits="userSpaceOnUse" id="color-2"><stop offset="0" stop-color="#395b31"/><stop offset="1" stop-color="#506f47"/></radialGradient><radialGradient cx="380.8082" cy="178.86906" r="11" gradientUnits="userSpaceOnUse" id="color-3"><stop offset="0" stop-color="#395b31"/><stop offset="1" stop-color="#506f47"/></radialGradient><radialGradient cx="370.6086" cy="180.66668" r="17.66667" gradientUnits="userSpaceOnUse" id="color-4"><stop offset="0" stop-color="#395b31"/><stop offset="1" stop-color="#506f47"/></radialGradient><radialGradient cx="386.09391" cy="178.72452" r="13.80878" gradientUnits="userSpaceOnUse" id="color-5"><stop offset="0" stop-color="#395b31"/><stop offset="1" stop-color="#506f47"/></radialGradient><radialGradient cx="374.83598" cy="181.37502" r="2.79167" gradientUnits="userSpaceOnUse" id="color-6"><stop offset="0" stop-color="#395b31"/><stop offset="1" stop-color="#506f47"/></radialGradient><radialGradient cx="374.91931" cy="187.87502" r="2.79166" gradientUnits="userSpaceOnUse" id="color-7"><stop offset="0" stop-color="#395b31"/><stop offset="1" stop-color="#506f47"/></radialGradient><radialGradient cx="374.91931" cy="194.37502" r="2.79167" gradientUnits="userSpaceOnUse" id="color-8"><stop offset="0" stop-color="#395b31"/><stop offset="1" stop-color="#506f47"/></radialGradient><radialGradient cx="373.05027" cy="169.08334" r="3.33333" gradientUnits="userSpaceOnUse" id="color-9"><stop offset="0" stop-color="#395b31"/><stop offset="1" stop-color="#506f47"/></radialGradient></defs><g transform="translate(-349.91667,-148.91667)"><g data-paper-data="{&quot;isPaintingLayer&quot;:true}" fill-rule="nonzero" stroke-linecap="butt" stroke-linejoin="miter" stroke-miterlimit="10" stroke-dasharray="" stroke-dashoffset="0" style="mix-blend-mode: normal"><path d="M352.66667,208.33334v-56.66667h54.66666v56.66667z" fill="#3b3b3b" stroke="url(#color-1)" stroke-width="5.5"/><path d="M379.66535,160.72621l12.57142,6.43195v22.28234l-12.57142,-10.00338z" data-paper-data="{&quot;index&quot;:null}" fill="#481717" stroke="url(#color-2)" stroke-width="0"/><path d="M369.8082,163.01191l10.29254,0.07395l11.70746,5.0689v21.42857l-11.91837,8.7775l-10.08163,-0.06322z" fill="#9c7d6e" stroke="url(#color-3)" stroke-width="0"/><path d="M369.7336,163.02779h1.75v35.27777h-1.75z" fill="#6c615b" stroke="url(#color-4)" stroke-width="0"/><path d="M379.8082,177.58673l12.57142,-10.00338v22.28234l-12.57142,11.00337z" fill="#481717" stroke="url(#color-5)" stroke-width="0"/><path d="M373.08598,178.58334h3.5v5.58333h-3.5z" fill="#453831" stroke="url(#color-6)" stroke-width="0"/><path d="M373.16931,185.08334h3.5v5.58334h-3.5z" fill="#453831" stroke="url(#color-7)" stroke-width="0"/><path d="M373.16931,191.58334h3.5v5.58334h-3.5z" fill="#453831" stroke="url(#color-8)" stroke-width="0"/><path d="M369.71694,167.00001h6.66667v4.16667h-6.66667z" fill="#453831" stroke="url(#color-9)" stroke-width="0"/><path d="M393.62514,152.02928c0,0 2.5278,1.42085 3.65838,2.13852c0.97697,0.62016 2.73179,1.91788 2.73179,1.91788c0,0 3.52541,0.07703 4.57511,0.09996c0.19933,0.00435 0.41937,-0.7259 0.61902,-0.72154c0.35209,0.0077 0.6408,0.74906 0.6408,0.74906l0.00852,3.60865c0,0 -0.37251,0.74322 -0.79405,0.75244c-0.18055,0.00396 -0.37011,-0.72696 -0.54324,-0.72317c-1.06096,0.02324 -4.51589,0.09887 -4.51589,0.09887c0,0 -1.97548,1.90235 -3.00119,2.65155c-1.07894,0.78807 -3.32081,1.96618 -3.32081,1.96618c0,0 -1.14783,0.07654 -1.41073,-1.72265c-0.38297,-2.62094 0.0721,-7.57276 0.06609,-8.86113c-0.00928,-1.99069 1.28619,-1.95463 1.28619,-1.95463z" fill="#00d0ff" stroke="#000000" stroke-width="0"/><text transform="translate(395.77542,164.6642) rotate(90) scale(0.21261,0.21261)" font-size="40" xml:space="preserve" fill="#ffffff" fill-rule="nonzero" stroke="none" stroke-width="1" stroke-linecap="butt" stroke-linejoin="miter" stroke-miterlimit="10" stroke-dasharray="" stroke-dashoffset="0" font-family="Pixel" font-weight="normal" text-anchor="start" style="mix-blend-mode: normal"><tspan x="0" dy="0">100</tspan></text><g fill="#ffffff"><path d="M357.63799,188.44175h12.13605v2.22209h-12.13605z" stroke="none" stroke-width="0"/><path d="M369.60311,185.8778h1.7093v18.35h-1.7093z" stroke="none" stroke-width="5.5"/><path d="M356.78334,185.8778h1.7093v18.35h-1.7093z" stroke="none" stroke-width="5.5"/><path d="M357.45943,196.44429l12.9,-4.8l0,2l-12.9,4.8z" stroke="#395b31" stroke-width="0"/><path d="M357.45944,196.64429l12.9,4.8v2l-12.9,-4.8z" data-paper-data="{&quot;index&quot;:null}" stroke="#395b31" stroke-width="0"/></g></g></g></svg>