<svg version="1.1" xmlns="http://www.w3.org/2000/svg" xmlns:xlink="http://www.w3.org/1999/xlink" width="72" height="108.16129" viewBox="0,0,72,108.16129"><defs><linearGradient x1="380.00695" y1="177.26667" x2="380.00695" y2="205.73333" gradientUnits="userSpaceOnUse" id="color-1"><stop offset="0" stop-color="#ffc300" stop-opacity="0"/><stop offset="1" stop-color="#ffc300"/></linearGradient></defs><g transform="translate(-344,-134.54441)"><g data-paper-data="{&quot;isPaintingLayer&quot;:true}" fill-rule="nonzero" stroke-linejoin="miter" stroke-miterlimit="10" stroke-dasharray="" stroke-dashoffset="0" style="mix-blend-mode: normal"><path d="M344.91667,242.04171v-106h70.25v106z" fill="#006eff" stroke="none" stroke-width="0" stroke-linecap="butt"/><path d="M344.72402,206.16667v-70.5h69.75v70.5z" fill="#3e6f00" stroke="#000000" stroke-width="0" stroke-linecap="butt"/><path d="M389.78312,177.06791l7.91995,-21.03288l6.73197,21.54587l-16.6319,-13.33792h22.57187z" fill="#ffc300" stroke="#000000" stroke-width="0" stroke-linecap="round"/><path d="M351.65086,169.5c0,-15.44096 10.77123,-28.20833 21.2827,-28.20833c5.64436,0 19.21486,4.10925 22.70031,9.84234c-1.70746,-1.09292 -14.34254,-1.94906 -16.32398,-1.94906c-7.71345,0 -16.21644,8.68541 -16.21644,20.01619c0,11.33078 8.50299,21.01619 16.21644,21.01619c1.82413,0 3.56659,-0.51371 5.16398,-1.44801c-3.46714,5.35261 -8.36348,8.68902 -13.79031,8.68902c-10.51147,0 -19.0327,-12.51737 -19.0327,-27.95833z" fill="#ffc300" stroke="#000000" stroke-width="0" stroke-linecap="butt"/><g stroke-width="0" stroke-linecap="butt"><path d="M345.91353,203.5524l1.23165,-14.11353c0,0 4.19679,-1.64402 6.79773,-4.61962c3.47354,-3.97391 5.89027,-9.54755 8.90005,-9.2849c2.54551,0.22214 15.19337,-7.30872 26.35181,-11.18517c8.87437,-3.08295 16.83456,-0.8472 16.83456,-0.8472c0,0 5.02333,2.75641 7.43832,9.05875c1.24548,3.25029 0.74651,8.40816 0.88718,10.58398c0.29449,4.55515 -3.7425,6.30237 -3.7425,6.30237c0,0 -2.84674,-0.02858 -7.3287,2.96472c-0.4149,0.2771 -2.34059,-3.97398 -2.87796,-3.58026c-1.39558,1.0225 0.66961,3.64329 -0.79636,5.87013c-1.31399,1.99599 -6.13741,3.66859 -7.73789,3.70405c-2.3105,0.05119 -3.90572,-4.41526 -5.78552,-3.56671c-1.29997,0.58682 -0.37102,6.3451 -1.52828,6.87925c-5.54615,2.55994 -8.84886,4.43428 -8.84886,4.43428z" fill="#bb8041" stroke="#000000"/><path d="M355.04399,186.44125c0,0 2.16753,-2.12816 2.97241,-3.40611c0.99057,-1.57278 2.53039,-5.331 2.53039,-5.331c0,0 7.43108,-0.14157 11.30698,0.19667c3.96301,0.34584 12.21558,1.85608 12.21558,1.85608c0,0 -2.48014,3.81559 -3.3668,5.5043c-0.99574,1.89647 -2.31847,5.3237 -2.31847,5.3237z" fill="#262626" stroke="#000000"/><path d="M383.15701,190.21136l2.15072,-9.55634l9.22842,-3.14494l1.42946,7.76196z" fill="#262626" stroke="#000000"/><path d="M408.95852,172.18487l0.88392,7.9777l-12.26306,4.72358l-1.42945,-7.76195z" data-paper-data="{&quot;index&quot;:null}" fill="#262626" stroke="#000000"/><path d="M390.52935,199.28199c-0.28972,3.31996 -2.63087,5.82751 -5.2291,5.60077c-2.59823,-0.22674 -4.46964,-3.10191 -4.17992,-6.42187c0.28972,-3.31996 2.63088,-5.82751 5.22911,-5.60077c2.59823,0.22674 4.46964,3.10191 4.17991,6.42187z" fill="#262626" stroke="#000000"/><path d="M405.81565,193.11045c-0.25823,2.95909 -2.2228,5.20474 -4.38799,5.01579c-2.16519,-0.18895 -3.71109,-2.74095 -3.45286,-5.70004c0.25823,-2.95909 2.22281,-5.20474 4.388,-5.01579c2.16519,0.18895 3.71109,2.74095 3.45285,5.70004z" fill="#262626" stroke="none"/><path d="M348.41591,196.00189c0.11967,-1.37129 1.32833,-2.38593 2.69961,-2.26626c1.37129,0.11967 2.38593,1.32833 2.26626,2.69962c-0.11967,1.37129 -1.32833,2.38593 -2.69961,2.26626c-1.37129,-0.11967 -2.38593,-1.32833 -2.26626,-2.69962z" fill="#ffffff" stroke="none"/><path d="M369.5862,197.84936c0.11967,-1.37129 1.32833,-2.38593 2.69961,-2.26626c1.37129,0.11967 2.38593,1.32833 2.26626,2.69962c-0.11967,1.37129 -1.32833,2.38593 -2.69961,2.26626c-1.37129,-0.11967 -2.38593,-1.32833 -2.26626,-2.69962z" fill="#ffffff" stroke="none"/><path d="M349.04987,203.8261l0.41055,-4.70451l24.568,2.14398l-0.41055,4.70451z" fill="#626262" stroke="#000000"/></g><path d="M370.63576,159.83973c2.23349,-1.18346 4.44439,-2.92021 6.84055,-3.80982c3.30542,-1.22719 8.29731,0.88252 10.6268,3.21201c4.43381,5.92433 7.19333,12.96819 9.93646,19.8302c0.76901,2.23693 2.05867,3.68108 2.98986,5.77419c2.3801,5.34993 3.45709,10.62998 3.45709,16.48701c0,0.88696 0.38974,3.73016 -0.15885,4.46156c-0.73819,0.9842 -3.52994,0.48844 -4.59115,0.48844c-4.28152,0 -8.51044,0.2 -12.8,0.2c-6.42426,0 -12.87345,-0.18962 -19.26186,-0.20256c-2.95186,-0.49198 -7.87443,-0.89197 -10.79631,-0.21098c-0.77238,0.18002 -2.49151,0.97451 -3.27216,0.19386c-1.1329,-1.1329 0.16107,-5.22938 0.59386,-6.27216c-0.02118,-1.6572 0.51653,-3.03766 0.8,-4.6c0.81666,-4.50101 1.03615,-8.91715 3.26438,-12.99104c1.08477,-1.9833 0.923,-4.70723 1.7917,-6.78269c0.66132,-1.31668 0.6568,-2.86998 1.44863,-4.08865c2.56089,-3.94137 5.40263,-7.65792 8.23175,-11.44578c0,0 0.37618,-0.50157 0.89924,-0.24359z" fill="#cecece" stroke="none" stroke-width="0.5" stroke-linecap="butt"/><path d="M388.17371,147.09495l0.06068,0.06207c1.93835,2.75922 0.60433,7.93926 -0.5621,10.85781c-2.31387,5.77487 -6.38628,7.27499 -12.07205,6.09577c-0.8329,-0.17274 -1.03576,0.32716 -1.97198,-0.05291c-3.17367,-1.28838 -3.64175,-5.52949 -3.64175,-8.36267c0.0233,-4.19113 3.86524,-9.53807 7.98833,-10.85371c3.15143,-1.00561 6.69429,0.65223 9.5697,1.33624c0,0 0.74628,0.18658 0.62916,0.91742z" fill="#ffd795" stroke="none" stroke-width="0.5" stroke-linecap="butt"/><path d="M387.40616,156.9104c-0.36659,-1.75758 -0.68588,-3.53249 -1.47796,-5.11665c0,0 -0.08754,-0.17509 -0.08373,-0.39109c-3.49694,-0.61125 -7.0883,-0.50005 -10.5974,-0.84394c-0.66505,1.1954 -1.48241,2.31412 -1.92973,3.6153c-0.66832,1.944 0.52893,4.37718 0.51112,6.33374c-1.59427,3.2533 -3.61731,6.12771 -6.10872,8.3884c-0.65222,0.59182 -0.19735,2.34604 -2.15105,0.84252c-1.82351,-1.40332 1.79654,-4.47528 2.05039,-5.70265c0.35314,-1.70746 -0.39506,-3.65893 -0.39251,-5.38954c0.3813,-2.32672 2.11987,-3.67492 2.63879,-5.71883c0.97713,-3.8487 1.05232,-10.27937 6.48852,-10.20962c2.60102,-0.86701 5.71733,-0.10145 8.32698,0.24479c1.29606,0.17196 3.11964,-0.09837 4.30849,0.6051c2.34855,1.38968 2.03856,5.73907 0.51673,7.73844c0.16602,0.14173 0.33963,0.33169 0.51892,0.5771c0.32585,0.44601 0.06703,2.25936 -0.07657,2.76912c-0.184,0.65322 -0.6802,1.41525 -1.01683,2.16265c0.12391,0.58087 0.25157,1.15716 0.39736,1.7208c0.42696,1.65071 -0.02463,2.81096 0.04388,4.11938c0.00065,0.01121 0.00128,0.02241 0.00187,0.03359c0.03157,0.53412 0.15147,1.09373 0.45425,1.72203l-0.05815,0.17231h0.07822v0.75c0,0.41422 -0.33578,0.75 -0.75,0.75c-0.2994,0 -0.55783,-0.17543 -0.67809,-0.42912l-0.49273,-0.98547l0.31798,-0.15899c-0.13443,-0.28895 -0.22741,-0.56477 -0.28943,-0.83124c-0.78758,-2.17274 -1.11077,-4.99445 -0.57,-6.70507c0.00619,-0.01958 0.01266,-0.04062 0.01941,-0.06306z" fill="#ffffff" stroke="none" stroke-width="0.5" stroke-linecap="butt"/><path d="M391.12935,147.428c0.53033,0.53033 0,1.06066 0,1.06066l-0.67984,0.67468c-0.77681,0.52139 -1.44824,1.05274 -2.28493,1.47537c-6.42365,2.70949 -11.20783,-0.0405 -16.90098,-2.88456c0,0 -0.67082,-0.33541 -0.33541,-1.00623c0.33541,-0.67082 1.00623,-0.33541 1.00623,-0.33541c5.19435,2.59936 9.69481,5.44768 15.59903,2.86544c0.72026,-0.35544 1.2951,-0.83129 1.96507,-1.27463l0.57016,-0.57532c0,0 0.53033,-0.53033 1.06066,0z" fill="#000000" stroke="none" stroke-width="0.5" stroke-linecap="butt"/><path d="M377.22402,155.45833c0,-0.55229 0.44772,-1 1,-1c0.55228,0 1,0.44771 1,1c0,0.55229 -0.44772,1 -1,1c-0.55228,0 -1,-0.44771 -1,-1z" fill="#000000" stroke="none" stroke-width="0.5" stroke-linecap="butt"/><path d="M382.84902,155.70833c0,-0.55229 0.44772,-1 1,-1c0.55228,0 1,0.44771 1,1c0,0.55229 -0.44772,1 -1,1c-0.55228,0 -1,-0.44771 -1,-1z" fill="#000000" stroke="none" stroke-width="0.5" stroke-linecap="butt"/><path d="M384.07401,161.70281c-0.8,0.6 -1.4,-0.2 -1.4,-0.2l0.18246,-0.12986c-1.30387,-0.33741 -2.21638,-0.29096 -3.38632,0.3981c0,0 -0.86824,0.49614 -1.36438,-0.37211c-0.49614,-0.86825 0.37211,-1.36438 0.37211,-1.36438c1.64841,-0.92078 3.0393,-1.04541 4.86367,-0.6019l0.93247,0.87014c0,0 0.6,0.8 -0.2,1.4z" data-paper-data="{&quot;index&quot;:null}" fill="#000000" stroke="none" stroke-width="0.5" stroke-linecap="butt"/><path d="M378.80291,206.159c-0.97015,-0.25264 -0.7276,-1.26319 -0.7276,-1.26319l0.12072,-0.47179c0.5005,-4.17075 1.56857,-8.57747 1.56857,-12.77089c1.24336,-6.5702 1.79534,-14.86254 0.29889,-21.42629c-0.34585,-1.51698 -0.93195,-2.92749 -1.15085,-4.5139c0,0 -0.14143,-1.03118 0.84852,-1.17849c0.98995,-0.14731 1.13137,0.88387 1.13137,0.88387c0.21271,1.56138 0.7988,2.91488 1.13486,4.41456c1.51051,6.74067 1.04109,15.28932 -0.27254,22.02553c0,4.20738 -1.07217,8.63981 -1.57428,12.82402l-0.16499,0.71867c0,0 -0.24253,1.01056 -1.21268,0.75791z" fill="#a4a4a4" stroke="none" stroke-width="0.5" stroke-linecap="butt"/><path d="M363.04545,205.41667c-0.75,0 -0.75,-0.75 -0.75,-0.75l0.00969,-0.97728c1.81744,-5.45233 0.4196,-11.56779 1.56539,-17.23948c0.01693,-2.93563 1.56288,-5.50755 2.15927,-8.24127c0.31433,-1.44081 0.43716,-2.56409 1.23101,-3.93005c1.06484,-1.83225 2.70324,-3.5945 3.04485,-5.73522c0,0 0.1233,-0.73979 0.86309,-0.61649c0.7398,0.1233 0.61649,0.86309 0.61649,0.86309c-0.40808,2.36649 -2.04954,4.24064 -3.24086,6.26479c-0.7317,1.2432 -0.74304,2.20526 -1.05471,3.49851c-0.64295,2.66787 -2.14459,5.17726 -2.12644,8.04444c-1.12763,5.69271 0.24717,11.85802 -1.57747,17.33195l0.00968,0.737c0,0 0,0.75 -0.75,0.75z" fill="#878787" stroke="none" stroke-width="0.5" stroke-linecap="butt"/><path d="M398.59732,205.45408c-0.7398,0.1233 -0.86309,-0.6165 -0.86309,-0.6165l-0.15051,-0.91858c-0.0161,-6.68918 -1.72504,-12.53534 -3.82369,-18.83228c-1.72138,-5.56291 -4.14737,-10.87312 -5.99752,-16.42098c0,0 -0.23717,-0.71151 0.47434,-0.94868c0.71151,-0.23717 0.94869,0.47434 0.94869,0.47434c1.85034,5.5537 4.27505,10.86744 6.00248,16.43616c2.12594,6.37681 3.90907,12.3837 3.89059,19.16772l0.13521,0.7957c0,0 0.1233,0.7398 -0.6165,0.8631z" fill="#878787" stroke="none" stroke-width="0.5" stroke-linecap="butt"/><text transform="translate(345.54124,216.78367) scale(0.26141,0.26141)" font-size="40" xml:space="preserve" fill="#000000" fill-rule="nonzero" stroke="none" stroke-width="1" stroke-linecap="butt" stroke-linejoin="miter" stroke-miterlimit="10" stroke-dasharray="" stroke-dashoffset="0" font-family="Serif" font-weight="normal" text-anchor="start" style="mix-blend-mode: normal"><tspan x="0" dy="0">Prince Darasaka</tspan></text><path d="M414.16667,220.66671h-69" fill="none" stroke="#000000" stroke-width="2" stroke-linecap="round"/><path d="M379.86404,241.16671v-20" fill="none" stroke="#000000" stroke-width="2" stroke-linecap="round"/><text transform="translate(363.70833,235.28339) scale(0.335,0.335)" font-size="40" xml:space="preserve" fill="#000000" fill-rule="nonzero" stroke="none" stroke-width="1" stroke-linecap="butt" stroke-linejoin="miter" stroke-miterlimit="10" stroke-dasharray="" stroke-dashoffset="0" font-family="Serif" font-weight="normal" text-anchor="start" style="mix-blend-mode: normal"><tspan x="0" dy="0">10</tspan></text><text transform="translate(398.95834,235.53339) scale(0.335,0.335)" font-size="40" xml:space="preserve" fill="#000000" fill-rule="nonzero" stroke="none" stroke-width="1" stroke-linecap="butt" stroke-linejoin="miter" stroke-miterlimit="10" stroke-dasharray="" stroke-dashoffset="0" font-family="Serif" font-weight="normal" text-anchor="start" style="mix-blend-mode: normal"><tspan x="0" dy="0">40</tspan></text><g fill="#ae00ff" stroke="#000000" stroke-width="0" stroke-linecap="butt"><path d="M352.36137,238.33677v-14.60345h3.41379v14.60345z"/><path d="M359.66309,230.65574h-11v-3.60345h11z"/></g><g fill="#ffcf00" stroke-linecap="butt"><text transform="translate(384.62619,236.57732) scale(0.42958,0.42958)" font-size="40" xml:space="preserve" fill="#ffcf00" fill-rule="nonzero" stroke="none" stroke-width="1" stroke-linecap="butt" stroke-linejoin="miter" stroke-miterlimit="10" stroke-dasharray="" stroke-dashoffset="0" font-family="Serif" font-weight="normal" text-anchor="start" style="mix-blend-mode: normal"><tspan x="0" dy="0">S</tspan></text><path d="M388.11054,237.72286v-13.69875h0.66823v13.69875z" stroke="#000000" stroke-width="0"/><path d="M389.35154,237.72287v-13.69875h0.66823v13.69875z" stroke="#000000" stroke-width="0"/></g><path d="M344.90695,205.73333v-28.46667h70.2v28.46667z" fill="url(#color-1)" stroke="#000000" stroke-width="0" stroke-linecap="butt"/><g fill="none" stroke="#000000" stroke-width="2"><path d="M345,241.7057v-106.16129h70v106.16129z" stroke-linecap="butt"/><path d="M345.33333,206.08273h68.33333" stroke-linecap="round"/></g></g></g></svg>