<svg version="1.1" xmlns="http://www.w3.org/2000/svg" xmlns:xlink="http://www.w3.org/1999/xlink" width="72" height="108.16129" viewBox="0,0,72,108.16129"><defs><linearGradient x1="380.00695" y1="177.26667" x2="380.00695" y2="205.73333" gradientUnits="userSpaceOnUse" id="color-1"><stop offset="0" stop-color="#ff6bde" stop-opacity="0"/><stop offset="1" stop-color="#ff6bde"/></linearGradient></defs><g transform="translate(-344,-134.54441)"><g data-paper-data="{&quot;isPaintingLayer&quot;:true}" fill-rule="nonzero" stroke-linejoin="miter" stroke-miterlimit="10" stroke-dasharray="" stroke-dashoffset="0" style="mix-blend-mode: normal"><path d="M344.91667,242.04171v-106h70.25v106z" fill="#006eff" stroke="none" stroke-width="0" stroke-linecap="butt"/><path d="M345.30437,205.66666v-69.5h69.5v69.5z" fill="#780000" stroke="#000000" stroke-width="0" stroke-linecap="butt"/><path d="M359.01686,142.55348c0.33541,0.67082 -0.33541,1.00623 -0.33541,1.00623l-1.00208,0.41251c-1.12552,-0.00035 -2.19534,0.18509 -3.2518,0.41776c0.43511,0.78639 2.24514,1.41324 2.87214,2.13933l0.71299,-0.05709c0,0 0.75,0 0.75,0.75c0,0.75 -0.75,0.75 -0.75,0.75l-1.28701,-0.05709c-1.17554,-1.07165 -2.80134,-2.00523 -3.56417,-3.23167c-0.02998,0.00707 -0.05997,0.01414 -0.08996,0.02119c-1.04812,2.13578 -2.58847,4.10784 -4.1952,5.71457c0,0 -0.53033,0.53033 -1.06066,0c-0.53033,-0.53033 0,-1.06066 0,-1.06066c1.20168,-1.20168 2.43435,-2.66861 3.37763,-4.25654c-0.70977,0.12233 -1.43256,0.20353 -2.18064,0.20353c0,0 -0.75,0 -0.75,-0.75c0,-0.75 0.75,-0.75 0.75,-0.75c1.04767,0 2.04811,-0.16096 3.03477,-0.37103c0.22776,-0.53234 0.41418,-1.0721 0.54857,-1.61447v-1.2645c0,-0.41421 0.33579,-0.75 0.75,-0.75c0.36866,0 0.6752,0.266 0.73816,0.61654l0.29145,1.45725l-0.32164,0.06433l0.03642,0.03686c-0.02803,0.11053 -0.05769,0.22086 -0.08893,0.33097c0.01999,0.21659 0.03728,0.43212 0.06545,0.65804c1.17228,-0.26802 2.35754,-0.49693 3.61243,-0.49731l0.33126,-0.25415c0,0 0.67082,-0.33541 1.00623,0.33541z" fill="#000000" stroke="none" stroke-width="0.5" stroke-linecap="butt"/><path d="M362.34396,149.89304c-0.67082,-0.33541 -0.33541,-1.00623 -0.33541,-1.00623l0.29264,-0.56843c0.09138,-0.26733 1.55381,-3.06737 1.24729,-3.17377c-0.93132,-0.32328 -2.1904,-0.10173 -2.83287,-0.84945c-1.02106,-1.18833 0.91092,-3.81526 0.88043,-5.07294c0,0 0,-0.75 0.75,-0.75c0.75,0 0.75,0.75 0.75,0.75c-0.00949,0.55453 -1.32941,4.09972 -1.11957,4.26039c0.91722,0.70229 1.4906,-0.37691 2.50046,0.48388c1.66656,1.42054 -0.29423,3.40608 -0.75271,4.82623l-0.37403,0.76491c0,0 -0.33541,0.67082 -1.00623,0.33541z" fill="#000000" stroke="none" stroke-width="0.5" stroke-linecap="butt"/><path d="M360.30795,172.58095c0,-10.73011 8.69846,-19.42857 19.42857,-19.42857c10.7301,0 19.42858,8.69846 19.42858,19.42857c0,10.73011 -8.69847,19.42857 -19.42858,19.42857c-10.7301,0 -19.42857,-8.69846 -19.42857,-19.42857z" fill="#ffffff" stroke="#000000" stroke-width="0" stroke-linecap="butt"/><path d="M373.67937,143.80555c0.75,0 0.75,0.75 0.75,0.75l-0.21967,1.197c-1.7849,1.74661 -3.96115,2.15632 -6.197,1.73808v0.14825h-1v0c-0.41421,0 -0.75,-0.33579 -0.75,-0.75c0,-0.33738 0.22277,-0.62273 0.52924,-0.71698l0.79607,-0.26536c0.89787,-1.56985 1.28875,-3.40575 -1.24197,-3.26766c0,0 -0.75,0 -0.75,-0.75c0,-0.75 0.75,-0.75 0.75,-0.75c3.41879,0.12046 3.98253,2.46886 2.8113,4.86811c1.29231,-0.28802 3.10801,-0.40565 3.99171,-1.3151l-0.21967,-0.13634c0,0 0,-0.75 0.75,-0.75z" fill="#000000" stroke="none" stroke-width="0.5" stroke-linecap="butt"/><path d="M380.32525,144.84097c0.38123,0.64588 -0.26465,1.02711 -0.26465,1.02711l-0.04102,0.02383c0.04896,0.09965 0.07646,0.21176 0.07646,0.33029c0,0.30387 -0.18071,0.56553 -0.44053,0.68338l-0.68131,0.3269l-0.03038,-0.06331l-0.11835,0.11625c-0.51202,0.01757 -1.0611,-0.00456 -1.56478,-0.13848l0.03664,0.18319l-0.45953,0.09191c-0.02544,0.0207 -0.05127,0.04144 -0.07751,0.06223l-0.10138,-0.02646l-0.09359,0.01872l0.00707,0.05655l-0.78826,0.09853c-0.03423,0.00478 -0.06921,0.00726 -0.10476,0.00726c-0.41421,0 -0.75,-0.33579 -0.75,-0.75c0,-0.36866 0.266,-0.6752 0.61654,-0.73816l0.75004,-0.15001c0.05597,-0.18133 0.17886,-0.33329 0.33983,-0.42704c0.44825,-1.43529 -4.00396,-3.52591 -5.10321,-4.44195c0,0 -0.57617,-0.48014 -0.09603,-1.0563c0.48014,-0.57617 1.0563,-0.09603 1.0563,-0.09603c1.88448,1.5704 5.68665,3.15434 5.70838,5.24028l0.04121,-0.00824l1.0557,-0.63508c0,0 0.64588,-0.38123 1.02711,0.26465z" fill="#000000" stroke="none" stroke-width="0.5" stroke-linecap="butt"/><path d="M389.76271,145.88888c0,0.75 -0.75,0.75 -0.75,0.75h-0.33333c-4.01844,-0.06877 -2.28496,-2.41693 -1.68038,-4.76777c0.13749,-0.53462 -1.10095,0.09794 -1.65295,0.10111c-1.11103,0.00638 -2.22228,0 -3.33333,0c0,0 -0.75,0 -0.75,-0.75c0,-0.75 0.75,-0.75 0.75,-0.75c1.1516,0 5.89095,-0.64966 6.34705,0.76777c0.54263,1.68633 -2.70956,3.97232 0.31962,3.89889h0.33333c0,0 0.75,0 0.75,0.75z" fill="#000000" stroke="none" stroke-width="0.5" stroke-linecap="butt"/><path d="M403.56336,146.71302c0.5092,0.55065 -0.04145,1.05985 -0.04145,1.05985l-0.71555,0.52276c-0.83595,0.18329 -2.74473,0.47447 -4.61081,0.48994c-3.85048,5.14966 -6.4778,-3.03129 -7.83116,-5.51964c-0.39466,-0.72563 -1.0657,-1.26235 -1.5945,-1.89691c0,0 -0.48014,-0.57617 0.09603,-1.0563c0.57617,-0.48014 1.0563,0.09603 1.0563,0.09603c0.58232,0.69878 1.30017,1.30624 1.73883,2.10309c0.30355,0.55142 1.01017,2.64229 1.91537,4.2777c-0.00078,-0.14106 0.01599,-0.29132 0.05181,-0.45132c0.36114,-1.61322 2.08499,-1.58012 2.70529,-2.76745c0.86984,-1.66497 -1.07617,-3.10513 0.4822,-4.87888c0,0 0.53033,-0.53033 1.06066,0c0.53033,0.53033 0,1.06066 0,1.06066c-1.11104,0.8405 0.47234,3.11601 -0.18447,4.45445c-0.29181,0.59466 -1.59727,1.29667 -2.12133,1.84984c-0.27542,0.29072 -1.04985,0.90161 -0.66227,1.00236c0.73962,0.19227 1.63806,0.27934 2.58302,0.29088c0.07041,-0.06485 0.54545,-0.46783 1.02722,-0.01527c1.42882,-0.0574 2.87157,-0.25743 3.96241,-0.50346l0.02255,-0.15978c0,0 0.55065,-0.5092 1.05985,0.04145zM396.2968,148.68365c-0.68299,-0.09044 -1.2959,-0.24715 -1.76626,-0.49507c0.56024,0.61725 1.16049,0.89442 1.76626,0.49507z" fill="#000000" stroke="none" stroke-width="0.5" stroke-linecap="butt"/><path d="M410.04951,145.90325c0.6523,0.37014 0.28216,1.02244 0.28216,1.02244l-0.22228,0.39173c-0.45031,0.79048 -1.13644,2.18476 -1.91418,2.71429c-3.06936,2.08982 -4.20478,-0.41732 -1.87963,-2.53125c-0.05288,-0.15024 -0.05288,-0.27824 -0.05288,-0.27824l0.21967,-1.197c0.20057,-0.18639 0.96034,-0.75852 0.83985,-1.17687c-0.18155,-0.63032 -1.25738,-0.37495 -1.88002,-0.58129c-1.66762,-0.55265 -3.33334,-1.11111 -5,-1.66667c0,0 -0.71151,-0.23717 -0.47434,-0.94868c0.23717,-0.71151 0.94868,-0.47434 0.94868,-0.47434c2.66114,0.88705 10.3635,1.98921 6.62649,5.90851l0.21967,0.13634c0,0 0,0.15978 -0.07375,0.33185c0.05526,0.09913 0.08201,0.19382 0.0891,0.28219c0.42995,-0.45249 0.83347,-0.91706 1.02673,-1.25912l0.22228,-0.39173c0,0 0.37014,-0.6523 1.02244,-0.28216z" fill="#000000" stroke="none" stroke-width="0.5" stroke-linecap="butt"/><path d="M409.01271,136.80555c0.75,0 0.75,0.75 0.75,0.75c0,1.11111 0,2.55556 0,3.66667c0,0 0,0.75 -0.75,0.75c-0.75,0 -0.75,-0.75 -0.75,-0.75c0,-1.11111 0,-2.22222 0,-3.33333v-0.33333c0,0 0,-0.75 0.75,-0.75z" fill="#000000" stroke="none" stroke-width="0.5" stroke-linecap="butt"/><path d="M354.35795,206.29492v-50.83334c0,0 4.03085,-5.94852 10.32283,-9.20584c4.75919,-2.4638 11.42458,-2.46083 15.12804,-2.46083c4.35746,0 12.5433,0.16917 18.11052,3.04458c5.7248,2.95679 8.77195,8.62209 8.77195,8.62209v50.83334z" fill="#352617" stroke="#000000" stroke-width="0" stroke-linecap="butt"/><path d="M371.45189,166.58292c-0.00383,-0.03685 -0.00383,-0.05911 -0.00383,-0.05911l0.41459,-0.81368c3.12599,-1.55571 6.94365,-0.95776 10.27439,-0.50327c1.35829,0.18535 2.86139,-0.34918 4.1773,0.18456c1.2944,0.52501 0.93443,1.17378 1.77386,1.9698c1.17201,0.72133 1.87173,1.95448 2.89925,2.89258c3.11622,2.84504 6.25844,5.51771 8.30383,9.35108c1.45558,2.72797 1.59416,6.11269 2.49436,9.03583c0.96189,3.98517 2.86998,8.50695 2.87671,12.59738c0.00121,0.73353 0.23995,2.82977 -0.11201,3.39429c-0.56333,0.90353 -1.52587,0.77611 -2.35227,0.78428c-2.28517,0.02259 -4.57187,0 -6.85714,0c-7.9431,0 -15.74861,0.42857 -23.71429,0.42857c-4.43613,0 -8.95844,-0.28081 -13.38196,-0.00145c-1.58579,0.10015 4.57382,-25.35515 5.45704,-26.16795c2.74052,-2.52199 2.76158,-6.17679 4.40652,-9.2202c0.84006,-1.55426 2.1993,-2.59499 3.34366,-3.87271z" fill="#226294" stroke="none" stroke-width="0.5" stroke-linecap="butt"/><text transform="translate(362.34124,216.78367) scale(0.26141,0.26141)" font-size="40" xml:space="preserve" fill="#000000" fill-rule="nonzero" stroke="none" stroke-width="1" stroke-linecap="butt" stroke-linejoin="miter" stroke-miterlimit="10" stroke-dasharray="" stroke-dashoffset="0" font-family="Serif" font-weight="normal" text-anchor="start" style="mix-blend-mode: normal"><tspan x="0" dy="0">Nakubei</tspan></text><path d="M380.25081,205.9881c-0.75,0 -0.75,-0.75 -0.75,-0.75v-0.14286c0.0047,-1.68811 0.72338,-3.45697 0.4421,-5.14388c-0.35877,-2.15162 -0.80601,-3.59437 -0.42841,-5.85593c0.55442,-2.50847 -0.35969,-2.89748 -0.58256,-5.22404c-0.39051,-4.07641 1.01337,-7.96941 -0.39538,-11.88329c-0.00001,0 -0.00002,0 -0.00003,0c-1.92134,-0.04434 -1.5913,-2.05933 -2.55282,-3.1003c-0.52961,-0.57337 -1.31365,-0.8939 -1.78385,-1.51692c-1.28879,-1.70764 -1.15418,-3.42321 -2.76508,-5.03102c0,0 -0.53033,-0.53033 0,-1.06066c0.53033,-0.53033 1.06066,0 1.06066,0c1.70116,1.70424 1.64661,3.50316 2.94919,5.2547c0.0777,0.10447 1.52919,1.20942 1.64472,1.34022c0.20231,0.22904 1.16933,2.64575 1.44718,2.61398c0.79419,-0.0908 3.24901,-3.60682 3.70571,-4.29692c1.25114,-1.23148 2.38959,-3.03764 3.10181,-4.65926l0.66215,-0.68129c0,0 0.53033,-0.53033 1.06066,0c0.53033,0.53033 0,1.06066 0,1.06066l-0.48071,0.46157c-0.69593,1.6709 -1.92375,3.49123 -3.1839,4.76931c-0.55665,0.82921 -2.12756,3.07759 -3.50693,4.19612c1.53346,4.1134 0.24675,8.12278 0.53151,12.40938c0.0752,1.13193 1.17781,2.00562 1.14506,3.18179c-0.02338,0.83971 -0.40332,1.6311 -0.58477,2.4513c-0.34698,2.0858 0.09871,3.30614 0.42873,5.28694c0.30386,1.82381 -0.42084,3.61874 -0.41503,5.42755v0.14286c0,0 0,0.75 -0.75,0.75z" fill="#feff00" stroke="none" stroke-width="0.5" stroke-linecap="butt"/><path d="M414.16667,220.66671h-69" fill="none" stroke="#000000" stroke-width="2" stroke-linecap="round"/><path d="M379.86404,241.16671v-20" fill="none" stroke="#000000" stroke-width="2" stroke-linecap="round"/><text transform="translate(363.70833,235.28339) scale(0.335,0.335)" font-size="40" xml:space="preserve" fill="#000000" fill-rule="nonzero" stroke="none" stroke-width="1" stroke-linecap="butt" stroke-linejoin="miter" stroke-miterlimit="10" stroke-dasharray="" stroke-dashoffset="0" font-family="Serif" font-weight="normal" text-anchor="start" style="mix-blend-mode: normal"><tspan x="0" dy="0">40</tspan></text><text transform="translate(398.95834,235.53339) scale(0.335,0.335)" font-size="40" xml:space="preserve" fill="#000000" fill-rule="nonzero" stroke="none" stroke-width="1" stroke-linecap="butt" stroke-linejoin="miter" stroke-miterlimit="10" stroke-dasharray="" stroke-dashoffset="0" font-family="Serif" font-weight="normal" text-anchor="start" style="mix-blend-mode: normal"><tspan x="0" dy="0">10</tspan></text><path d="M384.50632,169.24105c-0.3809,2.39877 -2.89856,4.75158 -4.63507,6.38451c-0.81979,0.77088 -0.95614,1.63856 -2.44612,0.61129c-0.54334,-0.37461 -0.8048,-2.22392 -1.06283,-2.8546c-0.83179,-2.03305 -2.72016,-3.03775 -3.0513,-5.33685c0,0 -0.026,-0.20795 0.05942,-0.41774c-0.51479,-0.43367 -0.9625,-0.92489 -1.3169,-1.47033c-0.16998,0.156 -0.35459,0.26237 -0.57994,0.24751c-2.2493,-0.14838 -1.45771,-2.81218 -1.43403,-4.19621l0.48768,-1.02023c0,0 0.2061,-0.41219 0.61829,-0.42881c0.20294,-1.7063 0.69499,-3.40115 1.14829,-4.76683c1.85557,-4.59687 7.81354,-7.81756 12.34278,-4.35047c1.7201,1.31672 2.97409,3.44798 4.28283,5.26131c0.02525,-0.0019 0.05145,-0.00288 0.07863,-0.00288c0.75,0 0.75,0.75 0.75,0.75v0.49908c0.01573,0.08187 0.01935,0.17248 -0.00077,0.26643c-0.00838,0.89957 -0.0855,1.7021 -0.22783,2.43431c1.41618,0.7616 -0.15913,3.30298 -1.16433,4.57035l-0.34103,0.34753c0,0 -0.50968,0.50968 -1.02939,0.03006c-0.68989,0.80202 -1.49929,1.60896 -2.41713,2.50489c-0.17774,0.04443 -0.33677,0.09977 -0.48268,0.16287c0.14047,0.25827 0.28094,0.51654 0.42142,0.77481z" fill="#ffcb63" stroke="none" stroke-width="0.5" stroke-linecap="butt"/><path d="M371.64805,142.25072c0.01349,-0.99165 -0.1018,-1.62879 0.89353,-2.39508c2.42302,-1.86548 6.63182,-1.55491 9.45647,-1.55491c0.87059,0 2.10768,-0.20625 2.9508,0.01532c6.28895,1.65274 3.81925,8.22668 3.79932,12.68091c1.15695,-0.05783 2.3079,-0.09623 3.44988,-0.09623c1.17641,0 2.51116,-0.25361 3.50784,0.59809c0.7994,0.68312 1.41237,3.55402 0.38957,4.31324c-0.4576,0.33967 -1.14877,0.10716 -1.68129,0.31011c-5.07099,1.93264 -11.03848,1.87855 -16.61611,1.87855c-1.76177,0 -3.38844,0.06721 -5.07473,0.40941c-0.21112,0.19831 -0.50537,0.19378 -0.60987,0.18484c-0.08955,0.08027 -0.56764,0.46417 -1.04573,-0.01392c-0.03492,-0.03492 -0.06525,-0.06984 -0.09143,-0.10461c-2.62358,-0.13343 -5.77335,0.50472 -7.97254,-0.78772c-2.02974,-1.19286 -1.21088,-5.15366 0.56909,-6.2558c1.39735,-0.86523 3.44308,-0.73215 5.02521,-0.73219c1.06178,0 2.04133,0.1456 3.028,0.30422c-0.5799,-2.59321 -0.01287,-6.19125 0.022,-8.75422zM372.00294,158.57876c-0.00504,-0.0008 -0.01008,-0.0016 -0.01512,-0.00239c-0.00262,0.00065 -0.00525,0.00131 -0.00787,0.00197z" fill="#244b68" stroke="none" stroke-width="0.5" stroke-linecap="butt"/><path d="M367.52125,164.44251c0.93547,0.9887 1.53949,1.97426 1.56966,3.43679c-0.02373,1.15018 -0.53571,3.5191 -2.32232,3.12993c-1.08927,-0.23727 -2.49908,-4.14102 -2.7206,-5.04292c-0.38376,-1.5625 0.44676,-2.65863 1.85847,-2.2346c0.1255,-0.00272 0.21634,0.01998 0.21634,0.01998l0.06991,0.01946c-0.15495,-0.17175 -0.71294,-0.6329 -0.78175,-0.91954c-0.07567,-0.31521 -0.01639,-0.64816 -0.02006,-0.97232c-0.01434,-1.26629 0,-2.53363 0,-3.8c0,0 0,-0.75 0.75,-0.75c0.75,0 0.75,0.75 0.75,0.75c0,1.30851 -0.35263,3.16696 -0.02007,4.42768c0.15385,0.58324 0.95241,1.21737 0.6504,1.93553z" fill="#feff00" stroke="none" stroke-width="0.5" stroke-linecap="butt"/><path d="M394.79604,163.26486c0.14751,0.19089 0.18137,0.37874 0.16382,0.54151c0.30169,0.24979 0.63269,0.46325 0.96852,0.65457c1.10115,2.25982 -0.55152,7.72865 -3.12561,4.2362c-1.42143,-1.92855 -0.18496,-3.88644 0.48377,-5.62488c0.60124,-1.563 -0.62599,-5.20039 -1.18484,-6.67783c0,0 -0.27855,-0.73997 0.41782,-1.03595c0.69636,-0.29599 0.9749,0.44398 0.9749,0.44398c0.6712,1.79101 1.78037,5.36042 1.30163,7.46241z" fill="#feff00" stroke="none" stroke-width="0.5" stroke-linecap="butt"/><path d="M396.51609,155.09169c0.55901,1.11803 -0.55901,1.67705 -0.55901,1.67705l-0.56374,0.26782c-2.17431,0.71831 -4.35289,1.31317 -6.51878,2.03318c-5.60136,0.70017 -11.18135,0.63097 -16.87651,0.63097c-3.64613,0 -7.24947,0.10943 -10.20023,-2.28972c0,0 -0.96028,-0.80023 -0.16005,-1.76051c0.80023,-0.96027 1.76051,-0.16004 1.76051,-0.16004c2.33668,2.01263 5.67256,1.71027 8.59977,1.71027c5.49935,0 10.92155,0.10621 16.32349,-0.56903c2.09303,-0.69959 4.17986,-1.26094 6.28122,-1.96682l0.23627,-0.13218c0,0 1.11803,-0.55902 1.67705,0.55902z" fill="#ff8400" stroke="none" stroke-width="0.5" stroke-linecap="butt"/><path d="M375.51055,162.20833c0,-0.69036 0.55964,-1.25 1.25,-1.25c0.69036,0 1.25,0.55964 1.25,1.25c0,0.69036 -0.55964,1.25 -1.25,1.25c-0.69036,0 -1.25,-0.55964 -1.25,-1.25z" fill="#000000" stroke="none" stroke-width="0.5" stroke-linecap="butt"/><path d="M382.26055,162.20833c0,-0.69036 0.55964,-1.25 1.25,-1.25c0.69036,0 1.25,0.55964 1.25,1.25c0,0.69036 -0.55964,1.25 -1.25,1.25c-0.69036,0 -1.25,-0.55964 -1.25,-1.25z" fill="#000000" stroke="none" stroke-width="0.5" stroke-linecap="butt"/><path d="M382.88555,166.83333c0,1.25 -1.25,1.25 -1.25,1.25l-0.36317,-0.00513c-0.83472,-0.0767 -1.6736,-0.12077 -2.51183,-0.11987c0,0 -1.25,0 -1.25,-1.25c0,-1.25 1.25,-1.25 1.25,-1.25c0.91375,0.0009 1.82809,0.04822 2.73817,0.13014l0.13683,-0.00514c0,0 1.25,0 1.25,1.25z" fill="#000000" stroke="none" stroke-width="0.5" stroke-linecap="butt"/><path d="M377.01055,180.95833c-0.75,0 -0.75,-0.75 -0.75,-0.75l0.12596,-0.66602c0.78911,-1.07095 0.21319,-2.28602 -0.11871,-3.47994c-0.01333,-1.99137 0.81023,-4.97258 0.15452,-6.8721c-0.47001,-1.36154 -1.69494,-3.02227 -0.47836,-4.47334c0.84457,-1.00735 2.40713,-1.0086 3.56659,-1.0086c0,0 0.75,0 0.75,0.75c0,0.75 -0.75,0.75 -0.75,0.75c-3.92308,0 -1.73667,1.93162 -1.50256,4.43814c0.19117,2.04685 -0.23891,4.15057 -0.25469,6.20784c0.49646,1.68023 0.85285,2.96779 -0.11871,4.52005l0.12596,-0.16603c0,0 0,0.75 -0.75,0.75z" fill="#000000" stroke="none" stroke-width="0.5" stroke-linecap="butt"/><path d="M382.38555,182.08333c-0.75,0 -0.75,-0.75 -0.75,-0.75l0.07918,-0.03959c-0.49759,-1.00046 -0.69533,-1.63125 -0.68411,-2.75773c0.57725,-1.16762 1.5145,-1.77916 1.88711,-3.04502c0.27366,-0.92966 -0.20277,-2.10088 0.16684,-2.98255c0.17021,-0.406 0.83432,-0.61114 0.80098,-1.05011c-0.04474,-0.58902 -0.53679,-1.07542 -0.61962,-1.66031c-0.31636,-2.23424 0.91081,-3.44427 -1.50249,-4.81351c0,0 -0.65118,-0.3721 -0.27907,-1.02328c0.3721,-0.65118 1.02328,-0.27908 1.02328,-0.27908c3.03222,1.74354 1.77368,3.20436 2.24752,5.93649c0.61565,3.54979 -0.59875,6.0125 -2.26469,9.262c0.01549,0.68313 0.2587,1.13157 0.56589,1.74228l0.07918,0.71041c0,0 0,0.75 -0.75,0.75z" fill="#000000" stroke="none" stroke-width="0.5" stroke-linecap="butt"/><path d="M387.58553,150.70777c0.53033,0.53033 0,1.06066 0,1.06066l-0.69275,0.49518c-4.24591,0.69567 -8.95267,0.10871 -13.10375,-0.57143c0,0 -0.73979,-0.1233 -0.61649,-0.86309c0.1233,-0.73979 0.86309,-0.6165 0.86309,-0.6165c3.95452,0.67196 8.55774,1.2601 12.61055,0.57143l-0.12132,-0.07625c0,0 0.53033,-0.53033 1.06066,0z" fill="#183144" stroke="none" stroke-width="0.5" stroke-linecap="butt"/><path d="M350.02461,196.29492v-4.33334h15v4.33334z" fill="#271c11" stroke="#000000" stroke-width="0" stroke-linecap="butt"/><path d="M396.52461,196.46158v-4.33334h15v4.33334z" fill="#271c11" stroke="#000000" stroke-width="0" stroke-linecap="butt"/><path d="M352.35795,205.29492v-10.16667h9.83334v10.16667z" fill="#271c11" stroke="#000000" stroke-width="0" stroke-linecap="butt"/><path d="M399.69128,206.29492v-11h9v11z" fill="#271c11" stroke="none" stroke-width="0" stroke-linecap="butt"/><path d="M352.69128,188.62825c0,-2.85347 2.31319,-5.16666 5.16666,-5.16666c2.85347,0 5.16667,2.3132 5.16667,5.16666c0,2.85347 -2.3132,5.16667 -5.16667,5.16667c-2.85347,0 -5.16666,-2.3132 -5.16666,-5.16667z" fill="#226294" stroke="#000000" stroke-width="0" stroke-linecap="butt"/><path d="M398.85795,188.29491c0,-2.85347 2.3132,-5.16666 5.16667,-5.16666c2.85347,0 5.16667,2.3132 5.16667,5.16666c0,2.85347 -2.3132,5.16667 -5.16667,5.16667c-2.85347,0 -5.16667,-2.3132 -5.16667,-5.16667z" fill="#226294" stroke="#000000" stroke-width="0" stroke-linecap="butt"/><path d="M353.02461,191.21158c0,-2.25517 1.82817,-4.08334 4.08333,-4.08334c2.25516,0 4.08334,1.82817 4.08334,4.08334c0,2.25517 -1.82817,4.08334 -4.08334,4.08334c-2.25516,0 -4.08333,-1.82817 -4.08333,-4.08334z" fill="#ffcb63" stroke="#000000" stroke-width="0" stroke-linecap="butt"/><path d="M402.02461,190.04492c0,-2.25517 1.82817,-4.08334 4.08333,-4.08334c2.25516,0 4.08334,1.82817 4.08334,4.08334c0,2.25517 -1.82817,4.08334 -4.08334,4.08334c-2.25516,0 -4.08333,-1.82817 -4.08333,-4.08334z" fill="#ffcb63" stroke="#000000" stroke-width="0" stroke-linecap="butt"/><path d="M361.27526,193.25229l-0.68398,-0.50737l-0.49545,-0.66061c-0.09693,-0.12637 -0.15454,-0.28449 -0.15454,-0.45606c0,-0.26039 0.13269,-0.48978 0.33415,-0.62425c-0.00054,-0.01387 -0.00082,-0.028 -0.00082,-0.04242c0,-0.75 0.75,-0.75 0.75,-0.75c0.78508,0.05319 1.55471,0.56392 2.04485,1.1795l-0.0525,0.23717h0.09099v0.83334c0,0.41422 -0.33578,0.75 -0.75,0.75c-0.05647,0 -0.11148,-0.00624 -0.16438,-0.01807c-0.40575,0.40048 -0.9183,0.05877 -0.9183,0.05877z" fill="#ffcb63" stroke="none" stroke-width="0.5" stroke-linecap="butt"/><path d="M358.35795,192.87825c0.75,0 0.75,0.75 0.75,0.75l-0.12335,-0.10965c4.37844,4.02249 -8.47197,2.81292 -3.73853,-0.25338c0,0 0.69636,-0.27855 0.9749,0.41781c0.0636,0.15899 0.07637,0.2962 0.05822,0.41329c0.52037,0.20101 3.07182,1.2272 1.62875,0.46525l-0.3,-0.93333c0,0 0,-0.75 0.75,-0.75z" fill="#ffcb63" stroke="none" stroke-width="0.5" stroke-linecap="butt"/><path d="M409.98199,192.54556c0.41602,0.62404 -0.20801,1.04006 -0.20801,1.04006l-0.46603,0.30929c-2.1888,1.6416 -4.0437,2.26444 -5.89364,-0.16407c0,0 -0.43592,-0.61029 0.17437,-1.04622c0.6103,-0.43593 1.04622,0.17437 1.04622,0.17437c1.15967,1.78989 2.34587,0.9063 3.77303,-0.16407l0.53397,-0.35737c0,0 0.62404,-0.41603 1.04007,0.20801z" fill="#ffcb63" stroke="none" stroke-width="0.5" stroke-linecap="butt"/><path d="M402.84204,190.53297c0.2659,0.21958 0.2659,0.59528 0.2659,0.59528l-0.47145,1.19636c-2.89687,0.79149 -2.50866,-1.60995 -0.72854,-2.96302c0,0 0.6,-0.45 1.05,0.15c0.38338,0.51118 0.00464,0.91347 -0.1159,1.02138z" fill="#ffcb63" stroke="none" stroke-width="0.5" stroke-linecap="butt"/><g fill="#ffcf00" stroke-linecap="butt"><text transform="translate(384.62619,236.57732) scale(0.42958,0.42958)" font-size="40" xml:space="preserve" fill="#ffcf00" fill-rule="nonzero" stroke="none" stroke-width="1" stroke-linecap="butt" stroke-linejoin="miter" stroke-miterlimit="10" stroke-dasharray="" stroke-dashoffset="0" font-family="Serif" font-weight="normal" text-anchor="start" style="mix-blend-mode: normal"><tspan x="0" dy="0">S</tspan></text><path d="M388.11054,237.72286v-13.69875h0.66823v13.69875z" stroke="#000000" stroke-width="0"/><path d="M389.35154,237.72287v-13.69875h0.66823v13.69875z" stroke="#000000" stroke-width="0"/></g><path d="M351.3669,227.07553c0,-1.4122 1.14482,-2.55702 2.55702,-2.55702c1.4122,0 2.55702,1.14482 2.55702,2.55702c0,0.9921 -0.56501,1.85224 -1.39081,2.27619c-0.08015,0.04115 1.59215,1.12894 2.19641,2.44866c0.77748,1.69804 0.54584,3.7168 0.54584,3.7168l-8.34705,0.00133c0,0 -0.12735,-2.17611 0.5241,-3.63702c0.76603,-1.71783 2.60297,-2.39312 2.35124,-2.65768c-0.43642,-0.45867 -0.99376,-1.46518 -0.99376,-2.14828z" fill="#ff00c8" stroke="none" stroke-width="0" stroke-linecap="butt"/><path d="M354.47801,229.7422c0,-1.4122 1.14482,-2.55702 2.55702,-2.55702c1.4122,0 2.55701,1.14482 2.55701,2.55702c0,0.99211 -0.56501,1.85225 -1.39081,2.2762c-0.08015,0.04115 1.59215,1.12894 2.19641,2.44866c0.77748,1.69805 0.54584,3.7168 0.54584,3.7168l-8.34705,0.00133c0,0 -0.12735,-2.17611 0.52411,-3.63702c0.76603,-1.71783 2.60297,-2.39312 2.35124,-2.65768c-0.43642,-0.45867 -0.99376,-1.46517 -0.99376,-2.14828z" fill="#9c005c" stroke="none" stroke-width="0" stroke-linecap="butt"/><path d="M344.90695,205.73333v-28.46667h70.2v28.46667z" fill="url(#color-1)" stroke="#000000" stroke-width="0" stroke-linecap="butt"/><g fill="none" stroke="#000000" stroke-width="2"><path d="M345,241.7057v-106.16129h70v106.16129z" stroke-linecap="butt"/><path d="M345.33333,206.08273h68.33333" stroke-linecap="round"/></g></g></g></svg>