<svg version="1.1" xmlns="http://www.w3.org/2000/svg" xmlns:xlink="http://www.w3.org/1999/xlink" width="24.15987" height="24.356" viewBox="0,0,24.15987,24.356"><g transform="translate(-367.89328,-167.82218)"><g data-paper-data="{&quot;isPaintingLayer&quot;:true}" fill-rule="nonzero" stroke-linejoin="miter" stroke-miterlimit="10" stroke-dasharray="" stroke-dashoffset="0" style="mix-blend-mode: normal"><g><g data-paper-data="{&quot;index&quot;:null}" fill="#bc0000" stroke="#590000" stroke-width="0" stroke-linecap="butt"><path d="M374.2979,183.12792l2.5676,2.5676l-5.85734,5.85733l-2.5676,-2.5676z"/><path d="M377.75587,182.25306l-0.32871,5.60886l-5.45614,-5.45616z"/></g><path d="M368.68056,188.89647l4.97727,-4.88636l-1.45455,-1.45455h5.27273v4.77273l-1.09091,-1.09091l-5.22727,5.22727z" fill="none" stroke="#ff8383" stroke-width="1" stroke-linecap="round"/></g><g data-paper-data="{&quot;index&quot;:null}"><g data-paper-data="{&quot;index&quot;:null}" fill="#bc0000" stroke="#590000" stroke-width="0" stroke-linecap="butt"><path d="M391.5892,188.9297l-2.5676,2.5676l-5.85734,-5.85733l2.5676,-2.5676z"/><path d="M388.05874,182.35021l-5.45614,5.45616l-0.32871,-5.60886z"/></g><path d="M388.87193,191.40909l-5.22727,-5.22727l-1.09091,1.09091v-4.77273h5.27272l-1.45454,1.45454l4.97727,4.88637z" fill="none" stroke="#ff8383" stroke-width="1" stroke-linecap="round"/></g><g data-paper-data="{&quot;index&quot;:null}"><g><g data-paper-data="{&quot;index&quot;:null}" fill="#bc0000" stroke="#590000" stroke-width="0" stroke-linecap="butt"><path d="M368.35723,171.01511l2.5676,-2.5676l5.85734,5.85733l-2.5676,2.5676z"/><path d="M371.88769,177.5946l5.45614,-5.45616l0.32871,5.60886z"/></g><path d="M371.0745,168.53572l5.22727,5.22727l1.09091,-1.09091v4.77273h-5.27272l1.45454,-1.45454l-4.97727,-4.88637z" fill="none" stroke="#ff8383" stroke-width="1" stroke-linecap="round"/></g><g data-paper-data="{&quot;index&quot;:null}"><g data-paper-data="{&quot;index&quot;:null}" fill="#bc0000" stroke="#590000" stroke-width="0" stroke-linecap="butt"><path d="M385.64853,176.928l-2.5676,-2.5676l5.85734,-5.85733l2.5676,2.5676z"/><path d="M382.19056,177.80286l0.32871,-5.60886l5.45614,5.45616z"/></g><path d="M391.26588,171.15945l-4.97728,4.88637l1.45454,1.45454h-5.27272v-4.77273l1.09091,1.09091l5.22727,-5.22727z" fill="none" stroke="#ff8383" stroke-width="1" stroke-linecap="round"/></g></g></g></g></svg>