<svg version="1.1" xmlns="http://www.w3.org/2000/svg" xmlns:xlink="http://www.w3.org/1999/xlink" width="60.16666" height="62.16667" viewBox="0,0,60.16666,62.16667"><defs><radialGradient cx="353.65943" cy="151.56" r="28.33333" gradientUnits="userSpaceOnUse" id="color-1"><stop offset="0" stop-color="#9e5f20"/><stop offset="1" stop-color="#c29033"/></radialGradient><radialGradient cx="392.01501" cy="180.73116" r="13.80877" gradientUnits="userSpaceOnUse" id="color-2"><stop offset="0" stop-color="#395b31"/><stop offset="1" stop-color="#506f47"/></radialGradient><radialGradient cx="386.87215" cy="181.30089" r="11" gradientUnits="userSpaceOnUse" id="color-3"><stop offset="0" stop-color="#395b31"/><stop offset="1" stop-color="#506f47"/></radialGradient><radialGradient cx="376.67255" cy="183.09852" r="17.66667" gradientUnits="userSpaceOnUse" id="color-4"><stop offset="0" stop-color="#395b31"/><stop offset="1" stop-color="#506f47"/></radialGradient><radialGradient cx="392.15786" cy="181.15636" r="13.80878" gradientUnits="userSpaceOnUse" id="color-5"><stop offset="0" stop-color="#395b31"/><stop offset="1" stop-color="#506f47"/></radialGradient><radialGradient cx="380.89993" cy="183.80685" r="2.79167" gradientUnits="userSpaceOnUse" id="color-6"><stop offset="0" stop-color="#395b31"/><stop offset="1" stop-color="#506f47"/></radialGradient><radialGradient cx="380.98326" cy="190.30685" r="2.79166" gradientUnits="userSpaceOnUse" id="color-7"><stop offset="0" stop-color="#395b31"/><stop offset="1" stop-color="#506f47"/></radialGradient><radialGradient cx="380.98326" cy="196.80685" r="2.79167" gradientUnits="userSpaceOnUse" id="color-8"><stop offset="0" stop-color="#395b31"/><stop offset="1" stop-color="#506f47"/></radialGradient><radialGradient cx="362.92255" cy="183.09851" r="17.66667" gradientUnits="userSpaceOnUse" id="color-9"><stop offset="0" stop-color="#395b31"/><stop offset="1" stop-color="#506f47"/></radialGradient><radialGradient cx="365.36422" cy="170.64018" r="3.33333" gradientUnits="userSpaceOnUse" id="color-10"><stop offset="0" stop-color="#395b31"/><stop offset="1" stop-color="#506f47"/></radialGradient></defs><g transform="translate(-349.91671,-148.91671)"><g data-paper-data="{&quot;isPaintingLayer&quot;:true}" fill-rule="nonzero" stroke-linecap="butt" stroke-linejoin="miter" stroke-miterlimit="10" stroke-dasharray="" stroke-dashoffset="0" style="mix-blend-mode: normal"><path d="M352.66672,208.33338v-56.66667h54.66666v56.66667z" fill="#3b3b3b" stroke="url(#color-1)" stroke-width="5.5"/><g stroke-width="0"><path d="M365.69788,159.64015h24.75v9.125h-24.75z" fill="#9c7d6e" stroke="#395b31"/><path d="M387.07288,155.89015l4.5,4.25v7.875l-4.5,-4.25z" fill="#481717" stroke="none"/><path d="M378.94788,161.89015h3.75v3.875h-3.75z" fill="#453831" stroke="#395b31"/><path d="M370.82288,161.51515h3.5v4.125h-3.5z" fill="#453831" stroke="none"/><g><g><path d="M362.14536,200.65682v-35.2h13.725v35.2z" fill="#9c7d6e" stroke="#395b31"/><path d="M385.7293,163.15802l12.57142,6.43195v22.28234l-12.57142,-10.00338z" data-paper-data="{&quot;index&quot;:null}" fill="#481717" stroke="url(#color-2)"/><path d="M375.87215,165.44371l10.29254,0.07395l11.70746,5.0689v21.42857l-11.91837,8.7775l-10.08163,-0.06322z" fill="#9c7d6e" stroke="url(#color-3)"/><path d="M375.79755,165.4596h1.75v35.27777h-1.75z" fill="#6c615b" stroke="url(#color-4)"/><path d="M385.87215,180.01856l12.57142,-10.00338v22.28234l-12.57142,11.00337z" fill="#481717" stroke="url(#color-5)"/><path d="M379.14993,181.01518h3.5v5.58333h-3.5z" fill="#453831" stroke="url(#color-6)"/><path d="M379.23326,187.51518h3.5v5.58334h-3.5z" fill="#453831" stroke="url(#color-7)"/><path d="M379.23326,194.01517h3.5v5.58334h-3.5z" fill="#453831" stroke="url(#color-8)"/><path d="M369.14434,190.53181v-3.625h5v3.625z" fill="#453831" stroke="#395b31"/><path d="M369.01934,198.28181v-3.625h5v3.625z" fill="#453831" stroke="#395b31"/><path d="M368.15684,201.21829v-12.7h1.4v12.7z" fill="#969392" stroke="#395b31"/><path d="M366.55684,191.11829v-0.9h2.9v0.9z" fill="#969392" stroke="none"/><path d="M366.75681,194.71829v-1.2h1.6v1.2z" fill="#969392" stroke="none"/><path d="M366.55684,199.21828v-1.1h2.1v1.1z" fill="#969392" stroke="none"/><path d="M362.04755,165.45959h1.75v35.27777h-1.75z" fill="#6c615b" stroke="url(#color-9)"/><path d="M361.95684,201.11829v-16l1.99403,0.01217l-0.07694,1.566l1.65896,0.1011l0.06561,1.35549l1.65834,0.16524v1.1v11.7z" fill="#969392" stroke="#395b31"/><path d="M362.03089,168.55682h6.66667v4.16667h-6.66667z" fill="#453831" stroke="url(#color-10)"/></g><path d="M382.06931,170.98181c0,-1.31168 1.2592,-2.375 2.8125,-2.375c1.5533,0 2.8125,1.06332 2.8125,2.375c0,1.31168 -1.2592,2.375 -2.8125,2.375c-1.5533,0 -2.8125,-1.06332 -2.8125,-2.375z" fill="#453831" stroke="#395b31"/></g><path d="M391.57288,185.64015h10.25v5.5h-10.25z" fill="#5a5a5a" stroke="#395b31"/><path d="M400.57288,184.26515h2.375v9h-2.375z" fill="#5a5a5a" stroke="none"/></g><path d="M393.62519,152.02928c0,0 2.5278,1.42085 3.65838,2.13852c0.97697,0.62016 2.73179,1.91788 2.73179,1.91788c0,0 3.52541,0.07703 4.57511,0.09996c0.19933,0.00435 0.41937,-0.7259 0.61902,-0.72154c0.35209,0.0077 0.6408,0.74906 0.6408,0.74906l0.00852,3.60865c0,0 -0.37251,0.74322 -0.79405,0.75244c-0.18055,0.00396 -0.37011,-0.72696 -0.54324,-0.72317c-1.06096,0.02324 -4.51589,0.09887 -4.51589,0.09887c0,0 -1.97548,1.90235 -3.00119,2.65155c-1.07894,0.78807 -3.32081,1.96618 -3.32081,1.96618c0,0 -1.14783,0.07654 -1.41073,-1.72265c-0.38297,-2.62094 0.0721,-7.57276 0.06609,-8.86113c-0.00928,-1.99069 1.28619,-1.95463 1.28619,-1.95463z" fill="#00d0ff" stroke="#000000" stroke-width="0"/><text transform="translate(395.77543,164.66422) rotate(90) scale(0.21261,0.21261)" font-size="40" xml:space="preserve" fill="#ffffff" fill-rule="nonzero" stroke="none" stroke-width="1" stroke-linecap="butt" stroke-linejoin="miter" stroke-miterlimit="10" stroke-dasharray="" stroke-dashoffset="0" font-family="Pixel" font-weight="normal" text-anchor="start" style="mix-blend-mode: normal"><tspan x="0" dy="0">450</tspan></text><path d="M357.63806,196.51676h12.13605v2.22209h-12.13605z" fill="#ffffff" stroke="none" stroke-width="0"/><path d="M369.60317,194.9528h1.7093v8.975h-1.7093z" fill="#ffffff" stroke="none" stroke-width="5.5"/><path d="M356.7834,194.9528h1.7093v8.975h-1.7093z" fill="#ffffff" stroke="none" stroke-width="5.5"/><path d="M358.01306,200.39177h12.13605v2.22209h-12.13605z" fill="#ffffff" stroke="none" stroke-width="0"/></g></g></svg>