<svg version="1.1" xmlns="http://www.w3.org/2000/svg" xmlns:xlink="http://www.w3.org/1999/xlink" width="60.16666" height="62.16667" viewBox="0,0,60.16666,62.16667"><defs><linearGradient x1="352.66667" y1="180.00002" x2="407.33333" y2="180.00002" gradientUnits="userSpaceOnUse" id="color-1"><stop offset="0" stop-color="#ff0000"/><stop offset="1" stop-color="#00ff12"/></linearGradient><radialGradient cx="353.34806" cy="206.2778" r="28.33334" gradientUnits="userSpaceOnUse" id="color-2"><stop offset="0" stop-color="#395b31"/><stop offset="1" stop-color="#506f47"/></radialGradient></defs><g transform="translate(-349.91667,-148.91667)"><g data-paper-data="{&quot;isPaintingLayer&quot;:true}" fill-rule="nonzero" stroke-linecap="butt" stroke-linejoin="miter" stroke-miterlimit="10" stroke-dasharray="" stroke-dashoffset="0" style="mix-blend-mode: normal"><path d="M352.66667,208.33334v-56.66667h54.66666v56.66667z" fill="url(#color-1)" stroke="url(#color-2)" stroke-width="5.5"/><path d="M381.9348,185.30347c-2.96373,1.65034 -6.70419,0.58563 -8.35454,-2.37809c-1.65034,-2.96373 -0.58563,-6.70419 2.37809,-8.35454c2.96373,-1.65034 6.70419,-0.58563 8.35454,2.37809c1.65034,2.96373 0.58563,6.70419 -2.37809,8.35454z" fill="#ff9100" stroke="none" stroke-width="0"/><path d="M378.05018,169.78972c-1.63614,-0.22191 -3.35535,0.0643 -4.90889,0.9294c-1.46627,0.81649 -2.57182,2.02998 -3.25727,3.43135l-9.63462,-7.83751c0,0 0.78182,-2.12976 2.52554,-4.09793c1.11274,-1.25596 3.12356,-2.48237 3.92684,-2.92966c0.9744,-0.54264 2.92719,-1.58748 4.86623,-1.90591c1.9818,-0.32541 3.93981,0.08156 3.93981,0.08156z" fill="#ffe700" stroke="#000000" stroke-width="0"/><path d="M370.16155,185.57383c0.655,1.51567 1.78799,2.83996 3.33115,3.7235c1.45645,0.83386 3.06657,1.15389 4.62059,1.01701l-1.73527,12.29805c0,0 -2.22751,0.43047 -4.81344,-0.04618c-1.65018,-0.30417 -3.73885,-1.39263 -4.53677,-1.84947c-0.96789,-0.55414 -2.87115,-1.68669 -4.14528,-3.18264c-1.30224,-1.52892 -1.965,-3.4158 -1.965,-3.4158z" fill="#ffe700" stroke="#000000" stroke-width="0"/><path d="M400.45673,172.10105c0,0 1.255,1.55713 1.86895,3.4693c0.60074,1.87095 0.56114,4.08534 0.52253,5.2c-0.03185,0.91887 -0.20649,3.26765 -0.81695,4.83069c-0.95658,2.44934 -2.49563,4.11623 -2.49563,4.11623l-11.3684,-5.00128c0.93474,-1.24903 1.51058,-2.78629 1.56873,-4.46355c0.06157,-1.77715 -0.46755,-3.43774 -1.41108,-4.79273z" data-paper-data="{&quot;index&quot;:null}" fill="#ffe700" stroke="#000000" stroke-width="0"/><path d="M396.27135,179.92515c0.22764,9.317 -7.14073,17.05443 -16.45774,17.28207c-9.317,0.22764 -17.05443,-7.14073 -17.28207,-16.45774c-0.22764,-9.317 7.14073,-17.05443 16.45774,-17.28207c9.317,-0.22764 17.05443,7.14073 17.28207,16.45774z" fill="#000000" stroke="#000000" stroke-width="0"/><path d="M383.53142,180.25971c-0.07158,2.12344 -1.851,3.78681 -3.97444,3.71524c-2.12344,-0.07158 -3.78681,-1.851 -3.71524,-3.97444c0.07158,-2.12344 1.851,-3.78681 3.97444,-3.71524c2.12344,0.07158 3.78681,1.851 3.71524,3.97444z" fill="#ff9100" stroke="none" stroke-width="0"/><path d="M373.95166,177.33382c-0.64751,0.80633 -1.04918,1.82135 -1.08669,2.93443c-0.03541,1.05055 0.25872,2.03574 0.78936,2.85618l-7.31756,2.63893c0,0 -0.89039,-1.1074 -1.38339,-2.6788c-0.3146,-1.00277 -0.32329,-2.47793 -0.30388,-3.05346c0.02351,-0.69815 0.09351,-2.08353 0.54889,-3.22692c0.46544,-1.16859 1.31622,-2.08788 1.31622,-2.08788z" fill="#ff9100" stroke="#000000" stroke-width="0"/><path d="M379.93868,186.55759c1.0249,0.13803 2.10148,-0.04226 3.07401,-0.58501c0.91787,-0.51226 1.60963,-1.27294 2.03808,-2.15108l6.03906,4.90313c0,0 -0.48842,1.33438 -1.57939,2.56812c-0.69619,0.7873 -1.95487,1.5566 -2.45773,1.83724c-0.60997,0.34043 -1.83243,0.99599 -3.04671,1.19658c-1.24105,0.20502 -2.46766,-0.04873 -2.46766,-0.04873z" fill="#ff9100" stroke="#000000" stroke-width="0"/><path d="M382.49328,165.94895c0,0 1.24093,-0.17056 2.46535,0.11755c1.19803,0.28189 2.37355,1.01833 2.95924,1.39905c0.48281,0.31386 1.68683,1.16617 2.32844,1.99858c1.00544,1.3044 1.40287,2.66866 1.40287,2.66866l-6.35552,4.48535c-0.36837,-0.90501 -1.00733,-1.71052 -1.88862,-2.28343c-0.93379,-0.60701 -1.9958,-0.85939 -3.02766,-0.79069z" data-paper-data="{&quot;index&quot;:null}" fill="#ff9100" stroke="#000000" stroke-width="0"/><path d="M393.0955,154.02926c0,0 2.5278,1.42085 3.65838,2.13852c0.97697,0.62016 2.73179,1.91788 2.73179,1.91788c0,0 3.52541,0.07703 4.57511,0.09996c0.19933,0.00435 0.41937,-0.7259 0.61902,-0.72154c0.35209,0.0077 0.6408,0.74906 0.6408,0.74906l0.00852,3.60865c0,0 -0.37251,0.74322 -0.79405,0.75244c-0.18055,0.00396 -0.37011,-0.72696 -0.54324,-0.72317c-1.06096,0.02324 -4.51589,0.09887 -4.51589,0.09887c0,0 -1.97548,1.90235 -3.00119,2.65155c-1.07894,0.78807 -3.32081,1.96618 -3.32081,1.96618c0,0 -1.14783,0.07654 -1.41073,-1.72265c-0.38297,-2.62094 0.0721,-7.57276 0.06609,-8.86113c-0.00928,-1.99069 1.28619,-1.95463 1.28619,-1.95463z" fill="#00d0ff" stroke="#000000" stroke-width="0"/><text transform="translate(395.24578,166.66421) rotate(90) scale(0.21261,0.21261)" font-size="40" xml:space="preserve" fill="#ffffff" fill-rule="nonzero" stroke="none" stroke-width="1" stroke-linecap="butt" stroke-linejoin="miter" stroke-miterlimit="10" stroke-dasharray="" stroke-dashoffset="0" font-family="Pixel" font-weight="normal" text-anchor="start" style="mix-blend-mode: normal"><tspan x="0" dy="0">400</tspan></text><g fill="#ffffff" stroke="none"><path d="M369.60311,196.57778h1.7093v7.35h-1.7093z" stroke-width="5.5"/><path d="M357.63799,199.14173h12.13605v2.22209h-12.13605z" stroke-width="0"/><path d="M356.78334,196.57778h1.7093v7.35h-1.7093z" stroke-width="5.5"/></g></g></g></svg>