<svg version="1.1" xmlns="http://www.w3.org/2000/svg" xmlns:xlink="http://www.w3.org/1999/xlink" width="72" height="108.16129" viewBox="0,0,72,108.16129"><defs><linearGradient x1="380.00695" y1="177.26667" x2="380.00695" y2="205.73333" gradientUnits="userSpaceOnUse" id="color-1"><stop offset="0" stop-color="#ff0000" stop-opacity="0"/><stop offset="1" stop-color="#ff0000"/></linearGradient></defs><g transform="translate(-344,-134.54441)"><g data-paper-data="{&quot;isPaintingLayer&quot;:true}" fill-rule="nonzero" stroke-linejoin="miter" stroke-miterlimit="10" stroke-dasharray="" stroke-dashoffset="0" style="mix-blend-mode: normal"><path d="M344.91667,242.04169v-106h70.25v106z" fill="#006eff" stroke="none" stroke-width="0" stroke-linecap="butt"/><path d="M345.08758,205.66666v-69.75h69.75v69.75z" fill="#0100a6" stroke="#000000" stroke-width="0" stroke-linecap="butt"/><path d="M345.14405,188.66666v-18h69.25v18z" fill="#00ff37" stroke="#000000" stroke-width="0" stroke-linecap="butt"/><text transform="translate(354.38334,216.26551) scale(0.22618,0.22618)" font-size="40" xml:space="preserve" fill="#000000" fill-rule="nonzero" stroke="none" stroke-width="1" stroke-linecap="butt" stroke-linejoin="miter" stroke-miterlimit="10" stroke-dasharray="" stroke-dashoffset="0" font-family="Serif" font-weight="normal" text-anchor="start" style="mix-blend-mode: normal"><tspan x="0" dy="0">Josher Nelson</tspan></text><path d="M352.18312,162.4679l7.91995,-21.03288l6.73197,21.54587l-18.6319,-13.33792h24.57187z" fill="#ffc300" stroke="#000000" stroke-width="0" stroke-linecap="round"/><path d="M374.65282,164.7074l0.18477,-0.04074c1.87035,0.0057 3.86919,-0.58623 5.73638,-0.22745c6.55906,1.26032 13.49343,-0.30677 17.24578,4.80094c2.04447,2.92208 5.83497,19.81922 7.16978,22.9412c1.13432,2.65306 1.90269,10.61093 2.77256,13.30747c0.33648,1.04308 -27.12232,0.77417 -31.0485,0.39921c-4.09668,-0.39124 -8.26712,-0.22138 -12.376,-0.22138c-2.5,0 -5,0 -7.5,0c-0.37634,0 -2.70741,0.01623 -2.89528,-0.06415c-2.68765,-1.14989 -1.85472,-4.09388 -1.85472,-6.43585c0,-5.23557 -0.28423,-10.1786 2.09515,-14.97835c0.69577,-1.97464 2.86118,-13.83075 6.96236,-17.18832c2.64167,-2.16269 9.25315,-3.2104 12.93763,-2.55905c0,0 0.29752,0.0595 0.57009,0.26646z" fill="#193f14" stroke="none" stroke-width="0.5" stroke-linecap="butt"/><path d="M414.16667,220.66671h-69" fill="none" stroke="#000000" stroke-width="2" stroke-linecap="round"/><path d="M379.86404,241.16671v-20" fill="none" stroke="#000000" stroke-width="2" stroke-linecap="round"/><text transform="translate(398.95834,235.53339) scale(0.335,0.335)" font-size="40" xml:space="preserve" fill="#000000" fill-rule="nonzero" stroke="none" stroke-width="1" stroke-linecap="butt" stroke-linejoin="miter" stroke-miterlimit="10" stroke-dasharray="" stroke-dashoffset="0" font-family="Serif" font-weight="normal" text-anchor="start" style="mix-blend-mode: normal"><tspan x="0" dy="0">25</tspan></text><path d="M378.11121,167.07979c0.4079,-0.41586 0.91666,-0.06795 0.91666,-0.06795l0.61409,0.42204c0.44235,0.40894 1.04641,0.60559 1.32705,1.22682c0.57218,1.2666 0.1858,3.83251 0.76566,5.41198c1.87573,7.63708 -0.09247,16.87998 -0.79648,24.62797c-0.14339,1.57811 0.1252,3.47186 -0.3499,4.99641c-0.56611,1.81659 -2.13743,3.72972 -3.57591,1.95426c-0.82133,-1.01374 -0.68919,-2.52883 -0.70071,-3.80375c0.00449,-2.5612 -0.86842,-5.06042 -0.55617,-7.62979c0.78706,-6.47646 1.69713,-12.91642 1.69713,-19.58103c0,-2.09132 0.18699,-3.95658 -0.3711,-5.91138c0,0 -0.31298,-1.1415 0.52164,-1.56956c0.19769,-0.10139 0.36612,-0.11473 0.50806,-0.07602z" fill="#132f0f" stroke="none" stroke-width="0.5" stroke-linecap="butt"/><path d="M358.08159,168.76555l-0.77989,-3.412l12.91688,-2.95243l0.77989,3.412z" fill="#ffcf00" stroke="#000000" stroke-width="0" stroke-linecap="butt"/><path d="M386.17671,166.68812l0.77989,-3.412l12.91687,2.95243l-0.77988,3.412z" data-paper-data="{&quot;index&quot;:null}" fill="#ffcf00" stroke="#000000" stroke-width="0" stroke-linecap="butt"/><path d="M388.45498,149.36598l0.39666,0.31979c0.41286,1.13954 0.76347,2.31047 0.96547,3.50554c0.0445,0.22776 0.09809,0.44771 0.15812,0.6614c2.06966,1.17344 2.86287,3.64087 1.18379,5.73679c-0.03517,0.1459 -0.07751,0.29509 -0.12768,0.44793c-2.93052,8.9289 -16.08069,10.37438 -21.69375,3.12923c-3.20029,-4.47811 -0.83483,-13.9125 4.39849,-16.34576c3.93253,-1.82845 11.80057,-1.16984 14.60151,2.34576c0,0 0.05625,0.075 0.1174,0.19932z" fill="#ffb697" stroke="none" stroke-width="0.5" stroke-linecap="butt"/><path d="M368.31752,155.34984c-0.25526,-0.49869 0.26268,-5.17984 -0.14158,-8.73907c-0.37381,-3.29109 -1.68111,-5.49866 -1.68111,-5.49866c0,0 2.68898,-1.31134 6.34634,-1.74453c2.32065,-0.27487 11.57243,-0.46624 14.57564,0.02824c3.68063,0.60601 7.10718,2.28038 7.10718,2.28038c0,0 -2.15585,2.67869 -3.25315,5.48971c-1.17803,3.01782 -1.31037,6.18816 -1.53363,6.36029c-0.18626,0.1436 -4.40568,-3.56631 -5.25053,-3.50481c-1.54673,0.1126 -5.50675,-0.72217 -7.66272,-0.77014c-0.4236,0.17643 -4.78822,1.3292 -6.62989,2.73476c-1.63828,1.25033 -1.94597,3.50442 -1.87656,3.36383z" fill="#193f14" stroke="none" stroke-width="0.5" stroke-linecap="butt"/><path d="M375.02508,157.33333c0,-0.69036 0.55964,-1.25 1.25,-1.25c0.69036,0 1.25,0.55964 1.25,1.25c0,0.69036 -0.55964,1.25 -1.25,1.25c-0.69036,0 -1.25,-0.55964 -1.25,-1.25z" fill="#000000" stroke="none" stroke-width="0.5" stroke-linecap="butt"/><path d="M383.52508,157.70833c0,-0.69036 0.55964,-1.25 1.25,-1.25c0.69036,0 1.25,0.55964 1.25,1.25c0,0.69036 -0.55964,1.25 -1.25,1.25c-0.69036,0 -1.25,-0.55964 -1.25,-1.25z" fill="#000000" stroke="none" stroke-width="0.5" stroke-linecap="butt"/><path d="M379.40008,154.70833c0,1.25 -1.25,1.25 -1.25,1.25c-0.875,0 -2.875,0 -3.75,0c0,0 -1.25,0 -1.25,-1.25c0,-1.25 1.25,-1.25 1.25,-1.25c0.875,0 1.75,0 2.625,0h1.125c0,0 1.25,0 1.25,1.25z" fill="#000000" stroke="none" stroke-width="0.5" stroke-linecap="butt"/><path d="M387.65008,154.45833c0,1.25 -1.25,1.25 -1.25,1.25h-1.125c-0.85171,-0.00316 -1.7048,0.09045 -2.5445,0.23299c0,0 -1.23299,0.2055 -1.43849,-1.02749c-0.2055,-1.23299 1.02749,-1.43849 1.02749,-1.43849c0.97614,-0.16006 1.96633,-0.26389 2.9555,-0.26701h1.125c0,0 1.25,0 1.25,1.25z" fill="#000000" stroke="none" stroke-width="0.5" stroke-linecap="butt"/><path d="M378.52508,162.20833c0,-1.25 1.25,-1.25 1.25,-1.25l0.12985,0.02427c0.73668,0.65923 -0.32957,-0.50849 -0.58581,-1.44538c0,0 -0.3289,-1.20595 0.87706,-1.53485c1.20595,-0.3289 1.53485,0.87706 1.53485,0.87706c0.7486,2.75325 1.63769,3.3294 -1.33581,4.55462l-0.62015,0.02427c0,0 -1.25,0 -1.25,-1.25z" fill="#000000" stroke="none" stroke-width="0.5" stroke-linecap="butt"/><path d="M382.27508,165.58333c0,1.25 -1.25,1.25 -1.25,1.25h-0.875c-1.60993,-0.00133 -2.93829,-0.09635 -4.48418,-0.55272c0,0 -1.19728,-0.35918 -0.8381,-1.55647c0.35918,-1.19728 1.55647,-0.8381 1.55647,-0.8381c1.31544,0.4023 2.388,0.44851 3.76582,0.44728h0.875c0,0 1.25,0 1.25,1.25z" fill="#000000" stroke="none" stroke-width="0.5" stroke-linecap="butt"/><path d="M361.08919,171.63782c-0.69338,-1.04006 0.34669,-1.73344 0.34669,-1.73344l0.39314,-0.25355c0.90364,-0.72838 2.00035,-1.22271 3.10771,-1.57034c0,0 1.19728,-0.35918 1.55647,0.8381c0.35918,1.19728 -0.8381,1.55647 -0.8381,1.55647c-0.79604,0.22414 -1.60324,0.55175 -2.22562,1.09633l-0.60686,0.41312c0,0 -1.04006,0.69338 -1.73344,-0.34669z" fill="#ffcf00" stroke="none" stroke-width="0.5" stroke-linecap="butt"/><path d="M364.73604,175.46161c-1.01717,-0.72655 -0.29062,-1.74371 -0.29062,-1.74371l0.76525,-1.06039c0.20322,-0.46247 0.40643,-0.92493 0.60965,-1.3874c0,0 0.50767,-1.14226 1.64994,-0.63459c1.14226,0.50767 0.63459,1.64994 0.63459,1.64994c-0.24123,0.53753 -0.48246,1.07507 -0.72368,1.6126l-0.90141,1.27294c0,0 -0.72655,1.01717 -1.74371,0.29062z" fill="#ffcf00" stroke="none" stroke-width="0.5" stroke-linecap="butt"/><path d="M367.73397,178.1303c-1.18585,-0.39528 -0.79057,-1.58114 -0.79057,-1.58114l0.6353,-1.4886c0.33333,-0.33333 0.66667,-0.66667 1,-1c0,0 0.88388,-0.88388 1.76777,0c0.88388,0.88388 0,1.76777 0,1.76777c-0.33333,0.33333 -0.66667,0.66667 -1,1l-0.03136,0.5114c0,0 -0.39528,1.18585 -1.58114,0.79057z" fill="#ffcf00" stroke="none" stroke-width="0.5" stroke-linecap="butt"/><path d="M371.41203,180.82833c-0.88388,-0.88388 0,-1.76777 0,-1.76777l0.09918,-0.00847c0.22222,-0.44444 0.44444,-0.88889 0.66667,-1.33333c0,0 0.55902,-1.11803 1.67705,-0.55902c1.11803,0.55902 0.55902,1.67705 0.55902,1.67705c-0.22222,0.44444 -0.44444,0.88889 -0.66667,1.33333l-0.56748,0.6582c0,0 -0.88388,0.88388 -1.76777,0z" fill="#ffcf00" stroke="none" stroke-width="0.5" stroke-linecap="butt"/><path d="M374.34241,183.02975c-1.0853,-0.62017 -0.46513,-1.70548 -0.46513,-1.70548l0.66667,-1.16667c0,0 0.62017,-1.0853 1.70548,-0.46513c1.0853,0.62017 0.46513,1.70548 0.46513,1.70548l-0.66667,1.16667c0,0 -0.62017,1.0853 -1.70548,0.46513z" fill="#ffcf00" stroke="none" stroke-width="0.5" stroke-linecap="butt"/><path d="M380.20207,192.61918c-1.17474,-0.42718 -0.74756,-1.60192 -0.74756,-1.60192l0.47708,-1.31198c-0.2736,0.17986 -0.66311,0.27743 -1.17342,0.03424c-1.12842,-0.53775 -0.59067,-1.66617 -0.59067,-1.66617l0.71315,-1.39169c0.54578,-0.62974 1.09155,-1.25948 1.63733,-1.88922c0,0 0.81866,-0.94461 1.76327,-0.12595c0.94461,0.81866 0.12595,1.76327 0.12595,1.76327c-0.54578,0.62974 -1.09155,1.25948 -1.63733,1.88922l-0.06898,0.16566c0.24709,-0.14356 0.58221,-0.20828 1.0222,-0.04829c1.17474,0.42718 0.74756,1.60192 0.74756,1.60192l-0.66667,1.83333c0,0 -0.42718,1.17474 -1.60192,0.74756z" fill="#ffcf00" stroke="none" stroke-width="0.5" stroke-linecap="butt"/><path d="M383.40357,197.72914c-1.11803,-0.55902 -0.55902,-1.67705 -0.55902,-1.67705c0.37268,-0.74536 1.12732,-2.25464 1.5,-3c0,0 0.55902,-1.11803 1.67705,-0.55902c1.11803,0.55902 0.55902,1.67705 0.55902,1.67705c-0.37268,0.74536 -0.74536,1.49071 -1.11803,2.23607l-0.38197,0.76393c0,0 -0.55902,1.11803 -1.67705,0.55902z" fill="#ffcf00" stroke="none" stroke-width="0.5" stroke-linecap="butt"/><path d="M389.85795,201.48351c-0.06148,0.35484 -0.30037,1.04426 -1.2287,1.04426c-1.25,0 -1.25,-1.25 -1.25,-1.25l0.36612,-1.21722c0.55556,-0.55556 1.11111,-1.11111 1.66667,-1.66667c0,0 0.88388,-0.88388 1.76777,0c0.88388,0.88388 0,1.76777 0,1.76777c-0.44062,0.44062 -0.88124,0.88124 -1.32185,1.32185z" fill="#ffcf00" stroke="none" stroke-width="0.5" stroke-linecap="butt"/><path d="M399.23199,206.35619c-0.82841,0.93607 -1.76449,0.10766 -1.76449,0.10766l-0.26542,-0.23489c-2.54834,-2.25525 -3.86872,-3.04151 -4.63189,-6.45603c0,0 -0.24515,-1.22573 0.98058,-1.47087c1.22573,-0.24515 1.47087,0.98058 1.47087,0.98058c0.46571,2.77338 1.75722,3.23336 3.83727,5.07418l0.26542,0.23489c0,0 0.93607,0.82841 0.10766,1.76449z" fill="#ffcf00" stroke="none" stroke-width="0.5" stroke-linecap="butt"/><path d="M405.62925,196.36111c1.25,0 1.25,1.25 1.25,1.25l-0.13197,1.22568c-0.22222,0.44444 -0.44444,0.88889 -0.66667,1.33333c0,0 -0.55902,1.11803 -1.67705,0.55902c-1.11803,-0.55902 -0.55902,-1.67705 -0.55902,-1.67705c0.22222,-0.44444 0.44444,-0.88889 0.66667,-1.33333l-0.13197,-0.10765c0,0 0,-1.25 1.25,-1.25z" fill="#ffcf00" stroke="none" stroke-width="0.5" stroke-linecap="butt"/><path d="M400.12925,191.36111c1.25,0 1.25,1.25 1.25,1.25l-0.00765,1.02863c0.05556,0.5 0.11111,1 0.16667,1.5c0,0 0.13804,1.24235 -1.10432,1.38039c-1.24235,0.13804 -1.38039,-1.10432 -1.38039,-1.10432c-0.05556,-0.5 -0.11111,-1 -0.16667,-1.5l-0.00765,-1.30471c0,0 0,-1.25 1.25,-1.25z" fill="#ffcf00" stroke="none" stroke-width="0.5" stroke-linecap="butt"/><path d="M395.96258,186.52778c1.25,0 1.25,1.25 1.25,1.25v0.33333c-0.01093,0.88024 0.14773,1.77289 0.43585,2.60472c0,0 0.39528,1.18585 -0.79057,1.58114c-1.18585,0.39528 -1.58114,-0.79057 -1.58114,-0.79057c-0.35292,-1.09165 -0.55325,-2.24806 -0.56415,-3.39528v-0.33333c0,0 0,-1.25 1.25,-1.25z" fill="#ffcf00" stroke="none" stroke-width="0.5" stroke-linecap="butt"/><path d="M390.62925,182.02778c1.25,0 1.25,1.25 1.25,1.25l-0.00426,1.23023c0.10686,0.63253 0.21372,1.26507 0.32058,1.8976c0,0 0.2055,1.23299 -1.02749,1.43849c-1.23299,0.2055 -1.43849,-1.02749 -1.43849,-1.02749c-0.11536,-0.7008 -0.23072,-1.4016 -0.34608,-2.1024l-0.00426,-1.43643c0,0 0,-1.25 1.25,-1.25z" fill="#ffcf00" stroke="none" stroke-width="0.5" stroke-linecap="butt"/><path d="M383.96258,176.19444c1.25,0 1.25,1.25 1.25,1.25c0,0.92788 0,1.98455 0,2.94359c0.14038,-0.13804 0.33775,-0.254 0.6135,-0.32294c1.21268,-0.30317 1.51585,0.90951 1.51585,0.90951l0.33333,1.33333c0,0 0.30317,1.21268 -0.90951,1.51585c-1.21268,0.30317 -1.51585,-0.90951 -1.51585,-0.90951l-0.32568,-1.3027c-0.18182,0.22928 -0.47827,0.4162 -0.96165,0.4162c-1.25,0 -1.25,-1.25 -1.25,-1.25c0,-1.05556 0,-2.11111 0,-3.16667v-0.16667c0,0 0,-1.25 1.25,-1.25z" fill="#ffcf00" stroke="none" stroke-width="0.5" stroke-linecap="butt"/><path d="M376.54592,168.94444c0.65239,0.48929 0.55996,1.08499 0.41687,1.44c0.287,-0.09291 0.64974,-0.08332 1.05968,0.2095c1.01717,0.72655 0.29062,1.74371 0.29062,1.74371l-0.73661,1.00734c-0.14268,0.44269 -0.28536,0.88538 -0.42804,1.32806c0,0 -0.39528,1.18585 -1.58114,0.79057c-1.18585,-0.39528 -0.79057,-1.58114 -0.79057,-1.58114c0.19065,-0.55731 0.38131,-1.11462 0.57196,-1.67194l0.25987,-0.3705c-0.43499,0.19333 -0.86998,0.38666 -1.30497,0.57999c0,0 -1.14226,0.50767 -1.64994,-0.63459c-0.50767,-1.14226 0.63459,-1.64994 0.63459,-1.64994c0.5,-0.22222 1,-0.44444 1.5,-0.66667l0.00767,-0.2744c0,0 0.75,-1 1.75,-0.25z" fill="#ffcf00" stroke="none" stroke-width="0.5" stroke-linecap="butt"/><path d="M373.51313,167.39389c0.88388,0.88388 0,1.76777 0,1.76777l-0.66667,0.66667c-0.61337,0.61221 -1.20283,1.25002 -1.75694,1.91635c0,0 -0.80023,0.96028 -1.76051,0.16005c-0.96028,-0.80023 -0.16005,-1.76051 -0.16005,-1.76051c0.60383,-0.7232 1.24411,-1.41688 1.90973,-2.08365l0.66667,-0.66667c0,0 0.88388,-0.88388 1.76777,0z" fill="#ffcf00" stroke="none" stroke-width="0.5" stroke-linecap="butt"/><path d="M370.85493,163.82641c1.11803,0.55902 0.55902,1.67705 0.55902,1.67705l-0.65073,1.30025c-0.16168,0.37771 -0.32336,0.75542 -0.48504,1.13313c0,0 -0.4924,1.14893 -1.64133,0.65653c-1.14893,-0.4924 -0.65653,-1.64133 -0.65653,-1.64133c0.17165,-0.40007 0.34331,-0.80014 0.51496,-1.2002l0.6826,-1.36642c0,0 0.55902,-1.11803 1.67705,-0.55902z" fill="#ffcf00" stroke="none" stroke-width="0.5" stroke-linecap="butt"/><path d="M364.44841,168.80475c-0.23939,0.02809 -0.51886,-0.02447 -0.8292,-0.23136c-1.04006,-0.69338 -0.34669,-1.73344 -0.34669,-1.73344l1.26329,-1.14406c5.35465,-0.65786 11.47988,5.63484 13.06137,10.41602c4.16789,4.65075 9.19199,6.87788 14.07021,10.62504c2.74933,2.11187 6.41993,4.19145 8.76138,6.74602c1.71066,1.86637 1.89986,2.90582 4.15804,4.19778c3.57904,2.64899 4.84972,9.92778 -1.76141,8.46914c-1.37449,-0.30326 -2.81206,-1.46893 -4.07183,-2.09853c-6.08801,-3.04262 -10.45067,-7.73205 -14.62915,-12.95251c-4.01323,-5.35624 -9.25114,-9.40819 -13.15511,-14.81231c-1.50535,-2.0838 -4.00477,-6.73738 -6.52091,-7.4818z" fill="#850000" stroke="none" stroke-width="0.5" stroke-linecap="butt"/><path d="M383.45796,236.51925l3.27037,-3.27037l1.76777,1.76777l-3.27037,3.27037z" fill="#ff0000" stroke="#000000" stroke-width="0" stroke-linecap="butt"/><path d="M384.34184,232.27661l1.5026,-1.5026l5.21491,5.21491l-1.5026,1.5026z" fill="#ff0000" stroke="none" stroke-width="0" stroke-linecap="butt"/><path d="M385.49089,233.07211l8.22012,-8.22012l3.35876,-0.17678l-0.35355,3.18198l-8.22012,8.22012z" fill="#ff0000" stroke="none" stroke-width="0" stroke-linecap="butt"/><path d="M370.19762,155.55952c-0.05271,-0.07027 -0.09677,-0.13931 -0.13315,-0.20695c-0.38572,0.28252 -0.78635,0.84839 -1.15816,1.46956l0.20287,0.06086l-0.4205,1.40167c-0.14552,0.52907 -0.63005,0.91771 -1.20535,0.91771c-0.499,0 -0.92971,-0.2924 -1.13014,-0.7152l-0.55932,-1.11864l0.20355,-0.10178l-0.33444,-0.40529c0.28437,-0.82646 0.51446,-1.45979 0.75342,-1.97175c-0.11613,-0.18974 -0.18307,-0.41287 -0.18307,-0.65162c0,-0.20995 0.05176,-0.4078 0.14321,-0.58151l0.56018,-1.12037l0.15514,0.07757l0.07901,-0.40244c2.25534,-1.17218 5.30352,-1.44488 8.30214,-1.26688c3.68124,-0.28737 7.34501,-0.24964 10.8081,1.29618c0.02306,0.01029 0.04608,0.02048 0.06904,0.03055c0.05822,-0.00275 0.11637,-0.0056 0.17441,-0.00854c0.03429,-0.3653 0.22578,-0.68489 0.50611,-0.89044l1.13122,-0.84841l0.04931,0.06574l0.12056,-0.17297c1.25767,-0.41922 2.25464,-0.94746 3.65415,-0.55239c3.21878,0.90863 3.28962,3.57523 0.52749,5.18394c-0.78149,0.45515 -1.58752,0.65012 -2.40437,0.67243c0.00975,0.11999 0.01718,0.2428 0.02267,0.36696l0.38539,1.15617c0.04749,0.1321 0.07337,0.27451 0.07337,0.42297c0,0.69036 -0.55964,1.25 -1.25,1.25c-0.28595,0 -0.54948,-0.09602 -0.7601,-0.25758l-1.13276,-0.84957l0.09539,-0.12718l-0.35944,-0.14193c-0.23214,-0.62717 -0.18217,-1.46213 -0.49017,-2.02438c-0.41943,-0.01408 -0.86752,0.02228 -1.25308,-0.04183c-2.19896,-0.36567 -3.98774,0.31526 -6.07519,0.29937c-3.03109,-0.02308 -4.10908,-1.75308 -7.03707,-0.27458l-0.38045,0.31054c0,0 -1,0.75 -1.75,-0.25z" fill="#492821" stroke="none" stroke-width="0.5" stroke-linecap="butt"/><path d="M391.12258,148.21427c0.6625,0.88753 -0.3975,1.44224 -0.3975,1.44224l-0.98173,0.49723c-1.44979,0.50133 -1.5966,1.91328 -3.27007,2.74875c-1.73229,0.86484 -4.99826,1.14262 -6.91024,0.99174c-2.30206,-0.18166 -5.84752,-0.53023 -8.04862,-1.77715c-1.52733,-0.86523 -1.81477,-2.68151 -3.04713,-3.02502c0,0 -1.18585,-0.33097 -0.79057,-1.32388c0.39528,-0.99291 1.58114,-0.66194 1.58114,-0.66194c5.29603,1.47993 14.12458,3.01857 19.52395,1.11528l0.61827,-0.34007c0,0 1.06,-0.55471 1.7225,0.33282z" fill="#000000" stroke="none" stroke-width="0.5" stroke-linecap="butt"/><path d="M368.22687,145.45952l-2.71429,-5.28571c0,0 7.24924,-2.06967 11.57182,-2.27749c5.35809,-0.2576 17.57103,2.70606 17.57103,2.70606l-3.28571,6.42857c0,0 -4.0289,0.85714 -9.14286,0.85714c-4.70988,0 -14,-2.42857 -14,-2.42857z" fill="#193f14" stroke="#000000" stroke-width="0" stroke-linecap="butt"/><path d="M377.73311,146.87952l2.38123,-4.93255l1.87097,5.27273l-5.27273,-3.74194h6.63343z" fill="#ff0000" stroke="#000000" stroke-width="0" stroke-linecap="round"/><path d="M390.7752,178.93662v-5.44042h2.63778v5.44042z" fill="#ffcf00" stroke="#000000" stroke-width="0" stroke-linecap="butt"/><path d="M386.48881,178.77176v-5.44042h2.63778v5.44042z" fill="#ffcf00" stroke="#000000" stroke-width="0" stroke-linecap="butt"/><path d="M390.74011,173.55175c-0.26689,-0.15786 -0.67549,-0.52271 -0.44783,-1.20569c0.32584,-0.97751 1.30334,-0.65167 1.30334,-0.65167l1.39192,0.57864c0.01174,0.15799 0.02348,0.31599 0.03523,0.47398l0.21369,-0.07123l0.32212,0.96635c0.03915,0.10889 0.06048,0.22628 0.06048,0.34865c0,0.56906 -0.46132,1.03038 -1.03038,1.03038c-0.24649,0 -0.47276,-0.08655 -0.65008,-0.23092l-0.8179,-0.65432c0,0 -0.28605,-0.22884 -0.38059,-0.58419z" fill="#007aff" stroke="none" stroke-width="0.5" stroke-linecap="butt"/><path d="M387.13545,171.8281c0.09511,-0.10773 0.22801,-0.20583 0.41137,-0.28352c0.94875,-0.40196 1.3507,0.5468 1.3507,0.5468l0.36961,1.86369c-0.75607,0.2257 -1.53078,0.95781 -2.2682,0.67711c-3.5842,-1.36438 -0.97456,-2.36349 0.13652,-2.80407z" fill="#00ff29" stroke="none" stroke-width="0.5" stroke-linecap="butt"/><text transform="translate(363.70833,235.28339) scale(0.335,0.335)" font-size="40" xml:space="preserve" fill="#000000" fill-rule="nonzero" stroke="none" stroke-width="1" stroke-linecap="butt" stroke-linejoin="miter" stroke-miterlimit="10" stroke-dasharray="" stroke-dashoffset="0" font-family="Serif" font-weight="normal" text-anchor="start" style="mix-blend-mode: normal"><tspan x="0" dy="0">25</tspan></text><g fill="#373737" stroke-width="0" stroke-linecap="butt"><path d="M348.2784,228.29245l3.3332,-3.3332l4.01499,4.01499l-3.3332,3.3332z" stroke="#000000"/><path d="M357.82347,234.65583c-1.46433,1.46433 -4.02502,1.27779 -5.71946,-0.41665c-1.69444,-1.69444 -1.88098,-4.25513 -0.41665,-5.71946c1.46433,-1.46433 4.02502,-1.27779 5.71946,0.41665c1.69444,1.69444 1.88098,4.25513 0.41665,5.71946z" stroke="#000000"/><path d="M362.16988,236.88112c-0.46022,0.46022 -2.39346,-0.72686 -4.31801,-2.65141c-1.92455,-1.92455 -3.11163,-3.85779 -2.65141,-4.31801c0.46022,-0.46022 2.39346,0.72686 4.31801,2.65141c1.92455,1.92455 3.11163,3.85779 2.65141,4.31801z" stroke="none"/></g><path d="M344.90695,205.73333v-28.46667h70.2v28.46667z" fill="url(#color-1)" stroke="#000000" stroke-width="0" stroke-linecap="butt"/><g fill="none" stroke="#000000" stroke-width="2"><path d="M345,241.7057v-106.16129h70v106.16129z" stroke-linecap="butt"/><path d="M413.66666,206.08273h-68.33333" stroke-linecap="round"/></g></g></g></svg>