<svg version="1.1" xmlns="http://www.w3.org/2000/svg" xmlns:xlink="http://www.w3.org/1999/xlink" width="72" height="108.16129" viewBox="0,0,72,108.16129"><g transform="translate(-344,-134.54449)"><g data-paper-data="{&quot;isPaintingLayer&quot;:true}" fill-rule="nonzero" stroke-linejoin="miter" stroke-miterlimit="10" stroke-dasharray="" stroke-dashoffset="0" style="mix-blend-mode: normal"><path d="M344.91667,242.04183v-106h70.25v106z" fill="#006eff" stroke="none" stroke-width="0" stroke-linecap="butt"/><path d="M345.47132,205.6667v-69.5h69.75v69.5z" fill="#c0008d" stroke="#000000" stroke-width="0" stroke-linecap="butt"/><text transform="translate(347.0719,216.78377) scale(0.26141,0.26141)" font-size="40" xml:space="preserve" fill="#000000" fill-rule="nonzero" stroke="none" stroke-width="1" stroke-linecap="butt" stroke-linejoin="miter" stroke-miterlimit="10" stroke-dasharray="" stroke-dashoffset="0" font-family="Serif" font-weight="normal" text-anchor="start" style="mix-blend-mode: normal"><tspan x="0" dy="0">Chi Bang UWU</tspan></text><g stroke-width="0" stroke-linecap="butt"><path d="M405.95277,195.79385c0,-2.43006 1.61408,-4.4 3.60516,-4.4c1.99108,0 3.60516,1.96994 3.60516,4.4c0,2.43006 -1.61408,4.4 -3.60516,4.4c-1.99108,0 -3.60516,-1.96994 -3.60516,-4.4z" fill="#000000" stroke="#9a0e6e"/><path d="M407.71325,196.35356c0.6671,-1.57677 1.99131,-2.52355 2.95772,-2.11469c0.96641,0.40886 1.20905,2.01854 0.54195,3.59531c-0.6671,1.57677 -1.99131,2.52355 -2.95772,2.11469c-0.96641,-0.40886 -1.20905,-2.01854 -0.54195,-3.59531z" fill="#ff17cc" stroke="#000000"/><path d="M412.016,205.39386h-23.26968c0,0 0.59226,-5.11131 3.51699,-8.52195c1.9139,-2.23186 5.57618,-3.27805 8.11785,-3.27805c2.46354,0 6.2231,1.53442 8.10399,3.67336c3.02512,3.44013 3.53084,8.12664 3.53084,8.12664z" fill="#000000" stroke="#9a0e6e"/><path d="M400.05342,192.99387c0,-2.43006 1.61408,-4.4 3.60516,-4.4c1.99108,0 3.60516,1.96994 3.60516,4.4c0,2.43006 -1.61408,4.4 -3.60516,4.4c-1.99108,0 -3.60516,-1.96994 -3.60516,-4.4z" fill="#000000" stroke="#9a0e6e"/><path d="M393.82632,192.79385c0,-2.43006 1.61408,-4.4 3.60516,-4.4c1.99108,0 3.60516,1.96994 3.60516,4.4c0,2.43006 -1.61409,4.4 -3.60516,4.4c-1.99108,0 -3.60516,-1.96994 -3.60516,-4.4z" fill="#000000" stroke="#9a0e6e"/><path d="M387.76309,195.79385c0,-2.43006 1.61408,-4.4 3.60516,-4.4c1.99108,0 3.60516,1.96994 3.60516,4.4c0,2.43006 -1.61409,4.4 -3.60516,4.4c-1.99108,0 -3.60516,-1.96994 -3.60516,-4.4z" fill="#000000" stroke="#9a0e6e"/><path d="M395.76309,193.6939c0,-1.71209 0.85066,-3.1 1.9,-3.1c1.04934,0 1.9,1.38792 1.9,3.1c0,1.71209 -0.85066,3.1 -1.9,3.1c-1.04934,0 -1.9,-1.38791 -1.9,-3.1z" fill="#ff17cc" stroke="#000000"/><path d="M390.70416,197.61234c-0.64738,-1.58497 -0.38468,-3.1915 0.58675,-3.58828c0.97143,-0.39678 2.28374,0.56643 2.93112,2.1514c0.64738,1.58497 0.38469,3.1915 -0.58674,3.58828c-0.97143,0.39678 -2.28375,-0.56643 -2.93113,-2.1514z" fill="#ff17cc" stroke="#000000"/><path d="M401.57583,193.67421c0.19792,-1.7006 1.20331,-2.98088 2.24561,-2.85958c1.0423,0.1213 1.72683,1.59825 1.52891,3.29886c-0.19792,1.7006 -1.20331,2.98088 -2.24561,2.85958c-1.0423,-0.1213 -1.72683,-1.59825 -1.52891,-3.29886z" fill="#ff17cc" stroke="#000000"/><path d="M400.76309,205.99387c-4.52873,0 -8.2,-1.83564 -8.2,-4.1c0,-2.26437 3.67127,-4.1 8.2,-4.1c4.52873,0 8.2,1.83564 8.2,4.1c0,2.26437 -3.67127,4.1 -8.2,4.1z" fill="#ff17cc" stroke="#000000"/></g><path d="M414.16667,220.66683h-69" fill="none" stroke="#000000" stroke-width="2" stroke-linecap="round"/><path d="M379.86404,221.16683v20" fill="none" stroke="#000000" stroke-width="2" stroke-linecap="round"/><text transform="translate(363.70833,235.2835) scale(0.335,0.335)" font-size="40" xml:space="preserve" fill="#000000" fill-rule="nonzero" stroke="none" stroke-width="1" stroke-linecap="butt" stroke-linejoin="miter" stroke-miterlimit="10" stroke-dasharray="" stroke-dashoffset="0" font-family="Serif" font-weight="normal" text-anchor="start" style="mix-blend-mode: normal"><tspan x="0" dy="0">5</tspan></text><text transform="translate(398.95834,235.5335) scale(0.335,0.335)" font-size="40" xml:space="preserve" fill="#000000" fill-rule="nonzero" stroke="none" stroke-width="1" stroke-linecap="butt" stroke-linejoin="miter" stroke-miterlimit="10" stroke-dasharray="" stroke-dashoffset="0" font-family="Serif" font-weight="normal" text-anchor="start" style="mix-blend-mode: normal"><tspan x="0" dy="0">10</tspan></text><text transform="translate(384.43895,236.72924) scale(0.42958,0.42958)" font-size="40" xml:space="preserve" fill="#ff8500" fill-rule="nonzero" stroke="none" stroke-width="1" stroke-linecap="butt" stroke-linejoin="miter" stroke-miterlimit="10" stroke-dasharray="" stroke-dashoffset="0" font-family="Serif" font-weight="normal" text-anchor="start" style="mix-blend-mode: normal"><tspan x="0" dy="0">C</tspan></text><path d="M370.33089,175.85749c0.31355,-0.19589 0.54988,-0.48289 0.67861,-0.8691c1.56304,-2.49827 -2.62165,-3.30591 -3.12058,-4.41188c-0.46343,-1.02729 0.39892,-3.47864 0.74817,-4.52638c1.00763,-3.02288 3.61872,-4.74514 7.0229,-4.70588c2.64426,-0.03048 3.90887,4.12728 5.17503,6.00138l0.12615,0.37485c0.05594,0.1819 0.22956,0.31426 0.42979,0.31426c0.1777,0 0.33477,-0.1038 0.40614,-0.25438l0.28253,-0.5609l-0.09325,-0.04629c1.6829,-2.69399 2.48713,-7.08187 4.32513,-9.8389c3.70665,-3.69172 8.22257,-1.62018 10.71707,2.12153c0.29993,0.44155 0.40806,0.47114 0.21811,0.96589l0.02092,0.07147l-0.02652,-0.00005l0.00108,0.57088c0,0.23936 0.19061,0.43633 0.42747,0.44645c0.69479,2.69947 0.46048,5.43201 1.20284,7.89554c0.63871,0.94342 1.7551,1.79598 1.81131,3.0954c0.05512,1.27449 -2.14353,0.24384 -2.7061,0.6707c-0.66974,0.50819 -0.61476,2.27943 -0.84706,2.97636c0,2.07182 0.64047,3.95479 0.5607,5.79871c-0.03545,0.81952 -1.49138,2.12171 -1.83587,3.15261c-0.85048,2.92318 1.21271,7.90527 -4.58986,5.87272c-4.11183,-1.32474 -7.40678,-3.35836 -9.97775,1.78359c-1.81515,2.71414 -5.07624,6.82856 -8.64099,5.91528c-3.12934,-1.04573 -6.67272,-5.82385 -7.74833,-8.92945c-0.32993,-0.41851 -3.94647,-4.13765 -3.94647,-4.22359c0,-0.72223 2.65815,-3.25255 3.17115,-4.00298c1.6917,-1.68501 5.79685,-2.82281 6.20763,-5.65785z" data-paper-data="{&quot;noHover&quot;:false,&quot;origItem&quot;:[&quot;Path&quot;,{&quot;applyMatrix&quot;:true,&quot;segments&quot;:[[[728.60451,351.877],[1.90024,-1.89271],[-0.57623,0.84295]],[[725.03784,356.36],[0,-0.81126],[0,0.09654]],[[729.45705,361.08106],[-0.3706,-0.47009],[1.2082,3.48844]],[[738.11763,371.07994],[-3.5151,-1.17464],[4.00417,1.02587]],[[747.78538,364.42904],[-2.03889,3.04871],[2.8879,-5.7758]],[[758.93596,362.44566],[-4.61871,-1.48805],[6.51786,2.28309]],[[764.0635,355.88189],[-0.95531,3.28352],[0.38696,-1.15798]],[[766.11784,352.36],[-0.03982,0.92054],[0.08959,-2.07123]],[[765.4843,345.87991],[0,2.32723],[0.26094,-0.78284]],[[766.43811,342.55314],[-0.75229,0.57083],[0.63191,-0.47948]],[[769.47784,341.8],[0.06193,1.4316],[-0.06314,-1.45959]],[[767.44868,338.33968],[0.71745,1.05972],[-0.83387,-2.76722]],[[766.11614,329.49955],[0.78044,3.03224],[-0.26607,-0.01136]],[[765.63784,329.00001],[0,0.26887],[0,0]],[765.63784,328.36],[765.66759,328.36],[[765.64429,328.27991],[0,0],[0.21337,-0.55574]],[[765.40182,327.19735],[0.33689,0.49598],[-2.80202,-4.20297]],[[753.40451,324.837],[4.16357,-4.14679],[-2.06457,3.0969]],[[748.5613,335.89173],[1.89036,-3.02607],[0,0]],[748.66505,335.94361],[[748.3499,336.57392],[0,0],[-0.08017,0.16912]],[[747.89784,336.86],[0.1996,0],[-0.22492,0]],[[747.41985,336.50718],[0.06284,0.20431],[0,0]],[[747.2795,336.08613],[0,0],[-1.42224,-2.10512]],[[741.49784,329.34],[2.97022,-0.03425],[-3.82381,-0.0441]],[[733.65218,334.59811],[1.13183,-3.39552],[-0.39231,1.1769]],[[732.827,339.66033],[-0.52056,-1.15392],[0.56043,1.2423]],[[736.34073,344.59206],[1.75571,-2.80623],[-0.14461,0.43382]],[[735.58,345.55901],[0.3522,-0.22004],[-0.46142,3.18452]]],&quot;closed&quot;:true}]}" fill="#f8d09c" stroke="none" stroke-width="0.5" stroke-linecap="butt"/><path d="M393.52503,163.36203c0.30554,-0.26765 0.65286,-0.46598 1.0444,-0.60147c1.24014,-0.5883 2.75453,-0.91824 2.78711,0.21731c0.04758,1.65803 -3.04417,0.25636 -3.60803,1.62349c0,0 -0.19906,0.39814 -0.5972,0.19906c-0.00497,-0.0025 -0.00983,-0.00499 -0.01462,-0.00753c-0.06342,0.03475 -0.13623,0.05452 -0.21366,0.05452c-0.24583,0 -0.44513,-0.19929 -0.44513,-0.44513c0,-0.12293 0.04984,-0.23421 0.13039,-0.31476l0.42732,-0.42732l0.06351,0.06351c0.09681,-0.10831 0.24382,-0.23236 0.42592,-0.3617z" fill="#000000" stroke="none" stroke-width="0.5" stroke-linecap="butt"/><g stroke="none" stroke-width="0.5" stroke-linecap="butt"><path d="M393.02763,180.68585c1.01582,-0.38393 2.17187,-0.45501 3.05597,-0.42318c-0.29954,-0.05591 -0.6517,-0.12574 -1.06156,-0.21208c-0.73989,-0.52297 -1.6262,0.21035 -1.99441,0.63527zM398.48921,181.3286l0.07453,0.12866c-0.08513,0.12533 -0.17025,0.25066 -0.25538,0.37599c-0.67953,2.03847 -5.28971,1.44881 -6.17375,-0.36262c-0.84284,-1.72704 2.01482,-3.01712 3.24757,-2.23421c0.573,0.2026 0.5823,-0.31046 1.24434,-0.32293c0.89739,-0.0169 3.13583,0.92749 2.16648,2.18429c-0.07377,0.09565 -0.17683,0.1714 -0.30379,0.23081zM393.59273,181.45454c1.27056,0.74121 3.34614,1.44984 3.8885,0.06342c-1.21767,0.0505 -2.91438,-0.2352 -3.8885,-0.06342z" fill="#000000"/><path d="M395.10205,180.01163c0.40985,0.08634 0.77099,0.19427 1.07053,0.25018c-0.88409,-0.03183 -2.21519,0.0631 -3.23099,0.44703c0.36821,-0.4249 1.42056,-1.22019 2.16046,-0.69722z" data-paper-data="{&quot;noHover&quot;:false,&quot;origItem&quot;:[&quot;Path&quot;,{&quot;applyMatrix&quot;:true,&quot;segments&quot;:[[[772.4953,351.93083],[0.41361,-0.47728],[1.14103,-0.43127]],[[775.92798,351.45548],[-0.99308,-0.03576],[-0.33646,-0.0628]],[[774.73556,351.21726],[0.46039,0.09698],[-0.8311,-0.58745]]],&quot;closed&quot;:true}]}" fill="#f7c8c8"/><path d="M397.56894,181.50279c-0.54234,1.38642 -2.79284,0.67503 -4.06342,-0.06618c0.97412,-0.17178 2.84574,0.11666 4.06342,0.06618z" data-paper-data="{&quot;noHover&quot;:false,&quot;origItem&quot;:[&quot;Path&quot;,{&quot;applyMatrix&quot;:true,&quot;segments&quot;:[[[773.13006,352.79427],[1.0942,-0.19296],[1.42719,0.83258]],[[777.49789,352.86551],[-0.60921,1.55732],[-1.36778,0.05671]]],&quot;closed&quot;:true}]}" fill="#f7c8c8"/></g><path d="M382.86807,194.07918c3.36433,3.36424 2.68101,3.9204 -0.02035,8.02796c-1.08558,3.18178 -4.13434,1.28849 -6.92,-0.23916l0.01015,-0.0101l-0.3175,-0.31593c-0.08055,-0.08055 -0.19397,-0.1291 -0.31688,-0.1291c-0.24583,0 -0.45172,0.2028 -0.45172,0.44864l-0.00192,0.42248c-0.15539,0.48015 -0.4578,0.72794 -0.63783,1.25202c-0.03328,3.16227 -4.45821,-1.07585 -6.87969,-1.92268c-3.74087,-2.49387 -4.96717,-5.30997 -6.99277,-9.29398c-1.1816,-1.1816 -2.59216,-3.40141 -1.99734,-5.13265c0.23969,-0.69764 1.28439,-0.82283 1.88652,-1.40611c0.68236,1.07023 3.5684,3.81313 4.03104,4.38161c1.05438,3.32125 4.87818,8.10371 8.15393,9.19306c3.89404,0.95464 7.17055,-2.74347 9.27348,-5.81145c0.03273,-0.00338 0.23928,-0.04024 0.2679,-0.04993c0.26325,0.25511 0.50187,0.44826 0.91296,0.58529z" data-paper-data="{&quot;noHover&quot;:false,&quot;origItem&quot;:[&quot;Path&quot;,{&quot;applyMatrix&quot;:true,&quot;segments&quot;:[[[748.43923,365.37431],[0.29571,0.28657],[-0.03214,0.01087]],[[748.33556,365.39728],[0.03676,-0.00381],[-2.36217,3.44617]],[[737.83805,372.04006],[4.37406,1.07231],[-3.67957,-1.22364]],[[728.57863,361.55894],[1.18437,3.73065],[-0.5197,-0.63857]],[[724.21035,356.75726],[0.76649,1.20215],[-0.67637,0.65516]],[[722.09978,358.32468],[0.26924,-0.78364],[-0.66815,1.94466]],[[724.35458,364.06321],[-1.32727,-1.32727],[2.2753,4.47512]],[[732.16863,374.39529],[-4.20202,-2.8013],[2.71998,0.95123]],[[739.81096,376.54213],[-0.03739,3.55207],[0.20222,-0.58868]],[[740.51562,375.14021],[-0.17453,0.53934],[0,0]],[[740.51562,374.66667],[0,0],[0,-0.27614]],[[741.01562,374.16667],[-0.27614,0],[0.13807,0]],[[741.36918,374.31312],[-0.09048,-0.09049],[0,0]],[741.72473,374.66868],[[741.71348,374.67993],[0,0],[3.12907,1.71596]],[[749.45535,374.98033],[-1.2194,3.57401],[3.03436,-4.61391]],[[749.46386,366.02533],[3.77906,3.77895],[-0.46176,-0.15392]]],&quot;closed&quot;:true}]}" fill="#c5c5c5" stroke="none" stroke-width="0.5" stroke-linecap="butt"/><path d="M376.25578,168.10074c-0.42229,0.14077 -0.56305,-0.28151 -0.56305,-0.28151l-0.03491,-0.25333c-0.08443,-0.01164 -0.1689,-0.02327 -0.25333,-0.03491c0,0 -0.00061,-0.00021 -0.0018,-0.00063c-0.10274,0.13195 0.28754,0.82698 0.68755,1.51388c0.01018,-0.01818 0.02078,-0.03545 0.03164,-0.05179c-0.03504,-0.08092 -0.04537,-0.1846 -0.00184,-0.31522c0.14075,-0.42229 0.56303,-0.28154 0.56303,-0.28154l0.41758,0.13918c0.18188,0.05594 0.31412,0.22531 0.31412,0.42554c0,0.00397 -0.00006,0.00792 -0.00016,0.01184c0.16673,0.06429 0.28505,0.22608 0.28505,0.41547c0,0.09355 -0.02886,0.18033 -0.07813,0.25198l-0.27769,0.41651c-0.07158,0.11084 -0.19105,0.18782 -0.32916,0.20171c-0.04071,0.04912 -0.09633,0.09766 -0.16968,0.12583c0,0.00069 0,0.00105 0,0.00105l-0.86741,0.28321c-0.28144,-0.87352 -3.12375,-4.84711 -0.14916,-3.98164c0,0 0.12679,0.04227 0.21826,0.14995c0.08021,0.03333 0.16039,0.06668 0.2406,0.10001l0.24999,0.60132c0,0 0.14077,0.42229 -0.28152,0.56305z" fill="#000000" stroke="none" stroke-width="0.5" stroke-linecap="butt"/><path d="M387.52538,186.10098l0.07224,0.01444l-0.00625,0.03128c0.02977,-0.00201 0.05952,-0.00403 0.08931,-0.00604l0.05448,0.074l0.02208,-0.03311l0.42157,0.28105c0.12271,0.07925 0.20396,0.21724 0.20396,0.37419c0,0.01052 -0.00036,0.02097 -0.00109,0.0313c0.06168,0.02062 0.12464,0.03963 0.18874,0.05712c0.13377,0.0243 0.2664,0.05352 0.39925,0.08801c1.49732,0.26036 3.45392,-0.09631 4.77231,0.08455c0.05591,-0.05805 0.12743,-0.10093 0.2078,-0.12195l0.84653,-0.24186l0.00041,0.00139c0.00176,-0.001 0.00354,-0.00198 0.00532,-0.00299l0.0062,0.00025l-0.00044,-0.00174l0.70109,-0.18026c0.03834,-0.01077 0.07879,-0.01652 0.12058,-0.01652c0.24583,0 0.44513,0.19929 0.44513,0.44513c0,0.07743 -0.01976,0.15024 -0.05454,0.21366c0.03475,0.06342 0.05454,0.13625 0.05454,0.21366c0,0.20024 -0.13222,0.36959 -0.3141,0.42554l-0.10428,0.03476c-0.06241,0.0612 -0.14275,0.10414 -0.23241,0.12026l-0.04319,0.00863c0.14438,0.06326 0.24874,0.20091 0.26458,0.36449c0.08883,0.08137 0.14452,0.19833 0.14452,0.32829c0,0.09355 -0.02886,0.18033 -0.07814,0.252l-0.06985,0.10479c0.00365,0.02297 0.00558,0.04654 0.00558,0.07056c0,0.15618 -0.08044,0.29361 -0.20216,0.37304c-0.06912,0.32599 -0.20205,0.57717 -0.38425,0.76455c0.02628,0.08384 0.03277,0.17515 0.01647,0.27448c-0.14787,0.90094 -1.29837,0.89398 -1.71843,0.36333l-0.37119,0.18559c-0.06186,0.03256 -0.13231,0.05099 -0.20707,0.05099c-0.19626,0 -0.36286,-0.12704 -0.42206,-0.30337l-0.07452,0.01243l-0.0057,-0.03419c-0.76044,0.46968 -0.78755,-0.44296 -1.67968,-0.50958c-0.68197,-0.05092 -0.65779,-0.90231 -1.30232,-1.02517l-0.47106,0.24678l-0.00826,0.44509l-0.346,-1.14842c-0.15679,-0.06887 -0.55116,0.34424 -0.55116,0.16201c0,-0.24583 -0.94024,0.83684 -0.6944,0.83684h0.16427c-0.40784,-0.20056 -0.79757,-0.46512 -1.17974,-0.69921c-0.54126,0.01116 -1.21084,-0.4999 -1.74214,-0.99084l-0.20219,-0.04494l0.02685,-0.12082c-0.04611,-0.04452 -0.09077,-0.08835 -0.13377,-0.13103c-0.03616,-0.01266 -0.07195,-0.0258 -0.10738,-0.03937l-0.34343,-0.08586c-0.12786,-0.02902 -0.23483,-0.11306 -0.29464,-0.22595c-0.72029,-0.43026 -1.33043,-1.06343 -2.08941,-1.78807l-0.00018,-0.00497l-0.00242,0.00244l-0.02566,-0.02532l-0.05899,0.05005l-0.57431,-0.67678c-0.06696,-0.0779 -0.10745,-0.17924 -0.10745,-0.29003c0,-0.06153 0.0125,-0.12015 0.03508,-0.17346c-0.16929,-0.15768 -0.33518,-0.32234 -0.49796,-0.49261l-0.27179,-0.09061l0.03987,-0.1196l-0.09257,-0.06942c-0.53088,-0.18695 -0.79842,-0.59615 -1.42464,-1.22923l-0.01431,-0.0691l-0.02163,0.01122l-0.07005,-0.13488c-0.61721,-0.65795 -1.18016,-1.4347 -1.07958,-2.08204c-0.29606,-0.41397 -0.58559,-0.81168 -0.87152,-1.17847l-0.00705,-0.02213l-0.00541,0.0034l-0.47055,-0.74773c-0.04555,-0.06983 -0.07201,-0.15323 -0.07201,-0.24282c0,-0.24583 0.19929,-0.44513 0.44513,-0.44513c0.06953,0 0.13534,0.01593 0.19395,0.04437c-0.16115,-0.41217 -0.29616,-0.82206 -0.38637,-1.21499c-0.07863,0.06996 -0.18222,0.11244 -0.29574,0.11244c-0.24583,0 -0.44513,-0.1993 -0.44513,-0.44513c0,-0.06577 0.01426,-0.1282 0.03987,-0.18439l0.3468,-0.80924l0.07797,0.03342c0.00516,-0.01307 0.01034,-0.02612 0.01551,-0.03917c0.07305,-0.26389 0.16523,-0.52107 0.28451,-0.76607l0.22203,-0.81939c0.04553,-0.18432 0.2059,-0.32338 0.40083,-0.33693c0.03614,-0.05831 0.07332,-0.11628 0.11164,-0.17395c0,0 0.24691,-0.37038 0.61729,-0.12346c0.10626,0.07083 0.1617,0.15184 0.18676,0.23132c0.04289,-0.01376 0.08864,-0.0212 0.1361,-0.0212c0.01989,0 0.03949,0.0013 0.05868,0.00383l0.36045,-0.12015c0.04704,-0.01691 0.09774,-0.02614 0.15061,-0.02614c0.24583,0 0.44513,0.19929 0.44513,0.44513c0,0.05308 -0.00929,0.104 -0.02633,0.15121l-0.16363,0.48864l-0.00046,-0.00014l-0.00013,0.00187c-0.44096,1.27748 -0.95561,1.90373 -1.37147,2.09407c0.10569,0.37029 0.21908,0.7353 0.34042,1.09932c0.12398,0.02197 0.23022,0.09524 0.29601,0.1971l0.28106,0.42157v0l0.07594,0.1139c0.01699,0.02548 0.03406,0.05103 0.05126,0.07665c0.50771,0.4252 0.99282,0.91885 1.4607,1.45708c0.08098,-0.08418 0.19477,-0.13656 0.32081,-0.13656c0.12291,0 0.23421,0.04981 0.31476,0.13037l0.42732,0.42732l-0.08647,0.08645c0.51437,0.42222 0.95593,0.92936 1.36712,1.46914l0.36078,0.24055l-0.08637,0.12955c0.00557,0.00771 0.01117,0.01542 0.01674,0.02313c1.10312,0.61839 2.14521,1.74796 3.2228,2.88336c0.24021,0.1267 0.46012,0.26143 0.66766,0.42373c0.04238,0.02569 0.08605,0.05212 0.13117,0.07923l0.14511,0.07256l0.03369,-0.05055l0.42159,0.28106c0.05885,0.038 0.10813,0.0895 0.14353,0.15013c0.14308,0.09839 0.30149,0.21215 0.48501,0.34293zM389.07715,189.20487h-0.08312c-0.02023,0.05242 -0.0501,0.10003 -0.08742,0.1407l0.0556,0.03707c0.12271,0.07925 0.20396,0.21724 0.20396,0.37419c0,0.00013 0,0.00027 0,0.00038c0.55159,-0.00525 1.07703,-0.05885 1.60884,-0.11497l-0.06284,-0.03123c-0.07605,-0.02541 -0.15594,-0.05295 -0.24062,-0.08222c-0.0712,0.04834 -0.15717,0.0766 -0.24974,0.0766c-0.05201,0 -0.10193,-0.00892 -0.14833,-0.02532l-0.77869,-0.25484l0.00727,-0.02217c-0.02108,-0.00016 -0.0422,-0.00032 -0.06328,-0.00048l-0.03972,-0.04911l-0.01272,0.01907l-0.10153,-0.0677c-0.00257,0 -0.00511,0 -0.00767,0zM384.00394,185.59259c0.0026,-0.03509 0.00928,-0.06907 0.01957,-0.10143c-0.11191,-0.11547 -0.22091,-0.23603 -0.32831,-0.35705c-0.00475,0.00831 -0.00976,0.01648 -0.01503,0.02446c0.10779,0.14732 0.21569,0.29213 0.32377,0.43402z" fill="#bd9e77" stroke="none" stroke-width="0.5" stroke-linecap="butt"/><path d="M368.44445,195.96807c-0.07195,-0.04962 -0.13521,-0.13121 -0.16821,-0.26322c-0.00399,-0.01595 -0.00724,-0.03148 -0.00981,-0.04656l-0.06103,-0.10902c-1.03366,-1.15392 -1.71674,-2.55516 -2.57407,-3.83624v-0.00002v0l-0.2815,-0.42227c-0.04929,-0.07165 -0.07814,-0.15845 -0.07814,-0.25198c0,-0.18402 0.11168,-0.34196 0.27094,-0.40975c-0.24028,-0.27528 -0.46737,-0.57049 -0.68397,-0.87907l-0.10745,-0.0921l0.02407,-0.02808c-0.09429,-0.13747 -0.18663,-0.27736 -0.27724,-0.41915c-0.38251,-0.36947 -0.68899,-0.78909 -0.98206,-1.27255c-0.12617,-0.15464 -0.25169,-0.31118 -0.37339,-0.46687l-0.00597,-0.00474c-0.0584,-0.02229 -0.11089,-0.05651 -0.15449,-0.09971c-0.00003,-0.00003 -0.00009,-0.00007 -0.00012,-0.0001l-0.38183,-0.37806c-0.11782,-0.11338 -0.23052,-0.23186 -0.33895,-0.35435c-0.07941,-0.08594 -0.15446,-0.17348 -0.22324,-0.26482c-0.00513,-0.00638 -0.01026,-0.01274 -0.01535,-0.01914l-0.03768,0.0452l-0.44577,-0.37146c-0.02334,-0.01239 -0.047,-0.02468 -0.07101,-0.03686l-0.01832,-0.03758l-0.02452,-0.02042l-0.01164,0.01164l-0.42733,-0.42732v0c-0.08055,-0.08055 -0.13037,-0.19184 -0.13037,-0.31474c0,-0.24583 0.19929,-0.44513 0.44513,-0.44513c0.03164,0 0.06253,0.00331 0.0923,0.00958c0.08158,-0.09318 0.20143,-0.15202 0.33502,-0.15202c0.05295,0 0.10375,0.00924 0.15085,0.02621c-0.01697,-0.04709 -0.02621,-0.09789 -0.02621,-0.15085c0,-0.24583 0.19929,-0.44513 0.44513,-0.44513c0.09353,0 0.18031,0.02884 0.25196,0.07813l0.42226,0.28152l-0.10471,0.15704l0.05848,0.0936c0.00235,0.00378 0.00474,0.00759 0.00717,0.01147c0.04182,0.03243 0.08329,0.06599 0.12444,0.10062c0.03062,-0.00666 0.06241,-0.01017 0.09501,-0.01017c0.12996,0 0.24694,0.0557 0.32831,0.14454c0.18503,0.01791 0.33692,0.14912 0.38544,0.32339l0.13934,0.45923c0.09321,0.02409 0.17458,0.07763 0.23361,0.15008l0.53834,0.6511l-0.12898,0.10663c0.45535,0.48083 0.83712,1.02742 1.17963,1.60697c0.0782,0.01957 0.14819,0.05981 0.20386,0.11458c0.00007,0.00005 0.00012,0.00013 0.00019,0.00018l0.42378,0.41707l-0.14205,0.14433c0.24552,0.24142 0.47465,0.52028 0.68929,0.824c0.07649,-0.06198 0.17394,-0.09912 0.28006,-0.09912c0.15695,0 0.29494,0.08124 0.37419,0.20395l0.49,0.735l-0.09356,0.06237c0.4958,0.57895 0.93406,1.21404 1.35055,1.86751c1.17617,0.8177 2.17914,2.18308 2.86705,3.34744l0.48117,0.24058l-0.09903,0.19805c1.50163,0.8165 3.73475,2.54944 1.38346,3.06277c-1.15238,0.25158 -3.76381,-1.33591 -4.90615,-2.57508l-0.07118,-0.04168c-0.1147,-0.06442 -0.19796,-0.17819 -0.22101,-0.31253c-0.00917,-0.01277 -0.01811,-0.02548 -0.02683,-0.03811c-0.1144,-0.1118 -0.23555,-0.23663 -0.3673,-0.37647z" fill="#bd9e77" stroke="none" stroke-width="0.5" stroke-linecap="butt"/><path d="M393.7154,191.25247c-0.01704,-0.02274 -0.03155,-0.0451 -0.04378,-0.06706c-1.14373,-0.08448 -3.06006,-0.34385 -4.32361,-0.83296l-0.07521,0.00752l-0.00388,-0.03878c-0.01514,-0.00611 -0.03016,-0.01227 -0.0451,-0.01845c-0.36296,0.04428 -0.69517,-0.03141 -1.22643,-0.29191l-0.02523,-0.033l-0.00783,0.01043l-0.56562,-0.42422c-0.11048,-0.08099 -0.1822,-0.21172 -0.1822,-0.3592c0,-0.01199 0.00048,-0.02386 0.00141,-0.03561c-0.00093,-0.01175 -0.00141,-0.02362 -0.00141,-0.03561c0,-0.18127 0.10836,-0.33724 0.26385,-0.40667c-0.07528,-0.07971 -0.12143,-0.18724 -0.12143,-0.30554c0,-0.24583 0.19929,-0.44513 0.44513,-0.44513c0.08912,0 0.17213,0.02619 0.24172,0.07129l0.39018,0.24386c0.20829,-0.19687 0.49302,-0.0545 0.49302,-0.0545c0.38174,0.19119 0.75057,0.40781 1.1161,0.62847l0.3827,0.12755c0.18188,0.05594 0.3141,0.22529 0.3141,0.42553c0,0.0419 -0.00578,0.08245 -0.01661,0.12088c1.18514,0.37382 2.38671,0.79018 3.63106,0.78718l-0.01533,0.87395l0.01533,0.01631c-0.00513,0 -0.01035,-0.00004 -0.01562,-0.00006l-0.00217,0.12469c0,0 -0.3561,0.26708 -0.62318,-0.08901z" fill="#bd9e77" stroke="none" stroke-width="0.5" stroke-linecap="butt"/><path d="M383.40488,185.7179c-0.00358,-0.01248 -0.00718,-0.02496 -0.01074,-0.03744l-0.01182,0.00845l-0.34426,-0.48198c-0.10744,-0.0948 -0.21377,-0.20859 -0.35071,-0.32697c-0.24491,0.05338 -0.42428,-0.16189 -0.42428,-0.16189l-0.35423,-0.42506c-0.06554,-0.07752 -0.10503,-0.17777 -0.10503,-0.28722c0,-0.24583 0.1993,-0.44513 0.44513,-0.44513c0.09836,0 0.18925,0.0319 0.26293,0.08593l0.49434,0.35309c0.33401,0.24106 0.5613,0.43742 0.73245,0.64439l0.11212,0.09342c0.05468,-0.02398 0.11513,-0.0373 0.17867,-0.0373c0.12291,0 0.23421,0.04981 0.31476,0.13037l0.3561,0.3561c0,0 0.22402,0.22402 0.10507,0.48307l0.21042,0.26304c0.06237,0.07662 0.09976,0.17437 0.09976,0.28084c0,0.24583 -0.19929,0.44513 -0.44513,0.44513c-0.13448,0 -0.25504,-0.05963 -0.33666,-0.15389l-0.23929,-0.27347c-0.12047,-0.00164 -0.22938,-0.05114 -0.30859,-0.13034l-0.3561,-0.3561l0.01195,-0.01195z" fill="#bd9e77" stroke="none" stroke-width="0.5" stroke-linecap="butt"/><path d="M392.91287,178.52269c-0.42229,-0.14077 -0.28154,-0.56305 -0.28154,-0.56305l0.39941,-0.93256c0.32416,-0.02801 0.64834,-0.05602 0.9725,-0.08403c0,0 0.44513,0.00001 0.44513,0.44513c0,0.44513 -0.44513,0.44513 -0.44513,0.44513c-0.15065,-0.02801 -0.3013,-0.05601 -0.45195,-0.08402l-0.07539,0.49187c0,0 -0.14077,0.42228 -0.56305,0.28153z" fill="#000000" stroke="none" stroke-width="0.5" stroke-linecap="butt"/><path d="M394.6381,178.41515c-0.31476,-0.31474 0,-0.6295 0,-0.6295l0.10703,0.07735c0,-0.2374 0,-0.47481 0,-0.71221c0,0 0,-0.44513 0.44513,-0.44513c0.44513,0 0.44513,0.44513 0.44513,0.44513c0,0.2374 0,0.47481 0,0.71221l-0.36776,0.55214c0,0 -0.31476,0.31474 -0.6295,0z" fill="#000000" stroke="none" stroke-width="0.5" stroke-linecap="butt"/><path d="M390.12867,154.87438c0.14444,0.29081 -0.02863,0.47486 -0.13283,0.55315c0.00906,0.00675 0.01786,0.01384 0.02637,0.02126c1.92385,-0.66004 3.91549,-0.94471 4.77058,0.02105c0.12407,0.14013 0.11098,0.31971 0.05812,0.51371c1.42511,0.27267 2.62273,0.74471 2.44433,1.50455c-0.00823,0.03501 -0.01777,0.06866 -0.02863,0.10099c0.18631,0.04574 0.32167,0.07784 0.37281,0.08828l0.04928,0.04912l0.01177,-0.02163l0.54349,0.2959c0.14275,0.07414 0.24024,0.22333 0.24024,0.39527c0,0.24583 -0.19929,0.44513 -0.44513,0.44513h-0.71219v-0.17586c-0.0912,-0.00151 -0.18017,-0.00673 -0.2674,-0.01527c-0.00874,0.23815 -0.20454,0.42852 -0.44483,0.42852c-0.02781,0 -0.05504,-0.00257 -0.08144,-0.00745l-0.86987,-0.14497l0.01658,-0.09946c-0.8923,-0.0185 -1.7063,-0.20319 -2.6584,-0.58142l-0.10281,-0.03658c-0.08165,0.09645 -0.2036,0.15767 -0.33986,0.15767h-0.71222v-0.02349l-0.06155,0.01921c-0.28084,-0.07813 -0.53405,-0.14305 -0.76507,-0.20499c-0.94577,0.36392 -1.95791,0.43126 -3.15543,0.44344c-0.01763,0.00212 -0.03557,0.00323 -0.05377,0.00323c-0.01547,0 -0.03075,-0.0008 -0.04579,-0.00233c-0.0253,0.0002 -0.05069,0.00037 -0.07617,0.00053c-0.57363,0.35382 -1.17345,0.61106 -1.8366,0.69625v0.25516h-0.89025v0c-0.10804,0 -0.20707,-0.03848 -0.28417,-0.10249c-0.24115,-0.0054 -0.43498,-0.20257 -0.43498,-0.44501c0,-0.13336 0.05865,-0.25303 0.15158,-0.33461l0.66449,-0.58903l0.08252,0.09311c0.18692,-0.20533 0.38303,-0.39835 0.58775,-0.58055c-0.0164,-0.0464 -0.02532,-0.09634 -0.02532,-0.14837c0,-0.10021 0.03312,-0.19269 0.08899,-0.26708h-0.59346c-0.24583,0 -0.44513,-0.19929 -0.44513,-0.44513c0,-0.22685 0.16968,-0.41406 0.38904,-0.44162l0.66898,-0.0949c0.1193,-0.01642 0.28613,-0.03071 0.48966,-0.04211c0.84678,-0.54425 1.99138,-0.87653 2.82955,-1.29285l0.38051,-0.18899c0,0 0.39866,-0.19801 0.59667,0.20065z" fill="#d0af83" stroke="none" stroke-width="0.5" stroke-linecap="butt"/><path d="M385.98874,196.87153l0.125,0.125c2.28083,2.29246 2.66783,4.47041 4.2533,7.22009c0.01251,0.60899 0.26858,2.05217 -0.29915,2.52757c-0.44812,0.37524 -2.22405,0.10823 -2.80771,0.1059c-2.37048,-0.00946 -4.642,0.375 -7,0.375c-4.76036,0 -9.32555,-0.875 -14,-0.875c-2.47832,0 -6.00068,-0.645 -8.38512,-0.01338c-1.70169,0.45077 -3.30845,0.76338 -5.11488,0.76338c-1.01399,0 -4.00428,0.48236 -4.76167,-0.30801c-0.56198,-0.58645 0.07577,-2.16556 0.29273,-2.74047c0.70258,-1.86172 1.09198,-4.11119 1.48112,-6.06122c1.20354,-4.71608 4.57481,-7.49318 7.61153,-10.96956c0,0 0.08653,-0.09889 0.22157,-0.15092c0.43869,-0.98644 1.89688,-0.85477 2.19518,-1.84761c0,0 0.14077,-0.42229 0.56305,-0.28152c0.00762,0.00255 0.01504,0.00516 0.02229,0.00787c0.15275,-0.27765 0.36767,-0.58128 0.61525,-0.89458c-0.07537,-0.31864 0.24328,-0.47795 0.24328,-0.47795l0.02298,0.15141c0.0054,-0.00643 0.01079,-0.01287 0.01621,-0.01932c0.00997,-1.74102 0.20684,-6.99804 -0.43984,-8.77891c-0.25898,-0.28681 -0.45463,-0.60694 -0.53852,-0.93938c-0.45747,-1.81342 1.39815,-5.11511 1.40771,-7.20495c-0.86946,-4.12985 -1.76499,-9.0838 -0.41197,-13.13269c1.13234,-4.3512 5.61772,-5.253 7.80445,-8.45188c3.46784,-2.38462 7.12655,-2.83342 11.19466,-2.83342c3.91214,0.95645 8.28941,0.61761 12.03511,1.86613c4.87864,1.21778 8.69001,3.00123 11.35533,7.44349c0.61086,0.83268 3.14141,7.89045 1.48436,8.50368c-0.79666,0.29482 -2.64782,-1.74005 -3.47373,-2.01535c-1.26146,-0.9047 1.13878,3.92249 -1.33111,3.87926c-0.55753,-0.00976 -1.2344,-0.96525 -1.5835,-1.7282c-0.12754,0.21062 -0.30121,0.43092 -0.48027,0.63422c0.27813,0.72928 0.67435,1.43538 0.99067,2.16521c3.21988,-1.17188 1.79666,6.47893 0.17148,5.61225c0.01921,0.19299 0.0576,0.36894 0.12179,0.52199c0.69556,1.07285 2.43991,2.56266 1.70931,4.09461c-0.34688,0.72734 -0.81234,0.83957 -1.27652,0.78521c-0.24687,0.25064 -0.69392,0.31253 -0.97834,0.10676l-0.14086,0.04695l-0.023,-0.06898c-0.05064,0.08091 -0.1085,0.15477 -0.17064,0.22059l0.02368,0.05251c-0.04072,0.01357 -0.08411,0.03013 -0.12948,0.04856c-0.13742,0.11815 -0.28624,0.199 -0.4194,0.2336c-0.07666,0.36722 -0.11229,0.79452 -0.15698,1.15554c0.59849,0 1.19698,0 1.79548,0h0.5c0,0 0.5,0 0.5,0.5c0,0.5 -0.5,0.5 -0.5,0.5c-0.63664,0 -1.67721,0 -2.39562,0c0.01826,0.53475 0.06869,1.04112 0.13245,1.53197c0.3734,0.0583 0.75052,0.09873 1.12804,0.1064l0.60873,0.28941c0,0 0.44721,0.2236 0.2236,0.67082c-0.22361,0.44721 -0.67082,0.22361 -0.67082,0.22361l-0.39127,-0.21059c-0.24978,0.00684 -0.49954,-0.01434 -0.7481,-0.04699c0.1005,0.65241 0.20078,1.29292 0.25212,1.95481c0.33394,0.08439 0.66788,0.16878 1.00182,0.25317l0.57756,0.27766c0,0 0.44972,0.21852 0.23119,0.66824l0.00001,0.00003c-0.21852,0.44972 -0.66824,0.2312 -0.66824,0.2312l-0.48215,-0.23727c-0.22413,-0.05535 -0.44824,-0.11072 -0.67237,-0.16608c-0.25423,0.96175 -1.49403,2.06064 -1.82903,3.06799c-0.35249,0.84457 0.45586,2.32225 0.44985,3.26074c-0.01088,1.69681 -0.93972,2.68592 -2.1775,3.1467c-0.80992,0.34964 -1.75931,0.51715 -2.63473,0.44662c-0.01587,0.00171 -0.03194,0.00258 -0.04825,0.00258c-0.04732,0 -0.09294,-0.00737 -0.13573,-0.02106c-0.57906,-0.06996 -1.11815,-0.2486 -1.55302,-0.55278c-0.21728,-0.06328 -0.43724,-0.13678 -0.66573,-0.22256c-0.77447,-0.14398 -3.20429,-1.05893 -3.17867,-1.11512c-1.65549,-0.32493 -3.09172,0.06325 -4.38925,2.38744c0.33363,0.33815 0.46169,0.49309 0.95906,0.65888l0.00001,0.00007c1.38787,1.38784 2.19442,2.41182 2.49006,3.39902c0.14917,0.03966 0.25114,0.14162 0.25114,0.14162zM350.74801,198.20978c-0.40069,1.99915 -0.8064,4.27748 -1.51888,6.18878c-0.07969,0.21377 -0.63273,1.63123 -0.45727,1.75953c0.53283,0.38963 3.26177,-0.05801 3.98833,-0.05801c1.73804,0 3.2443,-0.34363 4.88512,-0.73662c2.5457,-0.60972 5.99441,-0.01338 8.61488,-0.01338c4.67621,0 9.23809,0.875 14,0.875c2.13804,0 4.30711,-0.11259 6.43891,-0.37125c0.6499,-0.07885 2.26384,0.33445 2.75339,0.10215c0.44367,-0.21053 -0.0636,-0.98156 -0.04915,-1.47243c-1.48225,-2.35697 -1.79965,-4.34431 -3.58183,-6.34198c-0.19152,1.14068 -0.97375,2.42737 -2.24984,4.31c-1.11663,3.45209 -2.10911,1.90456 -5.19178,1.51352c-0.38673,-0.04905 -2.23595,-0.72892 -2.82203,-1.31254c-0.17066,0.32961 -0.37449,0.56122 -0.49316,0.94088c0.06602,4.63526 -5.61301,-0.48126 -8.07354,-1.25411c-3.87059,-2.58037 -5.2584,-5.32942 -7.28759,-9.47739c-0.9994,-0.99941 -2.13555,-2.72656 -2.31258,-4.35381c-2.71785,2.95609 -5.63394,5.55404 -6.64297,9.70165zM396.85206,178.54554c-0.44513,0 -0.44513,-0.44513 -0.44513,-0.44513l0.03388,-0.54186c-0.12612,-0.11014 -0.25219,-0.22027 -0.37831,-0.33039c0,0 -0.31476,-0.31476 0,-0.62952c0.31476,-0.31474 0.62952,0.00002 0.62952,0.00002c0.12806,0.13879 0.25611,0.2776 0.38417,0.41639c-0.02165,-0.28319 -0.03438,-0.57016 -0.03438,-0.86141c0.1324,-0.39716 0.17216,-1.13844 0.30582,-1.79672c-0.04389,-0.13712 -0.05543,-0.33495 -0.02274,-0.61257c0.08556,-0.72684 0.4353,-0.84478 0.77,-0.78337l0.13299,-0.15914c0.05673,-0.00994 0.11356,-0.01357 0.17025,-0.01156c-0.01647,-1.08393 1.36957,-0.4202 1.72242,0.36262c0.29681,-0.06515 0.49353,-0.23901 0.47656,-0.63144c-0.05621,-1.2994 -1.16777,-2.13715 -1.80647,-3.08057c-0.29409,-0.97591 -0.43231,-1.99005 -0.53519,-3.02677c-0.04859,0.00614 -0.09747,0.01211 -0.14661,0.0179c0.25472,0.83107 -0.50666,1.71053 -3.26286,1.68582c-0.08009,-0.02571 -0.15792,-0.05021 -0.23348,-0.07421c-0.23467,0.19003 -0.51188,0.00522 -0.51188,0.00522c-0.40284,-0.27361 -0.81074,-0.40567 -1.21805,-0.67437l-0.37537,-0.12511c-0.18188,-0.05594 -0.31412,-0.22531 -0.31412,-0.42554c0,-0.08559 0.02416,-0.16552 0.06602,-0.23337c-0.85703,-0.01679 -1.61514,-0.03636 -2.18482,-0.0337c-1.34008,0 -2.93184,-0.15033 -4.52248,-0.21213c-0.74335,0.10565 -1.54164,0.07745 -2.35836,0.00384c-0.25014,0.01424 -0.49685,0.0341 -0.739,0.06058c-0.15189,0.29883 -0.31074,0.58412 -0.47843,0.85256l0.09236,0.04619l-0.28056,0.56115c-0.07136,0.15056 -0.22475,0.25469 -0.40245,0.25469c-0.20024,0 -0.36958,-0.1322 -0.42553,-0.3141l-0.12495,-0.37483c-0.06547,-0.09691 -0.13087,-0.19994 -0.19639,-0.30819c-0.7684,-0.00196 -1.27741,-0.07044 -1.86813,-0.2948c-0.05856,0.00176 -0.11708,0.00242 -0.17558,0.00192l-0.0708,-0.04966l-0.01034,0.02585l-0.63711,-0.25484c-0.04113,0.00119 -0.08226,0.00179 -0.12342,0.00179h-0.49854c-0.0576,0 -0.11267,-0.01095 -0.1632,-0.03087c-3.53671,-1.26603 -4.41341,-2.00797 -2.8331,2.72113c0.20266,0.63103 2.66886,1.97084 3.39362,2.95664c0.01992,-0.018 0.04248,-0.03557 0.06796,-0.05256c0.11499,-0.07667 0.21808,-0.09382 0.30557,-0.08103c-0.13249,-0.11326 -0.27194,-0.21316 -0.4843,-0.26583c0,0 -0.42229,-0.14077 -0.28154,-0.56305c0.14075,-0.42229 0.56303,-0.28154 0.56303,-0.28154c0.54475,0.20643 0.64216,0.58882 1.13953,0.71221l0.03155,0.87948c0,0 -0.23645,0.23645 -0.5044,0.09454l0.18336,0.44737c-1.38207,0.66887 -4.82018,-2.31196 -5.25899,-3.56471c-0.4621,-1.38955 -2.06267,-5.83449 0.77847,-5.56558c1.0329,0.09775 1.74781,0.92545 2.55584,1.42478l0.54102,-0.13526l0.0323,0.12916h0.0214c0.00785,-0.00257 0.01598,-0.00512 0.02436,-0.00765c0.60154,-0.23195 1.30348,-0.39408 2.06954,-0.50397c-0.92065,-1.73196 -2.04129,-3.46082 -3.74892,-3.44113c-3.40416,-0.03926 -5.97703,1.65819 -6.98465,4.68108c-0.34925,1.04774 -1.19805,3.47939 -0.73462,4.50667c0.49892,1.10597 4.69116,1.89224 3.12813,4.39052c-0.12873,0.38621 -0.36369,0.66495 -0.67724,0.86082c-0.41078,2.83504 -4.51827,3.93963 -6.20998,5.62464c-0.513,0.75043 -3.17526,3.26879 -3.17526,3.99102c0,0.08594 3.60431,3.78445 3.93424,4.20296c1.07561,3.10561 4.58079,7.85584 7.71014,8.90157c3.56475,0.91328 6.79164,-3.20688 8.60679,-5.92101c2.03087,-4.06174 4.48174,-3.63494 7.44856,-2.62339c1.02652,0.09314 2.09228,0.47649 2.98938,0.89961c0.9834,0.19203 2.00388,0.36395 2.80324,0.18808c1.52704,-0.8896 0.64573,-3.9947 1.25052,-6.07344c0.34449,-1.0309 1.79344,-2.31586 1.82889,-3.13538c0.00794,-0.18387 0.00872,-0.36783 0.00363,-0.5521c-1.22116,-0.01116 -0.19839,-1.82145 -0.37746,-3.02945c-0.05849,0.10494 -0.16943,0.20451 -0.37994,0.20451zM381.8673,193.50864c-0.02862,0.00969 -0.05958,0.01706 -0.09228,0.02046c-2.10293,3.06797 -5.45145,6.8684 -9.34549,5.91378c-3.27577,-1.08935 -7.18887,-6.00964 -8.24326,-9.33089c-0.46267,-0.5685 -3.20653,-3.20451 -3.88889,-4.27472c-0.60215,0.58326 -1.63925,0.69777 -1.87894,1.3954c-0.59482,1.73125 0.82575,3.92716 2.00735,5.10877c2.0256,3.984 3.21564,6.70433 6.9565,9.1982c2.42148,0.84685 6.77035,5.07351 6.80365,1.91124c0.18003,-0.52408 0.47194,-0.76792 0.62733,-1.24807v-0.42157c0,-0.24583 0.19929,-0.44513 0.44513,-0.44513c0.12291,0 0.23421,0.04982 0.31476,0.13039l0.31652,0.31654l-0.01002,0.01002c2.78566,1.52765 5.80666,3.44921 6.89224,0.26743c2.70136,-4.10756 3.3719,-4.608 0.00759,-7.97225c-0.41109,-0.13703 -0.64893,-0.32446 -0.91219,-0.57957zM395.06938,164.81824c0.04209,-0.12866 0.14851,-0.29135 0.4176,-0.29135c0.44513,0 0.44513,0.44513 0.44513,0.44513l-0.02054,0.03369c0.36965,0.02459 0.72253,0.1208 1.03448,0.2651c0.30194,0.01131 0.57941,0.05395 0.81834,0.13359l0.00705,0.19651c0.13755,-0.01406 0.27258,-0.0294 0.40468,-0.0461c-0.02137,-0.24197 -0.04263,-0.48492 -0.06524,-0.72864l-0.16789,0.00794c0,0 -0.43183,-0.10795 -0.32387,-0.5398c0.06846,-0.27381 0.26713,-0.3306 0.40336,-0.3355c-0.02001,-0.17588 -0.04165,-0.35206 -0.06542,-0.52848c-0.0654,0.0618 -0.13716,0.12628 -0.2156,0.19353c-0.0343,0.0294 -3.53628,0.15405 -4.10786,0.34606c0,0 -0.30128,0.10042 -0.47971,-0.12286c-0.22034,-0.02667 -0.39108,-0.21434 -0.39108,-0.44189c0,-0.15697 0.08125,-0.29494 0.20396,-0.37419l0.42159,-0.28106l0.00894,0.01341l0.04241,-0.04289c0.05242,-0.01782 0.16279,-0.04777 0.31677,-0.08503c0.56079,-0.72025 2.51076,-0.70238 3.67653,-0.50756c0.10767,0.00244 0.20998,0.00819 0.30562,0.01767c-0.04047,-0.19153 -0.08502,-0.38311 -0.13432,-0.57464c-0.23688,-0.01012 -0.42581,-0.20537 -0.42581,-0.44472v-0.56976h0.0265l-0.02075,-0.07131c0.18996,-0.49475 0.08406,-0.52221 -0.21585,-0.96376c-2.49452,-3.74171 -6.97403,-5.79302 -10.68069,-2.1013c-1.32264,1.98397 -2.10299,4.81386 -3.06373,7.2487c2.75718,0.0243 5.60623,0.30181 7.42006,0.28554c1.48395,0.0133 2.96158,-0.10448 4.42539,-0.13598zM393.854,165.74123c0.00497,-0.0045 0.00993,-0.00899 0.0149,-0.01346c-0.09743,0.00347 -0.19507,0.00717 -0.29287,0.01104c0.09212,0.00096 0.18479,0.00179 0.27795,0.00244zM394.98852,167.239c0.23042,-0.00265 0.44177,-0.01018 0.63518,-0.02193c-0.0399,-0.11971 -0.13587,-0.40763 -0.20547,-0.61645c-0.07067,0.00157 -0.14136,0.00297 -0.21203,0.0042c-0.3917,0.10347 -0.77645,0.20417 -1.10914,0.26939c0.21247,0.20818 0.55285,0.24619 0.89145,0.36479zM399.7723,164.47342c0.03232,0.2263 0.03431,0.47976 0.0179,0.74974c0.23775,-0.07813 0.44508,-0.16737 0.61543,-0.26913c-0.10975,-0.59863 -0.35165,-1.07452 -0.76888,-1.10963c0.05854,0.20615 0.10505,0.41552 0.13555,0.62902zM399.54899,167.07863c0.50663,1.07856 0.90744,0.00942 0.92763,-1.18087c-0.23677,0.09755 -0.50219,0.18234 -0.79063,0.25595c-0.04437,0.30703 -0.09458,0.61938 -0.137,0.92492z" fill="#000000" stroke="none" stroke-width="0.5" stroke-linecap="butt"/><path d="M357.35107,188.478c0.17703,1.62725 1.39817,3.40615 2.39756,4.40556c2.02919,4.14797 3.39227,6.82972 7.26286,9.41009c2.46053,0.77285 8.08475,5.89881 8.01873,1.26355c0.11867,-0.37966 0.31834,-0.6068 0.489,-0.93641c0.58608,0.58362 2.4332,1.26623 2.81993,1.31528c3.08267,0.39104 4.06868,1.95106 5.18531,-1.50103c1.27609,-1.88263 2.15546,-3.1506 2.34698,-4.29128c1.78218,1.99767 2.09682,3.99933 3.57907,6.3563c-0.01444,0.49087 0.4917,1.26482 0.04803,1.47535c-0.48955,0.2323 -2.10452,-0.17872 -2.75442,-0.09986c-2.1318,0.25866 -4.30678,0.38068 -6.44483,0.38068c-4.76191,0 -9.38021,-0.85922 -14.05642,-0.85922c-2.62047,0 -6.09306,-0.61489 -8.63876,-0.00517c-1.64082,0.39299 -3.15011,0.73163 -4.88815,0.73163c-0.72656,0 -3.45726,0.44395 -3.99009,0.05432c-0.17546,-0.1283 0.37635,-1.54893 0.45604,-1.7627c0.71247,-1.9113 1.11542,-4.20399 1.51612,-6.20314c1.00903,-4.14761 3.93517,-6.77785 6.65302,-9.73394z" data-paper-data="{&quot;noHover&quot;:false,&quot;origItem&quot;:[&quot;Path&quot;,{&quot;applyMatrix&quot;:true,&quot;segments&quot;:[[[350.74801,198.20977],[1.00903,-4.14761],[-0.40069,1.99915]],[[349.22913,204.39855],[0.71247,-1.9113],[-0.07969,0.21377]],[[348.77186,206.15808],[-0.17546,-0.1283],[0.53283,0.38963]],[[352.76019,206.10008],[-0.72656,0],[1.73804,0]],[[357.64531,205.36345],[-1.64082,0.39299],[2.5457,-0.60972]],[[366.26019,205.35008],[-2.62047,0],[4.67621,0]],[[380.26019,206.22508],[-4.76191,0],[2.13804,0]],[[386.69909,205.85382],[-2.1318,0.25866],[0.6499,-0.07885]],[[389.45248,205.95597],[-0.48955,0.2323],[0.44367,-0.21053]],[[389.40333,204.48354],[-0.01444,0.49087],[-1.48225,-2.35697]],[[385.8215,198.14156],[1.78218,1.99767],[-0.19152,1.14068]],[[383.57166,202.45157],[1.27609,-1.88263],[-1.11663,3.45209]],[[378.37988,203.96509],[3.08267,0.39104],[-0.38673,-0.04905]],[[375.55785,202.65255],[0.58608,0.58362],[-0.17066,0.32961]],[[375.06469,203.59343],[0.11867,-0.37966],[0.06602,4.63526]],[[366.99115,202.33932],[2.46053,0.77285],[-3.87059,-2.58037]],[[359.70356,192.86193],[2.02919,4.14797],[-0.9994,-0.99941]],[[357.39098,188.50812],[0.17703,1.62725],[-2.71785,2.95609]]],&quot;closed&quot;:true}]}" fill="#c5c5c5" stroke="none" stroke-width="0.5" stroke-linecap="butt"/><path d="M394.00819,166.86892c0.33269,-0.06522 0.87211,-0.22057 1.26381,-0.32404c0.07067,-0.00124 0.1528,0.0131 0.22349,0.01153c0.0696,0.20882 0.17125,0.57325 0.21115,0.69296c-0.19342,0.01175 -0.45457,0.0696 -0.68498,0.07224c-0.33862,-0.1186 -0.801,-0.24454 -1.01347,-0.4527z" data-paper-data="{&quot;noHover&quot;:false,&quot;origItem&quot;:[&quot;Path&quot;,{&quot;applyMatrix&quot;:true,&quot;segments&quot;:[[[763.17792,335.86646],[-0.38035,-0.13322],[0.25881,-0.00298]],[[763.8914,335.84182],[-0.21725,0.0132],[-0.04482,-0.13446]],[[763.6606,335.14939],[0.07818,0.23455],[-0.07938,0.00176]],[[763.42244,335.15412],[0.07937,-0.0014],[-0.43998,0.11622]],[[762.17658,335.45671],[0.3737,-0.07326],[0.23867,0.23383]]],&quot;closed&quot;:true}]}" fill="#ffffff" stroke="none" stroke-width="0.5" stroke-linecap="butt"/><path d="M376.76244,146.31752c0.18982,-0.30372 0.41228,-0.46602 0.63309,-0.54302c0.09427,-0.13473 0.17905,-0.21299 0.17905,-0.21299c2.44381,-2.24175 4.32115,-5.49761 7.14387,-7.31441c2.11655,-1.36229 4.82586,-1.96175 7.24953,-2.49092c0.50435,-0.11012 3.07209,-0.47502 3.34001,-0.328c2.28267,1.25264 2.40454,5.77381 1.931,7.93902c-0.27335,1.24986 -0.9977,2.35716 -1.44469,3.55593c-1.25372,1.39573 -2.68478,2.32221 -4.24192,3.07598c1.70133,-0.14521 3.41638,-0.28373 4.99096,-0.14783c1.23325,-1.76661 2.67385,-3.01053 4.43574,-4.27623c1.46615,-1.05325 2.66243,-1.75673 4.20463,-2.66954c3.58279,-2.12061 6.11623,-1.59433 5.88596,3.15729c-0.17215,3.55233 -3.19932,7.54168 -6.11253,9.42849c-0.79258,0.51334 -1.55321,1.3285 -2.49747,1.33715c-0.77659,0.00712 -1.29054,-0.86433 -1.93581,-1.2965c-2.68615,-6.06226 -10.88808,-1.74393 -15.98864,-3.13536c-2.16666,-0.59106 -4.39248,-2.75885 -6.47182,-3.79852l-0.90348,-0.55804c0,0 -1.06,-0.6625 -0.3975,-1.7225zM385.10963,149.96348c0.09905,0.02335 0.19924,0.04486 0.30051,0.06466c0.23048,-0.2765 0.53152,-0.40194 0.53152,-0.40194l1.21598,-0.50653c2.29151,-0.88116 4.78631,-1.64545 6.49293,-3.48275c0.32661,-0.96973 0.92294,-1.84754 1.1553,-2.84407c0.11326,-0.48572 0.2939,-4.74386 -0.469,-5.06097c-0.87745,-0.36472 -4.64309,1.18296 -5.55756,1.44613c-3.91023,1.12529 -6.13218,4.81331 -8.87047,7.59864c1.66745,1.04776 3.59754,2.80901 5.20078,3.18684zM399.21544,150.45969c1.42286,0.59802 2.58516,1.68251 3.30556,3.56843c0.12439,0.5881 2.31821,-1.64686 2.46427,-1.77632c1.3953,-1.23669 2.85913,-3.36007 3.4423,-5.13889c0.13996,-0.42691 0.54318,-3.19961 0.05385,-3.36325c-0.76029,-0.25427 -1.33234,0.89324 -2.02027,1.30488c-1.50108,0.89821 -2.56819,1.50315 -3.99536,2.53046c-1.25396,0.90262 -2.32028,1.75542 -3.25034,2.87469z" fill="#000000" stroke="none" stroke-width="0.5" stroke-linecap="butt"/><path d="M402.42843,147.55176c1.42717,-1.02731 2.55875,-1.64101 4.05984,-2.53923c0.68793,-0.41164 1.26575,-1.5548 2.02604,-1.30054c0.48933,0.16365 0.09956,2.95524 -0.04039,3.38215c-0.58317,1.77882 -2.07872,3.96877 -3.47402,5.20547c-0.14606,0.12946 -2.36812,2.36472 -2.4925,1.77662c-0.72039,-1.88592 -1.91665,-3.00311 -3.33951,-3.60112c0.93007,-1.11927 2.0066,-2.02072 3.26056,-2.92335z" data-paper-data="{&quot;noHover&quot;:false,&quot;origItem&quot;:[&quot;Path&quot;,{&quot;applyMatrix&quot;:true,&quot;segments&quot;:[[[798.43088,300.91929],[1.86013,-2.23853],[2.84572,1.19603]],[[805.04199,308.05616],[-1.44079,-3.77184],[0.24877,1.1762]],[[809.97053,304.50351],[-0.29212,0.25892],[2.7906,-2.47339]],[[816.85513,294.22574],[-1.16634,3.55763],[0.27992,-0.85382]],[[816.96283,287.49923],[0.97865,0.32729],[-1.52057,-0.50853]],[[812.9223,290.109],[1.37585,-0.82328],[-3.00217,1.79643]],[[804.93157,295.16991],[2.85435,-2.05461],[-2.50792,1.80524]]],&quot;closed&quot;:true}]}" fill="#ff86a5" stroke="none" stroke-width="0.5" stroke-linecap="butt"/><path d="M379.86227,146.79478c2.73829,-2.78533 5.02089,-6.53949 8.93112,-7.66478c0.91447,-0.26316 4.70351,-1.79598 5.58096,-1.43125c0.7629,0.31711 0.59429,4.60127 0.48102,5.08698c-0.23237,0.99652 -0.83011,1.89517 -1.15672,2.8649c-1.70662,1.8373 -4.25187,2.63779 -6.54339,3.51895l-1.22591,0.50504c0,0 -0.30413,0.12455 -0.53461,0.40105c-0.10127,-0.01979 -0.20367,-0.04208 -0.30272,-0.06543c-1.60324,-0.37783 -3.56231,-2.16771 -5.22976,-3.21547z" data-paper-data="{&quot;noHover&quot;:false,&quot;origItem&quot;:[&quot;Path&quot;,{&quot;applyMatrix&quot;:true,&quot;segments&quot;:[[[770.21926,299.92688],[-3.20648,-0.75566],[0.1981,0.04669]],[[770.82028,300.05619],[-0.20254,-0.03959],[0.46096,-0.55301]],[771.88333,299.25231],[[774.31529,298.23925],[0,0],[4.58302,-1.76231]],[[787.30114,291.27376],[-3.41324,3.67459],[0.65322,-1.93946]],[[789.61175,285.58562],[-0.46473,1.99305],[0.22652,-0.97144]],[[788.67375,275.46368],[1.52579,0.63422],[-1.75489,-0.72945]],[[777.55864,278.35594],[1.82894,-0.52633],[-7.82047,2.25058]],[[759.8177,293.55321],[5.47659,-5.57066],[3.3349,2.09552]]],&quot;closed&quot;:true}]}" fill="#ff86a5" stroke="none" stroke-width="0.5" stroke-linecap="butt"/><path d="M380.12636,175.94863c-0.22361,-0.44721 0.22361,-0.67082 0.22361,-0.67082l0.31549,-0.15212c2.01357,-0.67057 4.33132,-0.96144 6.47746,-0.64583c1.11118,0.16341 2.3038,1.05662 3.30565,0.99516c0,0 0.5,0 0.5,0.5c0,0.5 -0.5,0.5 -0.5,0.5c-1.22582,-0.0437 -2.17444,-0.82998 -3.44436,-1.00483c-2.01268,-0.27711 -4.135,-0.02557 -6.02253,0.60417l-0.18451,0.09787c0,0 -0.44722,0.2236 -0.67082,-0.22361z" fill="#000000" stroke="none" stroke-width="0.5" stroke-linecap="butt"/><path d="M381.09502,180.95358c-0.35355,-0.35356 0,-0.70711 0,-0.70711l0.35729,-0.25652c2.68534,-0.53739 5.42836,-2.25597 8.37127,-2.26493c0,0 0.5,0 0.5,0.5c0,0.5 -0.5,0.5 -0.5,0.5c-2.80334,-0.00974 -5.61013,1.53007 -8.12874,2.23507l0.10728,-0.00652c0,0 -0.35355,0.35356 -0.70711,0z" fill="#000000" stroke="none" stroke-width="0.5" stroke-linecap="butt"/><path d="M381.84923,185.25814c-0.15812,-0.47434 0.31623,-0.63245 0.31623,-0.63245l0.17956,-0.00422c1.46173,-1.43113 4.98588,-4.60678 7.07661,-4.26173c0,0 0.4903,0.09806 0.39224,0.58835c-0.09806,0.49029 -0.58835,0.39223 -0.58835,0.39223c-1.44288,-0.37504 -5.16208,2.94753 -6.17339,3.98826l-0.57044,0.24579c0,0 -0.47434,0.15812 -0.63246,-0.31623z" fill="#000000" stroke="none" stroke-width="0.5" stroke-linecap="butt"/><path d="M389.22497,179.42224c-0.44722,-0.2236 -0.22361,-0.67082 -0.22361,-0.67082l0.15619,-0.30374c0.83907,-1.25548 1.87058,-2.38366 2.93747,-3.45121c0,0 0.35355,-0.35356 0.70711,0c0.35355,0.35356 0,0.70711 0,0.70711c-1.01995,1.0193 -2.0136,2.0972 -2.81252,3.2988l-0.09382,0.19625c0,0 -0.2236,0.44721 -0.67082,0.22361z" fill="#ff2e62" stroke="none" stroke-width="0.5" stroke-linecap="butt"/><path d="M390.97002,180.20358c-0.35355,-0.35356 0,-0.70711 0,-0.70711l0.08812,-0.08379c1.09533,-1.36501 1.75981,-3.18786 3.45474,-3.90189c0,0 0.46424,-0.18569 0.64993,0.27855c0.1857,0.46424 -0.27854,0.64993 -0.27854,0.64993c-1.44777,0.53581 -2.12202,2.44082 -3.04527,3.59811l-0.16188,0.1662c0,0 -0.35355,0.35356 -0.70711,0z" fill="#ff2e62" stroke="none" stroke-width="0.5" stroke-linecap="butt"/><path d="M384.22002,179.57858c-0.35355,-0.35356 0,-0.70711 0,-0.70711l0.20356,-0.19644c0.99672,-1.32825 3.10881,-3.77048 4.89626,-3.43507c0,0 0.48507,0.12127 0.36381,0.60634c-0.12127,0.48507 -0.60634,0.3638 -0.60634,0.3638c-1.03436,-0.41392 -3.26306,2.27693 -3.85373,3.06493l-0.29645,0.30355c0,0 -0.35355,0.35356 -0.70711,0z" fill="#ff2e62" stroke="none" stroke-width="0.5" stroke-linecap="butt"/><path d="M381.69614,179.88823c-0.01193,0.11689 -0.08229,0.46179 -0.49757,0.46179c-0.5,0 -0.5,-0.5 -0.5,-0.5l0.09261,-0.41489c1.36452,-1.91427 3.39648,-4.52328 5.59669,-5.42435c0,0 0.46424,-0.18569 0.64993,0.27855c0.1857,0.46424 -0.27854,0.64993 -0.27854,0.64993c-1.9449,0.7547 -3.83911,3.23363 -5.06313,4.94897z" fill="#ff2e62" stroke="none" stroke-width="0.5" stroke-linecap="butt"/><path d="M394.72002,178.95358c-0.35355,-0.35356 0,-0.70711 0,-0.70711l0.03134,0.00495c0.51268,-1.02367 1.14686,-1.97711 1.78119,-2.92874c0,0 0.27735,-0.41603 0.69338,-0.13868c0.41602,0.27735 0.13867,0.69338 0.13867,0.69338c-0.61114,0.91658 -1.22628,1.83443 -1.71882,2.82125l-0.21866,0.25495c0,0 -0.35355,0.35356 -0.70711,0z" fill="#ff2e62" stroke="none" stroke-width="0.5" stroke-linecap="butt"/><g stroke-width="0" stroke-linecap="butt"><path d="M375.25277,196.14385c0,-2.43006 1.61408,-4.4 3.60516,-4.4c1.99108,0 3.60516,1.96994 3.60516,4.4c0,2.43006 -1.61408,4.4 -3.60516,4.4c-1.99108,0 -3.60516,-1.96994 -3.60516,-4.4z" fill="#000000" stroke="#9a0e6e"/><path d="M377.01325,196.70356c0.6671,-1.57677 1.99131,-2.52355 2.95772,-2.11469c0.96641,0.40886 1.20905,2.01854 0.54195,3.59531c-0.6671,1.57677 -1.99131,2.52355 -2.95772,2.11469c-0.96641,-0.40886 -1.20905,-2.01854 -0.54195,-3.59531z" fill="#ff17cc" stroke="#000000"/><path d="M381.316,205.74386h-23.26968c0,0 0.59226,-5.11131 3.51699,-8.52195c1.9139,-2.23186 5.57618,-3.27805 8.11785,-3.27805c2.46354,0 6.2231,1.53442 8.10399,3.67336c3.02512,3.44013 3.53084,8.12664 3.53084,8.12664z" fill="#000000" stroke="#9a0e6e"/><path d="M369.35342,193.34387c0,-2.43006 1.61408,-4.4 3.60516,-4.4c1.99108,0 3.60516,1.96994 3.60516,4.4c0,2.43006 -1.61408,4.4 -3.60516,4.4c-1.99108,0 -3.60516,-1.96994 -3.60516,-4.4z" fill="#000000" stroke="#9a0e6e"/><path d="M363.12632,193.14385c0,-2.43006 1.61408,-4.4 3.60516,-4.4c1.99108,0 3.60516,1.96994 3.60516,4.4c0,2.43006 -1.61409,4.4 -3.60516,4.4c-1.99108,0 -3.60516,-1.96994 -3.60516,-4.4z" fill="#000000" stroke="#9a0e6e"/><path d="M357.06309,196.14385c0,-2.43006 1.61408,-4.4 3.60516,-4.4c1.99108,0 3.60516,1.96994 3.60516,4.4c0,2.43006 -1.61409,4.4 -3.60516,4.4c-1.99108,0 -3.60516,-1.96994 -3.60516,-4.4z" fill="#000000" stroke="#9a0e6e"/><path d="M365.06309,194.0439c0,-1.71209 0.85066,-3.1 1.9,-3.1c1.04934,0 1.9,1.38792 1.9,3.1c0,1.71209 -0.85066,3.1 -1.9,3.1c-1.04934,0 -1.9,-1.38791 -1.9,-3.1z" fill="#ff17cc" stroke="#000000"/><path d="M360.00416,197.96234c-0.64738,-1.58497 -0.38468,-3.1915 0.58675,-3.58828c0.97143,-0.39678 2.28374,0.56643 2.93112,2.1514c0.64738,1.58497 0.38469,3.1915 -0.58674,3.58828c-0.97143,0.39678 -2.28375,-0.56643 -2.93113,-2.1514z" fill="#ff17cc" stroke="#000000"/><path d="M370.87583,194.02421c0.19792,-1.7006 1.20331,-2.98088 2.24561,-2.85958c1.0423,0.1213 1.72683,1.59825 1.52891,3.29886c-0.19792,1.7006 -1.20331,2.98088 -2.24561,2.85958c-1.0423,-0.1213 -1.72683,-1.59825 -1.52891,-3.29886z" fill="#ff17cc" stroke="#000000"/><path d="M370.06309,206.34387c-4.52873,0 -8.2,-1.83564 -8.2,-4.1c0,-2.26437 3.67127,-4.1 8.2,-4.1c4.52873,0 8.2,1.83564 8.2,4.1c0,2.26437 -3.67127,4.1 -8.2,4.1z" fill="#ff17cc" stroke="#000000"/></g><g fill="none" stroke="#000000" stroke-width="2"><path d="M345,241.70578v-106.16129h70v106.16129z" stroke-linecap="butt"/><path d="M413.66666,206.08284h-68.33333" stroke-linecap="round"/></g><g fill="#ffcf00" stroke-linecap="butt"><text transform="translate(350.22619,236.87738) scale(0.42958,0.42958)" font-size="40" xml:space="preserve" fill="#ffcf00" fill-rule="nonzero" stroke="none" stroke-width="1" stroke-linecap="butt" stroke-linejoin="miter" stroke-miterlimit="10" stroke-dasharray="" stroke-dashoffset="0" font-family="Serif" font-weight="normal" text-anchor="start" style="mix-blend-mode: normal"><tspan x="0" dy="0">S</tspan></text><path d="M353.71054,238.02289v-13.69875h0.66823v13.69875z" stroke="#000000" stroke-width="0"/><path d="M354.95154,238.02289v-13.69875h0.66823v13.69875z" stroke="#000000" stroke-width="0"/></g></g></g></svg>