<svg version="1.1" xmlns="http://www.w3.org/2000/svg" xmlns:xlink="http://www.w3.org/1999/xlink" width="72" height="108.16129" viewBox="0,0,72,108.16129"><defs><linearGradient x1="380.00695" y1="177.26667" x2="380.00695" y2="205.73333" gradientUnits="userSpaceOnUse" id="color-1"><stop offset="0" stop-color="#ff6bde" stop-opacity="0"/><stop offset="1" stop-color="#ff6bde"/></linearGradient></defs><g transform="translate(-344,-134.54441)"><g data-paper-data="{&quot;isPaintingLayer&quot;:true}" fill-rule="nonzero" stroke-linejoin="miter" stroke-miterlimit="10" stroke-dasharray="" stroke-dashoffset="0" style="mix-blend-mode: normal"><path d="M344.91667,242.04169v-106h70.25v106z" fill="#006eff" stroke="none" stroke-width="0" stroke-linecap="butt"/><path d="M344.80782,206.22222v-70.33334h70v70.33334z" fill="#00b891" stroke="#000000" stroke-width="0" stroke-linecap="butt"/><path d="M376.30903,205.23333h-19.2v-69.4h19.2z" fill="#ffffff" stroke="#000000" stroke-width="0" stroke-linecap="butt"/><path d="M345.00903,182.33333v-19.2h69.4v19.2z" fill="#ffffff" stroke="#000000" stroke-width="0" stroke-linecap="butt"/><path d="M368.66216,159.39601c0.36088,-0.47934 1.02066,-0.47934 1.02066,-0.47934h1c1.95105,0.02423 3.06288,-0.83597 4.99942,-1.24614c3.19641,-0.67702 7.11189,-1.23929 10.32564,-1.25105c3.70248,0.37027 7.78398,0.3393 10.39162,3.4547c3.84185,4.58995 3.76966,10.02639 2.22764,15.41139c-0.99439,3.47258 -2.25436,7.075 -6.09122,7.87684c-4.6535,-0.03066 -9.18317,-3.45244 -12.08836,-6.97647c-0.95011,-1.15249 -1.47457,-2.72653 -2.8308,-3.55988c-0.46227,-0.28404 -2.47495,2.23804 -2.64039,2.47873c-0.83376,1.21301 -0.76804,3.04144 -1.42066,4.36107c-1.24411,2.51567 -2.01017,4.17562 -4.14454,6.10566c-1.87672,0.05018 -4.81373,0.22032 -6.0661,-1.78897c-0.83906,-1.34618 0.09413,-3.54947 0.3603,-4.85226c1.23719,-6.0554 4.47744,-12.25184 4.47744,-18.51362c0,0 0,-0.65978 0.47934,-1.02066z" fill="#aa7a00" stroke="none" stroke-width="0.5" stroke-linecap="butt"/><path d="M374.98964,166.20317c3.13401,0.61671 6.2508,0.46349 9.44318,0.46349c1.63058,0 3.56633,-0.33543 4.98469,0.7387c4.44368,3.36522 3.79695,9.90419 7.0749,13.84815c2.61926,5.46968 4.50621,11.63285 5.9677,17.50602c0.24988,1.00418 1.39174,4.62169 1.17153,5.51116c-0.19952,0.80586 -0.98167,1.42213 -1.72046,1.80083c-1.24056,0.6359 -3.76412,-0.04736 -5.08146,-0.15911c-2.7092,-0.22982 -6.13231,0.7377 -8.73551,0.00111c-0.02875,-0.00814 -0.05738,-0.01657 -0.0859,-0.02528l-0.00227,0.01586l-1.7318,-0.2474c-0.3082,-0.03902 -0.58141,-0.19026 -0.7774,-0.41149c-1.89324,0.09539 -3.78403,0.15635 -5.56403,0.17146c-6.60323,0 -13.29226,1.44214 -19.8531,0.99574c-0.92436,-0.06289 -3.82028,-0.37247 -4.56337,-0.93823c-2.49603,-1.90038 -0.57824,-5.4246 0.93601,-7.33288c1.11034,-1.39927 1.84952,-2.83626 3.09658,-4.10852c1.89412,-1.88515 2.88576,-4.11993 4.34382,-6.30949c1.15451,-1.73371 2.82669,-3.45848 3.31261,-5.54301c1.3254,-5.68573 1.14184,-11.85545 6.19658,-15.9897c0,0 0.84209,-0.67368 1.58769,0.01259z" fill="#476640" stroke="none" stroke-width="0.5" stroke-linecap="butt"/><text transform="translate(370.31667,216.26551) scale(0.22618,0.22618)" font-size="40" xml:space="preserve" fill="#000000" fill-rule="nonzero" stroke="none" stroke-width="1" stroke-linecap="butt" stroke-linejoin="miter" stroke-miterlimit="10" stroke-dasharray="" stroke-dashoffset="0" font-family="Serif" font-weight="normal" text-anchor="start" style="mix-blend-mode: normal"><tspan x="0" dy="0">Katie</tspan></text><path d="M364.09029,205.9486c-0.67082,-0.33541 -0.33541,-1.00623 -0.33541,-1.00623l0.14113,-0.27647c0.17183,-0.3787 0.22896,-0.83772 0.12759,-1.24104c0,0 -0.14709,-0.73544 0.58835,-0.88252c0.14714,-0.02943 0.27072,-0.02353 0.37429,0.00473c0.8899,-1.57567 1.52294,-3.63498 1.53633,-5.41113c0.65994,-1.71406 0.27127,-3.13214 0.66517,-4.82532c0.47548,-2.04389 2.23922,-3.38062 2.7033,-5.42122c0.67784,-2.98054 1.51254,-7.95205 4.31546,-9.75475c0,0 0.64312,-0.38587 1.02899,0.25725c0.38587,0.64312 -0.25725,1.02899 -0.25725,1.02899c-1.21768,0.64878 -1.60485,2.61161 -2.21204,3.85286c-1.1695,2.39074 -1.10677,4.93258 -2.31463,7.27023c-0.60792,1.17654 -1.48475,1.70579 -1.7879,3.03428c-0.38364,1.6812 0.0487,3.13387 -0.66816,4.84135c0.01729,2.07559 -0.88766,4.47241 -1.92668,6.24404l-0.52329,0.2353c-0.01404,0.45233 -0.10286,0.90559 -0.25681,1.32404l-0.1922,0.3902c0,0 -0.33541,0.67082 -1.00623,0.33541z" fill="#354b2f" stroke="none" stroke-width="0.5" stroke-linecap="butt"/><path d="M395.59236,206.36111c-0.75,0 -0.75,-0.75 -0.75,-0.75v-0.83333c0.08192,-1.26898 -1.51438,-2.92845 -1.95067,-4.23248c-1.56055,-3.64828 -2.07832,-7.79436 -3.02822,-11.59081c-0.71836,-2.87104 -2.17541,-5.68869 -2.18778,-8.67671c0,0 0,-0.75 0.75,-0.75c0.75,0 0.75,0.75 0.75,0.75c-0.01382,2.83292 1.46392,5.59467 2.14555,8.32329c0.93225,3.73184 1.41098,7.83336 2.97178,11.40919c0.55935,1.68455 1.98707,3.03569 2.04933,4.76752v0.83333c0,0 0,0.75 -0.75,0.75z" fill="#354b2f" stroke="none" stroke-width="0.5" stroke-linecap="butt"/><path d="M414.16667,220.66671h-69" fill="none" stroke="#000000" stroke-width="2" stroke-linecap="round"/><path d="M379.86404,241.16671v-20" fill="none" stroke="#000000" stroke-width="2" stroke-linecap="round"/><text transform="translate(398.95834,235.53339) scale(0.335,0.335)" font-size="40" xml:space="preserve" fill="#000000" fill-rule="nonzero" stroke="none" stroke-width="1" stroke-linecap="butt" stroke-linejoin="miter" stroke-miterlimit="10" stroke-dasharray="" stroke-dashoffset="0" font-family="Serif" font-weight="normal" text-anchor="start" style="mix-blend-mode: normal"><tspan x="0" dy="0">35</tspan></text><path d="M389.63494,151.83939c1.11217,-0.48684 1.66826,0.62534 1.66826,0.62534l-0.23531,-0.01344c0.59098,0.42058 1.39772,0.64097 1.77296,1.26174c0.21379,0.35368 0.17077,2.99651 0.16975,3.52145c-0.00642,3.29253 -0.69797,7.41999 -3.4676,9.60532c-6.30348,4.97366 -14.62756,4.11431 -19.47559,-2.37198c-0.16235,-4.40937 0.6318,-8.39165 2.37983,-12.4418c0.71322,-1.65251 1.74155,-3.54651 3.67179,-4.14043c4.78299,-1.47169 9.47138,1.76941 13.51591,3.95381z" fill="#ffcea4" stroke="none" stroke-width="0.5" stroke-linecap="butt"/><path d="M377.48848,157.38258c0,-0.72226 0.58551,-1.30777 1.30778,-1.30777c0.72226,0 1.30778,0.58551 1.30778,1.30777c0,0.72226 -0.58552,1.30778 -1.30778,1.30778c-0.72226,0 -1.30778,-0.58552 -1.30778,-1.30778z" fill="#000000" stroke="none" stroke-width="0.5" stroke-linecap="butt"/><path d="M385.36982,157.75758c0,-0.72226 0.58551,-1.30777 1.30778,-1.30777c0.72226,0 1.30777,0.58551 1.30777,1.30777c0,0.72226 -0.58551,1.30778 -1.30777,1.30778c-0.72226,0 -1.30778,-0.58552 -1.30778,-1.30778z" fill="#000000" stroke="none" stroke-width="0.5" stroke-linecap="butt"/><path d="M369.09961,142.14367c0,0 0.71925,-0.58848 1.42482,-0.13046l0.32721,-0.13073c2.28632,-0.75778 4.13388,-2.44571 6.49382,-2.93593c3.91513,-0.81326 7.99498,0.73537 11.3741,2.52204c4.0509,2.14187 6.25234,4.44082 8.3302,7.5079c0.14202,-0.0799 0.29284,-0.15348 0.45216,-0.2199c2.49439,-1.03989 5.04526,2.6738 4.00341,4.75452c-0.29147,0.5821 -0.59547,0.99973 -0.90861,1.28162c0.89888,1.73305 1.50376,3.54263 1.89652,5.40618c1.11825,1.53185 0.7167,3.01588 1.27107,5.08527c0.46505,1.73599 0.81468,3.15211 0.91393,4.62493c1.08628,1.52294 1.81489,3.97086 -0.68113,4.62864c-0.20218,0.05328 -0.40414,0.06509 -0.60596,0.0473v0.1094h-0.63816c-0.14099,1.80772 -0.28959,3.61391 -0.38467,5.40175c-0.03724,0.70036 -0.41296,3.15736 -0.95359,6.28463c0.3273,0.17381 0.65115,0.34336 0.76112,0.67127c0.31779,0.94761 0.38425,2.08635 -0.02473,2.99832c-0.37078,0.82679 -0.97793,1.11646 -1.63279,1.30003c-1.27585,6.80293 -2.8484,14.11318 -3.46883,14.11318c-1.50466,0 -9.9322,-0.40963 -9.9322,-0.40963c0,0 0.28593,-1.16187 0.72584,-2.97319l-0.55659,0.09276c-0.07416,0.01371 -0.1506,0.02088 -0.22873,0.02088c-0.69036,0 -1.25,-0.55964 -1.25,-1.25c0,-0.47329 0.26304,-0.88514 0.65089,-1.09734l0.78217,-0.44695c0.13442,-1.54606 -0.6161,-3.80705 0.01829,-5.15257c0.46272,-0.9814 1.88308,-1.20873 2.82972,-1.56589c0.69812,-2.98183 1.37011,-5.92826 1.82429,-8.09494c-0.00648,-0.47737 -0.01946,-0.95618 -0.03417,-1.43395c-0.10249,0.02717 -0.21015,0.04165 -0.32119,0.04165c-0.69036,0 -1.25,-0.55964 -1.25,-1.25c0,-0.11436 0.01536,-0.22513 0.04413,-0.33037l0.32653,-1.30614l0.41035,0.10259c0.02361,-0.13272 0.04897,-0.2635 0.07539,-0.39301c-0.44417,-3.31839 -2.76774,-6.42467 1.66852,-8.5248c0.17827,-4.09839 0.25889,-8.18892 -0.28575,-12.29897c-0.69658,-1.37211 -1.15099,-3.3492 -2.13651,-4.55468c-2.04075,-2.49623 -4.81248,-3.05417 -7.47432,-4.64446c-0.00052,-0.00032 -1.10084,-0.9069 -1.80174,-1.39841c-0.5154,1.20073 -1.71676,0.68586 -1.71676,0.68586c-0.52764,-0.22665 -1.0561,-0.49076 -1.58755,-0.76942c-1.68824,0.79453 -2.96434,2.66123 -3.82819,4.14712c-0.90737,1.56074 -1.65998,2.3004 -2.02968,4.06228c-1.55719,2.15751 -3.8667,7.07028 -5.21489,12.95461c0.33858,0.33979 0.37949,0.83065 0.37949,0.83065c0.14848,2.01903 0.98685,2.63108 1.46244,4.44964c0.65334,2.49823 -1.06711,3.76365 -0.98536,5.91366l-0.16349,0.2113l0.08298,0.03688l-0.65507,1.47393c-0.15496,0.37083 -0.48347,0.65107 -0.88402,0.7392c0.35908,2.43214 1.00604,4.81864 1.78688,7.07041l0.22569,0.22863c0.74516,0.92014 1.36851,2.05574 1.46518,3.23582c0.02017,0.24621 0.00987,0.51859 -0.00928,0.80352c0.5745,1.31239 1.16228,2.54417 1.722,3.67145c0.77756,0.14902 1.5894,-0.00944 2.31232,0.5094c1.4622,1.04944 2.17051,3.21112 0.72304,4.69552c-0.08846,0.09072 -0.18368,0.17193 -0.28496,0.24422c0.36291,0.80734 0.51382,1.32755 0.34753,1.49976c-0.36218,0.37509 -8.90252,-0.23059 -9.35328,-0.23281c-0.80575,-0.20144 -1.60368,-1.28505 -2.38302,-2.64775l-0.16983,0.14557c-0.21933,0.19029 -0.50561,0.30546 -0.81878,0.30546c-0.69036,0 -1.25,-0.55964 -1.25,-1.25c0,-0.37384 0.16411,-0.70935 0.42422,-0.93841l0.60932,-0.54162c-0.03706,-0.07292 -0.07405,-0.14576 -0.11099,-0.21844c-0.68817,-0.43766 -2.21969,-1.27506 -2.23895,-1.28904c-1.42228,-1.03251 -3.23431,-3.06078 -2.83619,-5.0329c0.15985,-0.79181 0.61389,-1.59681 1.27518,-2.06072c0.10627,-0.07455 0.2251,-0.10349 0.35153,-0.10649c-0.13614,-1.65401 -0.22539,-3.66184 -0.27756,-5.87282c-0.74328,-0.95825 -1.56524,-1.89883 -1.69035,-3.14837c-0.0174,-0.17385 0.00776,-0.36389 0.06163,-0.56513c-0.27832,0.06099 -0.55708,0.06251 -0.82307,-0.02277c-3.2722,-1.04913 -1.47577,-5.48524 1.09785,-6.21997c0.28751,-1.63336 0.73227,-3.23923 1.41291,-4.7817c0.03508,-1.46043 0.07643,-2.88311 0.12187,-4.2347c-0.24914,0.10366 -0.51795,0.19522 -0.808,0.27373l-0.15273,-0.04408v0.05345h-1.33333c-0.69036,0 -1.25,-0.55964 -1.25,-1.25c0,-0.34518 0.13991,-0.65768 0.36611,-0.88388l1,-1l0.24581,0.24581c0.37054,-0.35469 0.79084,-0.62503 1.27997,-0.73662l0.69144,-1.04198c0,0 0.04942,-0.06589 0.13979,-0.15115c0.0829,-1.79722 0.16951,-3.31287 0.25108,-4.41302c-0.03286,-2.52663 0.00325,-5.96776 0.93698,-7.42846c0.70832,-1.10808 3.11105,-1.60346 4.1216,-2.64126c0,0 0.17515,-0.17515 0.44749,-0.29155c1.6019,-1.91825 3.2314,-3.50464 4.37448,-4.0376c0.27373,-0.33225 0.62537,-0.68792 1.1037,-1.08775zM398.99009,151.55949l0.01023,0.51295c0.07745,0.12874 0.15543,0.25871 0.23401,0.38993c0.02226,-0.02219 0.03724,-0.05016 0.04265,-0.08459c0.05302,-0.33724 -0.07743,-0.62497 -0.28689,-0.81829zM365.90701,174.74387c-0.00293,-0.00793 -0.00585,-0.01584 -0.00878,-0.02374c-0.00076,0.00687 -0.0015,0.01373 -0.00225,0.0206c0.00369,0.00104 0.00736,0.00208 0.01103,0.00314z" fill="#ffb600" stroke="none" stroke-width="0.5" stroke-linecap="butt"/><path d="M369.78389,145.92427c0.4924,-1.14893 1.64133,-0.65653 1.64133,-0.65653l1.73595,0.74408c2.51383,1.32745 3.06246,3.65154 -0.24197,4.63229c-2.83733,0.84212 -5.53194,-1.01903 -8.23638,-0.97745c0,0 -1.25,0 -1.25,-1.25c0,-1.25 1.25,-1.25 1.25,-1.25c1.68658,0.01877 2.84888,0.71973 4.45023,1.01614c0.73982,0.13694 1.63542,-0.07054 2.47346,-0.11753l-1.16608,-0.49968c0,0 -1.14893,-0.4924 -0.65654,-1.64133z" fill="#a57600" stroke="none" stroke-width="0.5" stroke-linecap="butt"/><path d="M386.93282,149.41667c0,-1.25 1.25,-1.25 1.25,-1.25l0.49515,0.02428c1.80984,0.38522 3.85743,1.07136 4.23651,3.26238c0.45742,2.64379 -2.30339,4.48832 -4.63439,4.20397c-2.76977,-0.33786 -6.13219,-2.21976 -8.192,-4.06926c-1.3329,-1.19681 -1.94711,-2.66649 -3.54838,-3.59951c0,0 -1.07187,-0.64312 -0.42875,-1.71498c0.64312,-1.07187 1.71499,-0.42875 1.71499,-0.42875c3.39673,2.08327 5.05459,5.35824 9.04949,6.90285c2.95923,1.14417 5.05261,-1.42416 1.31225,-2.10525l-0.00486,0.02427c0,0 -1.25,0 -1.25,-1.25z" fill="#a57600" stroke="none" stroke-width="0.5" stroke-linecap="butt"/><path d="M389.36868,144.31195c-0.39529,1.18586 -1.58114,0.79057 -1.58114,0.79057l-0.91373,-0.31782c-2.06546,-1.05691 -5.88609,-2.66305 -8.19099,-2.61803c0,0 -1.25,0 -1.25,-1.25c0,-1.25 1.25,-1.25 1.25,-1.25c2.79149,0.03801 6.77792,1.63993 9.30902,2.88197l0.58626,0.18218c0,0 1.18586,0.39529 0.79057,1.58114z" fill="#a57600" stroke="none" stroke-width="0.5" stroke-linecap="butt"/><path d="M395.68282,186.16667c-0.75,0 -0.75,-0.75 -0.75,-0.75c0,-0.33334 0,-1.41666 0,-1.75c0,-5.63825 2.09949,-10.28011 1.25725,-15.89597c-0.26824,-1.78852 0.39475,-2.93879 -1.03758,-4.3237c0,0 -0.53033,-0.53033 0,-1.06066c0.53033,-0.53033 1.06066,0 1.06066,0c1.70282,1.74643 1.12408,3.01354 1.46242,5.1763c0.8946,5.71855 -1.24275,10.40444 -1.24275,16.10403c0,0.33334 0,0.66666 0,1v0.75c0,0 0,0.75 -0.75,0.75z" fill="#a57600" stroke="none" stroke-width="0.5" stroke-linecap="butt"/><path d="M391.90249,202.947c-0.53033,-0.53033 0,-1.06066 0,-1.06066l0.03033,0.28033c0,-2.98632 1.26569,-5.84408 1.25,-8.75c0,0 0,-0.75 0.75,-0.75c0.75,0 0.75,0.75 0.75,0.75c-0.00516,1.16396 -0.20226,2.30784 -0.43847,3.4513c0.06869,-0.14218 0.15814,-0.23163 0.15814,-0.23163l0.4063,-0.38569c0.57494,-0.86241 2.15208,-2.14784 2.41253,-3.07115c0.30713,-1.08879 -0.0497,-2.85873 -0.03846,-4.01911c0.01836,-1.89658 0.47738,-3.62405 0.90566,-5.45836c0.47454,-2.03245 2.14315,-4.27058 2.09431,-6.28536c0,0 0,-0.75 0.75,-0.75c0.75,0 0.75,0.75 0.75,0.75c-0.03906,2.28209 -1.611,4.36925 -2.13329,6.62508c-0.69306,2.99345 -0.03012,6.80764 -0.90519,9.61209c-0.34956,1.12027 -1.90464,2.4046 -2.58748,3.42886l-0.59371,0.6143c0,0 -0.53033,0.53033 -1.06066,0c-0.16044,-0.16044 -0.2238,-0.32086 -0.23414,-0.46661c-0.34463,1.62335 -0.73553,3.25003 -0.73553,4.93628l-0.46967,0.78033c0,0 -0.53033,0.53033 -1.06066,0z" fill="#a57600" stroke="none" stroke-width="0.5" stroke-linecap="butt"/><path d="M368.46315,196.947c-0.53033,0.53033 -1.06066,0 -1.06066,0l-0.81082,-0.81877c-0.92156,-1.5798 -0.9142,-2.34547 -0.90323,-4.11992c-0.5149,-2.05958 -0.06901,-4.16887 -0.25197,-6.26773c-0.17519,-2.00976 -1.75903,-3.68244 -2,-5.75c-0.25727,-2.2075 0.94774,-6.35903 -0.37768,-8.15787c0,0 -0.41603,-0.62404 0.20801,-1.04007c0.62404,-0.41602 1.04006,0.20802 1.04006,0.20802c1.4929,2.38521 0.33673,6.10559 0.62231,8.84212c0.21612,2.07091 1.77304,3.69022 2,5.75c0.22965,2.08413 -0.26411,4.18369 0.24804,6.23227c0.0072,1.39812 -0.16269,2.16586 0.59677,3.38008l0.68917,0.68123c0,0 0.53033,0.53033 0,1.06066z" fill="#a57600" stroke="none" stroke-width="0.5" stroke-linecap="butt"/><path d="M363.26824,195.58749c-0.67082,0.33541 -1.00624,-0.33541 -1.00624,-0.33541l-0.29069,-0.59824c-0.59506,-1.78518 -1.23575,-3.67198 -1.77067,-5.36782c-0.79896,-2.53293 -0.33348,-5.67263 -1.89186,-7.95332c0,0 -0.41603,-0.62404 0.20801,-1.04007c0.62404,-0.41602 1.04006,0.20802 1.04006,0.20802c1.62173,2.47972 1.20443,5.51972 2.03363,8.22118c0.52533,1.71147 1.20185,3.65168 1.80385,5.45767l0.20931,0.40176c0,0 0.33541,0.67082 -0.33541,1.00623z" fill="#a57600" stroke="none" stroke-width="0.5" stroke-linecap="butt"/><path d="M360.71315,175.697c-0.53033,0.53033 -1.06066,0 -1.06066,0l-0.46967,-0.78033c0.03456,-0.99531 -0.63378,-1.6447 -0.74595,-2.67226c-0.23192,-2.12444 0.67723,-4.40559 1.04545,-6.47435c0.19946,-1.12061 0.7681,-5.67099 0.7005,-5.60339c0,0 -0.75,0 -0.75,-0.75c0,-0.75 0.75,-0.75 0.75,-0.75c1.90416,0.32671 1.67538,1.51586 1.49635,3.3239c-0.30745,3.10494 -1.3823,6.12178 -1.71149,9.22813c-0.14835,1.39991 0.68559,2.33927 0.71514,3.69797l0.03033,-0.28033c0,0 0.53033,0.53033 0,1.06066z" fill="#a57600" stroke="none" stroke-width="0.5" stroke-linecap="butt"/><path d="M373.5168,151.0407c-0.62404,-0.41602 -0.20801,-1.04006 -0.20801,-1.04006l0.692,-0.94704c0.9216,-0.26218 2.7036,-0.81297 3.66921,-0.34845c1.8843,0.90648 2.03802,3.33064 0.50423,4.77811c-1.82371,1.72108 -6.78808,-0.88782 -8.40743,-1.94256c0,0 -0.62403,-0.41602 -0.20801,-1.04006c0.41602,-0.62404 1.04006,-0.20802 1.04006,-0.20802c1.35071,0.9285 3.35719,1.61181 4.96096,1.9673c0.25529,0.05659 1.36008,0.40371 1.63162,0.09016c1.90135,-2.19557 -0.82523,-2.34048 -2.32656,-2.07035l-0.308,0.55297c0,0 -0.41602,0.62403 -1.04006,0.20801z" fill="#a57600" stroke="none" stroke-width="0.5" stroke-linecap="butt"/><path d="M395.47131,154.65383c-0.23717,-0.71151 0.47434,-0.94868 0.47434,-0.94868l0.86703,-0.2788c0.3695,-0.00411 1.81948,-0.05777 2.05867,0.13188c1.69329,1.34258 0.13617,6.02454 -2.11084,5.58837c-4.07826,-0.79164 -5.14039,-7.67131 -8.97478,-8.2445c0,0 -0.73543,-0.14709 -0.58835,-0.88252c0.14709,-0.73543 0.88252,-0.58835 0.88252,-0.58835c2.74964,0.6421 4.22853,3.65488 6.03794,5.71071c0.01376,0.01564 2.88833,3.09064 3.17068,2.63673c0.86701,-1.39379 1.29865,-2.8481 -0.23557,-2.87169l-0.63297,0.22119c0,0 -0.71151,0.23717 -0.94868,-0.47434z" fill="#a57600" stroke="none" stroke-width="0.5" stroke-linecap="butt"/><path d="M393.85365,148.00208c-0.33541,0.67082 -1.00623,0.33541 -1.00623,0.33541l-0.5,-0.25c-2.27425,-1.19808 -3.73177,-2.17082 -6.41459,-2.17082c0,0 -0.75,0 -0.75,-0.75c0,-0.75 0.75,-0.75 0.75,-0.75c2.95494,0 4.60985,1.13914 7.08542,2.32918l0.5,0.25c0,0 0.67082,0.33541 0.33541,1.00623z" fill="#a57600" stroke="none" stroke-width="0.5" stroke-linecap="butt"/><path d="M365.43282,166.66667c-0.75,0 -0.75,-0.75 -0.75,-0.75l0.12597,-0.08397c-2.06092,-3.13624 -0.87597,-9.25342 -0.87597,-12.91603c0,0 0,-0.75 0.75,-0.75c0.75,0 0.75,0.75 0.75,0.75c0,3.20231 -1.20855,9.38378 0.62404,12.08398l0.12596,0.91602c0,0 0,0.75 -0.75,0.75z" fill="#a57600" stroke="none" stroke-width="0.5" stroke-linecap="butt"/><path d="M369.43282,165.66667c-0.75,0 -0.75,-0.75 -0.75,-0.75v-0.5c0,-3.05244 0.5,-5.94039 0.5,-9c0,0 0,-0.75 0.75,-0.75c0.75,0 0.75,0.75 0.75,0.75c0,3.06028 -0.5,5.95197 -0.5,9v0.5c0,0 0,0.75 -0.75,0.75z" fill="#a57600" stroke="none" stroke-width="0.5" stroke-linecap="butt"/><path d="M381.00989,161.56125c0.14709,-0.73543 0.88252,-0.58835 0.88252,-0.58835l0.35462,0.12064c1.55868,-0.21561 0.10565,-0.99583 -0.54753,-2.29979c0,0 -0.33541,-0.67082 0.33541,-1.00623c0.67082,-0.33541 1.00623,0.33541 1.00623,0.33541c0.9663,1.93638 2.70397,3.8473 -0.54752,4.45021l-0.89539,-0.12936c0,0 -0.73543,-0.14709 -0.58835,-0.88252z" fill="#000000" stroke="none" stroke-width="0.5" stroke-linecap="butt"/><path d="M381.76943,171.32462c-0.03566,0.0346 -0.0604,0.05315 -0.0604,0.05315c-1.01321,0.67489 -0.71517,2.96381 0.5261,2.40721c0.87029,-0.39025 0.04009,-1.94086 -0.4657,-2.46036zM382.94959,175.1039c-1.09474,0.64523 -3.03485,-0.6509 -3.39828,-1.57787c-0.42056,-1.0727 0.0314,-2.08887 0.71753,-2.84232c-2.81962,-0.50759 -5.4887,-1.78078 -8.24698,-2.69443c0,0 -0.71151,-0.23717 -0.47434,-0.94868c0.23717,-0.71151 0.94868,-0.47434 0.94868,-0.47434c3.96443,1.32899 7.7389,3.50404 12.121,2.64171c1.54823,-0.30467 2.62983,-1.74954 3.97309,-2.43435l0.66874,-0.07918c0,0 0.75,0 0.75,0.75c0,0.75 -0.75,0.75 -0.75,0.75l0.00208,-0.07918c-1.52849,0.74579 -2.5803,2.20571 -4.36025,2.56565c-0.5391,0.10901 -1.06952,0.17541 -1.59258,0.20543c0.81641,1.2945 1.16435,3.31989 -0.35869,4.21756z" fill="#ffd66f" stroke="none" stroke-width="0.5" stroke-linecap="butt"/><path d="M382.25032,173.83262c-1.24127,0.55661 -1.56051,-1.82959 -0.5473,-2.50448c0,0 0.02733,-0.0188 0.06299,-0.0534c0.50579,0.5195 1.3546,2.16763 0.48431,2.55788z" data-paper-data="{&quot;noHover&quot;:false,&quot;origItem&quot;:[&quot;Path&quot;,{&quot;applyMatrix&quot;:true,&quot;segments&quot;:[[[381.76943,171.32462],[0.50579,0.5195],[-0.03566,0.0346]],[[381.70903,171.37778],[0,0],[-1.01321,0.67489]],[[382.23513,173.78498],[-1.24127,0.55661],[0.87029,-0.39025]]],&quot;closed&quot;:true}]}" fill="#ff0000" stroke="none" stroke-width="0.5" stroke-linecap="butt"/><path d="M375.00169,146.53334l-4.10526,-7.8c0,0 5.1332,3.98485 6.20126,3.83001c1.80102,-0.2611 3.60793,-5.25207 3.60793,-5.25207c0,0 1.90724,4.5586 3.72532,4.86864c2.09502,0.35726 8.13215,-2.84658 8.13215,-2.84658l-3.19298,7.2z" fill="#ffd66f" stroke="#000000" stroke-width="0" stroke-linecap="butt"/><path d="M386.4214,164.70832c0.28735,0.95783 -0.67048,1.24517 -0.67048,1.24517l-1.05502,0.30485c-2.37721,0.3351 -4.20972,-0.11079 -6.45765,-0.85945c0,0 -0.94868,-0.31623 -0.63246,-1.26491c0.31623,-0.94868 1.26491,-0.63246 1.26491,-0.63246c1.95814,0.65331 3.47921,1.07601 5.54235,0.77692l0.76316,-0.2406c0,0 0.95783,-0.28735 1.24517,0.67048z" fill="#000000" stroke="none" stroke-width="0.5" stroke-linecap="butt"/><text transform="translate(363.70833,235.28339) scale(0.335,0.335)" font-size="40" xml:space="preserve" fill="#000000" fill-rule="nonzero" stroke="none" stroke-width="1" stroke-linecap="butt" stroke-linejoin="miter" stroke-miterlimit="10" stroke-dasharray="" stroke-dashoffset="0" font-family="Serif" font-weight="normal" text-anchor="start" style="mix-blend-mode: normal"><tspan x="0" dy="0">15</tspan></text><g fill="#373737" stroke-width="0" stroke-linecap="butt"><path d="M348.2784,228.29245l3.3332,-3.3332l4.01499,4.01499l-3.3332,3.3332z" stroke="#000000"/><path d="M357.82347,234.65583c-1.46433,1.46433 -4.02502,1.27779 -5.71946,-0.41665c-1.69444,-1.69444 -1.88098,-4.25513 -0.41665,-5.71946c1.46433,-1.46433 4.02502,-1.27779 5.71946,0.41665c1.69444,1.69444 1.88098,4.25513 0.41665,5.71946z" stroke="#000000"/><path d="M362.16988,236.88112c-0.46022,0.46022 -2.39346,-0.72686 -4.31801,-2.65141c-1.92455,-1.92455 -3.11163,-3.85779 -2.65141,-4.31801c0.46022,-0.46022 2.39346,0.72686 4.31801,2.65141c1.92455,1.92455 3.11163,3.85779 2.65141,4.31801z" stroke="none"/></g><path d="M386.1169,227.07553c0,-1.4122 1.14482,-2.55702 2.55702,-2.55702c1.4122,0 2.55702,1.14482 2.55702,2.55702c0,0.9921 -0.56501,1.85224 -1.39081,2.27619c-0.08015,0.04115 1.59215,1.12894 2.19641,2.44866c0.77748,1.69804 0.54584,3.7168 0.54584,3.7168l-8.34705,0.00133c0,0 -0.12735,-2.17611 0.5241,-3.63702c0.76603,-1.71783 2.60297,-2.39312 2.35124,-2.65768c-0.43642,-0.45867 -0.99376,-1.46518 -0.99376,-2.14828z" fill="#ff00c8" stroke="none" stroke-width="0" stroke-linecap="butt"/><path d="M389.22801,229.7422c0,-1.4122 1.14482,-2.55702 2.55702,-2.55702c1.4122,0 2.55701,1.14482 2.55701,2.55702c0,0.99211 -0.56501,1.85225 -1.39081,2.2762c-0.08015,0.04115 1.59215,1.12894 2.19641,2.44866c0.77748,1.69805 0.54584,3.7168 0.54584,3.7168l-8.34705,0.00133c0,0 -0.12735,-2.17611 0.52411,-3.63702c0.76603,-1.71783 2.60297,-2.39312 2.35124,-2.65768c-0.43642,-0.45867 -0.99376,-1.46517 -0.99376,-2.14828z" fill="#9c005c" stroke="none" stroke-width="0" stroke-linecap="butt"/><path d="M369.53919,189.16319c0.97014,-0.24254 1.21268,0.72761 1.21268,0.72761l0.02986,0.44254c0.34739,0.48617 0.84049,0.87142 1.35799,1.17015c1.90597,1.64282 4.3622,-1.11086 6.24201,-0.97015c1.64173,0.12289 1.61234,1.90985 3.02975,2.22675c2.14126,0.47874 7.18692,-1.31573 8.07582,-3.27396c0,0 0.44721,-0.89443 1.34164,-0.44721c0.89443,0.44721 0.44721,1.34164 0.44721,1.34164c-1.41274,2.65986 -7.23954,5.14191 -10.32418,4.32604c-0.57552,-0.15222 -1.12319,-0.43772 -1.59892,-0.79558c-0.44903,-0.33777 -0.44859,-1.58374 -0.97132,-1.37767c-2.24705,0.88585 -4.96428,2.28155 -7.35799,0.62985c-0.69736,-0.43109 -1.3399,-0.98174 -1.84201,-1.62985l-0.37014,-1.15746c0,0 -0.24254,-0.97014 0.72761,-1.21268z" fill="#384c32" stroke="none" stroke-width="0.5" stroke-linecap="butt"/><path d="M344.90695,205.73333v-28.46667h70.2v28.46667z" fill="url(#color-1)" stroke="#000000" stroke-width="0" stroke-linecap="butt"/><g fill="none" stroke="#000000" stroke-width="2"><path d="M345,241.7057v-106.16129h70v106.16129z" stroke-linecap="butt"/><path d="M413.66666,206.08273h-68.33333" stroke-linecap="round"/></g></g></g></svg>