<svg version="1.1" xmlns="http://www.w3.org/2000/svg" xmlns:xlink="http://www.w3.org/1999/xlink" width="72" height="108.16129" viewBox="0,0,72,108.16129"><defs><linearGradient x1="380.00695" y1="177.26667" x2="380.00695" y2="205.73333" gradientUnits="userSpaceOnUse" id="color-1"><stop offset="0" stop-color="#ffc300" stop-opacity="0"/><stop offset="1" stop-color="#ffc300"/></linearGradient></defs><g transform="translate(-344,-134.54441)"><g data-paper-data="{&quot;isPaintingLayer&quot;:true}" fill-rule="nonzero" stroke-linejoin="miter" stroke-miterlimit="10" stroke-dasharray="" stroke-dashoffset="0" style="mix-blend-mode: normal"><path d="M344.91667,242.04169v-106h70.25v106z" fill="#006eff" stroke="none" stroke-width="0" stroke-linecap="butt"/><path d="M345.47132,205.66666v-69.5h69.75v69.5z" fill="#000000" stroke="#000000" stroke-width="0" stroke-linecap="butt"/><path d="M415.22132,136.16666v69.5l-69.75,-69.5z" data-paper-data="{&quot;index&quot;:null}" fill="#ffaa00" stroke="#000000" stroke-width="0" stroke-linecap="butt"/><text transform="translate(346.33334,216.78367) scale(0.26141,0.26141)" font-size="40" xml:space="preserve" fill="#000000" fill-rule="nonzero" stroke="none" stroke-width="1" stroke-linecap="butt" stroke-linejoin="miter" stroke-miterlimit="10" stroke-dasharray="" stroke-dashoffset="0" font-family="Serif" font-weight="normal" text-anchor="start" style="mix-blend-mode: normal"><tspan x="0" dy="0">Peter Johnsmith</tspan></text><path d="M373.66672,162.95853c0.01301,-0.00063 0.02008,-0.00063 0.02008,-0.00063h1.18613c3.33893,0 8.72063,-1.22337 11.34193,1.0663c0.84181,1.31366 13.79032,7.2452 15.63109,11.74802c3.05731,7.47871 -0.06452,19.31095 4.39834,25.67165c0.17279,1.10942 0.96787,2.32166 0.51836,3.32825c-0.34152,0.76475 -1.4821,0.40469 -2.23649,0.51911c-1.64591,0.24964 -3.39008,-0.1682 -5.04105,-0.16666c-2.01208,0.00187 -4.11748,-0.21182 -6.1176,-0.00609c-1.84024,0.18929 -3.37239,1.28069 -5.16302,1.49672c-4.32375,0.52165 -8.98679,0.00937 -13.33155,0.00937c-4.69509,0 -9.39019,0.00101 -14.08528,0c-1.25676,-0.00027 -4.52385,0.31744 -5.50974,-0.05302c-1.8097,-0.68002 -1.56321,-1.8847 -1.53176,-3.42029c0.1017,-4.96498 0.88673,-10.80091 2.69126,-15.27763c2.79238,-3.71952 3.09015,-12.01062 5.62457,-15.88126c2.77741,-4.24174 6.91915,-5.08768 10.24545,-8.83501c0,0 0.65017,-0.73086 1.35929,-0.19882z" fill="#292929" stroke="none" stroke-width="0.5" stroke-linecap="butt"/><path d="M372.30791,167.09524c0,-0.37572 0.18822,-0.56322 0.37608,-0.65679c0.03348,-0.05273 0.07604,-0.10599 0.12931,-0.15926c0.53033,-0.53033 1.06066,0 1.06066,0c0.0118,0.01222 0.02352,0.0245 0.03517,0.03682c2.4668,-0.34403 4.99928,0.12605 7.46267,-0.24767c1.13947,-0.17287 2.35726,-0.99618 3.54456,-0.52316c1.96236,0.7818 0.67468,4.09034 0.12831,5.38802c-1.05162,3.15046 -2.42165,6.20512 -3.43317,9.3449c-0.57564,1.7868 0.26876,4.27728 -0.76433,5.91177c-2.2787,3.60521 -4.09214,-1.6515 -4.11069,-3.5232c0.0348,-1.83924 -1.33328,-3.10591 -1.82496,-4.78266c-0.78542,-2.67846 -0.01363,-7.66014 -1.66908,-10.04101l-0.18453,0.00225c0,0 -0.75,0 -0.75,-0.75z" fill="#ffffff" stroke="none" stroke-width="0.5" stroke-linecap="butt"/><path d="M379.39217,205.66389c-0.71151,-0.23717 -0.47434,-0.94868 -0.47434,-0.94868l0.11191,-0.29747c0.26529,-1.75256 -0.96653,-2.53681 -0.86323,-4.22625c0.22574,-3.69183 0.41709,-7.39374 0.42674,-11.22274c-0.89682,-0.16163 -1.70861,-1.25789 -2.20105,-1.81068c-1.68787,-1.89471 -3.41068,-3.89 -5.17461,-5.69195c-0.74403,-0.76007 -3.49595,-1.81248 -3.71417,-2.92427c-0.15796,-0.80478 0.8898,-1.78899 1.3634,-2.3239c0.26226,-0.36279 0.97605,-0.69603 0.77899,-1.09325c-0.26724,-0.53869 -1.06899,-0.64612 -1.56174,-1.02088c-1.53694,-1.16891 -4.29675,-4.4945 -2.94965,-6.50533c0.44498,-0.66423 1.47122,-0.75902 2.2463,-1.05784c1.42038,-0.54759 2.77739,-1.68056 3.85409,-2.69003l0.15283,-0.14286c0,0 0.56735,-0.53033 1.1347,0c0.21068,0.19693 0.26489,0.39387 0.24979,0.56365c0.21997,0.11581 0.33799,0.30886 0.33799,0.30886c1.59185,2.62207 1.19786,5.35489 2.05675,8.15076c1.11572,3.63193 3.54395,5.94383 3.5508,9.93563c0,1.68842 0.25137,2.6655 0.83341,4.23816c0.16678,0.45065 0.76594,0.97483 0.46814,1.36199c-0.00644,0.00837 -0.01288,0.01665 -0.01932,0.02486c0.09375,0.1875 0.09375,0.37499 0.09375,0.37499c0,3.06241 0.67387,6.75002 0.12279,9.74374c-0.14652,0.79597 -0.83859,1.56817 -0.57858,2.48463c0.42042,1.48182 1.11564,1.97844 0.87682,3.73484l-0.17381,0.55968c0,0 -0.23717,0.71151 -0.94868,0.47434z" fill="#1f1f1f" stroke="none" stroke-width="0.5" stroke-linecap="butt"/><path d="M377.91506,171.95238l1.71429,-4.71429l3.57143,3.57143l-2.71429,4.85714z" fill="#000000" stroke="#000000" stroke-width="0" stroke-linecap="butt"/><path d="M379.7722,188.09524l-2.28571,-6.85714l3.14286,-7l2.57143,6.28571z" fill="#000000" stroke="#000000" stroke-width="0" stroke-linecap="butt"/><path d="M388.05943,164.27919l0.15283,0.14286c1.0767,1.00947 2.43371,2.14243 3.85408,2.69002c0.77509,0.29881 1.80132,0.39361 2.24631,1.05784c1.3471,2.01083 -1.41272,5.33641 -2.94965,6.50532c-0.49275,0.37475 -1.2945,0.48219 -1.56174,1.02088c-0.19706,0.39722 0.51673,0.73046 0.77899,1.09325c0.4736,0.53491 1.52136,1.51912 1.3634,2.3239c-0.21822,1.11178 -2.97014,2.1642 -3.71417,2.92427c-1.76393,1.80195 -3.48674,3.79725 -5.17461,5.69196c-0.74689,0.83841 -2.22839,2.92702 -3.627,1.10874c-0.29781,-0.38717 0.30135,-0.91134 0.46813,-1.36199c0.58203,-1.57265 0.83341,-2.54974 0.83341,-4.23816c0.00685,-3.99179 2.43508,-6.3037 3.5508,-9.93563c0.85889,-2.79587 0.4649,-5.52869 2.05675,-8.15076c0,0 0.11802,-0.19305 0.33798,-0.30886c-0.0151,-0.16978 0.03911,-0.36671 0.24979,-0.56365c0.56735,-0.53033 1.1347,0 1.1347,0z" data-paper-data="{&quot;index&quot;:null}" fill="#1f1f1f" stroke="none" stroke-width="0.5" stroke-linecap="butt"/><path d="M414.16667,220.66671h-69" fill="none" stroke="#000000" stroke-width="2" stroke-linecap="round"/><g stroke-linecap="butt"><path d="M379.14839,179.2c0,-2.15391 1.74609,-3.9 3.9,-3.9c2.15391,0 3.9,1.74609 3.9,3.9c0,2.15391 -1.74609,3.9 -3.9,3.9c-2.15391,0 -3.9,-1.74609 -3.9,-3.9z" fill="#ffd2aa" stroke="#000000" stroke-width="0"/><path d="M407.9617,206.16118c-0.21633,0.28882 -0.61331,0.28882 -0.61331,0.28882h-0.2c-1.73644,0 -3.88398,0.0212 -5.41287,-0.92387c-1.64721,-1.01821 -2.37473,-2.85956 -3.23643,-4.45074c-0.85654,-1.58167 -2.39561,-2.88277 -3.50955,-4.2752c-4.02895,-4.02895 -8.79755,-6.93002 -13.30271,-10.30904c-1.93231,-1.44929 -2.64498,-2.97374 -0.77887,-4.7726c2.39935,-2.04265 5.90715,-5.06879 9.36995,-3.4923c1.52708,0.69523 1.22219,2.36478 2.20082,3.34341c2.39395,2.39395 6.71804,2.22975 8.4781,5.6918c1.43635,1.47853 1.82303,3.5059 2.84331,5.26741c2.25337,3.89042 5.28105,8.4043 5.29826,12.97112c0,0 0,0.75 -0.75,0.75c-0.16098,0 -0.2874,-0.03455 -0.38669,-0.08882z" fill="#1c1c1c" stroke="none" stroke-width="0.5"/></g><path d="M379.86404,241.16671v-20" fill="none" stroke="#000000" stroke-width="2" stroke-linecap="round"/><text transform="translate(363.70833,235.28339) scale(0.335,0.335)" font-size="40" xml:space="preserve" fill="#000000" fill-rule="nonzero" stroke="none" stroke-width="1" stroke-linecap="butt" stroke-linejoin="miter" stroke-miterlimit="10" stroke-dasharray="" stroke-dashoffset="0" font-family="Serif" font-weight="normal" text-anchor="start" style="mix-blend-mode: normal"><tspan x="0" dy="0">5</tspan></text><text transform="translate(398.95834,235.53339) scale(0.335,0.335)" font-size="40" xml:space="preserve" fill="#000000" fill-rule="nonzero" stroke="none" stroke-width="1" stroke-linecap="butt" stroke-linejoin="miter" stroke-miterlimit="10" stroke-dasharray="" stroke-dashoffset="0" font-family="Serif" font-weight="normal" text-anchor="start" style="mix-blend-mode: normal"><tspan x="0" dy="0">45</tspan></text><g fill="#ffcf00" stroke-linecap="butt"><text transform="translate(384.62619,236.57732) scale(0.42958,0.42958)" font-size="40" xml:space="preserve" fill="#ffcf00" fill-rule="nonzero" stroke="none" stroke-width="1" stroke-linecap="butt" stroke-linejoin="miter" stroke-miterlimit="10" stroke-dasharray="" stroke-dashoffset="0" font-family="Serif" font-weight="normal" text-anchor="start" style="mix-blend-mode: normal"><tspan x="0" dy="0">S</tspan></text><path d="M388.11054,237.72286v-13.69875h0.66823v13.69875z" stroke="#000000" stroke-width="0"/><path d="M389.35154,237.72287v-13.69875h0.66823v13.69875z" stroke="#000000" stroke-width="0"/></g><path d="M370.45436,159.26538c0,-5.22901 4.23894,-9.46794 9.46794,-9.46794c5.229,0 9.46795,4.23894 9.46795,9.46794c0,5.22901 -4.23895,9.46795 -9.46795,9.46795c-5.229,0 -9.46794,-4.23894 -9.46794,-9.46795z" fill="#ffd2aa" stroke="#000000" stroke-width="0" stroke-linecap="butt"/><path d="M375.91506,160.37456c0,-0.69036 0.55964,-1.25 1.25,-1.25c0.69036,0 1.25,0.55964 1.25,1.25c0,0.69036 -0.55964,1.25 -1.25,1.25c-0.69036,0 -1.25,-0.55964 -1.25,-1.25z" fill="#000000" stroke="none" stroke-width="0.5" stroke-linecap="butt"/><path d="M383.91506,160.54123c0,-0.69036 0.55964,-1.25 1.25,-1.25c0.69036,0 1.25,0.55964 1.25,1.25c0,0.69036 -0.55964,1.25 -1.25,1.25c-0.69036,0 -1.25,-0.55964 -1.25,-1.25z" fill="#000000" stroke="none" stroke-width="0.5" stroke-linecap="butt"/><path d="M387.41506,164.54123c0,1.25 -1.25,1.25 -1.25,1.25l-0.63804,-0.00764c-1.65107,-0.18739 -3.18401,-0.65454 -4.83333,-0.83333c0,0 -0.42444,-0.04716 -0.74957,-0.33443c-1.30338,-0.0265 -2.39263,-0.07573 -3.67349,0.42915l-1.23341,0.22925c0,0 -1.23299,0.20549 -1.43849,-1.0275c-0.2055,-1.23299 1.02749,-1.43849 1.02749,-1.43849l0.76659,-0.10408c1.84794,-0.66743 3.30964,-0.57959 5.27224,-0.57959c0,0 0.61685,0 0.9839,0.43332c1.39832,0.2188 2.73302,0.58693 4.15414,0.74098l0.36196,-0.00764c0,0 1.25,0 1.25,1.25z" fill="#6d6d6d" stroke="none" stroke-width="0.5" stroke-linecap="butt"/><path d="M379.63289,157.73866c-0.53033,0.53033 -1.06066,0 -1.06066,0l-0.51549,-0.56992c-0.0841,-0.78802 -1.80079,0.92581 -2.36066,1.37524c0,0 -0.58565,0.46852 -1.05417,-0.11713c-0.46852,-0.58565 0.11713,-1.05417 0.11713,-1.05417c1.54967,-1.23594 3.23569,-3.02937 4.63934,-0.87476l0.23451,0.18008c0,0 0.53033,0.53033 0,1.06066z" fill="#6d6d6d" stroke="none" stroke-width="0.5" stroke-linecap="butt"/><path d="M387.39358,158.58237c-0.62404,0.41603 -1.04006,-0.20801 -1.04006,-0.20801l-0.5,-0.75c-0.43876,-0.96352 -2.00903,0.04465 -2.83052,0.39833c0,0 -0.68936,0.29544 -0.9848,-0.39392c-0.29544,-0.68936 0.39392,-0.9848 0.39392,-0.9848c1.77438,-0.75729 3.33018,-1.5824 4.66948,0.14833l0.5,0.75c0,0 0.41603,0.62404 -0.20801,1.04006z" fill="#6d6d6d" stroke="none" stroke-width="0.5" stroke-linecap="butt"/><path d="M378.82223,163.803c0.53033,-0.53033 1.06066,0 1.06066,0l-0.06992,-0.01549c2.54582,1.329 2.71389,5.92082 5.41459,5.92082c0,0 0.00887,0 0.02469,0.00097c0.04381,-0.07672 0.09469,-0.1553 0.15304,-0.23575c0.6464,-0.89115 4.60315,-0.10244 5.16342,0.52322c0.97975,1.09411 -0.3884,3.50936 -0.91973,4.35029c-1.23835,0.8572 -1.51752,0.86127 -2.92142,0.86127c-0.97619,0 -1.9563,0.14393 -2.85841,-0.34118c-3.66834,-1.97264 -1.48639,-7.64676 -4.80761,-9.78478c0,0 -0.08989,-0.05993 -0.17869,-0.16841l-0.06061,-0.0503c0,0 -0.53033,-0.53033 0,-1.06066z" fill="#2d1300" stroke="none" stroke-width="0.5" stroke-linecap="butt"/><path d="M375.19347,155.30639c-2.1163,1.33416 -3.90794,3.68163 -6.15445,3.65816l-0.05976,0.35857l-0.73784,-0.12297c-0.36151,-0.0537 -0.63886,-0.36537 -0.63886,-0.74182c0,-0.24849 0.12085,-0.46876 0.30698,-0.60524l0.96167,-0.72125c0.80347,-0.79268 1.25278,-1.62015 2.07602,-2.45384c0,0 0.42258,-0.42258 0.89053,-0.13609c0.38696,-0.26019 0.79819,-0.48645 1.21749,-0.68852c0.63588,-0.01383 1.26973,-0.03841 1.9021,-0.0702c2.99866,-1.30919 6.47727,-1.34535 9.7516,-0.58181c0.71255,-0.01344 1.42682,-0.01282 2.14361,0.00695c0.71171,0.01962 1.7508,0.60081 2.32699,1.33708c0.32797,0.27536 0.62967,0.63235 0.90989,1.10219l0.47003,0.58754c0.10508,0.12907 0.16808,0.29377 0.16808,0.47319c0,0.41421 -0.33579,0.75 -0.75,0.75c-0.1576,0 -0.30384,-0.04861 -0.42456,-0.13165l-0.74147,-0.49431l0.01798,-0.02698c-0.04476,-0.02058 -0.08889,-0.04275 -0.13229,-0.06673c-0.39687,-0.21927 -0.59027,-0.78274 -0.81743,-1.28452c-0.65462,-0.37011 -1.45407,-0.38727 -2.42722,-0.51096c-0.36367,-0.10309 -0.73843,-0.20113 -1.12145,-0.29141c-0.34857,0.03195 -0.65089,0.05655 -0.85357,0.05655c-2.77852,0 -5.49662,0.49181 -8.28409,0.59806z" fill="#6d6d6d" stroke="none" stroke-width="0.5" stroke-linecap="butt"/><g fill="#292929" stroke-width="0" stroke-linecap="butt"><path d="M369.31545,156.86493c0,0 -2.5543,-0.82993 -2.76135,-1.53165c-0.1974,-0.669 1.54661,-2.58522 1.54661,-2.58522c0,0 6.818,-1.91686 10.26155,-2.13966c3.76746,-0.24376 11.45895,0.73434 11.45895,0.73434c0,0 1.3495,1.46435 1.27864,2.15385c-0.06546,0.63695 -1.6889,1.83801 -1.6889,1.83801c0,0 -7.01917,-1.52159 -10.66943,-1.28542c-3.58887,0.2322 -9.42607,2.81575 -9.42607,2.81575z" stroke="#000000"/><path d="M371.14745,152.9118l-1.53561,-12.14825c0,0 5.27398,-3.19197 7.86221,-3.35943c2.78747,-0.18035 8.30926,1.68813 8.30926,1.68813l1.53561,12.77325z" stroke="none"/></g><path d="M387.18284,150.51664c-0.27854,0.69636 -0.9749,0.41781 -0.9749,0.41781l-0.71429,-0.28571c-3.89022,-1.55609 -9.5164,0.43919 -13.36309,1.59344c0,0 -0.71837,0.21551 -0.93388,-0.50286c-0.21551,-0.71837 0.50286,-0.93388 0.50286,-0.93388c4.19668,-1.25874 10.10167,-3.24923 14.3512,-1.54942l0.71429,0.28571c0,0 0.69636,0.27854 0.41781,0.9749z" fill="#ffffff" stroke="none" stroke-width="0.5" stroke-linecap="butt"/><path d="M375.73648,190.52381c0,-0.41421 0.33579,-0.75 0.75,-0.75c0.41421,0 0.75,0.33579 0.75,0.75c0,0.41421 -0.33579,0.75 -0.75,0.75c-0.41421,0 -0.75,-0.33579 -0.75,-0.75z" fill="#000000" stroke="none" stroke-width="0.5" stroke-linecap="butt"/><path d="M374.87934,197.09524c0,-0.41421 0.33579,-0.75 0.75,-0.75c0.41421,0 0.75,0.33579 0.75,0.75c0,0.41421 -0.33579,0.75 -0.75,0.75c-0.41421,0 -0.75,-0.33579 -0.75,-0.75z" fill="#000000" stroke="none" stroke-width="0.5" stroke-linecap="butt"/><path d="M361.30139,205.80811c-0.53033,-0.53033 0,-1.06066 0,-1.06066l0.097,-0.08634c0.67072,-0.87807 0.85527,-1.61926 0.85,-2.71667c0,-0.98475 -0.38454,-3.01205 -0.13089,-3.89555c0.41928,-1.46043 1.61766,-3.01788 1.9955,-4.65785c0.83145,-3.60886 1.31632,-7.24672 2.68903,-10.72514c0,0 0.27854,-0.69636 0.9749,-0.41781c0.69636,0.27854 0.41781,0.9749 0.41781,0.9749c-1.38812,3.41734 -1.81925,7.02866 -2.64227,10.58984c-0.38107,1.64886 -1.54596,3.26626 -2.00654,4.69383c-0.20897,0.64772 0.20245,2.65306 0.20245,3.43778c-0.00574,1.42662 -0.29732,2.46315 -1.15,3.61667l-0.23634,0.247c0,0 -0.53033,0.53033 -1.06066,0z" fill="#1c1c1c" stroke="none" stroke-width="0.5" stroke-linecap="butt"/><path d="M375.45077,203.38095c0,-0.41421 0.33579,-0.75 0.75,-0.75c0.41421,0 0.75,0.33579 0.75,0.75c0,0.41421 -0.33579,0.75 -0.75,0.75c-0.41421,0 -0.75,-0.33579 -0.75,-0.75z" fill="#000000" stroke="none" stroke-width="0.5" stroke-linecap="butt"/><path d="M344.90695,205.73333v-28.46667h70.2v28.46667z" fill="url(#color-1)" stroke="#000000" stroke-width="0" stroke-linecap="butt"/><g fill="none" stroke="#000000" stroke-width="2"><path d="M345,241.7057v-106.16129h70v106.16129z" stroke-linecap="butt"/><path d="M413.66666,206.08273h-68.33333" stroke-linecap="round"/></g><g stroke="none" stroke-width="0" stroke-linecap="butt"><path d="M351.3669,227.07553c0,-1.4122 1.14482,-2.55702 2.55702,-2.55702c1.4122,0 2.55702,1.14482 2.55702,2.55702c0,0.9921 -0.56501,1.85224 -1.39081,2.27619c-0.08015,0.04115 1.59215,1.12894 2.19641,2.44866c0.77748,1.69804 0.54584,3.7168 0.54584,3.7168l-8.34705,0.00133c0,0 -0.12735,-2.17611 0.5241,-3.63702c0.76603,-1.71783 2.60297,-2.39312 2.35124,-2.65768c-0.43642,-0.45867 -0.99376,-1.46518 -0.99376,-2.14828z" fill="#ff00c8"/><path d="M354.47801,229.7422c0,-1.4122 1.14482,-2.55702 2.55702,-2.55702c1.4122,0 2.55701,1.14482 2.55701,2.55702c0,0.99211 -0.56501,1.85225 -1.39081,2.2762c-0.08015,0.04115 1.59215,1.12894 2.19641,2.44866c0.77748,1.69805 0.54584,3.7168 0.54584,3.7168l-8.34705,0.00133c0,0 -0.12735,-2.17611 0.52411,-3.63702c0.76603,-1.71783 2.60297,-2.39312 2.35124,-2.65768c-0.43642,-0.45867 -0.99376,-1.46517 -0.99376,-2.14828z" fill="#9c005c"/></g></g></g></svg>