<svg version="1.1" xmlns="http://www.w3.org/2000/svg" xmlns:xlink="http://www.w3.org/1999/xlink" width="72" height="108.16129" viewBox="0,0,72,108.16129"><defs><linearGradient x1="380.00695" y1="177.26666" x2="380.00695" y2="205.73333" gradientUnits="userSpaceOnUse" id="color-1"><stop offset="0" stop-color="#2cff00" stop-opacity="0"/><stop offset="1" stop-color="#2cff00"/></linearGradient></defs><g transform="translate(-344,-134.54441)"><g data-paper-data="{&quot;isPaintingLayer&quot;:true}" fill-rule="nonzero" stroke-linejoin="miter" stroke-miterlimit="10" stroke-dasharray="" stroke-dashoffset="0" style="mix-blend-mode: normal"><path d="M344.91667,242.04169v-106h70.25v106z" fill="#006eff" stroke="none" stroke-width="0" stroke-linecap="butt"/><path d="M345.30437,205.66666v-69.5h69.5v69.5z" fill="#780000" stroke="#000000" stroke-width="0" stroke-linecap="butt"/><path d="M370.55933,176.96269c-0.08546,-0.32221 0.01646,-0.62797 0.01646,-0.62797l0.66814,-1.0782c4.07265,-1.99587 12.89594,-1.42958 16.16613,2.03266c2.67207,2.82899 7.01235,6.87046 8.36438,10.46205c2.25974,4.50494 3.79664,9.38545 7.01825,13.25953c0.87396,1.05096 3.40982,3.62165 1.54482,5.06987c-0.35622,0.27661 -2.71396,0.23698 -3.47971,0.23698c-2.55556,0 -5.11111,0 -7.66667,0c-10.0634,0 -20.22411,0.33334 -30.33333,0.33334c-3.65659,0 -9.43515,1.10965 -12.80925,-0.21568c-2.71573,-1.06673 -2.18342,-4.81443 -0.40917,-6.6466c1.79467,-1.85325 8.11407,-10.8788 10.03099,-13.29012c1.79876,-2.26268 9.4774,-7.97497 10.88895,-9.53586z" fill="#c65ddc" stroke="none" stroke-width="0.5" stroke-linecap="butt"/><path d="M359.01686,142.55348c0.33541,0.67082 -0.33541,1.00623 -0.33541,1.00623l-1.00208,0.41251c-1.12552,-0.00035 -2.19534,0.18509 -3.2518,0.41776c0.43511,0.78639 2.24514,1.41324 2.87214,2.13933l0.71299,-0.05709c0,0 0.75,0 0.75,0.75c0,0.75 -0.75,0.75 -0.75,0.75l-1.28701,-0.05709c-1.17554,-1.07165 -2.80134,-2.00523 -3.56417,-3.23167c-0.02998,0.00707 -0.05997,0.01414 -0.08996,0.02119c-1.04812,2.13578 -2.58847,4.10784 -4.1952,5.71457c0,0 -0.53033,0.53033 -1.06066,0c-0.53033,-0.53033 0,-1.06066 0,-1.06066c1.20168,-1.20168 2.43435,-2.66861 3.37763,-4.25654c-0.70977,0.12233 -1.43256,0.20353 -2.18064,0.20353c0,0 -0.75,0 -0.75,-0.75c0,-0.75 0.75,-0.75 0.75,-0.75c1.04767,0 2.04811,-0.16096 3.03477,-0.37103c0.22776,-0.53234 0.41418,-1.0721 0.54857,-1.61447v-1.2645c0,-0.41421 0.33579,-0.75 0.75,-0.75c0.36866,0 0.6752,0.266 0.73816,0.61654l0.29145,1.45725l-0.32164,0.06433l0.03642,0.03686c-0.02803,0.11053 -0.05769,0.22086 -0.08893,0.33097c0.01999,0.21659 0.03728,0.43212 0.06545,0.65804c1.17228,-0.26802 2.35754,-0.49693 3.61243,-0.49731l0.33126,-0.25415c0,0 0.67082,-0.33541 1.00623,0.33541z" fill="#000000" stroke="none" stroke-width="0.5" stroke-linecap="butt"/><path d="M394.05475,203.69801c0.29366,0.06222 0.78698,0.27126 0.78698,0.97364c0,1 -1,1 -1,1l-0.72409,-0.18626c-3.28339,-2.52799 -5.53824,-9.1547 -6.39589,-13.17248c-0.58956,-2.76192 -0.36812,-5.67938 -1.75791,-8.1624c0,0 -0.47885,-0.8779 0.39905,-1.35675c0.8779,-0.47885 1.35674,0.39905 1.35674,0.39905c1.46686,2.7469 1.31297,5.68109 1.95637,8.69475c0.6553,3.06934 1.91909,5.87333 3.45921,8.56789c0.62198,1.08821 0.98406,2.49424 1.91954,3.24257z" fill="#6d3379" stroke="none" stroke-width="0.5" stroke-linecap="butt"/><path d="M362.34396,149.89304c-0.67082,-0.33541 -0.33541,-1.00623 -0.33541,-1.00623l0.29264,-0.56843c0.09138,-0.26733 1.55381,-3.06737 1.24729,-3.17377c-0.93132,-0.32328 -2.1904,-0.10173 -2.83287,-0.84945c-1.02106,-1.18833 0.91092,-3.81526 0.88043,-5.07294c0,0 0,-0.75 0.75,-0.75c0.75,0 0.75,0.75 0.75,0.75c-0.00949,0.55453 -1.32941,4.09972 -1.11957,4.26039c0.91722,0.70229 1.4906,-0.37691 2.50046,0.48388c1.66656,1.42054 -0.29423,3.40608 -0.75271,4.82623l-0.37403,0.76491c0,0 -0.33541,0.67082 -1.00623,0.33541z" fill="#000000" stroke="none" stroke-width="0.5" stroke-linecap="butt"/><path d="M373.67937,143.80555c0.75,0 0.75,0.75 0.75,0.75l-0.21967,1.197c-1.7849,1.74661 -3.96115,2.15632 -6.197,1.73808v0.14825h-1v0c-0.41421,0 -0.75,-0.33579 -0.75,-0.75c0,-0.33738 0.22277,-0.62273 0.52924,-0.71698l0.79607,-0.26536c0.89787,-1.56985 1.28875,-3.40575 -1.24197,-3.26766c0,0 -0.75,0 -0.75,-0.75c0,-0.75 0.75,-0.75 0.75,-0.75c3.41879,0.12046 3.98253,2.46886 2.8113,4.86811c1.29231,-0.28802 3.10801,-0.40565 3.99171,-1.3151l-0.21967,-0.13634c0,0 0,-0.75 0.75,-0.75z" fill="#000000" stroke="none" stroke-width="0.5" stroke-linecap="butt"/><path d="M374.52424,195.21884c0.5145,-0.85749 1.37199,-0.343 1.37199,-0.343l0.96671,0.58089c1.3191,0.66521 2.44079,1.74148 3.9079,2.09465c3.46353,0.83375 5.81773,-4.17341 5.81089,-6.81804c0,0 0,-1 1,-1c1,0 1,1 1,1c-0.00926,4.03088 -3.38344,9.63307 -8.18911,8.78196c-1.70714,-0.30234 -2.99775,-1.56524 -4.4921,-2.30535l-1.03329,-0.61911c0,0 -0.85749,-0.5145 -0.343,-1.37199z" fill="#5f5d60" stroke="none" stroke-width="0.5" stroke-linecap="butt"/><path d="M380.32525,144.84097c0.38123,0.64588 -0.26465,1.02711 -0.26465,1.02711l-0.04102,0.02383c0.04896,0.09965 0.07646,0.21176 0.07646,0.33029c0,0.30387 -0.18071,0.56553 -0.44053,0.68338l-0.68131,0.3269l-0.03038,-0.06331l-0.11835,0.11625c-0.51202,0.01757 -1.0611,-0.00456 -1.56478,-0.13848l0.03664,0.18319l-0.45953,0.09191c-0.02544,0.0207 -0.05127,0.04144 -0.07751,0.06223l-0.10138,-0.02646l-0.09359,0.01872l0.00707,0.05655l-0.78826,0.09853c-0.03423,0.00478 -0.06921,0.00726 -0.10476,0.00726c-0.41421,0 -0.75,-0.33579 -0.75,-0.75c0,-0.36866 0.266,-0.6752 0.61654,-0.73816l0.75004,-0.15001c0.05597,-0.18133 0.17886,-0.33329 0.33983,-0.42704c0.44825,-1.43529 -4.00396,-3.52591 -5.10321,-4.44195c0,0 -0.57617,-0.48014 -0.09603,-1.0563c0.48014,-0.57617 1.0563,-0.09603 1.0563,-0.09603c1.88448,1.5704 5.68665,3.15434 5.70838,5.24028l0.04121,-0.00824l1.0557,-0.63508c0,0 0.64588,-0.38123 1.02711,0.26465z" fill="#000000" stroke="none" stroke-width="0.5" stroke-linecap="butt"/><path d="M389.76271,145.88888c0,0.75 -0.75,0.75 -0.75,0.75h-0.33333c-4.01844,-0.06877 -2.28496,-2.41693 -1.68038,-4.76777c0.13749,-0.53462 -1.10095,0.09794 -1.65295,0.10111c-1.11103,0.00638 -2.22228,0 -3.33333,0c0,0 -0.75,0 -0.75,-0.75c0,-0.75 0.75,-0.75 0.75,-0.75c1.1516,0 5.89095,-0.64966 6.34705,0.76777c0.54263,1.68633 -2.70956,3.97232 0.31962,3.89889h0.33333c0,0 0.75,0 0.75,0.75z" fill="#000000" stroke="none" stroke-width="0.5" stroke-linecap="butt"/><path d="M403.56336,146.71302c0.5092,0.55065 -0.04145,1.05985 -0.04145,1.05985l-0.71555,0.52276c-0.83595,0.18329 -2.74473,0.47447 -4.61081,0.48994c-3.85048,5.14966 -6.4778,-3.03129 -7.83116,-5.51964c-0.39466,-0.72563 -1.0657,-1.26235 -1.5945,-1.89691c0,0 -0.48014,-0.57617 0.09603,-1.0563c0.57617,-0.48014 1.0563,0.09603 1.0563,0.09603c0.58232,0.69878 1.30017,1.30624 1.73883,2.10309c0.30355,0.55142 1.01017,2.64229 1.91537,4.2777c-0.00078,-0.14106 0.01599,-0.29132 0.05181,-0.45132c0.36114,-1.61322 2.08499,-1.58012 2.70529,-2.76745c0.86984,-1.66497 -1.07617,-3.10513 0.4822,-4.87888c0,0 0.53033,-0.53033 1.06066,0c0.53033,0.53033 0,1.06066 0,1.06066c-1.11104,0.8405 0.47234,3.11601 -0.18447,4.45445c-0.29181,0.59466 -1.59727,1.29667 -2.12133,1.84984c-0.27542,0.29072 -1.04985,0.90161 -0.66227,1.00236c0.73962,0.19227 1.63806,0.27934 2.58302,0.29088c0.07041,-0.06485 0.54545,-0.46783 1.02722,-0.01527c1.42882,-0.0574 2.87157,-0.25743 3.96241,-0.50346l0.02255,-0.15978c0,0 0.55065,-0.5092 1.05985,0.04145zM396.2968,148.68365c-0.68299,-0.09044 -1.2959,-0.24715 -1.76626,-0.49507c0.56024,0.61725 1.16049,0.89442 1.76626,0.49507z" fill="#000000" stroke="none" stroke-width="0.5" stroke-linecap="butt"/><path d="M410.04951,145.90325c0.6523,0.37014 0.28216,1.02244 0.28216,1.02244l-0.22228,0.39173c-0.45031,0.79048 -1.13644,2.18476 -1.91418,2.71429c-3.06936,2.08982 -4.20478,-0.41732 -1.87963,-2.53125c-0.05288,-0.15024 -0.05288,-0.27824 -0.05288,-0.27824l0.21967,-1.197c0.20057,-0.18639 0.96034,-0.75852 0.83985,-1.17687c-0.18155,-0.63032 -1.25738,-0.37495 -1.88002,-0.58129c-1.66762,-0.55265 -3.33334,-1.11111 -5,-1.66667c0,0 -0.71151,-0.23717 -0.47434,-0.94868c0.23717,-0.71151 0.94868,-0.47434 0.94868,-0.47434c2.66114,0.88705 10.3635,1.98921 6.62649,5.90851l0.21967,0.13634c0,0 0,0.15978 -0.07375,0.33185c0.05526,0.09913 0.08201,0.19382 0.0891,0.28219c0.42995,-0.45249 0.83347,-0.91706 1.02673,-1.25912l0.22228,-0.39173c0,0 0.37014,-0.6523 1.02244,-0.28216z" fill="#000000" stroke="none" stroke-width="0.5" stroke-linecap="butt"/><path d="M409.01271,136.80555c0.75,0 0.75,0.75 0.75,0.75c0,1.11111 0,2.55556 0,3.66667c0,0 0,0.75 -0.75,0.75c-0.75,0 -0.75,-0.75 -0.75,-0.75c0,-1.11111 0,-2.22222 0,-3.33333v-0.33333c0,0 0,-0.75 0.75,-0.75z" fill="#000000" stroke="none" stroke-width="0.5" stroke-linecap="butt"/><text transform="translate(364.65,216.26551) scale(0.22618,0.22618)" font-size="40" xml:space="preserve" fill="#000000" fill-rule="nonzero" stroke="none" stroke-width="1" stroke-linecap="butt" stroke-linejoin="miter" stroke-miterlimit="10" stroke-dasharray="" stroke-dashoffset="0" font-family="Serif" font-weight="normal" text-anchor="start" style="mix-blend-mode: normal"><tspan x="0" dy="0">Endongi</tspan></text><path d="M414.16667,220.66671h-69" fill="none" stroke="#000000" stroke-width="2" stroke-linecap="round"/><path d="M379.86404,241.16671v-20" fill="none" stroke="#000000" stroke-width="2" stroke-linecap="round"/><text transform="translate(398.95834,235.53339) scale(0.335,0.335)" font-size="40" xml:space="preserve" fill="#000000" fill-rule="nonzero" stroke="none" stroke-width="1" stroke-linecap="butt" stroke-linejoin="miter" stroke-miterlimit="10" stroke-dasharray="" stroke-dashoffset="0" font-family="Serif" font-weight="normal" text-anchor="start" style="mix-blend-mode: normal"><tspan x="0" dy="0">20</tspan></text><text transform="translate(363.70833,235.28339) scale(0.335,0.335)" font-size="40" xml:space="preserve" fill="#000000" fill-rule="nonzero" stroke="none" stroke-width="1" stroke-linecap="butt" stroke-linejoin="miter" stroke-miterlimit="10" stroke-dasharray="" stroke-dashoffset="0" font-family="Serif" font-weight="normal" text-anchor="start" style="mix-blend-mode: normal"><tspan x="0" dy="0">30</tspan></text><path d="M386.39738,197.28809c0,0 0.30352,-5.19699 1.76344,-7.2996c1.47235,-2.12049 7.0337,-5.37014 7.0337,-5.37014c0,0 7.21645,0.37634 9.38167,1.89842c1.58677,1.11545 2.42238,6.39948 2.42238,6.39948l-6.44638,7.12422z" fill="#4c2b1e" stroke="#000000" stroke-width="0" stroke-linecap="butt"/><path d="M380.31816,188.86151c0,0 2.08616,-1.78516 5.22958,-5.34812c1.85609,-2.1038 4.99421,-3.43547 7.82088,-3.99588c3.42337,-0.67871 6.72822,-0.42742 9.42496,0.53851c3.30102,1.18239 8.26535,4.81938 8.26535,4.81938c0,0 -2.41915,6.62259 -4.33567,8.78587c-0.94283,-3.73813 -5.98275,-5.87762 -11.43304,-4.79707c-5.49637,1.08969 -9.35761,5.0472 -8.7231,8.89288c-2.67464,-1.26359 -6.24896,-8.89557 -6.24896,-8.89557z" fill="#ffffff" stroke="#000000" stroke-width="0" stroke-linecap="butt"/><path d="M399.2285,202.36381l1.25049,-2.73607l2.47957,1.13326l-1.25049,2.73607z" fill="#4c2b1e" stroke="#000000" stroke-width="0" stroke-linecap="butt"/><path d="M387.15059,194.27748c-0.418,0.37873 -0.79672,-0.03928 -0.79672,-0.03928l-0.43745,-0.50105c-0.84339,-1.44933 -1.70538,-2.94917 -2.7351,-4.27564c0,0 -0.34555,-0.44582 0.10027,-0.79137c0.44582,-0.34555 0.79136,0.10027 0.79136,0.10027c1.05932,1.36867 1.94766,2.90565 2.81826,4.39894l0.29866,0.31141c0,0 0.37872,0.418 -0.03928,0.79673z" fill="#595959" stroke="none" stroke-width="0.5" stroke-linecap="butt"/><path d="M389.13508,189.49668c-0.44582,0.34555 -0.79137,-0.10027 -0.79137,-0.10027l-0.33648,-0.47095c-0.63126,-1.60196 -1.04352,-3.23376 -2.1071,-4.60326c0,0 -0.34555,-0.44582 0.10027,-0.79137c0.44582,-0.34555 0.79137,0.10027 0.79137,0.10027c1.13581,1.46809 1.59027,3.1705 2.26495,4.88057l0.17863,0.19364c0,0 0.34555,0.44582 -0.10027,0.79137z" fill="#595959" stroke="none" stroke-width="0.5" stroke-linecap="butt"/><path d="M391.95404,189.33231c-0.46105,0.32495 -0.786,-0.1361 -0.786,-0.1361l-0.59081,-0.85959c-0.3043,-1.41681 -0.57571,-2.84069 -0.85752,-4.26212c0,0 -0.1097,-0.55329 0.44359,-0.66298c0.55329,-0.10969 0.66298,0.44359 0.66298,0.44359c0.26655,1.34447 0.55191,2.68693 0.78788,4.03718l0.47598,0.65401c0,0 0.32495,0.46105 -0.1361,0.786z" fill="#595959" stroke="none" stroke-width="0.5" stroke-linecap="butt"/><path d="M394.74771,187.19874c-0.55329,0.10969 -0.66298,-0.44359 -0.66298,-0.44359l-0.08197,-0.52508c0.16467,-1.79312 -0.59117,-3.8371 -0.94021,-5.59764c0,0 -0.1097,-0.55329 0.44359,-0.66298c0.55329,-0.10969 0.66298,0.44359 0.66298,0.44359c0.37489,1.89096 1.10372,3.98072 0.95791,5.91008l0.06428,0.21264c0,0 0.10969,0.55328 -0.4436,0.66298z" fill="#595959" stroke="none" stroke-width="0.5" stroke-linecap="butt"/><path d="M397.7494,189.28713c-0.55329,0.10969 -0.66298,-0.4436 -0.66298,-0.4436l-0.06114,-0.45723c0.30104,-2.37236 0.50306,-4.27575 -0.19125,-6.62859c0,0 -0.15933,-0.54108 0.38175,-0.70042c0.54109,-0.15933 0.70042,0.38175 0.70042,0.38175c0.73561,2.50306 0.5478,4.56299 0.22823,7.08906l0.04856,0.09605c0,0 0.10969,0.55329 -0.4436,0.66298z" fill="#595959" stroke="none" stroke-width="0.5" stroke-linecap="butt"/><path d="M402.34385,186.67784c0.11077,0.13246 0.22428,0.36647 0.02641,0.66219c-0.31367,0.4688 -0.78246,0.15513 -0.78246,0.15513l-0.36007,-0.51238c-0.06018,-1.27335 0.29223,-2.37297 0.03466,-3.66327c0,0 -0.10969,-0.55329 0.4436,-0.66298c0.55329,-0.10969 0.66298,0.4436 0.66298,0.4436c0.24937,1.26565 -0.05356,2.36344 -0.02512,3.57772z" fill="#595959" stroke="none" stroke-width="0.5" stroke-linecap="butt"/><path d="M405.81057,190.29668c-0.53481,-0.17926 -0.35555,-0.71408 -0.35555,-0.71408l0.24322,-0.72546c0.57441,-1.57873 1.45536,-3.34808 1.5265,-5.03823c0,0 0.02778,-0.56337 0.59115,-0.5356c0.56337,0.02777 0.5356,0.59114 0.5356,0.59114c-0.10054,1.82016 -0.96817,3.65121 -1.5883,5.35488l-0.23854,0.7118c0,0 -0.17927,0.53481 -0.71408,0.35555z" fill="#595959" stroke="none" stroke-width="0.5" stroke-linecap="butt"/><path d="M407.4632,191.02644c-0.4688,-0.31367 -0.15513,-0.78247 -0.15513,-0.78247l0.04216,-0.0568c0.57923,-1.11525 1.02228,-2.23918 1.88318,-3.16555c0,0 0.38647,-0.41085 0.79732,-0.02438c0.41085,0.38647 0.02438,0.79732 0.02438,0.79732c-0.79014,0.82776 -1.17852,1.90129 -1.70375,2.91257l-0.1057,0.16419c0,0 -0.31367,0.4688 -0.78247,0.15512z" fill="#595959" stroke="none" stroke-width="0.5" stroke-linecap="butt"/><path d="M393.12745,201.67164c0,-2.28804 1.85482,-4.14285 4.14285,-4.14285c2.28803,0 4.14286,1.85482 4.14286,4.14285c0,2.28804 -1.85483,4.14286 -4.14286,4.14286c-2.28803,0 -4.14285,-1.85483 -4.14285,-4.14286z" fill="#ffb27a" stroke="#000000" stroke-width="0" stroke-linecap="butt"/><path d="M344.70211,204.58333c0,-0.57017 0.26007,-0.88026 0.54296,-1.04891c-0.02801,-0.10396 -0.04296,-0.21328 -0.04296,-0.32609c0,-0.52229 0.32033,-0.96976 0.77524,-1.15668c0,0 5.37689,-6.70684 7.69361,-10.17487c2.59438,-3.88369 5.89041,-7.81968 8.48377,-11.60072c1.40895,-2.05419 3.94182,-2.95002 6.14986,-3.75284c2.5129,-0.75387 5.26013,-1.15568 7.48887,0.63565c0.95294,0.76591 1.18196,1.69386 2.01261,2.40731c0.03738,-0.04199 0.07869,-0.08258 0.12426,-0.12049l-0.1121,-0.12124c0,0 0.88388,-0.88388 1.76776,0c0.39641,0.39641 0.43725,0.79282 0.36172,1.1095c0.00201,0.16005 -0.01988,0.26952 -0.01988,0.26952c-0.64518,3.16384 -2.1152,6.02676 -2.74757,9.23752c-0.60097,3.05134 -0.06622,6.17513 -0.62167,9.23168c-0.27729,1.52585 0.02204,5.03783 -1.31564,6.12868c-1.48638,1.21212 -6.01145,0.40701 -7.864,0.40483c-0.99359,-0.1161 -1.9839,-0.22555 -2.97212,-0.32773c-0.3846,0.69187 -1.2565,0.56732 -1.2565,0.56732c-2.81109,-0.40696 -5.39029,0.25899 -8.19822,0.26256c-2.72665,0.00347 -5.278,-0.65703 -8.00062,-0.3812l-0.99938,0.0062c0,0 -1.25,0 -1.25,-1.25z" fill="#c597ce" stroke="none" stroke-width="0.5" stroke-linecap="butt"/><g stroke="none" stroke-width="0.5" stroke-linecap="butt"><g><path d="M389.87047,159.22598c0.74766,1.31807 1.29077,2.69304 1.53299,4.16111c1.42988,4.59567 0.62481,9.04595 -2.57488,12.88117c-4.57114,5.47909 -15.25508,5.27018 -19.10103,-0.69291c-3.729,-5.96448 -1.63793,-13.3415 4.40094,-17.46272c3.74827,-2.558 10.57167,-3.39335 14.24174,-0.57679c0.52235,0.11068 0.80661,0.5583 0.80661,0.5583l0.30497,0.48023c0.06466,0.10343 0.12814,0.2072 0.19037,0.31129c0.03904,0.05549 0.07724,0.11181 0.1146,0.16895c0,0 0.04143,0.06524 0.08367,0.17137z" fill="#ffb27a"/><path d="M393.31533,154.91482c2.2836,4.54868 1.68425,10.09121 0.39974,14.89542c-0.33995,1.27145 -0.1519,3.16417 -1.46531,4.07318c-0.04029,0.02788 -0.08108,0.05503 -0.12235,0.0815l0.02212,0.01977l-1.23584,1.10434c-0.22365,0.19984 -0.53261,0.32345 -0.87387,0.32345c-0.68253,0 -1.23584,-0.49443 -1.23584,-1.10434c0,-0.21432 0.06832,-0.41438 0.18656,-0.58373l0.71269,-1.06146c1.30025,-2.32988 1.11003,-4.51206 0.9993,-6.92049c-1.57831,0.07852 -3.73884,-0.48878 -4.55651,-0.93095c-1.03896,-0.56183 -2.61061,-1.69046 -3.43015,-2.50996c-0.56892,-0.56888 -1.07084,-1.19605 -1.49749,-1.85692c-0.08164,-0.12646 0.0882,-0.56873 0.01609,-0.43774c-1.84162,3.34564 -7.70129,5.93418 -12.06628,5.86422c-0.38189,1.94596 -0.39235,4.31576 0.18959,6.15865l0.28383,0.45931c0,0 0.55268,0.98775 -0.55268,1.48163c-1.10537,0.49387 -1.65805,-0.49387 -1.65805,-0.49387l-0.45768,-0.8659c-0.62789,-2.11512 -0.66269,-4.66153 -0.27699,-6.89035c-0.29178,-0.32225 -0.29179,-0.74412 -0.29179,-0.74412l0.13047,-1.32213c1.16361,-1.93193 1.09862,-5.09079 1.16878,-7.30966c0.4668,-0.59493 0.87359,-1.22419 1.27933,-1.85171c-1.07863,-0.00446 -2.39927,-0.03766 -2.61037,-0.17269c-1.43289,-0.91647 -1.19308,-2.15835 -1.20404,-3.42418c-0.03213,-3.71172 3.79781,-7.89675 8.22474,-4.97556c0.79319,0.52339 1.43518,2.91977 1.62064,3.58758c5.73987,-1.72783 13.65123,0.45054 16.94327,4.66367z" fill="#000000"/></g><path d="M383.96634,175.80188c0,1.38043 -1.5448,1.38043 -1.5448,1.38043c-0.58849,0 -2.41282,0 -3.00132,0c0,0 -1.5448,0 -1.5448,-1.38043c0,-1.38043 1.5448,-1.38043 1.5448,-1.38043c0.58849,0 1.17699,0 1.76548,0h1.23584c0,0 1.5448,0 1.5448,1.38043z" fill="#000000"/><path d="M375.9521,169.20833c0,-0.69036 0.55964,-1.25 1.25,-1.25c0.69036,0 1.25,0.55964 1.25,1.25c0,0.69036 -0.55964,1.25 -1.25,1.25c-0.69036,0 -1.25,-0.55964 -1.25,-1.25z" fill="#000000"/><path d="M383.2021,169.45833c0,-0.69036 0.55964,-1.25 1.25,-1.25c0.69036,0 1.25,0.55964 1.25,1.25c0,0.69036 -0.55964,1.25 -1.25,1.25c-0.69036,0 -1.25,-0.55964 -1.25,-1.25z" fill="#000000"/></g><path d="M352.81558,205.04935c-0.03483,0.21054 -0.17493,0.63398 -0.73848,0.63398c-0.75,0 -0.75,-0.75 -0.75,-0.75l0.21967,-0.73033c1.83003,-1.83003 2.79339,-4.17857 4.6,-6c1.73378,-1.72088 4.55905,-3.13985 5.666,-5.41775c2.07805,-4.27626 3.5248,-8.57374 6.67868,-12.52044c0,0 0.46852,-0.58565 1.05417,-0.11713c0.58565,0.46852 0.11713,1.05417 0.11713,1.05417c-3.11488,3.88909 -4.38451,8.10749 -6.52132,12.27956c-1.26341,2.46677 -4.06069,3.89295 -5.934,5.78225c-1.73985,1.7237 -2.69445,3.98721 -4.39185,5.78568z" fill="#96739d" stroke="none" stroke-width="0.5" stroke-linecap="butt"/><path d="M361.83993,205.64484c-0.71151,-0.23717 -0.47434,-0.94868 -0.47434,-0.94868l0.24069,-0.69824c0.14428,-0.2863 0.28855,-0.57259 0.43283,-0.85889c0.97243,-1.18742 0.41644,-2.96269 1.1659,-4.33857c0.60888,-1.11779 1.76143,-1.8704 2.45424,-2.8923c1.17917,-1.73928 1.18599,-3.98613 2.39756,-5.79643c1.03526,-1.54686 2.66805,-2.93522 3.32394,-4.65696c0,0 0.27854,-0.69636 0.9749,-0.41781c0.69636,0.27854 0.41781,0.9749 0.41781,0.9749c-0.76592,1.84763 -2.35412,3.27413 -3.47606,4.94304c-1.21781,1.81152 -1.21379,4.01523 -2.40244,5.80357c-0.64173,0.96549 -1.75813,1.67822 -2.34576,2.7077c-0.81322,1.42471 -0.25296,3.06716 -1.2341,4.46143c-0.12239,0.24704 -0.24478,0.49407 -0.36717,0.74111l-0.15931,0.50176c0,0 -0.23717,0.71151 -0.94868,0.47434z" fill="#96739d" stroke="none" stroke-width="0.5" stroke-linecap="butt"/><path d="M375.2771,187.98333c0.75,0 0.75,0.75 0.75,0.75v0.4c0,3.54374 -1.15133,5.78111 -2.23638,9.03075c-0.87974,2.63475 -1.15725,5.97699 -3.46362,7.76925c0,0 -0.6,0.45 -1.05,-0.15c-0.45,-0.6 0.15,-1.05 0.15,-1.05c1.22297,-0.87173 1.74573,-2.79184 2.12513,-4.1925c1.08491,-4.00533 2.97487,-7.18676 2.97487,-11.4075v-0.4c0,0 0,-0.75 0.75,-0.75z" fill="#96739d" stroke="none" stroke-width="0.5" stroke-linecap="butt"/><path d="M371.81472,140.58405c0.01349,-0.99165 -0.1018,-1.62879 0.89353,-2.39508c2.42302,-1.86548 6.63182,-1.55491 9.45647,-1.55491c0.87059,0 2.10768,-0.20625 2.9508,0.01532c6.28895,1.65274 3.81925,8.22668 3.79932,12.68091c1.15695,-0.05783 2.3079,-0.09623 3.44988,-0.09623c1.17641,0 2.51116,-0.25361 3.50784,0.59809c0.7994,0.68312 1.41237,3.55402 0.38957,4.31324c-0.4576,0.33967 -1.14877,0.10716 -1.68129,0.31011c-5.07099,1.93264 -11.03848,1.87855 -16.61611,1.87855c-1.76177,0 -3.38844,0.06721 -5.07473,0.40941c-0.21112,0.19831 -0.50537,0.19378 -0.60987,0.18484c-0.08955,0.08027 -0.56764,0.46417 -1.04573,-0.01392c-0.03492,-0.03492 -0.06525,-0.06984 -0.09143,-0.10461c-2.62358,-0.13343 -5.77335,0.50472 -7.97254,-0.78772c-2.02974,-1.19286 -1.21088,-5.15366 0.56909,-6.2558c1.39735,-0.86523 3.44308,-0.73215 5.02521,-0.73219c1.06178,0 2.04133,0.1456 3.028,0.30422c-0.5799,-2.59321 -0.01287,-6.19125 0.022,-8.75422zM372.16961,156.91209c-0.00504,-0.0008 -0.01008,-0.0016 -0.01512,-0.00239c-0.00262,0.00065 -0.00525,0.00131 -0.00787,0.00197z" fill="#8c43bf" stroke="none" stroke-width="0.5" stroke-linecap="butt"/><path d="M365.85458,163.93726c0.93547,1.11414 1.53949,2.22475 1.56966,3.87284c-0.02373,1.29611 -0.53571,3.96559 -2.32232,3.52705c-1.08927,-0.26737 -2.49908,-4.66642 -2.7206,-5.68275c-0.38376,-1.76074 0.44676,-2.99595 1.85847,-2.51812c0.1255,-0.00307 0.21634,0.02251 0.21634,0.02251l0.06991,0.02193c-0.15495,-0.19354 -0.71294,-0.7132 -0.78175,-1.03621c-0.07567,-0.3552 -0.01639,-0.7304 -0.02006,-1.09568c-0.01434,-1.42695 0,-2.85509 0,-4.28213c0,0 0,-0.84516 0.75,-0.84516c0.75,0 0.75,0.84516 0.75,0.84516c0,1.47453 -0.35263,3.56877 -0.02007,4.98945c0.15385,0.65724 0.95241,1.37183 0.6504,2.1811z" fill="#feff00" stroke="none" stroke-width="0.5" stroke-linecap="butt"/><path d="M344.90695,205.73333v-28.46667h70.2v28.46667z" fill="url(#color-1)" stroke="#000000" stroke-width="0" stroke-linecap="butt"/><path d="M396.96271,162.61019c0.14751,0.21511 0.18137,0.42679 0.16382,0.61021c0.30169,0.28148 0.63269,0.52203 0.96852,0.73762c1.10115,2.54654 -0.55152,8.70924 -3.12561,4.77368c-1.42143,-2.17324 -0.18496,-4.37954 0.48377,-6.33855c0.60124,-1.76131 -0.62599,-5.8602 -1.18484,-7.52509c0,0 -0.27855,-0.83385 0.41782,-1.16739c0.69636,-0.33354 0.9749,0.50031 0.9749,0.50031c0.6712,2.01825 1.78037,6.04053 1.30163,8.40922z" fill="#feff00" stroke="none" stroke-width="0.5" stroke-linecap="butt"/><path d="M396.68276,153.42502c0.55901,1.11803 -0.55901,1.67705 -0.55901,1.67705l-0.56374,0.26782c-2.17431,0.71831 -4.35289,1.31317 -6.51878,2.03318c-5.60136,0.70017 -11.18135,0.63097 -16.87651,0.63097c-3.64613,0 -7.24947,0.10943 -10.20023,-2.28972c0,0 -0.96028,-0.80023 -0.16005,-1.76051c0.80023,-0.96027 1.76051,-0.16004 1.76051,-0.16004c2.33668,2.01263 5.67256,1.71027 8.59977,1.71027c5.49935,0 10.92155,0.10621 16.32349,-0.56903c2.09303,-0.69959 4.17986,-1.26094 6.28122,-1.96682l0.23627,-0.13218c0,0 1.11803,-0.55902 1.67705,0.55902z" fill="#ff8400" stroke="none" stroke-width="0.5" stroke-linecap="butt"/><path d="M387.7522,149.0411c0.53033,0.53033 0,1.06066 0,1.06066l-0.69275,0.49518c-4.24591,0.69567 -8.95267,0.10871 -13.10375,-0.57143c0,0 -0.73979,-0.1233 -0.61649,-0.86309c0.1233,-0.73979 0.86309,-0.6165 0.86309,-0.6165c3.95452,0.67196 8.55774,1.2601 12.61055,0.57143l-0.12132,-0.07625c0,0 0.53033,-0.53033 1.06066,0z" fill="#4f266d" stroke="none" stroke-width="0.5" stroke-linecap="butt"/><g fill="#00c703" stroke="none" stroke-width="0" stroke-linecap="butt"><path d="M348.41499,228.32707l4.19761,-4.78541l2.12107,2.49056l-4.19761,4.78541z"/><path d="M347.55867,228.567c0,0 -0.09444,-0.87407 0.22157,-1.23433c0.38703,-0.44123 1.93105,-1.21973 1.93105,-1.21973c0,0 1.9415,2.27971 2.70437,3.17546c0.52394,0.61521 1.21488,2.17376 1.21488,2.17376c0,0 0.20898,1.47979 -0.17249,1.91467c-0.32796,0.37388 -1.76329,0.04675 -1.76329,0.04675c0,0 -1.96801,-1.81267 -2.70752,-2.681c-0.6168,-0.72424 -1.42857,-2.17559 -1.42857,-2.17559z"/></g><g fill="#00c703" stroke="none" stroke-width="0" stroke-linecap="butt"><path d="M355.03154,235.82845l0.63394,-6.77854l3.0045,0.37614l-0.63394,6.77854z"/><path d="M354.49959,236.64107c0,0 -0.5511,-0.60777 -0.50337,-1.11808c0.05845,-0.625 0.82847,-2.35809 0.82847,-2.35809c0,0 2.75014,0.34429 3.83074,0.47957c0.74216,0.09291 2.1295,0.79412 2.1295,0.79412c0,0 0.97102,0.99301 0.91341,1.60902c-0.04953,0.5296 -1.33997,1.32692 -1.33997,1.32692c0,0 -2.51528,0.0368 -3.5628,-0.09434c-0.87369,-0.10938 -2.29598,-0.63913 -2.29598,-0.63913z"/></g><path d="M386.1169,227.07553c0,-1.4122 1.14482,-2.55702 2.55702,-2.55702c1.4122,0 2.55702,1.14482 2.55702,2.55702c0,0.9921 -0.56501,1.85224 -1.39081,2.27619c-0.08015,0.04115 1.59215,1.12894 2.19641,2.44866c0.77748,1.69804 0.54584,3.7168 0.54584,3.7168l-8.34705,0.00133c0,0 -0.12735,-2.17611 0.5241,-3.63702c0.76603,-1.71783 2.60297,-2.39312 2.35124,-2.65768c-0.43642,-0.45867 -0.99376,-1.46518 -0.99376,-2.14828z" fill="#ff00c8" stroke="none" stroke-width="0" stroke-linecap="butt"/><path d="M389.22801,229.7422c0,-1.4122 1.14482,-2.55702 2.55702,-2.55702c1.4122,0 2.55701,1.14482 2.55701,2.55702c0,0.99211 -0.56501,1.85225 -1.39081,2.2762c-0.08015,0.04115 1.59215,1.12894 2.19641,2.44866c0.77748,1.69805 0.54584,3.7168 0.54584,3.7168l-8.34705,0.00133c0,0 -0.12735,-2.17611 0.52411,-3.63702c0.76603,-1.71783 2.60297,-2.39312 2.35124,-2.65768c-0.43642,-0.45867 -0.99376,-1.46517 -0.99376,-2.14828z" fill="#9c005c" stroke="none" stroke-width="0" stroke-linecap="butt"/><g fill="none" stroke="#000000" stroke-width="2"><path d="M345,241.7057v-106.16129h70v106.16129z" stroke-linecap="butt"/><path d="M413.66666,206.08273h-68.33333" stroke-linecap="round"/></g></g></g></svg>