<svg version="1.1" xmlns="http://www.w3.org/2000/svg" xmlns:xlink="http://www.w3.org/1999/xlink" width="72" height="108.16129" viewBox="0,0,72,108.16129"><defs><linearGradient x1="380.00695" y1="177.26667" x2="380.00695" y2="205.73333" gradientUnits="userSpaceOnUse" id="color-1"><stop offset="0" stop-color="#484848" stop-opacity="0"/><stop offset="1" stop-color="#484848"/></linearGradient></defs><g transform="translate(-344,-134.54441)"><g data-paper-data="{&quot;isPaintingLayer&quot;:true}" fill-rule="nonzero" stroke-linejoin="miter" stroke-miterlimit="10" stroke-dasharray="" stroke-dashoffset="0" style="mix-blend-mode: normal"><path d="M344.91667,242.04169v-106h70.25v106z" fill="#006eff" stroke="none" stroke-width="0" stroke-linecap="butt"/><g stroke-width="0" stroke-linecap="butt"><path d="M345.07914,205.13333v-69.26667h69.26667v69.26667z" fill="#430052" stroke="none"/><path d="M345.15737,184.45243v-26.6009h69.11019v26.6009z" fill="#ffffff" stroke="#000000"/><path d="M371.5972,198.90856v-54.24498h15.95441v54.24498z" fill="#0093ff" stroke="#000000"/></g><text transform="translate(360.05,216.26551) scale(0.22618,0.22618)" font-size="40" xml:space="preserve" fill="#000000" fill-rule="nonzero" stroke="none" stroke-width="1" stroke-linecap="butt" stroke-linejoin="miter" stroke-miterlimit="10" stroke-dasharray="" stroke-dashoffset="0" font-family="Serif" font-weight="normal" text-anchor="start" style="mix-blend-mode: normal"><tspan x="0" dy="0">Geaceatine</tspan></text><path d="M370.13249,188.47896c0.22748,-0.14542 0.46361,-0.17494 0.46361,-0.17494l1.01292,-0.11883c1.12657,0.00453 2.15681,0.22766 3.27752,0.22375c3.23083,0.35521 7.62988,-0.7455 10.67893,0.2636c1.53136,0.50681 2.49943,1.93903 3.46625,3.08034c3.31297,3.9109 6.56272,9.69663 4.33848,14.71909c-3.70149,0.09238 -7.16942,-0.77009 -10.83206,-1.06707c-5.41945,-0.43943 -10.94542,0.22474 -16.37356,0.22474c-1.53203,0 -4.56421,0.26407 -5.60585,-1.21715c-1.00667,-1.4315 0.47453,-4.58561 1.02268,-5.84956c2.04509,-4.71563 3.72836,-7.67663 8.46929,-10.04994c0,0 0.03001,-0.01501 0.08179,-0.03402z" fill="#1f2c2f" stroke="none" stroke-width="0.5" stroke-linecap="butt"/><path d="M384.96081,177.30389l0.13403,0.08191c0.32877,0.27295 0.65754,0.54591 0.9863,0.81886c2.41803,4.63981 2.11372,13.12938 -4.21458,14.76859c-3.12126,0.8085 -7.92927,-0.74661 -10.66599,-2.00877c-2.27262,-2.64604 -3.40338,-8.27958 -0.21195,-11.05929c3.64404,-3.17393 8.45507,-4.50673 13.14593,-3.72492c0,0 0.96822,0.16137 0.82627,1.12361z" fill="#ffc18a" stroke="none" stroke-width="0.5" stroke-linecap="butt"/><path d="M414.16667,220.66671h-69" fill="none" stroke="#000000" stroke-width="2" stroke-linecap="round"/><path d="M379.86404,241.16671v-20" fill="none" stroke="#000000" stroke-width="2" stroke-linecap="round"/><text transform="translate(398.95834,235.53339) scale(0.335,0.335)" font-size="40" xml:space="preserve" fill="#000000" fill-rule="nonzero" stroke="none" stroke-width="1" stroke-linecap="butt" stroke-linejoin="miter" stroke-miterlimit="10" stroke-dasharray="" stroke-dashoffset="0" font-family="Serif" font-weight="normal" text-anchor="start" style="mix-blend-mode: normal"><tspan x="0" dy="0">25</tspan></text><text transform="translate(363.70833,235.28339) scale(0.335,0.335)" font-size="40" xml:space="preserve" fill="#000000" fill-rule="nonzero" stroke="none" stroke-width="1" stroke-linecap="butt" stroke-linejoin="miter" stroke-miterlimit="10" stroke-dasharray="" stroke-dashoffset="0" font-family="Serif" font-weight="normal" text-anchor="start" style="mix-blend-mode: normal"><tspan x="0" dy="0">25</tspan></text><path d="M374.92825,183.43257c0,-0.55228 0.44772,-1 1,-1c0.55228,0 1,0.44772 1,1c0,0.55228 -0.44772,1 -1,1c-0.55228,0 -1,-0.44772 -1,-1z" fill="#000000" stroke="none" stroke-width="0.5" stroke-linecap="butt"/><path d="M382.21396,183.86114c0,-0.55228 0.44772,-1 1,-1c0.55228,0 1,0.44772 1,1c0,0.55228 -0.44772,1 -1,1c-0.55228,0 -1,-0.44772 -1,-1z" fill="#000000" stroke="none" stroke-width="0.5" stroke-linecap="butt"/><path d="M381.0711,189.28971c0,1 -1,1 -1,1h-0.71429c-0.67445,-0.00139 -1.34973,0.05029 -2.01882,0.13514c0,0 -0.99228,0.12403 -1.11631,-0.86824c-0.12403,-0.99228 0.86824,-1.11631 0.86824,-1.11631c0.7516,-0.09273 1.5096,-0.1492 2.26689,-0.15058h0.71429c0,0 1,0 1,1z" fill="#000000" stroke="none" stroke-width="0.5" stroke-linecap="butt"/><path d="M376.94767,186.23645c0.19612,-0.98058 1.1767,-0.78446 1.1767,-0.78446l0.65959,0.13349c0.11148,0.01906 0.28105,0.03913 0.45066,0.06548c-0.16076,-0.26943 -0.30909,-0.6254 -0.44008,-0.83124c0,0 -0.53,-0.848 0.318,-1.378c0.848,-0.53 1.378,0.318 1.378,0.318c1.50294,2.44035 1.28755,4.21362 -1.98942,3.80566l-0.76898,-0.15223c0,0 -0.98058,-0.19612 -0.78446,-1.1767z" fill="#000000" stroke="none" stroke-width="0.5" stroke-linecap="butt"/><path d="M382.70108,177.79492c-0.6533,0.03697 -1.28228,0.09268 -1.97788,0.22137c0,0 -0.3776,0.06866 -0.70748,-0.11303c-0.07855,-0.00223 -0.15721,-0.00536 -0.23594,-0.0094c-1.54956,0.71623 -2.27204,1.22949 -3.4106,1.31232l0.03557,0.32013l-1.11056,0.1234c-0.04091,0.0051 -0.08258,0.00772 -0.12487,0.00772c-0.05639,0 -0.11168,-0.00467 -0.16552,-0.01364c-0.97316,0.7599 -1.94882,1.62701 -2.85472,1.61188c-0.0769,-0.00128 -0.15347,-0.00514 -0.22975,-0.01127v0.03802h-1.75c-0.55228,0 -1,-0.44772 -1,-1c0,-0.37863 0.21043,-0.70811 0.52072,-0.87787l0.81213,-0.46407c1.65348,-1.27874 3.41257,-2.11671 5.41014,-2.6297c0.13479,-0.25154 0.37404,-0.43873 0.65977,-0.50357l0.97971,-0.24493l0.00125,0.00502l0.01153,-0.00812c0.44286,-0.09627 0.89808,-0.11131 1.35475,-0.07496v-0.20179h1.125c0.22829,0 0.43871,0.0765 0.60703,0.20525c0.40263,-0.33946 0.9592,-0.15394 0.9592,-0.15394l0.375,0.125c0.48445,0.16156 0.95843,0.22133 1.31378,0.34419c0.28335,0.00004 0.57376,0.00491 0.87666,0.01299l0.17915,0.20381l0.06032,-0.10556l0.85815,0.49037c0.31029,0.16976 0.52072,0.49925 0.52072,0.87787c0,0.55228 -0.44772,1 -1,1c-0.0474,0 -0.09404,-0.0033 -0.13968,-0.00968l-0.98435,-0.12304l0.02524,-0.2019c-0.3367,0.00008 -0.6347,-0.0521 -0.99444,-0.15288z" fill="#2b2121" stroke="none" stroke-width="0.5" stroke-linecap="butt"/><path d="M372.31366,177.75981l-4.35226,-7.40661c0,0 5.53616,3.45532 6.4529,3.2088c1.54588,-0.41571 2.63007,-5.5387 2.63007,-5.5387c0,0 3.48816,4.49971 3.73139,4.52245c1.86346,0.17419 6.15209,-3.47072 6.15209,-3.47072l-2.07571,7.44119c0,0 -5.09198,-0.1649 -7.31877,0.05595c-1.90092,0.18854 -5.21971,1.18764 -5.21971,1.18764z" fill="#ffaa00" stroke="#000000" stroke-width="0" stroke-linecap="butt"/><path d="M366.84574,169.92424c0,-0.57739 0.46807,-1.04546 1.04546,-1.04546c0.57739,0 1.04546,0.46806 1.04546,1.04546c0,0.57739 -0.46807,1.04546 -1.04546,1.04546c-0.57739,0 -1.04546,-0.46806 -1.04546,-1.04546z" fill="#ffaa00" stroke="#000000" stroke-width="0" stroke-linecap="butt"/><path d="M376.11847,167.56061c0,-0.57739 0.46807,-1.04546 1.04546,-1.04546c0.57739,0 1.04546,0.46806 1.04546,1.04546c0,0.57739 -0.46807,1.04546 -1.04546,1.04546c-0.57739,0 -1.04546,-0.46806 -1.04546,-1.04546z" fill="#ffaa00" stroke="#000000" stroke-width="0" stroke-linecap="butt"/><path d="M386.02756,168.83333c0,-0.57739 0.46807,-1.04545 1.04546,-1.04545c0.57739,0 1.04546,0.46806 1.04546,1.04545c0,0.57739 -0.46807,1.04546 -1.04546,1.04546c-0.57739,0 -1.04546,-0.46806 -1.04546,-1.04546z" fill="#ffaa00" stroke="#000000" stroke-width="0" stroke-linecap="butt"/><path d="M372.30029,170.87879c0,-0.55229 0.44772,-1 1,-1c0.55228,0 1,0.44771 1,1c0,0.55229 -0.44772,1 -1,1c-0.55228,0 -1,-0.44771 -1,-1z" fill="#ffaa00" stroke="none" stroke-width="0.5" stroke-linecap="butt"/><path d="M380.11847,169.87879c0,-0.55229 0.44772,-1 1,-1c0.55228,0 1,0.44771 1,1c0,0.55229 -0.44772,1 -1,1c-0.55228,0 -1,-0.44771 -1,-1z" fill="#ffaa00" stroke="none" stroke-width="0.5" stroke-linecap="butt"/><path d="M372.16515,174.1947l1.62087,-2.84316l2.92213,1.66589l-1.62086,2.84316z" fill="#ffaa00" stroke="#000000" stroke-width="0" stroke-linecap="butt"/><path d="M382.70588,173.20338l-2.80417,1.68742l-1.73429,-2.88207l2.80417,-1.68742z" data-paper-data="{&quot;index&quot;:null}" fill="#ffaa00" stroke="#000000" stroke-width="0" stroke-linecap="butt"/><path d="M376.9537,174.20833c0,-0.55229 0.44772,-1 1,-1c0.55228,0 1,0.44771 1,1c0,0.55229 -0.44772,1 -1,1c-0.55228,0 -1,-0.44771 -1,-1z" fill="#ff0000" stroke="none" stroke-width="0.5" stroke-linecap="butt"/><path d="M372.7037,175.58333c0,-0.55229 0.44772,-1 1,-1c0.55228,0 1,0.44771 1,1c0,0.55229 -0.44772,1 -1,1c-0.55228,0 -1,-0.44771 -1,-1z" fill="#0017ff" stroke="none" stroke-width="0.5" stroke-linecap="butt"/><path d="M381.9537,174.70833c0,-0.55229 0.44772,-1 1,-1c0.55228,0 1,0.44771 1,1c0,0.55229 -0.44772,1 -1,1c-0.55228,0 -1,-0.44771 -1,-1z" fill="#0017ff" stroke="none" stroke-width="0.5" stroke-linecap="butt"/><path d="M351.8669,227.07553c0,-1.4122 1.14482,-2.55702 2.55702,-2.55702c1.4122,0 2.55702,1.14482 2.55702,2.55702c0,0.9921 -0.56501,1.85224 -1.39081,2.27619c-0.08015,0.04115 1.59215,1.12894 2.19641,2.44866c0.77748,1.69804 0.54584,3.7168 0.54584,3.7168l-8.34705,0.00133c0,0 -0.12735,-2.17611 0.5241,-3.63702c0.76603,-1.71783 2.60297,-2.39312 2.35124,-2.65768c-0.43642,-0.45867 -0.99376,-1.46518 -0.99376,-2.14828z" fill="#ff00c8" stroke="none" stroke-width="0" stroke-linecap="butt"/><path d="M354.97801,229.7422c0,-1.4122 1.14482,-2.55702 2.55702,-2.55702c1.4122,0 2.55701,1.14482 2.55701,2.55702c0,0.99211 -0.56501,1.85225 -1.39081,2.2762c-0.08015,0.04115 1.59215,1.12894 2.19641,2.44866c0.77748,1.69805 0.54584,3.7168 0.54584,3.7168l-8.34705,0.00133c0,0 -0.12735,-2.17611 0.52411,-3.63702c0.76603,-1.71783 2.60297,-2.39312 2.35124,-2.65768c-0.43642,-0.45867 -0.99376,-1.46517 -0.99376,-2.14828z" fill="#9c005c" stroke="none" stroke-width="0" stroke-linecap="butt"/><g fill="#373737" stroke-width="0" stroke-linecap="butt"><path d="M383.0284,228.29245l3.3332,-3.3332l4.01499,4.01499l-3.3332,3.3332z" stroke="#000000"/><path d="M392.57347,234.65583c-1.46433,1.46433 -4.02502,1.27779 -5.71946,-0.41665c-1.69444,-1.69444 -1.88098,-4.25513 -0.41665,-5.71946c1.46433,-1.46433 4.02502,-1.27779 5.71946,0.41665c1.69444,1.69444 1.88098,4.25513 0.41665,5.71946z" stroke="#000000"/><path d="M396.91988,236.88112c-0.46022,0.46022 -2.39346,-0.72686 -4.31801,-2.65141c-1.92455,-1.92455 -3.11163,-3.85779 -2.65141,-4.31801c0.46022,-0.46022 2.39346,0.72686 4.31801,2.65141c1.92455,1.92455 3.11163,3.85779 2.65141,4.31801z" stroke="none"/></g><path d="M344.90695,205.73333v-28.46667h70.2v28.46667z" fill="url(#color-1)" stroke="#000000" stroke-width="0" stroke-linecap="butt"/><g fill="none" stroke="#000000" stroke-width="2"><path d="M345,241.7057v-106.16129h70v106.16129z" stroke-linecap="butt"/><path d="M413.66666,206.08273h-68.33333" stroke-linecap="round"/></g></g></g></svg>