<svg version="1.1" xmlns="http://www.w3.org/2000/svg" xmlns:xlink="http://www.w3.org/1999/xlink" width="72" height="108.16129" viewBox="0,0,72,108.16129"><defs><linearGradient x1="380.00695" y1="177.26667" x2="380.00695" y2="205.73333" gradientUnits="userSpaceOnUse" id="color-1"><stop offset="0" stop-color="#8f00a2" stop-opacity="0"/><stop offset="1" stop-color="#8f00a2"/></linearGradient></defs><g transform="translate(-344,-134.54442)"><g data-paper-data="{&quot;isPaintingLayer&quot;:true}" fill-rule="nonzero" stroke-linejoin="miter" stroke-miterlimit="10" stroke-dasharray="" stroke-dashoffset="0" style="mix-blend-mode: normal"><path d="M344.91667,242.04172v-106h70.25v106z" fill="#006eff" stroke="none" stroke-width="0" stroke-linecap="butt"/><g stroke-linecap="butt"><path d="M345.2333,205.47222v-69.08332h69.08334v69.08332z" fill="#470079" stroke="#000000" stroke-width="0"/><path d="M414.31663,136.38889v69.08333h-69.08333z" data-paper-data="{&quot;index&quot;:null}" fill="#782e5d" stroke="#000000" stroke-width="0"/><path d="M392.53399,170.26629c0,9.59083 -5.56564,17.36573 -12.4312,17.36573c-6.86556,0 -12.4312,-7.7749 -12.4312,-17.36573c0,-9.59083 5.56564,-17.36573 12.4312,-17.36573c6.86556,0 12.4312,7.7749 12.4312,17.36573z" fill="#ffffff" stroke="#000000" stroke-width="0"/><path d="M368.31687,177.99072c-1.36648,1.02486 -2.39135,-0.34162 -2.39135,-0.34162l-0.90054,-1.59539c-0.14507,-1.42428 -0.03851,-2.87951 0.20689,-4.28997c0,0 0.30555,-1.68055 1.98611,-1.375c1.68055,0.30555 1.375,1.98611 1.375,1.98611c-0.20753,1.08232 -0.30776,2.20787 -0.17268,3.3016l0.23819,-0.07708c0,0 1.02486,1.36648 -0.34162,2.39135z" fill="#0a5400" stroke="none" stroke-width="0.5"/><path d="M373.24455,185.42362c-1.20781,1.20781 -2.41562,0 -2.41562,0l-1.29741,-1.32169c-0.37958,-0.5061 -0.75916,-1.01221 -1.13874,-1.51831c0,0 -1.02486,-1.36648 0.34162,-2.39135c1.36648,-1.02486 2.39135,0.34162 2.39135,0.34162c0.37958,0.5061 0.75916,1.01221 1.13874,1.51831l0.98006,0.95579c0,0 1.20781,1.20781 0,2.41562z" fill="#0a5400" stroke="none" stroke-width="0.5"/><path d="M383.04452,188.0116c0,1.7081 -1.7081,1.7081 -1.7081,1.7081l-1.68828,-0.00848c-1.44899,-0.17349 -2.89839,-0.64203 -4.15154,-1.38989c0,0 -1.44847,-0.90529 -0.54318,-2.35376c0.90529,-1.44847 2.35376,-0.54318 2.35376,-0.54318c0.78191,0.52413 1.74187,0.82155 2.68088,0.88758l1.34835,-0.00848c0,0 1.7081,0 1.7081,1.7081z" fill="#0a5400" stroke="none" stroke-width="0.5"/><path d="M390.37461,180.79432c1.33381,1.06704 0.26676,2.40085 0.26676,2.40085l-0.98134,1.17879c-0.88568,0.75916 -1.77137,1.51831 -2.65705,2.27747c0,0 -1.29689,1.11162 -2.40851,-0.18527c-1.11162,-1.29689 0.18527,-2.40851 0.18527,-2.40851c0.88568,-0.75916 1.77137,-1.51831 2.65705,-2.27747l0.53697,-0.7191c0,0 1.06704,-1.33381 2.40085,-0.26676z" fill="#0a5400" stroke="none" stroke-width="0.5"/><path d="M390.25798,170.26848c1.42123,-0.94749 2.36871,0.47374 2.36871,0.47374l1.04603,2.08622c0,2.28146 0.00057,3.68181 -0.90638,5.81804c0,0 -0.69373,1.56089 -2.25461,0.86716c-1.56089,-0.69373 -0.86716,-2.25461 -0.86716,-2.25461c0.77441,-1.63312 0.61194,-2.62791 0.61194,-4.43059l-0.47228,-0.19125c0,0 -0.94749,-1.42123 0.47374,-2.36871z" fill="#0a5400" stroke="none" stroke-width="0.5"/><path d="M371.58703,174.40039c1.46469,0.87881 0.58587,2.3435 0.58587,2.3435l-0.58559,0.97543c-2.56915,4.02429 -4.77055,3.95319 -7.86967,0.39612c0,0 -1.11162,-1.29689 0.18527,-2.40851c1.29689,-1.11162 2.40851,0.18527 2.40851,0.18527c0.50723,0.60458 0.68514,1.66803 1.44699,1.87388c0.6687,0.18068 0.5724,-1.2653 0.93196,-1.85735l0.55315,-0.92247c0,0 0.87881,-1.46469 2.3435,-0.58587z" fill="#0a5400" stroke="none" stroke-width="0.5"/><path d="M395.25041,177.8c1.00747,1.37936 -0.3719,2.38682 -0.3719,2.38682l-0.91891,0.67081c-3.93225,2.70792 -5.9326,1.78607 -7.40392,-2.6964c0,0 -0.51956,-1.62717 1.1076,-2.14674c1.62716,-0.51958 2.14673,1.1076 2.14673,1.1076c0.23209,0.75427 -0.0177,1.80317 0.60408,2.28917c0.54574,0.42658 1.01952,-0.94297 1.58107,-1.34852l0.86841,-0.63463c0,0 1.37937,-1.00746 2.38683,0.3719z" fill="#0a5400" stroke="none" stroke-width="0.5"/><path d="M373.98003,179.77251c1.69933,-0.1729 1.87223,1.52643 1.87223,1.52643l0.11488,1.1319c0.35126,4.76152 -1.45465,6.02244 -6.06653,5.0285c0,0 -1.66681,-0.37336 -1.29346,-2.04016c0.37334,-1.6668 2.04015,-1.29344 2.04015,-1.29344c0.76823,0.18062 1.54737,0.92593 2.28086,0.63473c0.6438,-0.25558 -0.29899,-1.35618 -0.36541,-2.04567l-0.10915,-1.07003c0,0 -0.17291,-1.69935 1.52642,-1.87225z" fill="#0a5400" stroke="none" stroke-width="0.5"/><path d="M385.01441,183.54266l-0.10915,1.07002c-0.06642,0.68949 -1.0092,1.79009 -0.36541,2.04568c0.73348,0.2912 1.51264,-0.45413 2.28087,-0.63474c0,0 1.6668,-0.37336 2.04015,1.29344c0.37335,1.6668 -1.29347,2.04016 -1.29347,2.04016c-4.61188,0.99395 -6.41778,-0.26698 -6.06653,-5.0285l0.11489,-1.13189c0,0 0.17289,-1.69934 1.87223,-1.52643c1.69934,0.17291 1.52642,1.87225 1.52642,1.87225z" data-paper-data="{&quot;index&quot;:null}" fill="#0a5400" stroke="none" stroke-width="0.5"/><path d="M377.90123,181.04v-21.10458h4.25128v21.10458z" fill="#cbff00" stroke="#000000" stroke-width="0"/><path d="M386.63154,170.03222h-13.05752v-4.25129h13.05752z" fill="#cbff00" stroke="#000000" stroke-width="0"/></g><path d="M360.78312,168.00176c-0.3367,-0.36931 -0.3367,-0.89065 -0.3367,-0.89065l0.62983,-1.75197c2.88358,-1.58052 5.85625,-0.68918 8.997,-0.99195c4.22415,-0.40721 8.6064,-0.70665 12.79059,-1.32836c2.96405,-0.44041 4.42408,-1.42811 7.38248,-0.28528c5.53589,6.19592 9.22204,13.67049 11.55554,21.68838c0.64671,2.22209 1.9876,3.43639 3.02062,5.45986c1.19781,2.34624 1.29983,5.90139 1.27054,8.48629c0.82915,2.21105 1.31447,6.44449 -0.92937,8.1337c-0.48517,0.36525 -1.21467,0.06855 -1.81451,0.1633c-2.42885,0.38364 -4.67421,0.50937 -7.15273,0.50937c-4.24924,0 -8.71542,0.24453 -12.94559,-0.17172c-2.69039,-0.26473 -5.3348,-0.8316 -8.05441,-0.82828c-6.27776,0 -12.55558,0.00841 -18.83333,0c-1.97828,-0.00265 -6.06301,1.08989 -7.79787,-0.45443c-2.20107,-1.95932 0.39927,-6.63808 1.46678,-8.58344c0.89452,-3.62946 0.89164,-7.47943 1.9699,-11.08038c0.98291,-3.28249 2.68214,-6.48207 4.04559,-9.62415c0.42793,-0.98617 0.28059,-2.15133 0.66228,-3.1563c0.70913,-1.86714 2.30783,-3.75192 4.07335,-5.29398z" fill="#690000" stroke="none" stroke-width="0.5" stroke-linecap="butt"/><path d="M357.06626,206.14601c-1.21268,0.30317 -1.51585,-0.90951 -1.51585,-0.90951c-0.84742,-3.46613 -0.07704,-6.60287 1.02747,-9.90039c0.62279,-1.85935 0.32333,-3.49033 0.76865,-5.28998c0.50368,-2.03552 1.79399,-4.06369 2.42469,-6.08955c1.53823,-4.94097 1.31936,-9.52107 3.74574,-14.30744c1.47219,-1.76663 2.83594,-4.78949 4.9599,-5.9606c2.75914,-1.52134 8.18799,-3.46123 11.35439,-2.57611c6.62762,1.85264 10.89554,7.62112 15.14216,12.48485c1.82413,3.04227 3.58751,6.57317 4.40625,10.04886c0.68663,2.91486 0.68701,6.039 1.75184,8.84297c1.1717,3.08538 4.09431,7.05712 3.24816,10.53142c-0.71232,2.92479 -3.19257,3.47027 -5.73973,3.75673c-2.94571,-0.92481 -6.17498,-1.38577 -9.43977,-1.63229c-0.13246,1.03838 -1.23706,1.03838 -1.23706,1.03838h-1.4c-3.83636,0 -7.62074,-0.17286 -11.40636,-0.43178c-2.7539,0.34473 -5.71216,0.61561 -8.39364,0.63178c-2.48958,-0.00415 -4.90362,-0.4 -7.4,-0.4h-1.4c-0.13838,0 -0.27151,-0.02249 -0.39593,-0.064c-0.12821,0.09531 -0.29208,0.17448 -0.5009,0.22668z" fill="#820000" stroke="none" stroke-width="0.5" stroke-linecap="butt"/><path d="M386.10682,163.19347c1.28624,2.05105 -0.85749,3.28168 -0.85749,3.28168l-1.16821,0.66241c-1.73672,0.82971 -3.38823,1.42577 -5.00648,1.79084c1.53501,11.05678 0.8855,22.32077 3.52443,33.22849l0.33573,0.92957c0,0 0.79057,2.26917 -1.58114,3.02556c-2.37171,0.75639 -3.16228,-1.51278 -3.16228,-1.51278l-0.46427,-1.36666c-2.68065,-11.14557 -1.99694,-22.63337 -3.63808,-33.91082c-2.35842,-0.16348 -4.76136,-0.81976 -7.37358,-1.96048c0,0 -2.2699,-1.00236 -1.22225,-3.17411c1.04765,-2.17176 3.31754,-1.16941 3.31754,-1.16941c4.8597,2.17459 8.33466,2.09246 13.03432,-0.15899l0.83179,-0.48571c0,0 2.14373,-1.23063 3.42997,0.82042z" fill="#d8d8d8" stroke="none" stroke-width="0.5" stroke-linecap="butt"/><path d="M370.55323,166.71808c-10.79535,-3.95907 -0.13813,-23.43664 9.36207,-16.18308c1.99002,1.51941 2.88291,3.17402 4.16251,5.23273c0.04841,0.12036 1.34885,3.17654 1.33287,3.68794c-0.19139,6.12672 -8.67631,7.72767 -13.44758,7.72767h-0.4c0,0 -0.64679,0 -1.00987,-0.46526z" fill="#f4c4a2" stroke="none" stroke-width="0.5" stroke-linecap="butt"/><path d="M371.11309,157.33333c0,-0.69036 0.55964,-1.25 1.25,-1.25c0.69036,0 1.25,0.55964 1.25,1.25c0,0.69036 -0.55964,1.25 -1.25,1.25c-0.69036,0 -1.25,-0.55964 -1.25,-1.25z" fill="#000000" stroke="none" stroke-width="0.5" stroke-linecap="butt"/><path d="M378.31309,157.53334c0,-0.69036 0.55964,-1.25 1.25,-1.25c0.69036,0 1.25,0.55964 1.25,1.25c0,0.69036 -0.55964,1.25 -1.25,1.25c-0.69036,0 -1.25,-0.55964 -1.25,-1.25z" fill="#000000" stroke="none" stroke-width="0.5" stroke-linecap="butt"/><path d="M379.80053,163.11012c-0.17678,1.23744 -1.41421,1.06066 -1.41421,1.06066l-1.31183,-0.19058c-1.03713,0.00216 -2.07426,0.00314 -3.11139,0.00314c0,0 -1.25,0 -1.25,-1.25c0,-1.25 1.25,-1.25 1.25,-1.25c1.0962,0 2.19241,0.0011 3.28861,0.00314l1.48817,0.20942c0,0 1.23744,0.17678 1.06066,1.41421z" fill="#000000" stroke="none" stroke-width="0.5" stroke-linecap="butt"/><path d="M378.31309,162.33333c0,-0.04317 0.00219,-0.08583 0.00646,-0.12787c-1.74627,-0.48196 -5.20065,-1.52706 -5.7399,0.81506c-0.0755,0.32793 -0.00732,0.63916 0.13946,0.94041c0.20107,-0.2248 0.43391,-0.41227 0.70249,-0.55423c1.62509,-0.85894 3.51016,0.67073 5.08295,0.14938l0.129,-0.38699c-0.19923,-0.22144 -0.32046,-0.51444 -0.32046,-0.83576zM375.04151,176.13956c0.00177,0.83387 -0.17318,1.55248 -0.68627,1.95414c-0.16511,0.12925 -0.34488,0.22839 -0.53512,0.30603l0.03537,0.08254l-1.3746,0.58911c-0.15777,0.0719 -0.33311,0.11195 -0.5178,0.11195c-0.69036,0 -1.25,-0.55964 -1.25,-1.25c0,-0.11436 0.01536,-0.22513 0.04412,-0.33036l0.35034,-1.40135c-0.33727,-2.40982 -1.07933,-4.77314 -0.3376,-7.24099c0.13493,-0.44892 0.52573,-0.82204 0.81474,-1.21431c0.02069,-0.53617 0.07252,-1.06116 0.16566,-1.55397c-0.53166,-1.1581 -2.06817,-1.51744 -1.60382,-3.7462c0.943,-4.52617 6.3377,-3.18765 9.28772,-2.53304c0,0 1.21215,0.26937 0.95172,1.47928c0.23308,0.204 0.3897,0.49321 0.42124,0.81902c0.24945,0.22853 0.40587,0.55696 0.40587,0.92194v1.53092c0.20508,0.73113 0.30835,1.4558 0.14951,2.02075c-0.2488,0.88489 -1.44724,1.35668 -1.56893,2.2678c-0.2345,1.75576 1.55817,3.96235 1.80836,5.81461c0.10107,0.74824 0.55837,3.44991 -0.09462,3.98492c-0.78766,0.64535 -2.10056,0.85797 -3.02443,0.42978c-0.74664,-0.34604 -0.78252,-1.47137 -0.95781,-2.27541c-0.03944,-0.18089 -0.06511,-0.35548 -0.08046,-0.5254c-0.19605,0.12777 -0.43016,0.20202 -0.68162,0.20202c-0.0674,0 -0.13355,-0.00533 -0.19806,-0.0156l-1.37871,-0.19696l0.03689,-0.25825z" fill="#898989" stroke="none" stroke-width="0.5" stroke-linecap="butt"/><path d="M378.99495,153.53303c-0.1233,0.57519 -0.86309,0.47931 -0.86309,0.47931l-0.84203,-0.10923c-1.77537,-0.17421 -3.52983,-0.21605 -5.32038,-0.21605c0,0 -0.75,0 -0.75,-0.58311c0,-0.58311 0.75,-0.58311 0.75,-0.58311c1.86392,0 3.68836,0.05015 5.53675,0.22823l0.87226,0.11291c0,0 0.73979,0.09587 0.61649,0.67105z" fill="#9c7d67" stroke="none" stroke-width="0.5" stroke-linecap="butt"/><path d="M381.81309,155.13333c0,1.25 -1.25,1.25 -1.25,1.25h-0.6c-0.8093,-0.00933 -1.64086,0.06831 -2.40472,0.33585c0,0 -0.8289,0.2763 -1.33169,-0.32611c-0.5739,0.98264 -1.62261,0.45829 -1.62261,0.45829l-0.46116,-0.23273c-1.37594,-0.84655 -2.18518,-0.6353 -3.77983,-0.6353c0,0 -1.25,0 -1.25,-1.25c0,-1.25 1.25,-1.25 1.25,-1.25c2.06366,0 3.16375,-0.04343 5.02017,0.9647l0.33884,0.16727c0,0 0.17441,0.0872 0.35101,0.26161c0.25462,-0.38274 0.69469,-0.52943 0.69469,-0.52943c1.02473,-0.32908 2.11905,-0.4545 3.19528,-0.46415h0.6c0,0 1.25,0 1.25,1.25z" fill="#898989" stroke="none" stroke-width="0.5" stroke-linecap="butt"/><path d="M367.63496,162.57646c-0.64312,1.07187 -1.71499,0.42875 -1.71499,0.42875l-1.60688,-1.67187c0.07615,-1.24548 0.73769,-2.50873 1.64977,-3.36028c0,0 0.96028,-0.80023 1.76051,0.16005c0.80023,0.96028 -0.16005,1.76051 -0.16005,1.76051c-0.4524,0.29696 -0.82299,0.90348 -0.75023,1.43972l0.39312,-0.47187c0,0 1.07187,0.64312 0.42875,1.71499z" fill="#f4c4a2" stroke="none" stroke-width="0.5" stroke-linecap="butt"/><path d="M383.12565,160.51011c-0.17678,-1.23744 1.06066,-1.41421 1.06066,-1.41421l1.08044,-0.1098c0.75762,-0.01729 -0.22872,0.01723 -0.80684,-0.04008c0,0 -1.21268,-0.30317 -0.90951,-1.51585c0.30317,-1.21268 1.51585,-0.90951 1.51585,-0.90951c3.15792,1.02342 3.67365,2.43864 1.19316,4.75992l-1.71956,0.2902c0,0 -1.23744,0.17678 -1.41421,-1.06066z" fill="#f4c4a2" stroke="none" stroke-width="0.5" stroke-linecap="butt"/><path d="M400.16309,205.73334v-44.2h3.8v44.2z" fill="#796925" stroke="none" stroke-width="0" stroke-linecap="butt"/><path d="M397.96309,164.73334v-11.8h9v11.8z" fill="#796925" stroke="#000000" stroke-width="0" stroke-linecap="butt"/><path d="M396.16309,163.33333v-8.6h12.2v8.6z" fill="#796925" stroke="none" stroke-width="0" stroke-linecap="butt"/><path d="M399.16309,150.63333c0,-2.04345 1.65655,-3.7 3.7,-3.7c2.04345,0 3.7,1.65655 3.7,3.7c0,2.04345 -1.65655,3.7 -3.7,3.7c-2.04345,0 -3.7,-1.65655 -3.7,-3.7z" fill="#796925" stroke="#000000" stroke-width="0" stroke-linecap="butt"/><path d="M403.96309,158.63333c0,3.25848 -0.67157,5.9 -1.5,5.9c-0.82843,0 -1.5,-2.64152 -1.5,-5.9c0,-3.25848 0.67157,-5.9 1.5,-5.9c0.82843,0 1.5,2.64152 1.5,5.9z" fill="#259bad" stroke="none" stroke-width="0" stroke-linecap="butt"/><path d="M399.76309,159.13333c0,1.98823 -0.40294,3.6 -0.9,3.6c-0.49706,0 -0.9,-1.61177 -0.9,-3.6c0,-1.98823 0.40294,-3.6 0.9,-3.6c0.49706,0 0.9,1.61177 0.9,3.6z" fill="#259bad" stroke="none" stroke-width="0" stroke-linecap="butt"/><path d="M406.56309,158.73334c0,1.98823 -0.40294,3.6 -0.9,3.6c-0.49705,0 -0.9,-1.61177 -0.9,-3.6c0,-1.98822 0.40294,-3.6 0.9,-3.6c0.49705,0 0.9,1.61177 0.9,3.6z" fill="#259bad" stroke="none" stroke-width="0" stroke-linecap="butt"/><text transform="translate(363.99124,216.78368) scale(0.26141,0.26141)" font-size="40" xml:space="preserve" fill="#000000" fill-rule="nonzero" stroke="none" stroke-width="1" stroke-linecap="butt" stroke-linejoin="miter" stroke-miterlimit="10" stroke-dasharray="" stroke-dashoffset="0" font-family="Serif" font-weight="normal" text-anchor="start" style="mix-blend-mode: normal"><tspan x="0" dy="0">Edward</tspan></text><path d="M414.16667,220.66672h-69" fill="none" stroke="#000000" stroke-width="2" stroke-linecap="round"/><path d="M379.86404,241.16672v-20" fill="none" stroke="#000000" stroke-width="2" stroke-linecap="round"/><text transform="translate(363.70833,235.2834) scale(0.335,0.335)" font-size="40" xml:space="preserve" fill="#000000" fill-rule="nonzero" stroke="none" stroke-width="1" stroke-linecap="butt" stroke-linejoin="miter" stroke-miterlimit="10" stroke-dasharray="" stroke-dashoffset="0" font-family="Serif" font-weight="normal" text-anchor="start" style="mix-blend-mode: normal"><tspan x="0" dy="0">30</tspan></text><path d="M383.45796,236.51927l3.27037,-3.27037l1.76777,1.76777l-3.27037,3.27037z" fill="#ff0000" stroke="#000000" stroke-width="0" stroke-linecap="butt"/><path d="M384.34184,232.27663l1.5026,-1.5026l5.21491,5.21491l-1.5026,1.5026z" fill="#ff0000" stroke="none" stroke-width="0" stroke-linecap="butt"/><path d="M385.49089,233.07213l8.22012,-8.22012l3.35876,-0.17678l-0.35355,3.18198l-8.22012,8.22012z" fill="#ff0000" stroke="none" stroke-width="0" stroke-linecap="butt"/><text transform="translate(398.95834,235.5334) scale(0.335,0.335)" font-size="40" xml:space="preserve" fill="#000000" fill-rule="nonzero" stroke="none" stroke-width="1" stroke-linecap="butt" stroke-linejoin="miter" stroke-miterlimit="10" stroke-dasharray="" stroke-dashoffset="0" font-family="Serif" font-weight="normal" text-anchor="start" style="mix-blend-mode: normal"><tspan x="0" dy="0">20</tspan></text><path d="M377.86309,188.02779c-0.75,0 -0.75,-0.75 -0.75,-0.75l0.02886,-0.46063c-0.55555,-1.98574 0.02967,-4.04218 -0.80155,-5.9106c0,0 -0.29544,-0.68936 0.39392,-0.9848c0.68936,-0.29544 0.9848,0.39392 0.9848,0.39392c0.84417,2.02992 0.25783,4.01528 0.86512,6.0894l0.02886,0.87271c0,0 0,0.75 -0.75,0.75z" fill="#393838" stroke="none" stroke-width="0.5" stroke-linecap="butt"/><path d="M380.02976,196.02779c-0.75,0 -0.75,-0.75 -0.75,-0.75v-0.5c0.00614,-1.27726 -0.16667,-2.54028 -0.16667,-3.83333c0,0 0,-0.75 0.75,-0.75c0.75,0 0.75,0.75 0.75,0.75c0,1.29718 0.1615,2.54884 0.16667,3.83333v0.5c0,0 0,0.75 -0.75,0.75z" fill="#393838" stroke="none" stroke-width="0.5" stroke-linecap="butt"/><path d="M379.61245,201.56849c-0.62404,0.41603 -1.04006,-0.20801 -1.04006,-0.20801l-0.4593,-0.91603c0.00425,-1.28347 -0.14197,-2.62236 -0.3258,-3.89393c0,0 -0.10607,-0.74246 0.6364,-0.84853c0.74246,-0.10607 0.84853,0.6364 0.84853,0.6364c0.19026,1.34658 0.33699,2.74713 0.34087,4.10607l0.20737,0.08397c0,0 0.41603,0.62404 -0.20801,1.04006z" fill="#393838" stroke="none" stroke-width="0.5" stroke-linecap="butt"/><path d="M344.90695,205.73333v-28.46667h70.2v28.46667z" fill="url(#color-1)" stroke="#000000" stroke-width="0" stroke-linecap="butt"/><path d="M386.72675,164.24746c0.53033,0.53033 0,1.06066 0,1.06066l-0.58033,0.56967c-0.80958,0.59991 -1.70273,0.89308 -2.5,1.5c0,0 -0.6,0.45 -1.05,-0.15c-0.45,-0.6 0.15,-1.05 0.15,-1.05c0.80958,-0.59991 1.70273,-0.89308 2.5,-1.5l0.41967,-0.43033c0,0 0.53033,-0.53033 1.06066,0z" fill="#393838" stroke="none" stroke-width="0.5" stroke-linecap="butt"/><path d="M366.83276,165.24746c0.53033,-0.53033 1.06066,0 1.06066,0l0.59371,0.6143c0.36553,0.55216 0.76942,1.08609 1.23963,1.55236c0,0 0.53033,0.53033 0,1.06066c-0.53033,0.53033 -1.06066,0 -1.06066,0c-0.53598,-0.53984 -1.00326,-1.14922 -1.42704,-1.78097l-0.40629,-0.3857c0,0 -0.53033,-0.53033 0,-1.06066z" fill="#393838" stroke="none" stroke-width="0.5" stroke-linecap="butt"/><path d="M361.84083,165.52033c-0.14659,0.11621 -0.57733,0.38517 -1.00807,-0.04557c-0.53033,-0.53033 0,-1.06066 0,-1.06066l0.697,-0.38634c1.24195,0.00411 2.42175,-0.32978 3.66667,-0.33333c0,0 0.75,0 0.75,0.75c0,0.75 -0.75,0.75 -0.75,0.75c-1.13808,-0.00377 -2.22396,0.27629 -3.3556,0.3259z" fill="#ffb600" stroke="none" stroke-width="0.5" stroke-linecap="butt"/><path d="M380.70924,151.39017c-0.1233,0.57519 -0.86309,0.47931 -0.86309,0.47931l-0.84203,-0.10923c-1.77537,-0.17421 -3.52983,-0.21605 -5.32038,-0.21605c0,0 -0.75,0 -0.75,-0.58311c0,-0.58311 0.75,-0.58311 0.75,-0.58311c1.86392,0 3.68836,0.05015 5.53675,0.22823l0.87226,0.11291c0,0 0.73979,0.09587 0.61649,0.67105z" fill="#9c7d67" stroke="none" stroke-width="0.5" stroke-linecap="butt"/><path d="M390.77976,162.44444c0,0.75 -0.75,0.75 -0.75,0.75c-1,0 -2.5,0 -3.5,0c0,0 -0.75,0 -0.75,-0.75c0,-0.75 0.75,-0.75 0.75,-0.75c1,0 2,0 3,0h0.5c0,0 0.75,0 0.75,0.75z" fill="#ffb600" stroke="none" stroke-width="0.5" stroke-linecap="butt"/><g fill="#ae00ff" stroke="#000000" stroke-width="0" stroke-linecap="butt"><path d="M352.36137,238.33678v-14.60345h3.41379v14.60345z"/><path d="M359.66309,230.65575h-11v-3.60345h11z"/></g><path d="M374.36309,145.48334c0.1603,0 0.31356,0.03018 0.4544,0.08516l0.94079,0.3421c0.78547,-0.15787 1.56809,-0.18216 2.32565,0.01462c1.24245,0.32273 3.63868,1.55075 4.79124,2.06782c0.5249,0.23549 1.5396,0.6933 2.37975,1.28616c0.10159,0.00369 0.2043,0.00511 0.30818,0.00414h2v0c0.69036,0 1.25,0.55964 1.25,1.25c0,0.65941 -0.51059,1.19956 -1.15798,1.24666l-1.17815,0.09818c-0.44859,1.50188 -1.65859,1.73267 -2.95692,1.45091c0.18287,0.21737 0.29304,0.49794 0.29304,0.80424c0,0.69036 -0.55964,1.25 -1.25,1.25c-0.18469,0 -0.36003,-0.04006 -0.5178,-0.11195l-1.3746,-0.58911l0.07531,-0.17573l-0.41489,-0.04029c-0.09869,-0.16305 -0.23391,-0.38294 -0.39649,-0.63598c-1.30728,-0.32725 -2.66329,-1.94764 -3.78867,-3.38638c-0.19571,-0.01011 -0.37528,-0.00532 -0.54443,0.00634c-0.14532,0.5341 -0.67942,0.80115 -0.67942,0.80115c-0.25672,0.12652 -0.50222,0.26508 -0.73907,0.413c-1.23084,1.10715 -2.60871,2.32596 -4.02045,3.21576c-0.07418,0.17915 -0.17505,0.3423 -0.31836,0.48061c-0.01913,0.01846 -0.03841,0.03672 -0.05786,0.05478l0.01678,0.01119l-0.78925,1.18387c-0.22257,0.34463 -0.61005,0.57276 -1.05082,0.57276c-0.60031,0 -1.10178,-0.42317 -1.22239,-0.98747l-1.40301,0.17538c-0.05706,0.00797 -0.11535,0.0121 -0.1746,0.0121c-0.69036,0 -1.25,-0.55964 -1.25,-1.25c0,-0.42991 0.21703,-0.80913 0.5475,-1.03407l1.98567,-1.38997l0.00215,0.00308l0.00953,-0.01115c0.21874,-0.14441 0.42727,-0.30425 0.62851,-0.47301c-0.03344,-0.03502 -0.06662,-0.07296 -0.09945,-0.114c-0.78087,-0.97609 0.19522,-1.75695 0.19522,-1.75695l0.94722,-0.75532c0.13347,-0.12841 0.26621,-0.25176 0.39861,-0.36965c0.1249,-0.18404 0.29759,-0.33301 0.50025,-0.42908l0.03483,-0.01742c0.59267,-0.45935 1.18914,-0.79844 1.82473,-0.98194c0.41339,-0.32379 1.082,-0.5662 1.76954,-1.01364l0.22581,0.02361l-0.02329,-0.09315l0.25547,-0.06387c0.03955,-0.65471 0.58304,-1.17345 1.24769,-1.17345z" fill="#898989" stroke="none" stroke-width="0.5" stroke-linecap="butt"/><path d="M373.00623,166.52837l0.044,0.30799c2.02575,-0.24127 3.97862,0.66916 6.14055,1.14645l0.04798,0.04327l0.00921,-0.02304l0.69807,0.27923c0.0313,0.01169 0.0616,0.0254 0.09076,0.04099c-0.0906,-0.97539 -0.41757,-2.31783 -0.52145,-2.92913c0,0 -0.1233,-0.7398 0.6165,-0.86309c0.7398,-0.1233 0.86309,0.6165 0.86309,0.6165c0.15909,0.97098 0.77848,3.90096 0.36475,4.73391c-1.06607,2.14632 -4.32622,0.83901 -6.68566,-0.36044c-0.75366,-0.19107 -1.52283,-0.47016 -2.38317,-0.80528v0.69797c0,0.41421 -0.33579,0.75 -0.75,0.75c-0.27798,0 -0.52064,-0.15124 -0.65019,-0.37592l-0.41767,-0.69612c-0.99915,-1.59505 -0.68213,-3.39752 -0.68213,-5.24939c0,0 0,-0.75 0.75,-0.75c0.75,0 0.75,0.75 0.75,0.75c0,0.40562 -0.03182,0.84701 -0.05771,1.29791c0.21605,0.07194 0.48628,0.2519 0.48628,0.70209c0,0.00444 -0.00003,0.00884 -0.00008,0.01323c0.2464,0.28543 0.42913,0.53845 0.55754,0.77707z" fill="#898989" stroke="none" stroke-width="0.5" stroke-linecap="butt"/><path d="M372.59057,170.7988c-0.67082,0.33541 -1.00623,-0.33541 -1.00623,-0.33541l-0.2145,-0.51506c-0.17813,-1.26289 -0.42362,-2.55967 -0.43611,-3.82035c0,0 0,-0.75 0.75,-0.75c0.75,0 0.75,0.75 0.75,0.75c-0.01531,1.16525 0.25099,2.43448 0.42103,3.60822l0.07122,0.05637c0,0 0.33541,0.67082 -0.33541,1.00623z" fill="#545454" stroke="none" stroke-width="0.5" stroke-linecap="butt"/><path d="M376.54087,171.02083c-0.75,0 -0.75,-0.75 -0.75,-0.75v-0.14286c0,-1.41775 0.01794,-2.79614 0.14594,-4.21076c0,0 0.0679,-0.74692 0.81482,-0.67902c0.74692,0.0679 0.67902,0.81482 0.67902,0.81482c-0.12509,1.36931 -0.13978,2.70239 -0.13978,4.07496v0.14286c0,0 0,0.75 -0.75,0.75z" fill="#545454" stroke="none" stroke-width="0.5" stroke-linecap="butt"/><path d="M379.91974,177.65594c-0.67082,-0.33541 -0.33541,-1.00623 -0.33541,-1.00623l0.28571,0.09939c-0.81921,-1.67988 -0.93632,-3.48606 -0.93632,-5.33541c0,0 0,-0.75 0.75,-0.75c0.75,0 0.75,0.75 0.75,0.75c0,1.58771 0.03921,3.23369 0.77796,4.66459l-0.28571,1.24225c0,0 -0.33541,0.67082 -1.00623,0.33541z" fill="#545454" stroke="none" stroke-width="0.5" stroke-linecap="butt"/><path d="M373.39801,175.73512c-0.75,0 -0.75,-0.75 -0.75,-0.75l0.03849,-0.8086c0.31786,-0.93297 0.84142,-1.6416 1.14286,-2.57143c0,0 0.23717,-0.71151 0.94868,-0.47434c0.71151,0.23717 0.47434,0.94868 0.47434,0.94868c-0.31786,0.93297 -0.84142,1.6416 -1.14286,2.57143l0.03849,0.33426c0,0 0,0.75 -0.75,0.75z" fill="#545454" stroke="none" stroke-width="0.5" stroke-linecap="butt"/><path d="M376.28193,149.88462c-1.23265,0.10479 -2.46715,0.27351 -3.28303,0.40187c-0.15003,0.0236 -0.86376,0.3705 -1.6267,0.75547c0.12671,0.1343 0.20439,0.31538 0.20439,0.5146c0,0.18443 -0.06657,0.3533 -0.17699,0.48392l-0.68411,0.82093c-0.33563,0.54211 -0.78423,1.0198 -1.27752,1.42365c0,0 -0.58565,0.46852 -1.05417,-0.11713c-0.32604,-0.40755 -0.14158,-0.75838 0.00076,-0.93407c-0.16113,-0.24699 -0.27385,-0.59424 -0.30235,-1.05467c-0.05685,-0.9185 3.7529,-3.18953 4.57207,-3.35259c1.57639,-0.31378 5.54243,-0.75488 7.16936,-0.43547c1.91083,0.37515 2.86347,1.49462 2.49781,2.33574c0.51612,-0.00855 1.02299,-0.06222 1.52705,-0.1244c0.0834,-0.0301 0.16639,-0.05201 0.24674,-0.06439c0.09945,-0.01533 0.19694,-0.01559 0.29287,-0.00387c0.65198,-0.08246 1.30315,-0.15724 1.96758,-0.1446c0.09048,-0.04859 0.18045,-0.09144 0.26881,-0.12675l0.05923,0.12183v-0.29243h1c0.41421,0 0.75,0.33579 0.75,0.75c0,0.37645 -0.27735,0.68812 -0.63886,0.74182l-0.78411,0.13068c-0.55083,0.23348 -1.80661,1.32448 -2.36324,1.31002c-0.9293,0.72559 -2.5309,1.50947 -3.4855,0.49915c-0.29397,-0.31113 -0.07354,-0.87344 -0.20789,-1.27577c-0.17732,-0.07925 -0.35205,-0.16574 -0.52427,-0.25921c-0.67865,-0.07576 -1.89012,-0.09489 -2.07679,-0.25384h-0.81221c-0.41421,0 -0.75,-0.33579 -0.75,-0.75c0,-0.22151 0.09602,-0.42058 0.24872,-0.55788l-0.40556,-0.19987c0,0 -0.2285,-0.11425 -0.3521,-0.34275z" fill="#545454" stroke="none" stroke-width="0.5" stroke-linecap="butt"/><path d="M381.0626,154.51308c-0.67082,-0.33541 -0.33541,-1.00623 -0.33541,-1.00623l0.34516,-0.53596c0.65048,-0.51326 2.08713,-1.41012 3.2808,-1.90698c-0.15977,-0.01511 -0.30886,-0.03383 -0.43031,-0.04453c-2.16342,-0.19062 -4.09343,-1.40914 -6.44383,-1.57253c-2.27745,-0.15832 -4.5594,0.06408 -6.79519,0.27463c0.20087,0.15276 0.39514,0.39906 0.57634,0.76551c0.22464,0.4543 -0.43155,0.91808 -0.67886,1.36044c-1.08183,1.93505 -2.59193,2.87222 -4.33869,4.04744c0,0 -0.62404,0.41603 -1.04006,-0.20801c-0.41603,-0.62404 0.20801,-1.04006 0.20801,-1.04006c1.06527,-0.70459 1.77088,-1.37583 2.49049,-2.12943l-0.54113,0.06764c-0.03423,0.00478 -0.06921,0.00726 -0.10476,0.00726c-0.41421,0 -0.75,-0.33579 -0.75,-0.75c0,-0.22957 0.10314,-0.43504 0.26561,-0.57262l0.96442,-0.82665c0.50172,-0.68897 1.05782,-1.35394 1.64111,-1.77195c0.96783,-0.69359 1.10944,-0.29124 2.2158,-0.43032c4.10107,-0.51551 7.79257,-0.3052 11.52625,1.19631c1.60206,0.64427 2.35515,-0.13738 4.01436,0.9687c-1.51684,2.28182 -3.20073,2.17181 -5.1233,3.73645l0.05944,0.03547c0,0 -0.33541,0.67082 -1.00623,0.33541z" fill="#797979" stroke="none" stroke-width="0.5" stroke-linecap="butt"/><path d="M370.16309,149.53334l-3.6,-7.8c0,0 4.50143,3.98485 5.43803,3.83001c1.57936,-0.2611 3.16388,-5.25207 3.16388,-5.25207c0,0 1.67251,4.5586 3.26682,4.86864c1.83717,0.35726 7.13127,-2.84658 7.13127,-2.84658l-2.8,7.2z" fill="#ffaa00" stroke="#000000" stroke-width="0" stroke-linecap="butt"/><path d="M374.72967,159.60211c0,-0.5 0.5,-0.5 0.5,-0.5l0.00855,0.02566c0.33935,-0.10912 2.67254,-0.59539 1.07591,-0.69913c0,0 -0.4932,-0.0822 -0.411,-0.5754c0.0822,-0.4932 0.5754,-0.411 0.5754,-0.411c2.99062,0.64767 0.40563,2.16952 -0.92409,2.63421l-0.32478,0.02566c0,0 -0.5,0 -0.5,-0.5z" fill="#000000" stroke="none" stroke-width="0.5" stroke-linecap="butt"/><g fill="none" stroke="#000000" stroke-width="2"><path d="M345,241.70571v-106.16129h70v106.16129z" stroke-linecap="butt"/><path d="M413.66666,206.08274h-68.33333" stroke-linecap="round"/></g></g></g></svg>