<svg version="1.1" xmlns="http://www.w3.org/2000/svg" xmlns:xlink="http://www.w3.org/1999/xlink" width="60.16666" height="62.16667" viewBox="0,0,60.16666,62.16667"><defs><radialGradient cx="353.66473" cy="153.02781" r="28.33334" gradientUnits="userSpaceOnUse" id="color-1"><stop offset="0" stop-color="#38325c"/><stop offset="1" stop-color="#4f4870"/></radialGradient><radialGradient cx="392.40106" cy="177.84936" r="13.80877" gradientUnits="userSpaceOnUse" id="color-2"><stop offset="0" stop-color="#395b31"/><stop offset="1" stop-color="#506f47"/></radialGradient><radialGradient cx="387.2582" cy="178.4191" r="11" gradientUnits="userSpaceOnUse" id="color-3"><stop offset="0" stop-color="#395b31"/><stop offset="1" stop-color="#506f47"/></radialGradient><radialGradient cx="377.0586" cy="180.21674" r="17.66667" gradientUnits="userSpaceOnUse" id="color-4"><stop offset="0" stop-color="#395b31"/><stop offset="1" stop-color="#506f47"/></radialGradient><radialGradient cx="392.54391" cy="178.27458" r="13.80878" gradientUnits="userSpaceOnUse" id="color-5"><stop offset="0" stop-color="#395b31"/><stop offset="1" stop-color="#506f47"/></radialGradient><radialGradient cx="381.28598" cy="180.92508" r="2.79167" gradientUnits="userSpaceOnUse" id="color-6"><stop offset="0" stop-color="#395b31"/><stop offset="1" stop-color="#506f47"/></radialGradient><radialGradient cx="381.36931" cy="187.42508" r="2.79166" gradientUnits="userSpaceOnUse" id="color-7"><stop offset="0" stop-color="#395b31"/><stop offset="1" stop-color="#506f47"/></radialGradient><radialGradient cx="381.36931" cy="193.92508" r="2.79167" gradientUnits="userSpaceOnUse" id="color-8"><stop offset="0" stop-color="#395b31"/><stop offset="1" stop-color="#506f47"/></radialGradient><radialGradient cx="363.3086" cy="180.21673" r="17.66667" gradientUnits="userSpaceOnUse" id="color-9"><stop offset="0" stop-color="#395b31"/><stop offset="1" stop-color="#506f47"/></radialGradient><radialGradient cx="365.75027" cy="167.75838" r="3.33333" gradientUnits="userSpaceOnUse" id="color-10"><stop offset="0" stop-color="#395b31"/><stop offset="1" stop-color="#506f47"/></radialGradient></defs><g transform="translate(-349.91667,-148.91671)"><g data-paper-data="{&quot;isPaintingLayer&quot;:true}" fill-rule="nonzero" stroke-linecap="butt" stroke-linejoin="miter" stroke-miterlimit="10" stroke-dasharray="" stroke-dashoffset="0" style="mix-blend-mode: normal"><path d="M352.66667,208.33339v-56.66667h54.66666v56.66667z" fill="#3b3b3b" stroke="url(#color-1)" stroke-width="5.5"/><g stroke-width="0"><g><path d="M362.53141,197.77503v-35.2h13.725v35.2z" fill="#9c7d6e" stroke="#395b31"/><path d="M386.11535,160.27624l12.57142,6.43195v22.28234l-12.57142,-10.00338z" data-paper-data="{&quot;index&quot;:null}" fill="#481717" stroke="url(#color-2)"/><path d="M376.2582,162.56192l10.29254,0.07395l11.70746,5.0689v21.42857l-11.91837,8.7775l-10.08163,-0.06322z" fill="#9c7d6e" stroke="url(#color-3)"/><path d="M376.1836,162.57781h1.75v35.27777h-1.75z" fill="#6c615b" stroke="url(#color-4)"/><path d="M386.2582,177.13678l12.57142,-10.00338v22.28234l-12.57142,11.00337z" fill="#481717" stroke="url(#color-5)"/><path d="M379.53598,178.13338h3.5v5.58333h-3.5z" fill="#453831" stroke="url(#color-6)"/><path d="M379.61931,184.63338h3.5v5.58334h-3.5z" fill="#453831" stroke="url(#color-7)"/><path d="M379.61931,191.13338h3.5v5.58334h-3.5z" fill="#453831" stroke="url(#color-8)"/><path d="M369.53039,187.65003v-3.625h5v3.625z" fill="#453831" stroke="#395b31"/><path d="M369.40539,195.40003v-3.625h5v3.625z" fill="#453831" stroke="#395b31"/><path d="M368.54289,198.33651v-12.7h1.4v12.7z" fill="#969392" stroke="#395b31"/><path d="M366.94289,188.23651v-0.9h2.9v0.9z" fill="#969392" stroke="none"/><path d="M367.14289,191.83651v-1.2h1.6v1.2z" fill="#969392" stroke="none"/><path d="M366.94289,196.33651v-1.1h2.1v1.1z" fill="#969392" stroke="none"/><path d="M362.4336,162.57781h1.75v35.27777h-1.75z" fill="#6c615b" stroke="url(#color-9)"/><path d="M362.34289,198.23651v-16l1.99403,0.01217l-0.07694,1.566l1.65896,0.1011l0.06561,1.35549l1.65834,0.16524v1.1v11.7z" fill="#969392" stroke="#395b31"/><path d="M362.41694,165.67502h6.66667v4.16667h-6.66667z" fill="#453831" stroke="url(#color-10)"/></g><path d="M382.45539,168.10003c0,-1.31168 1.2592,-2.375 2.8125,-2.375c1.5533,0 2.8125,1.06332 2.8125,2.375c0,1.31168 -1.2592,2.375 -2.8125,2.375c-1.5533,0 -2.8125,-1.06332 -2.8125,-2.375z" fill="#453831" stroke="#395b31"/></g><path d="M393.62514,152.02928c0,0 2.5278,1.42085 3.65838,2.13852c0.97697,0.62016 2.73179,1.91788 2.73179,1.91788c0,0 3.52541,0.07703 4.57511,0.09996c0.19933,0.00435 0.41937,-0.7259 0.61902,-0.72154c0.35209,0.0077 0.6408,0.74906 0.6408,0.74906l0.00852,3.60865c0,0 -0.37251,0.74322 -0.79405,0.75244c-0.18055,0.00396 -0.37011,-0.72696 -0.54324,-0.72317c-1.06096,0.02324 -4.51589,0.09887 -4.51589,0.09887c0,0 -1.97548,1.90235 -3.00119,2.65155c-1.07894,0.78807 -3.32081,1.96618 -3.32081,1.96618c0,0 -1.14783,0.07654 -1.41073,-1.72265c-0.38297,-2.62094 0.0721,-7.57276 0.06609,-8.86113c-0.00928,-1.99069 1.28619,-1.95463 1.28619,-1.95463z" fill="#00d0ff" stroke="#000000" stroke-width="0"/><text transform="translate(395.77542,164.66422) rotate(90) scale(0.21261,0.21261)" font-size="40" xml:space="preserve" fill="#ffffff" fill-rule="nonzero" stroke="none" stroke-width="1" stroke-linecap="butt" stroke-linejoin="miter" stroke-miterlimit="10" stroke-dasharray="" stroke-dashoffset="0" font-family="Pixel" font-weight="normal" text-anchor="start" style="mix-blend-mode: normal"><tspan x="0" dy="0">250</tspan></text><path d="M357.63807,194.80251h12.13605v2.22209h-12.13605z" fill="#ffffff" stroke="none" stroke-width="0"/><path d="M369.60318,193.52424h1.7093v11.11786h-1.7093z" fill="#ffffff" stroke="none" stroke-width="5.5"/><path d="M356.78341,193.52424h1.7093v11.11786h-1.7093z" fill="#ffffff" stroke="none" stroke-width="5.5"/><path d="M357.72735,197.96323h12.13605v2.22209h-12.13605z" fill="#ffffff" stroke="none" stroke-width="0"/><path d="M358.01307,201.24894h12.13605v2.22209h-12.13605z" fill="#ffffff" stroke="none" stroke-width="0"/></g></g></svg>