<svg version="1.1" xmlns="http://www.w3.org/2000/svg" xmlns:xlink="http://www.w3.org/1999/xlink" width="60.41667" height="62.16667" viewBox="0,0,60.41667,62.16667"><defs><linearGradient x1="352.54168" y1="180.00001" x2="407.45835" y2="180.00001" gradientUnits="userSpaceOnUse" id="color-1"><stop offset="0" stop-color="#1dc239"/><stop offset="1" stop-color="#1c6d10"/></linearGradient><radialGradient cx="407.05943" cy="152.16" r="28.33334" gradientUnits="userSpaceOnUse" id="color-2"><stop offset="0" stop-color="#9e5f20"/><stop offset="1" stop-color="#c29033"/></radialGradient></defs><g transform="translate(-349.79168,-148.91667)"><g data-paper-data="{&quot;isPaintingLayer&quot;:true}" fill-rule="nonzero" stroke-linecap="butt" stroke-linejoin="miter" stroke-miterlimit="10" stroke-dasharray="" stroke-dashoffset="0" style="mix-blend-mode: normal"><path d="M352.54168,208.33334v-56.66667h54.91667v56.66667z" fill="url(#color-1)" stroke="url(#color-2)" stroke-width="5.5"/><g stroke-width="0"><path d="M364.6823,159.34237l33.08366,33.08366l-3.71032,3.71032l-33.08366,-33.08366z" fill="#373737" stroke="#848484"/><path d="M400.2395,168.30896c0,0 -1.6646,17.74264 -6.80225,22.88029c-5.54929,5.54929 -24.42625,10.82176 -24.42625,10.82176c0,0 14.2336,-9.62411 19.72031,-15.5454c4.84199,-5.22552 11.50819,-18.15664 11.50819,-18.15664z" fill="#00f5ff" stroke="none"/></g><path d="M393.25015,153.52928c0,0 2.5278,1.42085 3.65838,2.13852c0.97697,0.62016 2.73179,1.91788 2.73179,1.91788c0,0 3.52541,0.07703 4.57511,0.09996c0.19933,0.00435 0.41937,-0.7259 0.61902,-0.72154c0.35209,0.0077 0.6408,0.74906 0.6408,0.74906l0.00852,3.60865c0,0 -0.37251,0.74322 -0.79405,0.75244c-0.18055,0.00396 -0.37011,-0.72696 -0.54324,-0.72317c-1.06096,0.02324 -4.51589,0.09887 -4.51589,0.09887c0,0 -1.97548,1.90235 -3.00119,2.65155c-1.07894,0.78807 -3.32081,1.96618 -3.32081,1.96618c0,0 -1.14783,0.07654 -1.41073,-1.72265c-0.38297,-2.62094 0.0721,-7.57276 0.06609,-8.86113c-0.00928,-1.99069 1.28619,-1.95463 1.28619,-1.95463z" fill="#00d0ff" stroke="#000000" stroke-width="0"/><text transform="translate(395.40042,166.16421) rotate(90) scale(0.21261,0.21261)" font-size="40" xml:space="preserve" fill="#ffffff" fill-rule="nonzero" stroke="none" stroke-width="1" stroke-linecap="butt" stroke-linejoin="miter" stroke-miterlimit="10" stroke-dasharray="" stroke-dashoffset="0" font-family="Pixel" font-weight="normal" text-anchor="start" style="mix-blend-mode: normal"><tspan x="0" dy="0">450</tspan></text><g fill="#ffffff" stroke="none"><path d="M357.63808,194.8025h12.13605v2.22209h-12.13605z" stroke-width="0"/><path d="M369.60319,193.52424h1.7093v11.11786h-1.7093z" stroke-width="5.5"/><path d="M356.78341,193.52424h1.7093v11.11786h-1.7093z" stroke-width="5.5"/><path d="M357.72736,197.96322h12.13605v2.22209h-12.13605z" stroke-width="0"/><path d="M358.01308,201.24893h12.13605v2.22209h-12.13605z" stroke-width="0"/></g></g></g></svg>