<svg version="1.1" xmlns="http://www.w3.org/2000/svg" xmlns:xlink="http://www.w3.org/1999/xlink" width="60.41667" height="62.16667" viewBox="0,0,60.41667,62.16667"><defs><linearGradient x1="352.5417" y1="180.00004" x2="407.45837" y2="180.00004" gradientUnits="userSpaceOnUse" id="color-1"><stop offset="0" stop-color="#009fff"/><stop offset="1" stop-color="#7580b3"/></linearGradient><radialGradient cx="403.72308" cy="206.27781" r="28.33334" gradientUnits="userSpaceOnUse" id="color-2"><stop offset="0" stop-color="#39325c"/><stop offset="1" stop-color="#4f4870"/></radialGradient><radialGradient cx="368.85092" cy="171.11036" r="9.83333" gradientUnits="userSpaceOnUse" id="color-3"><stop offset="0" stop-color="#395b31"/><stop offset="1" stop-color="#506f47"/></radialGradient><radialGradient cx="389.88403" cy="170.18356" r="9.80085" gradientUnits="userSpaceOnUse" id="color-4"><stop offset="0" stop-color="#395b31"/><stop offset="1" stop-color="#506f47"/></radialGradient><radialGradient cx="382.18616" cy="165.88761" r="9.73283" gradientUnits="userSpaceOnUse" id="color-5"><stop offset="0" stop-color="#395b31"/><stop offset="1" stop-color="#506f47"/></radialGradient><radialGradient cx="376.38617" cy="167.26675" r="9.74183" gradientUnits="userSpaceOnUse" id="color-6"><stop offset="0" stop-color="#395b31"/><stop offset="1" stop-color="#506f47"/></radialGradient></defs><g transform="translate(-349.79169,-148.91669)"><g data-paper-data="{&quot;isPaintingLayer&quot;:true}" fill-rule="nonzero" stroke-linecap="butt" stroke-linejoin="miter" stroke-miterlimit="10" stroke-dasharray="" stroke-dashoffset="0" style="mix-blend-mode: normal"><path d="M352.5417,208.33336v-56.66667h54.91667v56.66667z" fill="url(#color-1)" stroke="url(#color-2)" stroke-width="5.5"/><g fill="#00678f" stroke="none" stroke-width="0"><g><path d="M383.88344,174.36109l9.44883,8.28821l-4.91763,4.18806l-9.44882,-8.28821z"/><path d="M383.40973,172.67028c0,0 1.72585,-0.18647 2.43719,0.43749c0.87121,0.76419 2.40837,3.81287 2.40837,3.81287c0,0 -4.50131,3.83351 -6.26996,5.3398c-1.21474,1.03453 -4.2921,2.39879 -4.2921,2.39879c0,0 -2.92186,0.41263 -3.78054,-0.34058c-0.73823,-0.64755 -0.0923,-3.48163 -0.0923,-3.48163c0,0 3.57913,-3.88585 5.29365,-5.34602c1.43002,-1.21788 4.29572,-2.82072 4.29572,-2.82072z"/></g><g><path d="M369.07193,187.42553l13.38427,1.25172l-0.7427,5.93241l-13.38427,-1.25172z"/><path d="M367.46746,186.37516c0,0 1.20005,-1.08814 2.20766,-0.9939c1.23407,0.11541 4.65607,1.63582 4.65607,1.63582c0,0 -0.67981,5.43017 -0.94692,7.56383c-0.18345,1.4654 -1.56799,4.20471 -1.56799,4.20471c0,0 -1.96071,1.91728 -3.17702,1.80353c-1.0457,-0.09779 -2.62002,-2.64578 -2.62002,-2.64578c0,0 -0.07266,-4.96644 0.18628,-7.03477c0.21598,-1.72511 1.26197,-4.53343 1.26197,-4.53343z"/></g></g><path d="M368.10092,180.94371c0,0 0.62189,-13.68825 1.5,-19.66667c1.76122,-11.99081 0,19.66667 0,19.66667z" fill="#00678f" stroke="url(#color-3)" stroke-width="0"/><path d="M390.79479,178.77656c0,0 -1.68395,-11.89969 -1.82152,-17.186c-0.27593,-10.60267 3.30026,16.96573 3.30026,16.96573z" fill="#00678f" stroke="url(#color-4)" stroke-width="0"/><path d="M382.34018,171.14053c0,0 -0.63157,-7.33529 -0.30803,-10.50578c0.64891,-6.359 1.79042,10.58799 1.79042,10.58799z" fill="#00678f" stroke="url(#color-5)" stroke-width="0"/><path d="M376.54019,173.91864c0,0 -0.63157,-9.28885 -0.30803,-13.30371c0.64891,-8.05254 1.79042,13.40782 1.79042,13.40782z" fill="#00678f" stroke="url(#color-6)" stroke-width="0"/><path d="M393.97054,153.27928c0,0 2.5278,1.42085 3.65838,2.13852c0.97697,0.62016 2.73179,1.91788 2.73179,1.91788c0,0 3.52541,0.07703 4.57511,0.09996c0.19933,0.00435 0.41937,-0.7259 0.61902,-0.72154c0.35209,0.0077 0.6408,0.74906 0.6408,0.74906l0.00852,3.60865c0,0 -0.37251,0.74322 -0.79405,0.75244c-0.18055,0.00396 -0.37011,-0.72696 -0.54324,-0.72317c-1.06096,0.02324 -4.51589,0.09887 -4.51589,0.09887c0,0 -1.97548,1.90235 -3.00119,2.65155c-1.07894,0.78807 -3.32081,1.96618 -3.32081,1.96618c0,0 -1.14783,0.07654 -1.41073,-1.72265c-0.38297,-2.62094 0.0721,-7.57276 0.06609,-8.86113c-0.00928,-1.99069 1.28619,-1.95463 1.28619,-1.95463z" fill="#00d0ff" stroke="#000000" stroke-width="0"/><text transform="translate(396.1208,165.91421) rotate(90) scale(0.21261,0.21261)" font-size="40" xml:space="preserve" fill="#ffffff" fill-rule="nonzero" stroke="none" stroke-width="1" stroke-linecap="butt" stroke-linejoin="miter" stroke-miterlimit="10" stroke-dasharray="" stroke-dashoffset="0" font-family="Pixel" font-weight="normal" text-anchor="start" style="mix-blend-mode: normal"><tspan x="0" dy="0">250</tspan></text><path d="M357.63801,196.51675h12.13605v2.22209h-12.13605z" fill="#ffffff" stroke="none" stroke-width="0"/><path d="M369.60312,194.95279h1.7093v8.975h-1.7093z" fill="#ffffff" stroke="none" stroke-width="5.5"/><path d="M356.78335,194.95279h1.7093v8.975h-1.7093z" fill="#ffffff" stroke="none" stroke-width="5.5"/><path d="M358.01301,200.39176h12.13605v2.22209h-12.13605z" fill="#ffffff" stroke="none" stroke-width="0"/></g></g></svg>