<svg version="1.1" xmlns="http://www.w3.org/2000/svg" xmlns:xlink="http://www.w3.org/1999/xlink" width="72" height="108.16129" viewBox="0,0,72,108.16129"><defs><linearGradient x1="380.00695" y1="177.26667" x2="380.00695" y2="205.73333" gradientUnits="userSpaceOnUse" id="color-1"><stop offset="0" stop-color="#8f00a2" stop-opacity="0"/><stop offset="1" stop-color="#8f00a2"/></linearGradient></defs><g transform="translate(-344,-134.54441)"><g data-paper-data="{&quot;isPaintingLayer&quot;:true}" fill-rule="nonzero" stroke-linejoin="miter" stroke-miterlimit="10" stroke-dasharray="" stroke-dashoffset="0" style="mix-blend-mode: normal"><path d="M344.91667,242.04169v-106h70.25v106z" fill="#006eff" stroke="none" stroke-width="0" stroke-linecap="butt"/><path d="M345.19731,205.66667v-69.75h69.25v69.75z" fill="#6f4a00" stroke="#000000" stroke-width="0" stroke-linecap="butt"/><path d="M380.589,152.16436c12.16449,0 22.02576,9.86127 22.02576,22.02577c0,12.16449 -9.86127,22.02577 -22.02576,22.02577c-12.16449,0 -22.02576,-9.86127 -22.02576,-22.02577c0,-12.16449 9.86127,-22.02577 22.02576,-22.02577z" data-paper-data="{&quot;index&quot;:null}" fill="#ff6c00" stroke="#000000" stroke-width="0" stroke-linecap="butt"/><path d="M379.81446,175.1357l0.25338,0.38133c0.0797,-0.39604 0.42955,-0.6943 0.84907,-0.6943c0.0957,0 0.18777,0.01552 0.27384,0.04418l0.07173,0.02206c-0.15467,-0.9998 -0.20741,-2.15363 -0.89179,-2.86661c-0.04725,-0.04923 -2.26139,0.07792 -2.48336,0.24025c-0.59582,0.43571 -1.4723,4.1442 -1.14438,4.96379l0.413,-0.82601c0.13887,-0.29296 0.43731,-0.49555 0.78306,-0.49555c0.13513,0 0.26304,0.03095 0.37701,0.08614c-0.1017,-0.21777 -0.25505,-0.72721 0.29737,-1.09549c0.72064,-0.48043 1.20107,0.24022 1.20107,0.24022zM378.80462,176.74136c0.00033,0.00982 0.0005,0.01968 0.0005,0.02958v0.50802c0.08968,-0.02994 0.178,-0.05911 0.26397,-0.08611c-0.05162,-0.09292 -0.10068,-0.1849 -0.14696,-0.27589zM385.32319,193.67499c-1.56235,1.10537 -5.61539,-0.20023 -6.80257,-1.24226c-0.33065,-0.29022 -0.57021,-0.63962 -0.75074,-1.02304c-2.03035,1.28447 -5.98924,0.86587 -7.79568,0.35692c-0.68568,-0.19319 -1.60102,-0.12203 -2.01984,-0.69828c-0.17671,-0.24313 0.62445,-3.27102 0.68687,-3.45548c0.18601,-0.5497 0.37367,-1.10802 0.57018,-1.66468c-0.1651,0.11998 -0.32752,0.24106 -0.48656,0.36382c-1.47233,0.43122 -2.98932,1.33828 -4.44454,1.69515c-3.49136,0.85621 -5.93381,-2.10534 -4.14189,-5.28673c1.10698,-1.96534 3.34819,-3.16615 5.6696,-3.92856c-0.28688,0 -0.57375,0 -0.86063,0c-1.68421,-0.00013 -5.35001,0.5685 -6.71701,-0.58734c-0.92086,-0.77862 0.70218,-4.74179 1.23955,-5.26179c2.21055,-2.13908 7.90162,-0.21148 10.38541,-0.21362c0.12971,-0.00011 0.2742,-0.00571 0.43029,-0.01484c-0.7021,-0.20479 -1.4008,-0.49735 -2.06837,-0.99864c-2.54226,-1.57194 -7.63992,-8.78137 -3.63425,-11.609c0.41659,-0.29407 2.78382,0.62853 3.29417,0.85164c1.42395,0.62251 3.47213,2.40043 5.18012,4.4333c-0.72793,-6.08103 0.29231,-14.95568 7.62603,-11.31107c2.13152,1.45818 2.02764,4.84108 1.55601,8.07129c0.15795,-0.10591 0.31795,-0.20179 0.47951,-0.28647c2.823,-1.69021 6.38486,-3.47046 9.77925,-2.98496c1.73868,0.24868 5.25169,2.07375 4.10403,4.44158c-0.466,0.96144 -2.64715,2.27071 -3.52719,2.85733c-0.44023,0.29344 -0.88519,0.5865 -1.3349,0.8764c0.63663,-0.06132 1.29868,-0.09357 1.9956,-0.09148c2.11526,0.12126 10.93275,2.41649 8.57952,6.27135c-0.43045,0.70514 -2.724,0.77918 -3.46172,0.92707c-0.99049,0.19856 -1.95941,0.30403 -2.92199,0.36588c1.153,0.25104 2.2878,0.64579 3.39701,1.24734c2.14661,1.61187 4.49278,7.1161 1.61482,9.50725c-1.14808,0.95388 -4.45864,-0.37618 -5.48327,-0.8256c-1.05054,-0.46078 -1.90955,-1.10914 -2.77685,-1.75988c0.33204,0.38963 0.66021,0.76166 0.98849,1.09522c2.75489,3.44228 1.96789,8.41936 -3.48228,7.10888c-1.27578,-0.30676 -2.58272,-1.089 -3.7955,-2.17191c0.12111,1.80296 0.20967,4.03934 -1.0707,4.94521zM376.9884,188.13925c-0.79032,-3.35566 -1.53476,-6.41112 -0.53231,-9.31364c-0.08828,-0.0098 -0.17174,-0.02101 -0.24929,-0.03375c0,0.10286 -0.01793,0.20153 -0.05084,0.29305l-0.28231,0.84692l-0.0186,-0.0062l-0.00288,0.06376c-0.86032,1.64975 -2.204,2.83709 -3.63786,3.87922c-0.74018,1.3667 -1.41713,2.77448 -1.93212,4.29904c-0.18034,0.53386 -0.19615,1.11891 -0.41141,1.63968c-0.07263,0.17573 -0.58793,0.28517 -0.42404,0.38159c0.9303,0.5473 7.09831,0.67032 7.73858,-0.56443c0.02004,-0.03863 0.03839,-0.0811 0.05516,-0.12711c-0.08191,-0.46913 -0.15192,-0.93285 -0.25209,-1.35814zM378.80511,183.69978c0,1.25873 0.43322,4.21128 0.15641,5.91472c0.10827,0.32614 0.22199,0.64043 0.34084,0.93893c0.48193,1.21035 3.94045,2.28954 5.11015,1.64805c0.58272,-0.31957 0.16663,-4.44724 0.16663,-5.03728c0.00425,-0.12231 0.00292,-0.2452 -0.00366,-0.36861c-1.488,-1.86306 -2.67158,-4.12293 -3.22216,-6.32113c-0.45058,-0.60246 -0.89674,-1.19083 -1.29964,-1.75725c-0.06259,0.02051 -0.12385,0.03782 -0.18348,0.05147c-0.13467,0.03083 -0.54701,0.06761 -1.06509,0.09115c0,1.61332 0,3.22664 0,4.83995zM373.74623,178.99187l-0.00178,-0.00444l-0.28478,0.04068l-0.03352,-0.23466c-3.19984,0.93845 -6.60514,1.183 -9.66345,2.72813c-0.98243,0.49634 -3.92077,4.57415 -1.792,4.79968c2.15748,0.22858 3.94678,-0.99759 5.99486,-1.56621c0.70219,-0.48682 1.51139,-0.97134 2.32133,-1.49899c0.82626,-1.76363 1.88757,-3.31612 3.45935,-4.2642zM375.36798,172.49275l0.39756,0.09939c0.02215,-0.0563 0.04471,-0.11184 0.06767,-0.16657l-0.88629,-0.88629l0.13872,-0.13872c-0.12685,-0.20299 -0.24497,-0.38848 -0.35555,-0.56463c-2.04922,-2.01951 -3.37299,-4.60609 -5.5572,-6.8029c-0.2251,-0.2264 -3.69937,-2.60671 -3.86103,-2.35498c-1.73071,2.69485 1.86167,7.438 3.87198,8.60011c2.11964,1.58789 4.16839,0.95404 6.18415,2.21458zM381.39694,167.3496c-0.07004,0.66783 -0.39936,2.156 -1.06675,3.10456c0.30307,0.12347 0.59378,0.28193 0.86389,0.4688c0.04314,-0.09345 0.10245,-0.17791 0.17433,-0.24979l0.86611,-0.8661l0.05987,0.05987l0.09722,-0.18419c0.68588,-0.24054 1.34282,-0.47952 1.98291,-0.71021c1.04114,-0.61562 2.31628,-0.98237 3.39322,-1.5532c2.54359,-1.34823 5.18836,-3.02556 7.30717,-4.91476c0.58184,-0.51879 -2.51726,-1.87085 -2.82482,-1.90986c-3.01891,-0.38295 -6.19637,1.28501 -8.69765,2.78907c-0.57538,0.26941 -1.20405,0.84709 -1.77918,1.53719c-0.15997,0.89993 -0.30293,1.72896 -0.3763,2.42863zM378.23889,168.54855c0.22969,-1.34134 0.94076,-2.94683 1.91181,-4.29294c0.5922,-3.26081 1.31182,-7.62141 -0.33681,-8.6769c-6.61185,-3.33126 -5.52816,8.54431 -4.54546,12.29336c0.31842,1.21478 0.74622,1.73891 1.39193,2.78959l0.18362,0.21767c0.29102,-0.23838 0.60174,-0.41271 0.92302,-0.53035c-0.03175,-0.6201 0.3988,-1.37373 0.47187,-1.80043zM383.82954,171.10968l0.08796,0.17593l-1.53375,0.76687c-0.01388,0.00731 -0.02799,0.01425 -0.0423,0.02081c0.20716,0.30731 0.36762,0.6382 0.46833,0.98224c0.10738,0.3668 0.14592,0.74738 0.17167,1.13077c0.01918,-0.00344 0.03857,-0.00626 0.05816,-0.00842l1.70744,-0.21343l0.02376,0.19014c3.97909,-0.98367 7.92145,-0.71766 12.05656,-1.40977c0.98835,-0.16542 1.95662,-0.44386 2.94848,-0.58679c0.37477,-0.054 0.95913,0.40045 1.13409,0.06465c0.28051,-0.5384 -1.40961,-1.59879 -1.48493,-1.64384c-1.66063,-0.99328 -3.83626,-1.81529 -5.73316,-1.88301c-2.97697,-0.00817 -5.22282,0.71232 -7.67294,1.55202c-0.71919,0.3214 -1.44895,0.61161 -2.18937,0.86183zM388.25379,188.47715c1.3967,0.9443 6.84317,1.76278 5.60098,-1.63936c-0.2747,-0.75236 -0.97782,-1.26893 -1.47804,-1.89447c-1.38642,-1.40503 -2.91842,-3.91595 -4.71368,-4.79602c-1.52792,-0.74901 -3.20729,-1.24504 -4.73757,-2.01044c0.05876,0.74798 0.20501,1.54021 0.42157,2.34291c1.3611,1.90672 2.64523,3.89444 2.91429,6.01535c0.63385,0.83369 1.3121,1.52205 1.99245,1.98203zM391.93821,180.06406c2.20334,1.34527 3.95925,3.16108 6.63806,3.64702c3.25703,0.59083 1.54559,-5.24956 -0.17728,-6.47354c-4.29636,-2.36681 -9.38304,-1.1259 -14.04915,-1.05783c2.68268,0.95775 5.35055,2.51804 7.58836,3.88435zM375.05199,177.05964c0.01445,0 0.02881,0.00035 0.04309,0.00105c-0.09085,-0.77668 -0.02974,-1.69897 0.14056,-2.59937h-0.18365v-0.21419c-4.13009,0.71247 -8.1162,-0.89927 -12.32883,-0.36742c-0.70966,0.0896 -1.62537,-0.15429 -2.1141,0.36801c-0.46149,0.49318 -0.39625,1.29165 -0.614,1.93101c-0.10755,0.31579 -0.78739,0.85199 -0.45606,0.89085c1.73201,0.20311 3.65574,-0.01006 5.40847,-0.00993c2.98324,0 7.12129,0 10.10453,0z" data-paper-data="{&quot;index&quot;:null}" fill="#943e00" stroke="none" stroke-width="0.5" stroke-linecap="butt"/><text transform="translate(355.25001,216.78367) scale(0.26141,0.26141)" font-size="40" xml:space="preserve" fill="#000000" fill-rule="nonzero" stroke="none" stroke-width="1" stroke-linecap="butt" stroke-linejoin="miter" stroke-miterlimit="10" stroke-dasharray="" stroke-dashoffset="0" font-family="Serif" font-weight="normal" text-anchor="start" style="mix-blend-mode: normal"><tspan x="0" dy="0">Phonanarah</tspan></text><path d="M364.47231,154.33333c0,-9.60975 7.79025,-17.4 17.4,-17.4c9.60975,0 17.4,7.79025 17.4,17.4c0,9.60975 -7.79025,17.4 -17.4,17.4c-9.60975,0 -17.4,-7.79025 -17.4,-17.4z" fill="#ffcb77" stroke="#000000" stroke-width="0" stroke-linecap="butt"/><path d="M414.16667,220.66671h-69" fill="none" stroke="#000000" stroke-width="2" stroke-linecap="round"/><path d="M379.86404,241.16671v-20" fill="none" stroke="#000000" stroke-width="2" stroke-linecap="round"/><text transform="translate(363.70833,235.28339) scale(0.335,0.335)" font-size="40" xml:space="preserve" fill="#000000" fill-rule="nonzero" stroke="none" stroke-width="1" stroke-linecap="butt" stroke-linejoin="miter" stroke-miterlimit="10" stroke-dasharray="" stroke-dashoffset="0" font-family="Serif" font-weight="normal" text-anchor="start" style="mix-blend-mode: normal"><tspan x="0" dy="0">45</tspan></text><text transform="translate(398.95834,235.53339) scale(0.335,0.335)" font-size="40" xml:space="preserve" fill="#000000" fill-rule="nonzero" stroke="none" stroke-width="1" stroke-linecap="butt" stroke-linejoin="miter" stroke-miterlimit="10" stroke-dasharray="" stroke-dashoffset="0" font-family="Serif" font-weight="normal" text-anchor="start" style="mix-blend-mode: normal"><tspan x="0" dy="0">45</tspan></text><g fill="#ffcf00" stroke-linecap="butt"><text transform="translate(384.62619,236.57732) scale(0.42958,0.42958)" font-size="40" xml:space="preserve" fill="#ffcf00" fill-rule="nonzero" stroke="none" stroke-width="1" stroke-linecap="butt" stroke-linejoin="miter" stroke-miterlimit="10" stroke-dasharray="" stroke-dashoffset="0" font-family="Serif" font-weight="normal" text-anchor="start" style="mix-blend-mode: normal"><tspan x="0" dy="0">S</tspan></text><path d="M388.11054,237.72286v-13.69875h0.66823v13.69875z" stroke="#000000" stroke-width="0"/><path d="M389.35154,237.72287v-13.69875h0.66823v13.69875z" stroke="#000000" stroke-width="0"/></g><path d="M392.17725,157.96102c0.40679,1.59244 -1.81412,-0.25399 -0.02994,-0.31102c2.94758,0 9.12822,7.40111 10.2115,10.84616c0.62875,1.99955 -0.3973,7.36127 -1.50308,9.0757c-0.95261,1.47697 -3.13523,2.27213 -4.66014,2.89666c-3.86899,0.037 -7.81458,0.20345 -11.63993,-0.19081c-1.29804,-0.13378 -3.28524,-0.08594 -4.00127,-1.45737c-0.25401,-0.48651 -0.4115,-1.19692 -0.50865,-1.98698c-0.64256,1.16808 -1.76686,2.02631 -2.94844,2.89996c-3.7869,2.79998 -10.54503,3.86212 -15.1239,2.94635c-0.74352,-0.0094 -1.4905,-0.18071 -2.18631,-0.44293c-7.52671,-2.83648 -2.17635,-11.7297 -0.22397,-16.61066c2.53785,-5.0846 6.31027,-10.63709 11.44487,-13.2186c1.05603,-0.53094 1.7464,-1.11889 2.69894,-1.25154c-0.16069,-0.98995 -0.24808,-2.04099 -0.2428,-3.10444c-0.06865,0.02069 -0.14144,0.03182 -0.21683,0.03182c-0.20711,0 -0.39461,-0.08394 -0.53033,-0.21967l-0.6,-0.6l0.08542,-0.08542l-0.248,-0.15789c-0.01016,-0.19348 -0.02357,-0.38548 -0.03684,-0.57405c-0.21468,-0.12907 -0.30118,-0.3519 -0.0448,-0.74326c-0.04908,-1.28968 0.15655,-2.24932 1.95645,-2.09731c0,0 0.1112,0.0278 0.23579,0.10513c0.84006,-2.83717 2.63143,-5.23817 5.81,-6.10746c1.06732,-0.2919 2.66184,-0.02007 3.77231,-0.02007c0,0 0.248,0 0.45878,0.14261l0.37197,0.09377c2.17149,0.87838 4.10327,1.97896 4.11925,4.51362c0,0.61494 0.01621,1.24346 0.03029,1.87826c0.52422,-0.09283 1.09487,-0.10721 1.75004,-0.00859c0.12809,0.77575 0.37601,4.20649 -1.01694,4.41171c-0.36091,0.05318 -0.65787,0.06115 -0.89981,0.03242c-0.11879,0.78157 -0.30769,1.5464 -0.60265,2.28021c1.72201,1.91817 3.74885,4.80178 4.319,7.03367zM366.97725,171.36102c0.08655,0.34716 -0.02376,1.06597 0.19173,1.52344c0.2364,-1.94873 0.90259,-3.47221 -0.39868,-4.99008c-0.19347,1.19817 -0.11408,2.17909 0.20694,3.46664z" fill="#ff846c" stroke="none" stroke-width="0.5" stroke-linecap="butt"/><path d="M365.4225,188.02934c0.29087,-0.33022 0.37269,-2.55106 0.49419,-2.86379c0.92849,-2.38977 2.41231,-2.27741 3.6598,-4.56481c1.88058,-3.44309 4.06036,-4.9436 7.7013,-6.89213c2.64761,-1.41693 4.4549,-3.24711 6.40294,-5.61953c2.40546,-2.20913 3.14286,-13.32507 4.91567,-16.0328c0.70815,-1.0816 1.67969,1.47207 3.54412,2.6805c0.52834,0.34244 -0.20829,10.00754 0.44137,12.21382c1.19608,7.69335 3.51376,13.27163 1.19431,20.7043c-0.2595,1.16937 -0.30481,2.49168 -0.08478,3.72815c0.24736,0.10938 0.50599,0.2013 0.78385,0.2628c4.77846,1.05763 9.03807,3.1944 13.50238,4.97055c0.80054,1.56003 2.40794,5.11789 1.36258,6.87129c-1.0676,1.7907 -2.84301,1.05513 -4.5206,1.4441c-3.10803,0.72063 -6.49282,0.72082 -9.77231,0.72082c-7.55894,0 -15.68759,2.52076 -23.12014,0.34308c-3.35445,-0.01381 -6.85603,-0.67786 -10.34808,-0.69436c-0.22142,0.17549 -0.53178,0.17548 -0.53178,0.17548c-6.22231,-0.03447 -8.9885,-9.96381 -2.0739,-11.15983c0.34962,0.00078 0.69778,-0.0059 1.04464,-0.01921c0.67296,-2.32953 3.92517,-4.589 5.40445,-6.26842z" fill="#97260f" stroke="none" stroke-width="0.5" stroke-linecap="butt"/><path d="M378.33072,175.43608c-1.70108,-1.6438 -0.72979,-2.89516 -0.24296,-5.43519c0.1316,-0.68661 -0.54185,-1.50308 -0.16349,-2.09096c1.38189,-2.14712 5.89128,-0.75997 7.43963,-0.16616c4.28319,1.08097 10.01114,2.02407 12.2879,6.51918c0.52155,1.02972 1.20788,4.10939 -0.06812,5.21544c-4.48276,3.88568 -14.68318,-0.21806 -18.71685,-2.71647c0,0 -0.79168,-0.5073 -0.53611,-1.32583z" fill="#ff846c" stroke="none" stroke-width="0.5" stroke-linecap="butt"/><path d="M367.61689,173.38431c1.5333,-2.19127 4.7544,-3.62759 6.92434,-4.93018c0.70326,-0.42216 2.47737,-2.24751 3.45407,-1.53129c0.95499,0.7003 1.13142,4.19771 1.18064,5.3483c0.19622,4.58694 -2.64162,9.17237 -7.60838,9.2122c-3.96727,0 -4.65486,-2.47022 -4.67024,-6.15285v-0.88957c0,0 0,-0.83192 0.71958,-1.0566z" fill="#ff846c" stroke="none" stroke-width="0.5" stroke-linecap="butt"/><path d="M399.94731,205.52778c-7.70803,0 -15.22763,0.83334 -23,0.83334c-5.13637,0 -10.02656,-0.43406 -15.07391,-0.83698c-1.30973,-0.10456 -3.21871,0.41594 -4.45963,-0.02356c-0.5916,-0.20953 -1.48239,-0.92838 -1.48919,-1.50057c-0.07499,-0.14793 -0.14947,-0.30995 -0.22413,-0.48697l0.10852,-0.19624l-0.0971,-0.01942l0.16375,-0.81874c-0.01738,-0.35827 -0.01165,-0.75577 -0.01165,-1.20085c0,0 0,-0.75 0.75,-0.75c0.75,0 0.75,0.75 0.75,0.75c0,0.41935 -0.04244,0.76697 -0.05102,1.06087c0.01733,0.04443 0.03055,0.09092 0.03918,0.139l0.12287,0.61432c0.1348,0.19425 0.37231,0.35617 0.77955,0.50163l0.0236,0.0225l0.00457,-0.00914l0.98547,0.49274c0.03357,0.01591 0.06575,0.03424 0.09635,0.05476c1.12971,-0.03054 2.38409,-0.14654 2.65667,-0.12302c5.0042,0.4317 9.83333,0.82968 14.9261,0.82968c7.77253,0 15.28944,-0.83334 23,-0.83334c2.36296,0.00931 4.56423,-0.51992 6.97517,-0.48646l0.11779,0.08741l0.01892,-0.0473l0.81712,0.32684c0.28485,0.10636 0.48767,0.38091 0.48767,0.70284c0,0.23214 -0.10546,0.43965 -0.2711,0.57722c-0.16713,0.24292 -0.46366,0.31705 -0.46366,0.31705l-0.52253,0.11642l-0.04749,0.019l-0.00309,-0.00773l-0.27546,0.06137c-0.48158,0 -0.81349,0.02143 -1.09418,-0.00063c-0.16854,0.00126 -0.35719,0.00063 -0.57249,0.00063h-0.83333c-0.3052,0 -0.56782,-0.1823 -0.68491,-0.44395c-1.20623,0.13318 -2.40421,0.27305 -3.64841,0.27728z" fill="#642e23" stroke="none" stroke-width="0.5" stroke-linecap="butt"/><path d="M384.53296,194.64259c0.85206,1.13819 0.42892,2.7828 0.99435,3.65969c0.45331,0.70301 1.75274,0.35341 2.31218,0.9753c0.6698,0.74456 2.70335,4.20033 2.08983,5.20997c-0.92233,1.51785 -4.51488,1.20689 -5.98201,1.20689h-0.5c0,0 -0.11048,-0.00001 -0.24662,-0.04241c-0.61613,0.24394 -0.92419,-0.37219 -0.92419,-0.37219l-0.23129,-0.52166c-0.28555,-1.45818 -0.46283,-2.66477 -0.50831,-3.80057c-0.00586,0.14073 -0.00949,0.2727 -0.0099,0.39405c-0.17365,0.88623 -0.21509,3.31385 -0.88269,3.95643c-1.00716,0.96942 -3.34647,0.14465 -4.58512,0.66603l-0.76331,0.19792c0,0 -0.72761,0.1819 -0.90951,-0.54571c-0.1819,-0.72761 0.5457,-0.90951 0.5457,-0.90951l0.19772,-0.04697c1.35212,-1.91268 1.82573,-5.06133 2.24387,-7.34556c0.17159,-0.93736 -0.41901,-1.18028 0.26163,-2.26198c0.92619,-1.47194 2.97942,-0.70712 3.65467,0.55723c0.34674,0.64922 0.41062,1.69772 0.38557,2.7679c0.15983,-1.06202 0.45124,-2.18362 0.8936,-3.51351c0,0 0.23718,-0.71151 0.94869,-0.47434c0.0331,0.01103 0.06414,0.02309 0.09325,0.03606c0.52236,-0.29248 0.92189,0.20694 0.92189,0.20694z" fill="#c36552" stroke="none" stroke-width="0.5" stroke-linecap="butt"/><path d="M380.14588,145.66404c0.7276,0.1819 0.5457,0.90951 0.5457,0.90951l-0.5172,0.98891c-1.8093,0.88489 -2.78449,0.63039 -4.30393,-0.58517c0,0 -0.58565,-0.46852 -0.11713,-1.05417c0.46852,-0.58565 1.05417,-0.11713 1.05417,-0.11713c1.07128,0.85702 1.38732,1.08808 2.69607,0.41483l-0.2672,-0.01108c0,0 0.18191,-0.72761 0.90951,-0.5457z" fill="#000000" stroke="none" stroke-width="0.5" stroke-linecap="butt"/><path d="M386.25772,145.47084c0.67082,0.33541 0.33541,1.00623 0.33541,1.00623l-0.10646,0.21003c-1.18593,2.50155 -2.90303,1.7955 -4.1884,-0.12941c0,0 -0.41602,-0.62404 0.20801,-1.04006c0.62404,-0.41602 1.04006,0.20801 1.04006,0.20801c0.57432,0.86299 1.04396,1.83839 1.56161,0.37059l0.14354,-0.28997c0,0 0.33541,-0.67082 1.00623,-0.33541z" fill="#000000" stroke="none" stroke-width="0.5" stroke-linecap="butt"/><path d="M383.47231,152.175c0,0.75 -0.75,0.75 -0.75,0.75h-0.75c-0.73412,0 -1.40224,-0.00867 -2.1267,0.1148c0,0 -0.7398,0.12329 -0.8631,-0.6165c-0.1233,-0.73979 0.6165,-0.86309 0.6165,-0.86309c0.80745,-0.13199 1.55702,-0.13521 2.3733,-0.13521h0.75c0,0 0.75,0 0.75,0.75z" fill="#000000" stroke="none" stroke-width="0.5" stroke-linecap="butt"/><path d="M380.08898,149.675c0,-0.75 0.75,-0.75 0.75,-0.75h0.125c0.29431,0.00331 1.33417,0.35369 0.66349,-0.01282c0,0 -0.23717,-0.71152 0.47434,-0.94869c0.71151,-0.23717 0.94868,0.47434 0.94868,0.47434c0.27405,1.81519 -0.34312,1.97237 -2.08651,1.98717h-0.125c0,0 -0.75,0 -0.75,-0.75z" fill="#000000" stroke="none" stroke-width="0.5" stroke-linecap="butt"/><path d="M380.50564,143.53333c0,0.75 -0.75,0.75 -0.75,0.75h-0.5c-0.80564,-0.00299 -1.56522,0.12279 -2.375,0.125c0,0 -0.75,0 -0.75,-0.75c0,-0.75 0.75,-0.75 0.75,-0.75c0.80817,0.00254 1.56695,-0.12246 2.375,-0.125h0.5c0,0 0.75,0 0.75,0.75z" fill="#000000" stroke="none" stroke-width="0.5" stroke-linecap="butt"/><path d="M386.57231,143.225c0,0.75 -0.75,0.75 -0.75,0.75h-0.75c-0.50732,-0.00991 -1.01389,0.14298 -1.48666,0.32725c0,0 -0.70224,0.26334 -0.96559,-0.43891c-0.26335,-0.70225 0.4389,-0.96559 0.4389,-0.96559c0.64447,-0.23434 1.32766,-0.41342 2.01335,-0.42276h0.75c0,0 0.75,0 0.75,0.75z" fill="#000000" stroke="none" stroke-width="0.5" stroke-linecap="butt"/><path d="M390.34017,169.09524c0,0.75 -0.75,0.75 -0.75,0.75h-0.14286c-1.64759,-0.02232 -1.98957,-0.89753 -3.28701,-1.48566c-1.28688,-0.58334 -2.79511,1.1329 -4.06526,-0.58433c-0.1051,-0.14209 -0.1003,-1.69326 -0.16368,-1.99283c-0.06429,-0.30387 -0.0907,0.61704 -0.18268,0.9137c-0.20794,0.67066 -0.78226,1.24061 -1.4132,1.57737c0.00315,0.09349 0.00459,0.17766 0.00469,0.25032c0.00412,2.86043 1.07233,7.80322 -1.24981,9.7017c-1.37626,1.36636 -1.93862,2.31287 -4.07162,2.33401h-0.14286c0,0 -0.75,0 -0.75,-0.75c0,-0.75 0.75,-0.75 0.75,-0.75h0.14286c1.69291,0.02225 1.97979,-0.85432 3.07124,-1.9517c1.70955,-1.33166 0.75019,-5.60666 0.75019,-7.72687c0,-0.69209 0.15767,-1.64549 -0.09667,-2.31229c-0.13797,-0.36173 -0.42019,-1.46632 -0.42909,-1.07927c-0.04436,1.93079 -0.88441,3.02084 -2.4754,4.03115c-1.90746,1.1439 -6.33979,4.04929 -8.66932,2.41004c-2.20393,-1.55088 0.5173,-6.47027 0.82353,-8.31578c0,0 0.1233,-0.7398 0.86309,-0.6165c0.7398,0.1233 0.6165,0.86309 0.6165,0.86309c-0.28846,1.72371 -1.43225,3.40632 -1.41837,5.01956c0.00519,0.60266 -0.62695,1.65525 -0.04381,1.80752c2.35056,0.61378 5.15278,-1.31124 7.04497,-2.44711c1.61743,-0.99134 1.82775,-4.97831 4.09789,-3.98146c0.52496,0.23052 0.82565,1.02243 0.99293,1.84631c0.43495,-0.65899 -0.29147,-1.83346 1.21485,-2.22519c2.45485,-0.63841 1.53468,1.53886 2.00973,2.60564c0.19074,0.42833 2.95716,-0.16554 3.36331,-0.0129c1.15926,0.43569 1.31283,1.39797 2.71299,1.37148h0.14286c0,0 0.75,0 0.75,0.75z" fill="#b75f4d" stroke="none" stroke-width="0.5" stroke-linecap="butt"/><g fill="#ae00ff" stroke="#000000" stroke-width="0" stroke-linecap="butt"><path d="M352.36137,238.33678v-14.60345h3.41379v14.60345z"/><path d="M359.66309,230.65575h-11v-3.60345h11z"/></g><path d="M344.90695,205.73333v-28.46667h70.2v28.46667z" fill="url(#color-1)" stroke="#000000" stroke-width="0" stroke-linecap="butt"/><g fill="none" stroke="#000000" stroke-width="2"><path d="M345,241.7057v-106.16129h70v106.16129z" stroke-linecap="butt"/><path d="M413.66666,206.08273h-68.33333" stroke-linecap="round"/></g></g></g></svg>