<svg version="1.1" xmlns="http://www.w3.org/2000/svg" xmlns:xlink="http://www.w3.org/1999/xlink" width="556.00001" height="361.13622" viewBox="0,0,556.00001,361.13622"><g transform="translate(-56.44102,-9.14753)"><g data-paper-data="{&quot;isPaintingLayer&quot;:true}" fill-rule="nonzero" stroke-linejoin="miter" stroke-miterlimit="10" stroke-dasharray="" stroke-dashoffset="0" style="mix-blend-mode: normal"><path d="M467.50002,173.05853c0,-0.47202 0.08912,-0.85492 0.23371,-1.16552c-2.1687,-4.60624 -4.71835,-8.82796 -6.85703,-13.50601c-3.47827,-7.6082 -6.32662,-15.43232 -9.67647,-23.0843c-1.09093,-2.49198 -2.62091,-4.79325 -3.53666,-7.35479c-2.05456,-5.74698 -3.90143,-12.6506 -4.16051,-18.76621c-0.21271,-5.02076 0.02683,-9.76919 -0.6039,-14.77447c-0.92287,-7.38294 -2.39472,-14.90404 -2.39913,-22.34869c-0.00173,-2.90838 -0.80503,-5.96288 0.10727,-8.72446c1.97827,-5.98831 7.80598,-8.44933 11.48518,-12.89148c2.88578,-3.48419 4.77317,-7.63268 7.49295,-11.1886c2.85972,-3.73887 6.85098,-7.17706 10.18237,-10.49876c3.10763,-3.0986 5.06713,-5.93441 8.57484,-8.77235c3.11721,-2.49376 7.14632,-6.43595 10.84984,-8.00292c1.6685,-0.70594 3.54352,-0.75726 5.30964,-1.16107c6.13012,-1.40161 13.59729,-2.23376 19.89837,-1.22808c1.69804,0.27102 3.23173,1.19638 4.90033,1.61178c10.43538,2.59786 20.11908,5.77079 29.81725,10.61987c0.45074,0.22537 8.12116,4.04954 8.34374,4.20796c2.63998,1.87902 4.75233,4.41402 7.27365,6.44949c2.84333,4.09613 5.49787,8.5337 8.719,12.35083c3.51463,4.16492 6.68266,7.85282 8.7388,13.05773c1.11775,2.82949 2.76337,7.69346 3.27449,10.76961c0.86004,5.17607 0.03228,11.16098 0.03228,16.40046c0,11.33334 0,22.66666 0,34c0,1.06558 0.01099,9.1778 -0.04511,9.47277c-0.33119,1.74147 -1.37851,3.27029 -1.93759,4.95251c-2.03202,6.11419 -4.96086,11.79066 -9.78859,16.37834c-3.27521,3.11236 -7.24448,4.43914 -9.5673,8.45269c-0.62467,1.07934 -1.42998,2.10721 -1.72829,3.31807c-0.77974,3.16497 1.13293,7.27035 -0.12342,10.38233c-0.47293,1.17145 -1.64864,1.91777 -2.54193,2.81106c-0.89329,0.89329 -1.60496,2.16608 -2.81106,2.54193c-1.89662,0.59103 -3.97058,0.1481 -5.95671,0.1903c-4.99535,0.10613 -10.00356,0 -15,0c-6.46214,0 -13.32862,-0.65651 -19.75365,-0.01217c-7.68248,0.77044 -15.6487,1.74412 -23.45255,1.00365c-4.42907,-0.42025 -7.81835,-2.40445 -12.09926,-3.01021c-2.7421,-0.38801 -5.92283,0.01873 -8.69454,0.01873h-0.66336c-0.32377,0.06127 -0.61527,0.05383 -0.87581,0h-0.46082c0,0 -2.5,0 -2.5,-2.5z" fill="#7d0000" stroke="none" stroke-width="0.5" stroke-linecap="butt"/><path d="M201.47533,114.94666c0,7.67427 -0.74917,19.13551 -4.21452,27.17561c-6.72308,15.59849 -20.32689,26.16147 -35.09272,26.16147c-12.41988,0 -28.14023,-8.91297 -35.90403,-21.20782c-6.22414,-9.85663 -5.82211,-22.08952 -5.82211,-32.12926c0,-8.67059 0.86461,-21.81704 5.43321,-28.43033c7.32002,-10.59612 21.30575,-19.2326 35.08348,-19.2326c11.4542,0 24.8219,10.46676 32.19111,18.17172c7.02716,7.34732 8.32558,18.47774 8.32558,29.49121z" fill="#0049ff" stroke="#f57b00" stroke-width="0" stroke-linecap="butt"/><path d="M193.74881,93.6867c-6.39333,-2.14888 -13.22116,-1.23928 -20.08213,-1.23928c-7.82494,0 -16.41096,-0.73188 -24.04329,1.14303c-3.91654,2.39132 -8.45721,4.31429 -12.13718,7.03391c-2.67259,1.97514 -5.18428,5.57072 -7.01544,8.28643c-2.07483,3.07707 -2.27923,9.22881 -6.99798,10.15818c-3.8482,0.75792 -5.37846,-2.48151 -6.21908,-5.13436c-1.13629,-3.58595 -0.37864,-7.74092 -1.33701,-11.34704c-1.08224,-4.0722 -4.70682,-8.50328 -4.40586,-12.8726c0.08185,-1.18825 0.8728,-2.21648 1.3092,-3.32471c1.64187,-2.32867 2.85284,-4.96766 4.68596,-7.14896c0.29831,-0.35497 3.55271,-2.36683 4.01439,-3.24253c1.42696,-2.70659 2.03738,-5.89522 3.65068,-8.63952c1.21818,-2.07215 2.78067,-3.92852 4,-6c2.57294,-4.37107 3.66468,-10.863 7.52257,-14.29902c2.46912,-2.19911 10.0041,-5.01074 13.28736,-3.23946c1.20471,0.64993 1.14986,3.77352 2.4363,3.30576c1.57575,-0.57295 2.35535,-2.39813 3.6644,-3.44583c1.07684,-0.86185 2.29681,-1.52781 3.44521,-2.29171c5.51682,-2.09602 13.44064,-7.72859 18.68247,-2.09401c1.47486,1.58537 2.26269,5.42204 2.29056,7.63529c0.0031,0.24565 -0.00589,0.54252 -0.03028,0.86046c0.43846,-0.23713 0.88804,-0.45835 1.31576,-0.69514c1.20401,-0.66656 2.52521,-1.09835 3.75603,-1.714c5.82536,-2.91383 10.46894,-4.05171 17.00702,-2.53997c2.40007,0.55494 5.88049,1.12022 6.5785,4.32865c0.37355,1.71704 -3.29212,6.41823 -4.10265,7.57747c-3.13332,4.17415 -5.79044,8.5963 -9.01334,12.6849c-0.63618,0.80706 -2.28866,1.39799 -1.22686,2.51901c1.05704,1.11599 2.52795,1.77585 3.61634,2.86129c2.08841,2.08275 2.84219,3.44776 4.93237,5.18971c1.89855,1.58226 4.36798,2.45479 6.09307,4.22457c1.202,1.23314 3.34545,2.49065 3.03075,4.18369c-0.31253,1.68139 -2.90009,1.81434 -4.3222,2.76425c-2.26586,1.5135 -4.41931,3.20968 -6.5818,4.8954c-0.01409,0.50916 -0.21717,1.07686 -0.78488,1.64458c-0.82053,0.82053 -1.64105,0.87935 -2.28481,0.70678c-0.56689,0.42124 -1.13819,0.83575 -1.71597,1.2402c0,0 -2.04808,1.43366 -3.48173,-0.61442c-1.1895,-1.69929 0.01782,-2.97561 0.46354,-3.36104z" fill="#0049ff" stroke="none" stroke-width="0.5" stroke-linecap="butt"/><path d="M170.44103,154.28374l8,21l74,14l14,22l-15,159l-195,-3v-160l14,-19l72,-15l5,-20z" fill="#0049ff" stroke="#f57b00" stroke-width="0" stroke-linecap="round"/><path d="M476.73232,75.45545c7.36921,-7.70495 20.73691,-18.17171 32.19111,-18.17171c13.77774,0 27.76346,8.63647 35.08348,19.23259c4.5686,6.61329 5.43321,19.75974 5.43321,28.43033c0,10.03974 0.40203,22.27264 -5.82211,32.12926c-7.7638,12.29485 -23.48415,21.20782 -35.90403,21.20782c-14.76583,0 -28.36964,-10.56299 -35.09272,-26.16147c-3.46535,-8.0401 -4.21452,-19.50134 -4.21452,-27.17561c0,-11.01346 1.29842,-22.14388 8.32558,-29.49121z" data-paper-data="{&quot;index&quot;:null}" fill="#ff0000" stroke="#f57b00" stroke-width="0" stroke-linecap="butt"/><path d="M521.44104,143.28374l5,20l72,15l14,19v160l-195,3l-15,-159l14,-22l74,-14l8,-21z" data-paper-data="{&quot;index&quot;:null}" fill="#ff0000" stroke="#f57b00" stroke-width="0" stroke-linecap="round"/><g data-paper-data="{&quot;index&quot;:null}"><path d="M538.37542,89.01664l4.39511,0.49622c3.19223,0.81663 6.18446,1.15091 8.69501,3.65506c6.31759,6.30147 4.80417,15.31798 4.80417,23.35948c0,0 0,3.47042 -3.47042,3.47042c-3.47042,0 -3.47042,-3.47042 -3.47042,-3.47042c0,-5.53329 1.81114,-13.85325 -2.59939,-18.28553c-1.20033,-1.20625 -3.7396,-1.54806 -5.18666,-1.89761l-3.93389,-0.42923c0,0 -3.44919,-0.38325 -3.06595,-3.83244c0.38324,-3.44919 3.83244,-3.06594 3.83244,-3.06594z" fill="#5e0000" stroke="none" stroke-width="0.5" stroke-linecap="butt"/><path d="M504.21345,111.43745v-19.89706h30.53967v19.89706z" fill="none" stroke="#5e0000" stroke-width="4.5" stroke-linecap="butt"/><path d="M464.88205,110.512v-19.89706h30.53967v19.89706z" fill="none" stroke="#5e0000" stroke-width="4.5" stroke-linecap="butt"/><path d="M495.88445,92.46583h6.01538" fill="none" stroke="#5e0000" stroke-width="4" stroke-linecap="round"/></g><path d="M547.69161,86.65317c-1.45792,1.45792 -2.91583,0.51108 -3.38212,0.13437c-2.86606,-0.85789 -4.65189,-2.08356 -7.0253,-4.10392c-2.93545,-1.21668 -5.97266,-2.1441 -8.82296,-3.56781c-1.81487,-0.90652 -3.27645,-2.52413 -5.20472,-3.15445c-2.66029,-0.86961 -6.81191,0.48496 -9.44149,0.74728c-3.11946,0.31118 -5.7818,0.88513 -8.86148,1.31694c-4.07255,0.57102 -8.57944,0.0265 -12.69637,0.0265c-6.43858,0 -12.49625,-0.02622 -18.79427,-1.12728c-0.31997,0.23002 -0.74598,0.39882 -1.31272,0.45034c-2.48973,0.22634 -2.71607,-2.26339 -2.71607,-2.26339c-0.57198,-6.84883 2.29776,-10.78714 5.24814,-16.6666c1.65446,-3.29698 2.63452,-8.32835 5.6211,-10.79676c3.18764,-2.63459 8.0118,-2.29934 11.7293,-2.58621c3.82026,-0.2948 6.81933,-2.5546 10.61839,-2.99517c3.50134,-0.40605 6.73681,0.05596 10.2473,-0.65571c8.14451,-0.74248 17.50895,-1.45481 24.90674,2.62232c7.82699,4.31367 10.35018,10.52177 11.90774,18.71636c1.39974,7.36425 1.89401,14.52162 -1.17113,21.48412l-0.11798,0.23775c0.13889,0.62697 0.04507,1.40415 -0.73211,2.18134z" fill="#ff0000" stroke="none" stroke-width="0.5" stroke-linecap="butt"/><path d="M109.95933,67.88493c0.3295,-0.76841 1.37094,-3.31509 2.19002,-4.80694c-0.03852,-0.17439 -0.05882,-0.35562 -0.05882,-0.54159c0,-0.77872 0.35604,-1.47428 0.91421,-1.93278l0.24521,-0.20434c-0.2822,-0.71195 -0.45376,-1.89212 0.84058,-2.86288c1.56449,-1.17337 2.82302,-0.20506 3.29694,0.27228c3.43155,-4.038 7.81592,-6.73063 12.80105,-8.86636l2.57233,-1.28616c0.34741,-0.18291 0.74312,-0.28642 1.16302,-0.28642c1.38071,0 2.5,1.11929 2.5,2.5c0,0.52532 -0.16203,1.0128 -0.43883,1.41519l-1.98104,2.97156l-0.0575,-0.03833c-0.0654,0.12476 -0.13412,0.24802 -0.20649,0.36962c-0.47328,0.79517 -1.27745,1.31572 -2.10456,1.79306c0.48532,0.45602 0.78842,1.10373 0.78842,1.82223c0,0.00255 0,0.0051 -0.00001,0.00765c0.9048,1.3268 -0.13232,2.77878 -0.13232,2.77878l-1.58776,2.21598c-0.93261,1.67505 -1.77056,3.4119 -2.43909,5.20874c0,0 -0.85278,2.27407 -3.11869,1.49886c-0.23655,0.28351 -0.56466,0.53034 -1.01975,0.66961c0.05718,0.16412 0.11363,0.32958 0.16933,0.49649c0,0 0.66561,1.99682 -1.05689,2.93676c0.03345,0.04625 0.07822,0.1115 0.12796,0.19298c0.61209,-0.34779 1.24001,-0.66614 1.8752,-0.95703l1.75354,-0.70333c0,0 2.32119,-0.92848 3.24967,1.39272c0.92848,2.32119 -1.39272,3.24967 -1.39272,3.24967l-1.5798,0.63c-1.61618,0.68972 -3.15235,1.67763 -4.37734,2.93744c-0.21884,0.16322 -0.43361,0.33148 -0.64494,0.50395c-0.00263,0.00605 -0.00529,0.0121 -0.00798,0.01814c0.55748,1.24258 0.70148,2.3009 0.53991,3.21742c0.11075,0.05392 0.21796,0.10978 0.32132,0.16766c1.5372,0.86082 3.78061,3.73021 5.06308,5.25709c3.62154,4.31173 5.42045,8.82588 4.90233,14.56961c-0.77502,8.59159 -4.38606,15.74275 -7.86914,23.41198c0,0 -0.82104,1.8063 -2.60942,1.46908c-0.54887,-0.02402 -0.96136,-0.19589 -0.96136,-0.19589c-5.78066,-2.40861 -12.30354,-4.32106 -16.36455,-9.46475c-2.43711,-3.08685 -2.99173,-7.55837 -3.16908,-11.35427c-0.18614,-3.98388 -0.49357,-9.03842 0.75823,-13.15717c-0.77919,-0.68323 -1.37835,-1.69177 -1.85178,-2.58629c-2.46591,-4.65919 0.23223,-7.42677 2.46208,-11.05955c1.13669,-1.85184 1.34954,-4.27481 2.81422,-5.87984c0.04294,-0.04706 0.08626,-0.09368 0.12994,-0.13985c1.13783,-2.56 2.44184,-5.06353 3.55127,-7.65079z" fill="#0049ff" stroke="none" stroke-width="0.5" stroke-linecap="butt"/><g><path d="M134.33908,102.08259c0.38324,3.44919 -3.06594,3.83244 -3.06594,3.83244l-3.93389,0.42923c-1.44706,0.34955 -3.98632,0.69136 -5.18666,1.89761c-4.41053,4.43228 -2.5994,12.75225 -2.5994,18.28553c0,0 -0.00001,3.47042 -3.47042,3.47042c-3.47042,0 -3.47041,-3.47042 -3.47041,-3.47042c0,-8.04149 -1.51342,-17.05801 4.80416,-23.35948c2.51055,-2.50414 5.50279,-2.83843 8.69501,-3.65506l4.39511,-0.49622c0,0 3.44919,-0.38325 3.83244,3.06594z" fill="#002175" stroke="none" stroke-width="0.5" stroke-linecap="butt"/><path d="M134.12895,121.43745v-19.89706h30.53967v19.89706z" fill="none" stroke="#002175" stroke-width="4.5" stroke-linecap="butt"/><path d="M173.46035,120.512v-19.89706h30.53967v19.89706z" fill="none" stroke="#002175" stroke-width="4.5" stroke-linecap="butt"/><path d="M166.98224,102.46583h6.01538" fill="none" stroke="#002175" stroke-width="4" stroke-linecap="round"/></g><path d="M525.63388,126.76487c2.46598,0.411 2.05499,2.87698 2.05499,2.87698l-0.94822,2.85677c-1.96584,1.96078 -4.9926,5.43546 -7.53297,6.5301c-1.12921,0.48657 -2.4473,0.25 -3.66342,0.43139c-10.289,1.5347 -20.50124,1.36102 -28.73228,-5.86073c0,0 -1.86852,-1.66091 -0.20761,-3.52943c1.66091,-1.86852 3.52943,-0.20761 3.52943,-0.20761c5.51172,4.97927 13.32989,6.21115 20.55563,5.38464c2.18543,-0.24998 4.52403,0.04594 6.54866,-0.81398c1.96069,-0.83277 4.44569,-3.94423 5.96703,-5.4699l-0.44822,-0.14323c0,0 0.411,-2.46598 2.87698,-2.05499z" fill="#480000" stroke="none" stroke-width="0.5" stroke-linecap="butt"/><path d="M482.47288,100.73085c0,-1.38071 1.11929,-2.5 2.5,-2.5c1.38071,0 2.5,1.11929 2.5,2.5c0,1.38071 -1.11929,2.5 -2.5,2.5c-1.38071,0 -2.5,-1.11929 -2.5,-2.5z" fill="#480000" stroke="none" stroke-width="0.5" stroke-linecap="butt"/><path d="M515.47287,99.73085c0,-1.38071 1.11929,-2.5 2.5,-2.5c1.38071,0 2.5,1.11929 2.5,2.5c0,1.38071 -1.11929,2.5 -2.5,2.5c-1.38071,0 -2.5,-1.11929 -2.5,-2.5z" fill="#480000" stroke="none" stroke-width="0.5" stroke-linecap="butt"/><path d="M247.73976,74.78374c2.5,0 2.5,2.5 2.5,2.5l-0.12829,1.79057c-0.22523,0.67433 -0.43934,1.35238 -0.64423,2.03333c0.63242,-0.3239 1.27252,-0.3239 1.27252,-0.3239c7.16982,0.09313 13.53778,4.5589 20.56168,6.06391c1.90097,0.40732 8.0403,1.23103 9.85437,1.6418c4.85442,1.09923 9.51688,3.10499 14.38362,4.1416c4.82739,1.02823 9.87786,1.2488 14.74696,2.06539c3.23858,0.54314 6.40208,1.54657 9.66724,1.89605c4.79628,0.51336 9.91208,0.19027 14.7321,0.19063c14.01801,0.00141 28.03602,0.00061 42.05402,0.00061c2.66667,0 5.33465,-0.08393 8,0c1.23887,0.03901 3.48285,0.76529 3.6903,-0.45671c0.39308,-2.31549 -0.1903,-4.69467 -0.1903,-7.04329c0,-8.67818 0.21916,-16.75216 -1.87916,-25.23215c-0.92924,-2.52362 -4.30008,-7.69137 0.29129,-10.01874c1.52572,-0.77339 3.42384,0.39423 5.04458,0.9412c6.59905,2.22703 11.2481,9.13732 16.60091,13.35424c2.4945,1.96516 4.84163,4.1722 7.60265,5.74101c0.92764,0.52709 2.12079,0.46743 3.03445,1.01839c1.58421,0.95533 2.96135,2.22349 4.35637,3.43851c4.11313,3.5824 6.16545,7.8482 9.53783,12.00781c2.71326,3.34663 6.07459,6.52013 4.30381,11.4742c-0.61682,1.72566 -2.10143,3.01297 -2.96851,4.62745c-1.5516,2.88902 -2.57921,6.03021 -3.87395,9.0431c-4.91795,9.97426 -10.9623,19.1954 -16.38305,28.85125c-0.77137,1.37402 -1.19962,2.95049 -2.13911,4.21551c-1.91746,2.58185 -5.01092,4.05185 -7.28275,6.32812c-2.1024,2.10651 -5.07385,8.96109 -9.49078,7.59639c-2.36186,-0.72974 -2.56005,-4.2848 -3.28868,-6.647c-0.51249,-1.66148 -0.17844,-3.47475 -0.3666,-5.20327c-0.53277,-4.89431 -1.05548,-9.57384 -1.09922,-14.51496c-0.01187,-1.3403 -0.1851,-2.69353 -0.00009,-4.02105c0.06595,-0.47322 1.07008,-0.89438 0.73223,-1.23223c-0.33785,-0.33785 -0.76144,0.65078 -1.23223,0.73223c-0.98536,0.17048 -2,0 -3,0c-7.83612,0 -16.0054,-0.67378 -23.80937,-0.00728c-10.37405,0.886 -20.6107,3.49494 -31.05238,4.00345c-14.58293,0.7102 -28.37781,-3.52744 -42.89213,-3.88825c-6.50174,-0.1729 -12.2037,-2.24733 -18.54009,-3.12526c-2.33854,-0.32401 -4.67478,-0.66444 -7.01149,-1.00139c-1.0786,-0.15553 -2.22156,0.25285 -3.26892,-0.04815c-4.18253,-1.20199 -8.64149,-4.24597 -12.54365,-6.19705c-2.4955,-1.24775 -4.78789,-2.98824 -7.45635,-3.80295c-1.27237,-0.38847 -3.09027,0.54047 -3.96415,-0.46261c-1.44579,-1.65953 -2.09927,-4.11708 -1.93802,-6.31215c0.2077,-2.82741 3.35704,-4.71431 4.10484,-7.44893c0.71115,-2.60062 0.02502,-5.51487 1.00854,-8.02518c0.61275,-1.56397 1.91454,-2.78537 2.58582,-4.32513c0.8799,-2.0183 0.81922,-4.32912 1.35199,-6.46546c0.60513,-2.41603 1.26737,-4.82093 2.05365,-7.18423l-0.12829,-0.20943c0,0 0,-2.5 2.5,-2.5z" fill-opacity="0.52941" fill="#0024c4" stroke="none" stroke-width="0.5" stroke-linecap="butt"/></g></g></svg>