<svg version="1.1" xmlns="http://www.w3.org/2000/svg" xmlns:xlink="http://www.w3.org/1999/xlink" width="72" height="108.16129" viewBox="0,0,72,108.16129"><g transform="translate(-344,-134.54441)"><g data-paper-data="{&quot;isPaintingLayer&quot;:true}" fill-rule="nonzero" stroke-linejoin="miter" stroke-miterlimit="10" stroke-dasharray="" stroke-dashoffset="0" style="mix-blend-mode: normal"><path d="M344.91667,242.04169v-106h70.25v106z" fill="#006eff" stroke="none" stroke-width="0" stroke-linecap="butt"/><path d="M345.47132,205.66666v-69.5h69.75v69.5z" fill="#c0008d" stroke="#000000" stroke-width="0" stroke-linecap="butt"/><text transform="translate(355.41667,216.78367) scale(0.26141,0.26141)" font-size="40" xml:space="preserve" fill="#000000" fill-rule="nonzero" stroke="none" stroke-width="1" stroke-linecap="butt" stroke-linejoin="miter" stroke-miterlimit="10" stroke-dasharray="" stroke-dashoffset="0" font-family="Serif" font-weight="normal" text-anchor="start" style="mix-blend-mode: normal"><tspan x="0" dy="0">Minh UWU</tspan></text><path d="M414.16667,220.66671h-69" fill="none" stroke="#000000" stroke-width="2" stroke-linecap="round"/><path d="M379.86404,241.16671v-20" fill="none" stroke="#000000" stroke-width="2" stroke-linecap="round"/><text transform="translate(363.70833,235.28339) scale(0.335,0.335)" font-size="40" xml:space="preserve" fill="#000000" fill-rule="nonzero" stroke="none" stroke-width="1" stroke-linecap="butt" stroke-linejoin="miter" stroke-miterlimit="10" stroke-dasharray="" stroke-dashoffset="0" font-family="Serif" font-weight="normal" text-anchor="start" style="mix-blend-mode: normal"><tspan x="0" dy="0">40</tspan></text><text transform="translate(398.95834,235.53339) scale(0.335,0.335)" font-size="40" xml:space="preserve" fill="#000000" fill-rule="nonzero" stroke="none" stroke-width="1" stroke-linecap="butt" stroke-linejoin="miter" stroke-miterlimit="10" stroke-dasharray="" stroke-dashoffset="0" font-family="Serif" font-weight="normal" text-anchor="start" style="mix-blend-mode: normal"><tspan x="0" dy="0">10</tspan></text><path d="M352.62899,192.92013c-0.5803,0.49527 -1.34169,0.11457 -1.34169,0.11457l-1.19098,-0.61803c-2.83036,-2.36345 -2.75106,-8.05875 0.25523,-10.5039c0.98938,-0.80471 2.13868,-0.78632 2.95122,-1.93421c0.36061,-0.50944 0.68302,-5.23135 0.40967,-5.428c-0.47558,-0.34215 -3.0879,-0.65196 -3.78258,-0.82637c-0.92571,-1.42827 -2.82623,-2.95285 0.29376,-4.25065c1.176,-0.48917 4.52424,1.53852 5.60106,2.03829c0.5898,0.27374 1.35761,0.34914 1.7454,0.87108c0.44575,0.59996 0.4225,1.4399 0.52198,2.18067c0.59322,4.4173 -2.87826,6.91008 -4.93243,10.26026c-1.54858,2.52561 -3.63947,4.26255 -0.07091,5.6939c0,0 1.14893,0.4924 0.65653,1.64133c-0.27288,0.63672 -0.7474,0.76935 -1.11625,0.76106z" fill="#000000" stroke="none" stroke-width="0.5" stroke-linecap="butt"/><path d="M363.66122,168.55055c-0.88388,-0.88388 0,-1.76777 0,-1.76777l0.13388,0.38388c0.14624,-4.3209 3.30995,-4.10587 6.62786,-4.01814c0.0451,-0.22324 0.09463,-0.46211 0.14641,-0.72701c0,0 0.16833,-0.84166 0.92346,-0.99061c0.35868,-0.26425 0.80226,-0.26425 0.80226,-0.26425l0.25485,0.02427c1.8561,-0.36283 3.08494,-0.30907 4.89043,0.28987c1.07977,0.3582 2.30736,0.66638 3.18094,1.47477c0.61752,-0.4039 1.32207,-0.73432 2.02849,-0.97477c0,0 0.68212,-0.22737 1.18413,0.18011c1.73949,-0.06269 5.13956,-0.59756 6.4067,0.46713c3.52626,2.96285 0.18516,5.93064 -2.90836,6.75517c-1.51857,0.40475 -5.51191,0.34004 -6.92537,-0.63217c-0.08768,0.13049 -0.17671,0.24355 -0.26543,0.33546c-2.96615,3.07251 -9.22887,1.3992 -9.8343,-2.74648c-0.04113,-0.28163 -0.06984,-0.53511 -0.08783,-0.76853c-1.8829,-0.20058 -4.04537,-0.49057 -3.92426,1.59515l-0.86612,1.38388c0,0 -0.88388,0.88388 -1.76777,0zM372.7951,164.41666c0,0.2167 -0.03757,0.39583 -0.09968,0.54391c-0.055,0.80318 0.01675,1.60563 0.39031,2.26357c0.73,1.28576 4.44678,0.86341 5.36298,0.02266c0.14954,-0.13723 0.27656,-0.2703 0.38265,-0.39927c-0.28153,-0.67871 -0.25731,-1.32098 -0.02005,-1.90887c-1.24159,-1.13725 -4.66785,-1.52299 -5.77108,-1.29627l-0.16618,0.00541c-0.03342,0.17914 -0.06519,0.36267 -0.09302,0.5487c0.00917,0.0687 0.01405,0.14199 0.01405,0.22016zM382.17567,164.87271c-0.38836,0.21388 -0.61347,0.42322 -0.70769,0.6228c-0.00946,0.11188 -0.02209,0.22495 -0.03764,0.3386c0.25011,0.97971 3.59378,1.60506 5.32757,1.11599c2.87223,-0.8102 3.18019,-2.28955 0.03719,-2.28344c0,0 -3.09524,0 -3.25,0l-0.69683,0.21268c0,0 -0.32016,0.08004 -0.6726,-0.00664z" fill="#6d0000" stroke="none" stroke-width="0.5" stroke-linecap="butt"/><path d="M384.80537,172.28452c0.04062,-0.32141 0.24195,-1.11786 1.23973,-1.11786c1.25,0 1.25,1.25 1.25,1.25l-0.871,1.94116c-1.40095,0.4447 -2.71141,1.16436 -4.13386,1.53457c-2.84661,0.74087 -5.56657,-0.68794 -8.14043,-1.53987c0,0 -1.18585,-0.39528 -0.79057,-1.58114c0.39528,-1.18585 1.58114,-0.79057 1.58114,-0.79057c2.10436,0.70586 4.51264,2.12438 6.85957,1.46013c1.03276,-0.2923 2.00541,-0.76417 3.00541,-1.15641z" fill="#6d0000" stroke="none" stroke-width="0.5" stroke-linecap="butt"/><g stroke="none" stroke-width="0.5" stroke-linecap="butt"><path d="M372.23302,147.62664c-0.74584,-1.07238 -1.58743,-2.50551 -2.34539,-2.93028c-0.84701,-0.47467 -1.88457,-0.49639 -2.77735,-0.87806c-0.75467,-0.32262 -1.53555,-0.59605 -2.25,-1c-0.17075,-0.09654 -0.21737,-0.61372 -0.35232,-0.47136c-3.41878,3.60646 -3.06363,10.82545 -0.74517,14.76221c1.13884,0.32818 1.39681,-1.61823 1.68655,-2.1894c1.34067,-2.6429 4.07539,-5.22974 6.39699,-7.00309zM374.8426,148.42698c-0.11527,0.45393 -0.49629,0.73969 -0.49629,0.73969l-1,0.75c-1.92868,1.41154 -4.5259,3.80717 -5.60301,5.99691c-0.65819,1.33811 -1.16427,3.401 -3.12048,3.72212c-0.73393,0.12047 -1.46198,-0.27434 -2.19297,-0.41152c-3.32488,-4.0598 -3.80575,-9.80971 -1.69076,-14.62786c0.26843,-0.61151 2.35065,-4.33183 2.9456,-4.60993c0.64563,-0.30179 4.03327,1.37206 4.39768,1.52864c1.04505,0.44906 2.25781,0.51954 3.22265,1.12195c1.28733,0.80375 2.31414,3.04001 3.4252,4.1458c0,0 0.80336,0.80336 0.1124,1.64419z" fill="#000000"/><path d="M371.893,147.89876c-2.3216,1.77335 -5.11822,4.42572 -6.45889,7.06862c-0.28974,0.57117 -0.55313,2.51549 -1.69198,2.18731c-2.31845,-3.93677 -2.66955,-11.24845 0.74923,-14.85491c0.13495,-0.14236 0.18271,0.37443 0.35347,0.47097c0.71445,0.40395 1.51081,0.67494 2.26547,0.99756c0.89279,0.38166 1.95448,0.40961 2.80149,0.88428c0.75796,0.42477 1.62164,1.88265 2.36748,2.95504z" data-paper-data="{&quot;noHover&quot;:false,&quot;origItem&quot;:[&quot;Path&quot;,{&quot;applyMatrix&quot;:true,&quot;segments&quot;:[[[741.46604,300.25327],[0,0],[-1.49168,-2.14477]],[[736.77526,294.39271],[1.51592,0.84953],[-1.69403,-0.94934]],[[731.22055,292.6366],[1.78558,0.76333],[-1.50934,-0.64524]],[[726.72055,290.6366],[1.4289,0.8079],[-0.34151,-0.19309]],[[726.01591,289.69388],[0.2699,-0.28472],[-6.83756,7.21292]],[[724.52556,319.21831],[-4.63691,-7.87353],[2.27768,0.65636]],[[727.89866,314.83951],[-0.57947,1.14233],[2.68134,-5.28579]],[[740.69263,300.83333],[-4.6432,3.5467],[0,0]]],&quot;closed&quot;:true}]}" fill="#ff008a"/></g><g data-paper-data="{&quot;index&quot;:null}" stroke="none" stroke-width="0.5" stroke-linecap="butt"><path d="M389.26842,149.08005c2.5492,1.42694 5.62249,3.60072 7.3237,6.02728c0.36765,0.52441 0.89849,2.41473 1.97943,1.92868c1.73797,-4.22526 1.06789,-11.42185 -2.82688,-14.50817c-0.15374,-0.12183 -0.12669,0.39674 -0.28207,0.51648c-0.65009,0.501 -1.38441,0.88219 -2.08583,1.30836c-0.82979,0.50417 -1.85382,0.67251 -2.62514,1.26228c-0.69022,0.52776 -1.32051,2.06557 -1.90708,3.23271zM386.25309,148.36573c0.94338,-1.25191 1.64336,-3.61097 2.80399,-4.58882c0.86987,-0.73289 2.06044,-0.97429 3.03143,-1.56673c0.33858,-0.20658 3.45523,-2.34302 4.13708,-2.13563c0.62832,0.19111 3.21609,3.57929 3.56836,4.14666c2.77558,4.47033 3.11329,10.23043 0.39644,14.71991c-0.70422,0.23925 -1.36907,0.73313 -2.11266,0.71774c-1.98197,-0.04104 -2.7749,-2.01154 -3.61584,-3.24303c-1.37616,-2.01527 -4.28629,-4.01921 -6.39532,-5.14359l-1.09608,-0.60093c0,0 -0.41763,-0.22896 -0.59597,-0.66201c-0.80301,-0.73458 -0.12142,-1.64355 -0.12142,-1.64355z" fill="#000000"/><path d="M388.79609,148.8354c0.58657,-1.16715 1.23522,-2.73259 1.92544,-3.26035c0.77131,-0.58976 1.81836,-0.76768 2.64815,-1.27186c0.70142,-0.42618 1.4514,-0.80714 2.1015,-1.30813c0.15537,-0.11974 0.12951,-0.63808 0.28325,-0.51625c3.89477,3.08632 4.58198,10.37411 2.84401,14.59936c-1.08093,0.48605 -1.61685,-1.40143 -1.9845,-1.92584c-1.70121,-2.42656 -4.84506,-4.65645 -7.39426,-6.08339z" data-paper-data="{&quot;noHover&quot;:false,&quot;origItem&quot;:[&quot;Path&quot;,{&quot;applyMatrix&quot;:true,&quot;segments&quot;:[[[741.46604,300.25327],[0,0],[-1.49168,-2.14477]],[[736.77526,294.39271],[1.51592,0.84953],[-1.69403,-0.94934]],[[731.22055,292.6366],[1.78558,0.76333],[-1.50934,-0.64524]],[[726.72055,290.6366],[1.4289,0.8079],[-0.34151,-0.19309]],[[726.01591,289.69388],[0.2699,-0.28472],[-6.83756,7.21292]],[[724.52556,319.21831],[-4.63691,-7.87353],[2.27768,0.65636]],[[727.89866,314.83951],[-0.57947,1.14233],[2.68134,-5.28579]],[[740.69263,300.83333],[-4.6432,3.5467],[0,0]]],&quot;closed&quot;:true}]}" fill="#ff008a"/></g><path d="M378.93976,175.11462c0.46987,-0.86179 1.46862,-0.52887 1.46862,-0.52887l0.71177,0.25982c0.65676,0.43071 1.55887,0.6231 1.97028,1.29212c1.14229,1.85754 0.22007,8.41874 -3.51327,6.61917c-0.67048,-0.32319 -0.31315,-1.45531 -0.47327,-2.18219c-0.34089,-1.54751 -0.47507,-2.50999 -1.73762,-3.52066c0,0 -0.94907,-0.81349 -0.13558,-1.76256c0.69887,-0.81535 1.49781,-0.32983 1.70907,-0.17682z" fill="#ff0000" stroke="none" stroke-width="0.5" stroke-linecap="butt"/><g fill="none" stroke="#000000" stroke-width="2"><path d="M345,241.7057v-106.16129h70v106.16129z" stroke-linecap="butt"/><path d="M413.66666,206.08273h-68.33333" stroke-linecap="round"/></g><text transform="translate(384.43895,236.72918) scale(0.42958,0.42958)" font-size="40" xml:space="preserve" fill="#ff8500" fill-rule="nonzero" stroke="none" stroke-width="1" stroke-linecap="butt" stroke-linejoin="miter" stroke-miterlimit="10" stroke-dasharray="" stroke-dashoffset="0" font-family="Serif" font-weight="normal" text-anchor="start" style="mix-blend-mode: normal"><tspan x="0" dy="0">C</tspan></text><g fill="#ffcf00" stroke-linecap="butt"><text transform="translate(350.22619,236.87738) scale(0.42958,0.42958)" font-size="40" xml:space="preserve" fill="#ffcf00" fill-rule="nonzero" stroke="none" stroke-width="1" stroke-linecap="butt" stroke-linejoin="miter" stroke-miterlimit="10" stroke-dasharray="" stroke-dashoffset="0" font-family="Serif" font-weight="normal" text-anchor="start" style="mix-blend-mode: normal"><tspan x="0" dy="0">S</tspan></text><path d="M353.71054,238.02289v-13.69875h0.66823v13.69875z" stroke="#000000" stroke-width="0"/><path d="M354.95154,238.02289v-13.69875h0.66823v13.69875z" stroke="#000000" stroke-width="0"/></g><path d="M377.31389,187.52381c-1,0 -1,-1 -1,-1l0.00811,-0.72244c-0.0476,0.00534 -0.09787,0.00816 -0.15096,0.00816c-1,0 -1,-1 -1,-1l0.16795,-1.26899c1.20849,-1.69773 0.11776,-5.63379 0.11776,-7.73101c0,0 0,-1 1,-1c1,0 1,1 1,1c0,0.32203 0.01427,0.65561 0.03717,0.99745c0.75296,-0.1194 1.04202,0.65142 1.04202,0.65142c1.09545,2.9674 -1.03689,5.23832 -0.23171,7.92671l0.00967,1.1387c0,0 0,1 -1,1z" fill="#00ffd7" stroke="none" stroke-width="0.5" stroke-linecap="butt"/><path d="M382.82838,187.95273c-0.85749,0.5145 -1.37199,-0.343 -1.37199,-0.343l-0.40313,-1.78348c0.60666,-0.80487 0.40348,-1.28979 0.40348,-2.30244c0,0 0,-1 1,-1c1,0 1,1 1,1c0,1.45146 0.04611,2.14637 -0.73938,3.41184l0.45401,-0.35491c0,0 0.5145,0.85749 -0.343,1.37199z" fill="#00ffd7" stroke="none" stroke-width="0.5" stroke-linecap="butt"/><path d="M396.98096,185.77138l0.04692,0.14076c1.00575,0.00094 2.01149,0.00239 3.01722,0.00452c2.60205,0.00551 5.63019,0.05901 6.24095,3.34983c0.2741,1.47688 -1.3262,3.58401 -1.94212,4.66449c-1.5999,2.80662 -2.33114,5.52261 -3.3407,8.55651c-0.09449,0.46422 -0.15568,0.93663 -0.18589,1.4106c0.135,0.18027 0.22777,0.42803 0.22777,0.76857c0,1.25 -1.25,1.25 -1.25,1.25l-1.5,-1.25c0.00419,-0.94529 0.10879,-1.89344 0.29188,-2.82083c0.7742,-2.31938 1.23992,-4.82009 2.37851,-6.93764c0.67285,-1.25137 2.89044,-3.83008 2.83867,-5.34136c-0.05593,-1.63266 -4.21774,-1.15017 -5.25905,-1.15017c-5.83333,0 -11.66667,0 -17.5,0c-4.63951,0 -9.31136,-0.1924 -13.94098,-0.13197c-0.6981,0.00911 0.4286,1.329 0.63035,1.99738c0.22145,0.73362 0.45269,1.47191 0.55127,2.23186c0.56028,4.31934 0.50937,8.71263 0.50937,13.15273c0,0 0,1.25 -1.25,1.25c-1.25,0 -1.25,-1.25 -1.25,-1.25c0,-0.93719 -0.00331,-1.8541 -0.01501,-2.75644c-2.0747,-0.08956 -7.70754,-1.05039 -7.49107,1.13327l0.23181,1.12803c0,0 0.24515,1.22573 -0.98058,1.47087c-1.22573,0.24515 -1.47087,-0.98058 -1.47087,-0.98058l-0.26819,-1.37197c0.22444,-5.29566 5.88207,-3.95077 9.91999,-3.87627c-0.12904,-3.57176 -0.47419,-6.99147 -1.37426,-10.64072c-0.34326,-1.39173 -0.70225,-2.91106 1.13916,-3.72422c0.38018,-0.16788 4.90544,-0.13197 5.55902,-0.13197c3.16667,0 6.33333,0 9.5,0c4.4352,0 8.87048,-0.00658 13.30572,-0.00591c-1.23913,-2.59009 -4.38719,-3.55202 -6.73119,-5.24954c-0.32298,0.01296 -1.14331,-0.05377 -1.30752,-1.03905c-0.2055,-1.23299 1.02749,-1.43849 1.02749,-1.43849l1.31894,-0.20574c2.47783,-1.25885 5.08837,-2.67254 7.45118,-4.10662c3.26,-2.28723 2.73005,-3.99731 1.96662,-7.43394c-0.42175,-1.89852 -0.15305,-4.09812 -1.31633,-5.81992c-1.76985,-2.61961 -5.24724,-4.37307 -7.71166,-6.19835c-2.97761,-2.20538 -5.65188,-4.62612 -8.15521,-7.33805c-0.15326,0.13577 -0.28903,0.20365 -0.28903,0.20365c-3.24379,1.61632 -4.87813,3.58702 -7.46432,6.05453c-3.4639,3.30493 -6.88925,6.39161 -9.87802,10.11992c-0.95138,1.1868 -4.15606,5.31151 -2.33279,6.32363c1.9076,2.49783 3.69512,5.08963 6.02988,7.20435l0.83624,-0.07046c0,0 1.25,0 1.25,1.25c0,0.94936 -0.72103,1.17769 -1.06786,1.23261c-0.20907,0.47445 -0.7179,0.67799 -0.7179,0.67799c-6.20573,2.47629 -10.00038,8.51366 -13.67069,13.77752c-1.68178,2.41197 -0.24588,5.84143 -1.83891,8.39555c0.03048,0.80686 -0.07401,1.61904 -0.22892,2.41148l0.02427,0.25485c0,0 0,1.25 -1.25,1.25c-1.25,0 -1.25,-1.25 -1.25,-1.25l0.02427,-0.74515c0.17463,-0.8498 0.24776,-1.72128 0.27108,-2.58852c1.38791,-2.394 0.68516,-4.92271 1.50646,-7.52252c0.57928,-1.83367 2.0585,-3.12567 3.19818,-4.64382c3.35651,-4.47116 5.84696,-8.53999 10.89352,-11.03887c-2.25505,-1.98116 -3.97656,-4.3703 -5.7774,-6.82725c-3.00907,-2.62071 0.16085,-7.16355 2.16721,-9.67637c3.04286,-3.81097 6.54922,-6.97619 10.08645,-10.34455c2.74956,-2.61829 4.61462,-4.74718 8.07121,-6.481c0,0 0.37413,-0.18706 0.79775,-0.12835c0.04976,-0.06114 0.10778,-0.12218 0.17506,-0.18274c0.92912,-0.83621 1.76532,0.09291 1.76532,0.09291c2.54232,2.82698 5.26301,5.3213 8.31763,7.58377c2.70802,2.00576 6.37688,3.90641 8.28834,6.80165c1.38096,2.09171 1.16945,4.35322 1.68119,6.65526c0.99958,4.49655 1.08306,7.11079 -3.0309,10.09087c-2.1775,1.29488 -4.52037,2.59906 -6.82099,3.77572c2.59,1.63945 5.20541,2.78393 6.32146,6.03365z" fill="#6d0000" stroke="none" stroke-width="0.5" stroke-linecap="butt"/><path d="M361.34662,174.72531c-0.78087,-0.6247 -0.15617,-1.40556 -0.15617,-1.40556l0.74043,-0.91575c1.49673,-1.20744 2.72323,-2.64703 4.29254,-3.77329c0,0 0.81373,-0.58124 1.39497,0.2325c0.58124,0.81373 -0.2325,1.39497 -0.2325,1.39497c-1.48405,1.0544 -2.61981,2.43377 -4.0408,3.56004l-0.5929,0.75092c0,0 -0.6247,0.78087 -1.40556,0.15617z" fill="#ff00e1" stroke="none" stroke-width="0.5" stroke-linecap="butt"/><path d="M364.50465,175.54444c-0.6,-0.8 0.2,-1.4 0.2,-1.4l0.62648,-0.46822c1.40048,-1.16697 2.35505,-2.11773 3.27194,-3.72792c0,0 0.49614,-0.86824 1.36438,-0.3721c0.86824,0.49614 0.3721,1.36438 0.3721,1.36438c-1.03243,1.80099 -2.15822,2.96378 -3.72806,4.27208l-0.70685,0.53178c0,0 -0.8,0.6 -1.4,-0.2z" fill="#ff00e1" stroke="none" stroke-width="0.5" stroke-linecap="butt"/><path d="M368.24356,175.72499c-0.44721,-0.89443 0.44721,-1.34164 0.44721,-1.34164l-0.00032,0.10307c1.17638,-1.47033 2.14409,-2.78319 3.78473,-3.74355c0,0 0.86824,-0.49614 1.36438,0.3721c0.49614,0.86824 -0.3721,1.36438 -0.3721,1.36438c-1.40565,0.77803 -2.21724,2.00879 -3.21527,3.25645l-0.66699,0.4364c0,0 -0.89443,0.44721 -1.34164,-0.44721z" fill="#ff00e1" stroke="none" stroke-width="0.5" stroke-linecap="butt"/><path d="M389.08328,173.60983c-0.83205,-0.5547 -0.27735,-1.38675 -0.27735,-1.38675l0.63381,-0.94723c0.15683,-0.3151 0.31366,-0.63019 0.47048,-0.94529c0,0 0.44721,-0.89443 1.34164,-0.44721c0.89443,0.44721 0.44721,1.34164 0.44721,1.34164c-0.17651,0.35157 -0.35301,0.70314 -0.52952,1.05471l-0.69953,1.05277c0,0 -0.5547,0.83205 -1.38675,0.27735z" fill="#ff00e1" stroke="none" stroke-width="0.5" stroke-linecap="butt"/><path d="M391.43088,174.65155c-0.70711,-0.70711 0,-1.41421 0,-1.41421l0.20839,-0.18093c0.76255,-1.1436 1.36238,-1.84974 1.50644,-3.236c0,0 0.12403,-0.99228 1.11631,-0.86824c0.99228,0.12403 0.86824,1.11631 0.86824,1.11631c-0.24071,1.71537 -0.87928,2.67564 -1.82689,4.09733l-0.45828,0.48574c0,0 -0.70711,0.70711 -1.41421,0z" fill="#ff00e1" stroke="none" stroke-width="0.5" stroke-linecap="butt"/><path d="M396.0241,175.33887c-0.89443,-0.44721 -0.44721,-1.34164 -0.44721,-1.34164l0.52952,-1.05471c0.50507,-0.75529 0.91734,-1.57307 1.28443,-2.40421c0,0 0.40614,-0.91381 1.31995,-0.50767c0.91381,0.40614 0.50767,1.31995 0.50767,1.31995c-0.4,0.89497 -0.83958,1.7794 -1.38223,2.59579l-0.47048,0.94529c0,0 -0.44721,0.89443 -1.34164,0.44721z" fill="#ff00e1" stroke="none" stroke-width="0.5" stroke-linecap="butt"/></g></g></svg>