<svg version="1.1" xmlns="http://www.w3.org/2000/svg" xmlns:xlink="http://www.w3.org/1999/xlink" width="72" height="108.16129" viewBox="0,0,72,108.16129"><defs><linearGradient x1="380.00695" y1="177.26667" x2="380.00695" y2="205.73333" gradientUnits="userSpaceOnUse" id="color-1"><stop offset="0" stop-color="#ffc300" stop-opacity="0"/><stop offset="1" stop-color="#ffc300"/></linearGradient></defs><g transform="translate(-344,-134.54441)"><g data-paper-data="{&quot;isPaintingLayer&quot;:true}" fill-rule="nonzero" stroke-linejoin="miter" stroke-miterlimit="10" stroke-dasharray="" stroke-dashoffset="0" style="mix-blend-mode: normal"><path d="M344.91667,242.04171v-106h70.25v106z" fill="#006eff" stroke="none" stroke-width="0" stroke-linecap="butt"/><g stroke-width="0" stroke-linecap="butt"><path d="M345.07914,205.13333v-69.26667h69.26667v69.26667z" fill="#430052" stroke="none"/><path d="M345.15737,184.45243v-26.6009h69.11019v26.6009z" fill="#ffffff" stroke="#000000"/><path d="M371.5972,198.90856v-54.24498h15.95441v54.24498z" fill="#0093ff" stroke="#000000"/></g><text transform="translate(362.74124,216.78367) scale(0.26141,0.26141)" font-size="40" xml:space="preserve" fill="#000000" fill-rule="nonzero" stroke="none" stroke-width="1" stroke-linecap="butt" stroke-linejoin="miter" stroke-miterlimit="10" stroke-dasharray="" stroke-dashoffset="0" font-family="Serif" font-weight="normal" text-anchor="start" style="mix-blend-mode: normal"><tspan x="0" dy="0">Josemlo</tspan></text><path d="M414.16667,220.66671h-69" fill="none" stroke="#000000" stroke-width="2" stroke-linecap="round"/><path d="M379.86404,241.16671v-20" fill="none" stroke="#000000" stroke-width="2" stroke-linecap="round"/><text transform="translate(363.70833,235.28339) scale(0.335,0.335)" font-size="40" xml:space="preserve" fill="#000000" fill-rule="nonzero" stroke="none" stroke-width="1" stroke-linecap="butt" stroke-linejoin="miter" stroke-miterlimit="10" stroke-dasharray="" stroke-dashoffset="0" font-family="Serif" font-weight="normal" text-anchor="start" style="mix-blend-mode: normal"><tspan x="0" dy="0">20</tspan></text><text transform="translate(398.95834,235.53339) scale(0.335,0.335)" font-size="40" xml:space="preserve" fill="#000000" fill-rule="nonzero" stroke="none" stroke-width="1" stroke-linecap="butt" stroke-linejoin="miter" stroke-miterlimit="10" stroke-dasharray="" stroke-dashoffset="0" font-family="Serif" font-weight="normal" text-anchor="start" style="mix-blend-mode: normal"><tspan x="0" dy="0">30</tspan></text><g fill="#ae00ff" stroke="#000000" stroke-width="0" stroke-linecap="butt"><path d="M352.36137,238.33677v-14.60345h3.41379v14.60345z"/><path d="M359.66309,230.65574h-11v-3.60345h11z"/></g><path d="M369.21708,161.35545c5.41687,0.08032 10.63241,1.02232 15.96749,2.56567c2.39371,1.10712 5.19635,0.77875 7.4146,1.92955c2.62661,1.36265 4.76394,6.01624 5.96251,8.81439c0.52198,4.43663 1.5725,8.83775 2.04023,13.22044c0.22752,2.13189 1.4403,4.29655 1.48064,6.41384c0.41232,2.43036 4.14418,9.76151 0.63556,11.12862c-1.43601,0.55953 -3.81855,0.04037 -5.33402,0.04037c-4.72797,0 -9.45595,0 -14.18391,0c-5.15778,0 -10.31558,0 -15.47336,0c-4.87671,0 -9.8176,0.21211 -14.73654,0.21211c-1.0428,-0.00881 -2.91651,-0.01746 -3.21954,-1.52043c-0.2392,-1.18637 0.66388,-2.71131 0.95202,-3.66704c0.22991,-0.76257 -0.21532,-1.87034 -0.02273,-2.67631c0.52632,-2.20271 1.49772,-4.21419 1.83132,-6.49725c-0.00424,-2.75102 -0.77864,-7.83275 0.63712,-10.23401c0.57723,-0.97903 1.73596,-1.65982 2.41928,-2.58153c1.10387,-1.48899 1.84016,-3.18249 2.77151,-4.79372c1.88135,-3.19367 3.80474,-6.00663 6.05125,-8.88115c1.45604,-1.86306 1.87359,-3.66705 4.42157,-3.69123c0,0 0.25438,0 0.38502,0.2177z" fill="#1a5100" stroke="none" stroke-width="0.5" stroke-linecap="butt"/><path d="M366.60103,153.98552c0.03899,-0.0079 0.06429,-0.0079 0.06429,-0.0079h0.096c3.6814,0 7.61935,0.58367 11.34959,1.04568c3.3209,-0.00237 7.66771,-0.51017 10.85329,0.80497c1.37292,0.5668 3.42211,4.557 4.30409,6.10614c1.69471,3.31524 -0.70935,3.24918 -2.44257,3.80021c-1.04246,0.33143 -0.92714,0.86513 -1.80104,1.38654c-2.38965,1.42579 -6.65183,0.00158 -8.99489,-0.85455c-2.68933,-0.99032 -5.28865,-0.02706 -8.02257,-0.27301c-3.01728,-0.27144 -5.87552,-1.04337 -8.98984,-1.04337c-0.84835,0 -2.56054,0.53471 -3.03092,-0.78079c-0.25311,-0.70786 0.55603,-2.35445 0.86395,-2.81115c0.4623,-0.68566 1.29277,-0.90511 1.7975,-1.53674c1.34768,-1.68653 2.07487,-4.10973 3.52558,-5.70083c0,0 0.20171,-0.21958 0.42756,-0.13521z" fill="#a9a9a9" stroke="none" stroke-width="0.5" stroke-linecap="butt"/><path d="M373.47672,161.33213l0.19997,-0.07386c1.74816,-1.07664 4.28775,-2.06768 6.40933,-1.38215c1.97117,0.63693 2.8728,2.9767 3.53947,4.64306c1.78776,4.46849 3.71426,9.09755 4.66572,13.83491c2.96029,7.44003 9.55271,12.90313 12.59311,20.35982c0.76043,1.865 2.61121,5.33619 0.8867,7.27406c-0.87087,0.97861 -3.32154,0.81877 -4.48117,0.82063c-10.33652,0 -20.49758,-1.43876 -30.8533,-1.43876c-2.31529,-0.01028 -9.68733,1.93583 -11.09558,-0.8283c-0.65744,-1.29041 1.23285,-3.23424 1.54197,-4.41687c1.25773,-4.81178 2.23394,-9.99533 3.98772,-14.67208c0.22748,-2.42517 -0.0635,-5.95862 0.86259,-8.18441c1.3902,-3.34127 3.81015,-6.11817 5.6894,-9.12565c1.49429,-2.39139 2.57586,-5.05169 4.94751,-6.70657c0,0 0.56389,-0.37592 1.10656,-0.10385z" fill="#247000" stroke="none" stroke-width="0.5" stroke-linecap="butt"/><path d="M367.84022,172.47403c2.72524,4.57127 5.94944,9.50821 9.92309,12.99163c1.32425,1.16087 3.13454,1.44024 4.49548,2.54601c3.26967,2.65662 6.14079,5.76218 9.60891,8.31199c2.66837,1.96182 4.45952,0.68186 6.31723,3.32894c1.15909,1.65161 5.59616,2.18912 5.59616,4.35995c0,2.84028 -2.57932,2.17145 -4.08592,1.79479c-2.14754,-0.53688 -3.43449,-2.98263 -5.21771,-3.8862c-1.50868,-0.76445 -3.3506,-0.97732 -4.89925,-1.93028c-3.80547,-2.34167 -6.59142,-5.5656 -9.85084,-8.45024c-2.05444,-1.8182 -4.85173,-2.63224 -6.92461,-4.65192c-2.48785,-2.42398 -3.70757,-5.35262 -5.62917,-8.13054c-1.68382,-2.43417 -5.45408,-6.64971 -5.62778,-9.77627c-0.21947,-0.33809 -0.34695,-0.74143 -0.34695,-1.17453c0,-1.19292 0.96705,-2.15997 2.15997,-2.15997c0.3352,0 0.65256,0.07636 0.93565,0.21262c1.89038,0.17169 2.17515,4.31503 3.54574,6.61401z" fill="#d8be48" stroke="none" stroke-width="0.5" stroke-linecap="butt"/><path d="M383.80921,150.32685c5.65195,0.07696 3.65783,6.94831 3.11831,10.11944c0.001,1.8468 0.84507,4.50655 0.2811,6.2021c0.57591,1.12943 0.75736,2.34321 0.18374,3.16722c-0.11642,0.16724 -0.66671,0.40592 -1.03302,0.66445c0.4442,1.34098 0.57875,2.57754 -0.00586,3.22232c-0.64066,0.7066 -4.35146,-0.56928 -5.20198,-0.78125c-0.98453,-0.16706 -0.88977,0.35545 -1.89659,0.56235c-2.34264,0.48139 -6.10645,-0.70068 -7.169,-3.00857c-0.50004,-1.08609 0.13281,-2.44741 0.12346,-3.54363c0.00238,-0.87165 -0.38995,-1.66418 -0.73524,-2.46571c-0.30813,0.7313 -0.90237,1.51108 -1.17715,1.95456c-1.57089,2.53526 -0.62191,5.90228 -4.92709,5.18475c-1.08945,-0.11001 -1.54251,-0.60924 -1.02693,-1.73851c0.1563,-0.34236 0.35244,-0.66522 0.57633,-0.97503c0.0038,-0.19722 0.15078,-0.34419 0.15078,-0.34419c1.97372,-1.97372 3.13526,-7.75932 1.26173,-10.06031c-1.77752,-1.85516 -1.33918,-6.39763 0.85689,-8.12158c0.6872,-1.4766 2.32518,-3.03624 3.35693,-3.67969c2.76849,-1.72658 5.76812,-0.28945 8.60548,0.2242c0.40055,0.07251 2.11648,0.10601 2.40087,0.21563c0.91551,0.35292 1.64355,1.39964 1.73705,2.37636c0.00427,0.37721 0.13759,0.64235 0.33682,0.86081c0.09843,-0.03574 0.18338,-0.03574 0.18338,-0.03574z" fill="#a9a9a9" stroke="none" stroke-width="0.5" stroke-linecap="butt"/><path d="M384.451,164.21889c-0.40949,2.28076 -4.03885,3.18707 -5.94571,3.18707c-5.15941,0 -7.79386,-1.35034 -9.75753,-6.25364c0,0 -1.50856,-2.36345 -2.20616,-3.14011c-0.08146,-1.74737 -0.47777,-4.15025 0.25053,-5.79913c2.35967,-5.34236 10.71855,-6.87954 15.43766,-4.15828c0.3444,0.04361 0.54026,0.22637 0.65164,0.42013c0.00095,0.00068 0.0019,0.00137 0.00285,0.00205c0,0 0.60052,0.4504 0.34125,1.08566c0.16966,0.51887 0.271,1.0623 0.28274,1.6023c-0.0002,0.0368 -0.00008,0.0737 0.00036,0.1107c0.28627,0.18101 0.41097,0.49276 0.41097,0.49276c0.01248,0.03289 0.02509,0.06545 0.03782,0.09769c1.20485,0.64021 1.91043,2.12724 1.63642,3.30454c0.14077,0.66093 0.03395,1.42102 -0.54288,2.51714l-0.43091,-0.00395l0.03648,0.18238l-0.38016,0.07603c-0.01895,0.13568 -0.04334,0.27013 -0.07378,0.40317c-0.15538,0.67912 -0.39925,1.17825 -0.70258,1.58753c0.07228,1.48679 1.23968,2.67817 0.95101,4.28598z" fill="#cf966b" stroke="none" stroke-width="0.5" stroke-linecap="butt"/><path d="M372.74537,163.278c-0.47999,0 -0.47999,-0.47999 -0.47999,-0.47999l0.03433,-0.10973c-0.59661,-1.59861 -0.90937,-2.0911 0.49025,-3.49363c0,0 0.3394,-0.3394 0.67882,0c0.3394,0.3394 0,0.67882 0,0.67882c-0.58377,0.58245 -0.5962,1.69762 -0.27774,2.45828l0.03433,0.46627c0,0 0,0.47999 -0.47999,0.47999z" fill="#b8865f" stroke="none" stroke-width="0.5" stroke-linecap="butt"/><path d="M380.02588,162.96827c-0.26625,-0.39938 0.13313,-0.66563 0.13313,-0.66563l0.09889,0.05559c0.32195,-0.92949 0.04347,-1.53671 -0.1141,-2.45727c0,0 -0.07891,-0.47346 0.39455,-0.55238c0.47346,-0.07891 0.55238,0.39455 0.55238,0.39455c0.17477,1.08346 0.43571,1.8119 0.07789,2.91865l-0.4771,0.43959c0,0 -0.39938,0.26625 -0.66563,-0.13313z" fill="#b8865f" stroke="none" stroke-width="0.5" stroke-linecap="butt"/><path d="M372.80938,156.18478c0,-0.53018 0.4298,-0.95999 0.95999,-0.95999c0.53018,0 0.95999,0.4298 0.95999,0.95999c0,0.53018 -0.4298,0.95999 -0.95999,0.95999c-0.53018,0 -0.95999,-0.4298 -0.95999,-0.95999z" fill="#000000" stroke="none" stroke-width="0.5" stroke-linecap="butt"/><path d="M377.4493,156.98478c0,-0.53018 0.4298,-0.95999 0.95999,-0.95999c0.53018,0 0.95999,0.4298 0.95999,0.95999c0,0.53018 -0.4298,0.95999 -0.95999,0.95999c-0.53018,0 -0.95999,-0.4298 -0.95999,-0.95999z" fill="#000000" stroke="none" stroke-width="0.5" stroke-linecap="butt"/><path d="M371.29748,153.91741c-0.06651,-0.25661 0.0876,-0.51856 0.34421,-0.58506l0.74342,-0.19268c0.67999,-0.14584 1.3665,-0.02478 2.01622,0.2201l0.0215,-0.10086l0.61965,0.1321c0.17647,0.03377 0.32665,0.1657 0.37473,0.35118c0.06651,0.25661 -0.0876,0.51856 -0.34421,0.58506l-0.46464,0.12042c-0.86492,0.21919 -1.35026,0.65257 -2.11399,1.03413c0,0 -0.432,0.20921 -0.64121,-0.22279c-0.1005,-0.20753 -0.05303,-0.36364 0.02344,-0.46985c-0.04994,-0.05544 -0.08765,-0.12338 -0.10766,-0.20059c-0.02806,-0.10826 -0.01685,-0.21748 0.02476,-0.31255c-0.22568,0.01513 -0.4374,-0.13165 -0.49622,-0.35861z" fill="#a9a9a9" stroke="none" stroke-width="0.5" stroke-linecap="butt"/><path d="M381.12363,154.38141c-0.0415,0.14792 -0.11707,0.23522 -0.20064,0.28554c0.5315,0.28025 0.77038,0.68685 0.29606,1.28067c-0.3938,0.493 -2.15013,-0.47486 -2.9064,-0.8785c-0.2473,-0.0282 -0.51296,-0.05944 -0.79302,-0.0918c0,0 -0.47672,-0.056 -0.42071,-0.53272c0.01329,-0.11307 0.05024,-0.19617 0.09888,-0.25716c0.00663,-0.02177 0.0149,-0.04333 0.02484,-0.06453c0.05013,-0.10686 0.13461,-0.18661 0.23409,-0.23227l0.67634,-0.31625l0.051,0.10907c0.59416,-0.29213 1.14627,-0.29948 2.04485,-0.05161l0.56223,0.15774c0,0 0.46215,0.12967 0.33249,0.59181z" fill="#a9a9a9" stroke="none" stroke-width="0.5" stroke-linecap="butt"/><path d="M374.44935,159.01141c0,-0.47999 0.47999,-0.47999 0.47999,-0.47999l0.31891,0.00653c0.06246,0.01059 0.75734,-0.18645 0.75761,-0.19021c0.01046,-0.14391 -0.21657,-1.019 -0.27283,-1.43675c0,0 -0.05954,-0.47629 0.41675,-0.53583c0.47629,-0.05954 0.53583,0.41675 0.53583,0.41675c0.22889,2.03259 1.44944,3.19016 -1.59518,2.69296l-0.16109,0.00653c0,0 -0.47999,0 -0.47999,-0.47999z" fill="#000000" stroke="none" stroke-width="0.5" stroke-linecap="butt"/><path d="M375.26556,144.80565c-0.02135,-0.06894 -0.02701,-0.15229 -0.0069,-0.25284c0.09414,-0.47067 0.56481,-0.37654 0.56481,-0.37654l0.45764,0.09531c0.14009,0.04705 0.28018,0.09409 0.42026,0.14114c0.0953,-0.01122 0.35463,-0.01726 0.48293,0.22164c2.56469,1.22772 4.49749,1.72199 6.58075,4.14785c0.53483,0.62277 1.62092,1.64923 1.86123,2.43815c0.66699,2.18973 -2.90873,2.57235 -4.23815,2.46598c-1.6484,-0.00811 -3.32485,-0.71921 -4.96062,-0.48306c-2.35228,0.33958 -4.46979,0.88353 -6.85809,0.88353c-1.51647,0 -3.20358,0.4411 -4.13934,-0.90089c-0.08751,-3.88677 5.91973,-7.12104 9.83549,-8.38026z" fill="#a9a9a9" stroke="none" stroke-width="0.5" stroke-linecap="butt"/><path d="M370.94549,148.62554l-3.45595,-7.48789c0,0 4.32131,3.8254 5.22043,3.67676c1.51616,-0.25065 3.03728,-5.04191 3.03728,-5.04191c0,0 1.60559,4.37619 3.1361,4.67383c1.76366,0.34296 6.84592,-2.73268 6.84592,-2.73268l-2.68796,6.9119z" fill="#ffaa00" stroke="#000000" stroke-width="0" stroke-linecap="butt"/><path d="M385.1957,172.40816c0.14414,0.09499 0.30193,0.18797 0.47822,0.27572l0.24475,0.20991c0,0 0.27852,0.27852 0.07864,0.58326c1.13383,1.09881 0.62198,3.31025 0.64135,4.69666c0.00477,0.34161 0.66093,-0.17396 0.99431,-0.24867c0.72788,-0.16314 1.98827,-0.71581 2.67238,-0.15354c1.11582,0.9171 0.91863,2.66482 0.91025,3.92022c-0.67674,2.12429 -3.34949,0.50607 -4.84513,0.06661c-0.35794,-0.10518 -0.88549,0.15202 -1.29473,0.25022c0.7122,0.30027 1.84272,0.8587 1.96876,1.01814c0.91635,1.15923 1.02804,3.67445 0.49373,4.98123c-0.07095,0.06236 -1.18336,1.09279 -1.44715,1.16039c-1.42381,0.36495 -5.37849,-1.72375 -5.54937,-3.16802c-0.15469,-1.30752 1.19406,-2.61237 0.56582,-3.97c-0.21008,-0.45398 -1.02646,-0.70861 -1.51292,-1.20748l-0.0825,0.09901l-0.16623,-0.13854c-2.83735,1.74215 -2.04325,2.7106 -1.34891,5.3846c0.4225,1.12726 0.53139,3.75667 -0.32817,4.77158c-0.78812,0.93055 -3.81991,0.76047 -4.59076,-0.13519c-0.84282,-0.97929 0.3087,-3.09071 0.03212,-4.27068c-0.23871,-1.01842 -1.21357,-1.08795 -1.9037,-1.45933c0.36006,0.59055 0.30382,1.98645 0.20326,2.41521c-0.38829,1.65561 -1.81242,2.75114 -3.50769,2.42157c-0.46618,-0.09062 -1.08241,-0.02833 -1.36426,-0.41055c-0.02909,-0.03944 0.70309,-1.57689 0.7383,-1.6825c0.22967,-0.68911 0.07545,-2.85101 0.6068,-3.61224c-1.14178,-0.30242 -2.14954,-0.46596 -2.94091,-1.4126c-0.90526,-0.96501 -0.49779,-1.79861 0.07783,-2.60742c-0.49158,0.43214 -1.16959,0.70046 -2.12013,0.72731c-2.23427,-0.38334 0.07685,-5.78672 2.84163,-5.07161c-0.0895,-0.66962 -0.26474,-1.36948 -0.19915,-1.93742c0.21981,-1.90338 2.15911,-3.51633 4.017,-3.75956c-0.7134,-1.15674 -1.20797,-2.39197 -1.17409,-3.70356c-1.04175,-1.56703 1.01516,-3.83179 2.31413,-5.10837c2.41961,-0.85099 6.38008,-2.66888 8.95962,-1.67499c1.70621,0.65739 2.84851,4.23794 3.74627,5.76662c0.23756,1.75175 1.1619,3.19533 1.27366,4.93264c0.03554,0.55251 0.01841,1.06973 -0.04599,1.55232c0.20426,0.1522 0.39534,0.32083 0.56302,0.49904z" fill="#a9a9a9" stroke="none" stroke-width="0.5" stroke-linecap="butt"/><path d="M379.65727,161.55004c0,0.95999 -0.95999,0.95999 -0.95999,0.95999l-0.82858,-0.03383c-0.99507,-0.2753 -1.6997,-0.36649 -2.72384,-0.25894c0,0 -0.95522,0.09552 -1.05074,-0.8597c-0.09552,-0.95522 0.8597,-1.05074 0.8597,-1.05074c1.24683,-0.11951 2.21051,-0.00875 3.42006,0.31705l0.3234,-0.03383c0,0 0.95999,0 0.95999,0.95999z" fill="#000000" stroke="none" stroke-width="0.5" stroke-linecap="butt"/><path d="M375.14519,182.72084c0,-0.47999 0.47999,-0.47999 0.47999,-0.47999h0.47999c1.81697,0 3.00296,2.45448 1.02647,3.46315c-1.99321,1.01721 -3.91667,-0.38136 -4.22023,-2.26629c-0.13338,-0.82818 -0.0062,-1.79354 -0.0062,-2.63685c0,0 0,-0.47999 0.47999,-0.47999c0.47999,0 0.47999,0.47999 0.47999,0.47999c0,0.67985 -0.31417,3.82745 0.61909,4.02054c0.46423,0.09605 1.85982,0.1951 2.19438,0.0362c1.1458,-0.54418 0.30262,-1.65677 -0.5735,-1.65677h-0.47999c0,0 -0.47999,0 -0.47999,-0.47999z" fill="#818181" stroke="none" stroke-width="0.5" stroke-linecap="butt"/><path d="M382.98507,183.20084c-0.47999,0 -0.47999,-0.47999 -0.47999,-0.47999l0.08061,-0.42625c0.25746,-0.37453 0.42689,-0.80559 0.58398,-1.23206c2.08534,-0.17325 3.03449,2.87155 1.42039,4.2515c-1.24027,1.06035 -3.24929,0.55915 -3.52262,-0.94591c-0.07905,-0.43531 -0.00233,-0.88485 -0.00233,-1.32728c0,-0.90665 0,-1.81331 0,-2.71996c0,0 0,-0.47999 0.47999,-0.47999c0.47999,0 0.47999,0.47999 0.47999,0.47999c0,0.93522 -0.50983,3.72009 0.02739,4.4687c0.17348,0.24173 1.71677,-0.03485 1.88757,-0.18198c0.9293,-0.80053 0.09842,-2.13578 -0.17958,-2.78839c-0.01292,0.35835 -0.1803,0.70743 -0.37601,1.0079l0.08061,-0.10625c0,0 0,0.47999 -0.47999,0.47999z" fill="#818181" stroke="none" stroke-width="0.5" stroke-linecap="butt"/><path d="M367.4459,179.2203c-0.07627,-0.07627 -0.11826,-0.15253 -0.13753,-0.22495c-0.4408,1.09007 -0.78034,2.17788 -0.51011,2.76662c0.62642,1.36472 2.58702,0.89292 2.58702,-0.48111c0,-1.34874 0.16336,-2.08989 -1.43998,-2.07997l0.17941,0.01941c0,0 -0.3394,0.3394 -0.67882,0zM367.51445,178.50023l0.43085,-0.25932c2.16428,0.01115 2.39996,1.18966 2.39996,3.03996c0,2.48501 -3.33849,3.01778 -4.45287,0.79887c-0.72837,-1.45031 1.21701,-4.5221 1.58725,-6.03521c0,0 0.11642,-0.46566 0.58208,-0.34924c0.46566,0.11642 0.34924,0.58208 0.34924,0.58208c-0.13165,0.51352 -0.52204,1.34392 -0.89651,2.22288z" fill="#818181" stroke="none" stroke-width="0.5" stroke-linecap="butt"/><path d="M371.78524,175.52095c-0.47999,0 -0.47999,-0.47999 -0.47999,-0.47999v-0.47999c0.00329,-0.96884 0.16,-1.9015 0.16,-2.87996c0,0 0,-0.47999 0.47999,-0.47999c0.47999,0 0.47999,0.47999 0.47999,0.47999c0,0.97661 -0.16379,1.91596 -0.16,2.87996v0.47999c0,0 0,0.47999 -0.47999,0.47999z" fill="#818181" stroke="none" stroke-width="0.5" stroke-linecap="butt"/><path d="M376.26517,173.28098c-0.47999,0 -0.47999,-0.47999 -0.47999,-0.47999v-0.63999c0.00431,-1.39024 -0.31915,-2.75459 -0.31999,-4.15994c0,0 0,-0.47999 0.47999,-0.47999c0.47999,0 0.47999,0.47999 0.47999,0.47999c-0.00089,1.40743 0.31615,2.76503 0.31999,4.15994v0.63999c0,0 0,0.47999 -0.47999,0.47999z" fill="#818181" stroke="none" stroke-width="0.5" stroke-linecap="butt"/><path d="M382.8333,173.79122c-0.35024,0.32821 -0.67845,-0.02203 -0.67845,-0.02203l-0.28539,-0.42236c-0.3278,-1.96755 -0.69169,-3.93982 -1.26409,-5.84784c0,0 -0.13792,-0.45975 0.32183,-0.59768c0.45975,-0.13792 0.59768,0.32183 0.59768,0.32183c0.58406,1.94685 0.95683,3.95854 1.29152,5.96587l0.03896,-0.07624c0,0 0.32821,0.35024 -0.02203,0.67845z" fill="#818181" stroke="none" stroke-width="0.5" stroke-linecap="butt"/><path d="M384.58505,178.7209c-0.47999,0 -0.47999,-0.47999 -0.47999,-0.47999c0,-0.85332 0,-2.02664 0,-2.87996c0,0 0,-0.47999 0.47999,-0.47999c0.47999,0 0.47999,0.47999 0.47999,0.47999c0,0.85332 0,1.70664 0,2.55997v0.31999c0,0 0,0.47999 -0.47999,0.47999z" fill="#818181" stroke="none" stroke-width="0.5" stroke-linecap="butt"/><path d="M379.04913,178.5289c-0.288,0.38399 -0.67199,0.096 -0.67199,0.096l-0.74139,-0.58333c-0.33946,-0.94115 -0.40877,-1.99783 -0.4106,-3.00062c0,0 0,-0.47999 0.47999,-0.47999c0.47999,0 0.47999,0.47999 0.47999,0.47999c-0.0016,0.7779 0.02699,1.68849 0.22939,2.4393l0.5386,0.37666c0,0 0.38399,0.288 0.096,0.67199z" fill="#818181" stroke="none" stroke-width="0.5" stroke-linecap="butt"/><path d="M388.58499,179.84089c0,-0.47999 0.47999,-0.47999 0.47999,-0.47999l0.47179,0.02463c0.50165,0.23398 1.45422,1.19529 0.69941,1.87965c-1.90645,1.72854 -3.57115,-0.36479 -3.57115,-2.06429c0,0 0,-0.47999 0.47999,-0.47999c0.47999,0 0.47999,0.47999 0.47999,0.47999c0,0.34915 -0.2106,1.26565 0.09235,1.51166c0.45179,0.36687 2.4045,-0.47023 1.51584,-0.41632l-0.16821,0.02463c0,0 -0.47999,0 -0.47999,-0.47999z" fill="#818181" stroke="none" stroke-width="0.5" stroke-linecap="butt"/><path d="M368.40588,172.9804c-0.3394,-0.3394 0,-0.67882 0,-0.67882l0.34762,-0.27595c0.38142,-0.12265 0.788,-0.17843 1.18866,-0.17843c2.9932,1.21926 -1.91686,3.91933 -3.22004,1.50028c-0.68923,-1.27939 1.17892,-3.069 1.73972,-3.93012c0.11825,-0.18158 -0.03654,-1.77522 -0.03654,-1.89628c0,0 0,-0.47999 0.47999,-0.47999c0.47999,0 0.47999,0.47999 0.47999,0.47999c0,0.43106 0.18918,1.83429 -0.03654,2.26366c-0.17387,0.33073 -2.25,2.5516 -1.78024,3.10978c0.7595,0.90243 2.63902,-0.07445 2.21987,-0.0997c-0.2483,0 -0.49692,0.05965 -0.73131,0.14156l0.02762,0.04404c0,0 -0.3394,0.3394 -0.67882,0z" fill="#818181" stroke="none" stroke-width="0.5" stroke-linecap="butt"/><path d="M399.19247,154.25912c1.43998,0 1.43998,1.43998 1.43998,1.43998v1.53598c-0.01246,0.60949 -0.71617,1.60318 -0.14752,1.82287c0.55528,0.21453 0.96011,-0.70508 1.45902,-1.0298c1.79378,-1.5322 0.21362,-4.72088 -0.4339,-6.57793c-0.14527,-0.41661 -0.621,-1.35593 -1.19848,-1.43271c-2.41131,-0.32062 -4.38467,2.38326 -4.68768,4.36379c-0.81525,5.32873 -2.11136,11.18933 -0.97845,16.55365c0.92972,3.71866 1.51854,7.32447 1.76027,11.17028c0.12965,2.06266 -0.23729,4.5519 0.17294,6.55953c0.61998,3.03419 2.16676,5.96082 2.6912,9.04305c0.39878,2.34365 0.01859,5.13538 0.01859,7.52655c0,0 0,1.43998 -1.43998,1.43998c-1.43998,0 -1.43998,-1.43998 -1.43998,-1.43998c0,-2.22251 0.40598,-4.89272 0.01859,-7.06524c-0.5455,-3.05921 -2.08904,-5.97511 -2.68472,-9.00469c-0.41816,-2.12676 -0.07598,-4.70609 -0.21105,-6.88027c-0.22992,-3.70071 -0.80214,-7.14312 -1.69568,-10.7174c-0.93979,-4.90739 -0.40567,-10.709 0.56941,-15.57673c0.25272,-1.26158 0.16001,-2.60792 0.61867,-3.81003c0.90023,-2.35944 4.86248,-5.60022 7.73759,-5.00712c3.75358,0.77431 5.90146,8.24448 4.5351,11.44095c-0.2992,0.69993 -1.0397,1.11207 -1.55955,1.66811c-3.72277,2.27144 -5.91843,1.47806 -5.98439,-3.04687v-1.53598c0,0 0,-1.43998 1.43998,-1.43998z" fill="#231a0d" stroke="none" stroke-width="0.5" stroke-linecap="butt"/><g fill="#ffcf00" stroke-linecap="butt"><text transform="translate(384.62619,236.57732) scale(0.42958,0.42958)" font-size="40" xml:space="preserve" fill="#ffcf00" fill-rule="nonzero" stroke="none" stroke-width="1" stroke-linecap="butt" stroke-linejoin="miter" stroke-miterlimit="10" stroke-dasharray="" stroke-dashoffset="0" font-family="Serif" font-weight="normal" text-anchor="start" style="mix-blend-mode: normal"><tspan x="0" dy="0">S</tspan></text><path d="M388.11054,237.72286v-13.69875h0.66823v13.69875z" stroke="#000000" stroke-width="0"/><path d="M389.35154,237.72287v-13.69875h0.66823v13.69875z" stroke="#000000" stroke-width="0"/></g><path d="M344.90695,205.73333v-28.46667h70.2v28.46667z" fill="url(#color-1)" stroke="#000000" stroke-width="0" stroke-linecap="butt"/><g fill="none" stroke="#000000" stroke-width="2"><path d="M345,241.7057v-106.16129h70v106.16129z" stroke-linecap="butt"/><path d="M345.33333,206.08273h68.33333" stroke-linecap="round"/></g></g></g></svg>