<svg version="1.1" xmlns="http://www.w3.org/2000/svg" xmlns:xlink="http://www.w3.org/1999/xlink" width="72" height="108.16129" viewBox="0,0,72,108.16129"><g transform="translate(-344,-134.3778)"><g data-paper-data="{&quot;isPaintingLayer&quot;:true}" fill-rule="nonzero" stroke-linejoin="miter" stroke-miterlimit="10" stroke-dasharray="" stroke-dashoffset="0" style="mix-blend-mode: normal"><path d="M344.91667,242.04176v-106h70.25v106z" fill="#006eff" stroke="none" stroke-width="0" stroke-linecap="butt"/><path d="M345.14461,205.92788v-70.26119h69.5v70.26119z" fill="#ffffff" stroke="#000000" stroke-width="0" stroke-linecap="butt"/><path d="M354.64461,170.41668c0,-14.3594 11.6406,-26 26,-26c14.3594,0 26,11.6406 26,26c0,14.3594 -11.6406,26 -26,26c-14.3594,0 -26,-11.6406 -26,-26z" fill="#ff0000" stroke="#000000" stroke-width="0" stroke-linecap="butt"/><path d="M347.38149,173.93334c-1.6,-1.2 -0.4,-2.8 -0.4,-2.8l0.97212,-1.17871c2.42658,-1.74744 5.39121,-2.99883 8.25556,-0.80015c0.80847,0.62059 1.12487,1.69992 1.6873,2.54987c0,0 0.40144,0.66907 0.28493,1.42216c0.00008,0.0045 0.00008,0.00683 0.00008,0.00683l-0.00804,0.04032c-0.00322,0.01762 -0.00675,0.03528 -0.01057,0.05297l-0.26641,1.33571c-1.6273,2.686 -4.32072,9.6112 -1.13482,12.32355c2.50527,2.13289 4.56541,2.4825 5.72886,6.05112c1.09983,3.37349 0.85232,7.75046 1.08654,11.2633c0,0 0.13304,1.99556 -1.86253,2.1286c-1.99557,0.13304 -2.12861,-1.86253 -2.12861,-1.86253c-0.2182,-3.27341 -0.02163,-7.15479 -0.91345,-10.33671c-0.7523,-2.68409 -2.91853,-2.6094 -4.67115,-4.34887c-4.31924,-4.28684 -2.48723,-11.91699 0.10829,-16.6515c-0.9794,-1.49407 -2.15787,-1.39009 -3.70024,-0.01725l-0.22788,0.4213c0,0 -1.2,1.6 -2.8,0.4z" fill="#311f16" stroke="none" stroke-width="0.5" stroke-linecap="butt"/><path d="M414.16667,220.66678h-69" fill="none" stroke="#000000" stroke-width="2" stroke-linecap="round"/><path d="M379.86404,241.16678v-20" fill="none" stroke="#000000" stroke-width="2" stroke-linecap="round"/><path d="M358.51328,187.3618l0.2,0.03333c0.36348,0.06155 1.037,0.13749 1.32157,0.3759c2.63874,2.21064 -4.05797,4.90788 -2.86776,1.29462c0.18189,-0.5522 0.26376,-0.72449 0.44408,-1.07887c-0.02685,-0.07262 -0.03701,-0.16194 -0.01874,-0.27157c0.07114,-0.42684 0.45012,-0.4227 0.55081,-0.41386c0.09499,-0.02519 0.21092,-0.0196 0.34781,0.04885c0.0076,0.0038 0.01501,0.00767 0.02223,0.01159z" fill="#140c09" stroke="none" stroke-width="0.5" stroke-linecap="butt"/><text transform="translate(363.70833,235.28345) scale(0.335,0.335)" font-size="40" xml:space="preserve" fill="#000000" fill-rule="nonzero" stroke="none" stroke-width="1" stroke-linecap="butt" stroke-linejoin="miter" stroke-miterlimit="10" stroke-dasharray="" stroke-dashoffset="0" font-family="Serif" font-weight="normal" text-anchor="start" style="mix-blend-mode: normal"><tspan x="0" dy="0">10</tspan></text><text transform="translate(398.95834,235.53345) scale(0.335,0.335)" font-size="40" xml:space="preserve" fill="#000000" fill-rule="nonzero" stroke="none" stroke-width="1" stroke-linecap="butt" stroke-linejoin="miter" stroke-miterlimit="10" stroke-dasharray="" stroke-dashoffset="0" font-family="Serif" font-weight="normal" text-anchor="start" style="mix-blend-mode: normal"><tspan x="0" dy="0">40</tspan></text><text transform="translate(356.80458,216.78372) scale(0.26141,0.26141)" font-size="40" xml:space="preserve" fill="#000000" fill-rule="nonzero" stroke="none" stroke-width="1" stroke-linecap="butt" stroke-linejoin="miter" stroke-miterlimit="10" stroke-dasharray="" stroke-dashoffset="0" font-family="Serif" font-weight="normal" text-anchor="start" style="mix-blend-mode: normal"><tspan x="0" dy="0">Macredinia</tspan></text><text transform="translate(384.43895,236.72919) scale(0.42958,0.42958)" font-size="40" xml:space="preserve" fill="#ff8500" fill-rule="nonzero" stroke="none" stroke-width="1" stroke-linecap="butt" stroke-linejoin="miter" stroke-miterlimit="10" stroke-dasharray="" stroke-dashoffset="0" font-family="Serif" font-weight="normal" text-anchor="start" style="mix-blend-mode: normal"><tspan x="0" dy="0">C</tspan></text><g fill="#373737" stroke-width="0" stroke-linecap="butt"><path d="M348.2784,228.29247l3.3332,-3.3332l4.01499,4.01499l-3.3332,3.3332z" stroke="#000000"/><path d="M357.82347,234.65585c-1.46433,1.46433 -4.02502,1.27779 -5.71946,-0.41665c-1.69444,-1.69444 -1.88098,-4.25513 -0.41665,-5.71946c1.46433,-1.46433 4.02502,-1.27779 5.71946,0.41665c1.69444,1.69444 1.88098,4.25513 0.41665,5.71946z" stroke="#000000"/><path d="M362.16988,236.88114c-0.46022,0.46022 -2.39346,-0.72686 -4.31801,-2.65141c-1.92455,-1.92455 -3.11163,-3.85779 -2.65141,-4.31801c0.46022,-0.46022 2.39346,0.72686 4.31801,2.65141c1.92455,1.92455 3.11163,3.85779 2.65141,4.31801z" stroke="none"/></g><path d="M374.51142,162.41463c1.35924,-0.30922 2.60831,-0.03879 4.0584,-0.22566c3.42004,-0.44073 6.2672,-0.98958 9.02196,1.81405c0.96101,0.97805 1.51493,2.7483 2.28182,3.95134c6.18635,7.07831 9.11935,16.47407 12.50803,24.96962c0.71972,3.80534 1.83515,7.10743 1.82982,11.00938c-0.0011,0.80906 -0.07717,1.06919 -0.96413,1.64312c-0.44538,0.28818 -3.12144,0.77292 -3.6775,0.70126c-1.64259,-0.21168 -3.04908,0.00562 -4.70837,0.00562c-6.94213,0 -12.829,-0.4 -19.8,-0.4c-4.26666,0 -8.53334,0 -12.8,0c-1.41075,0 -4.07572,0.49919 -5.16502,-0.65679c-0.76988,-0.817 -0.18095,-2.20058 -0.18309,-3.14637c0.71177,-4.90487 1.49874,-10.08123 2.82324,-14.93933c0.72237,-2.64955 1.93344,-4.73408 2.59727,-7.3894c0.92402,-3.62 2.82477,-7.15853 4.4812,-10.39845c1.28624,-2.51583 4.38145,-4.14302 6.38991,-6.17872c0.06156,-0.10665 0.12617,-0.17126 0.12617,-0.17126l0.15841,-0.12833c0.06917,-0.07583 0.13672,-0.15228 0.20248,-0.22942c0,0 0.35847,-0.41822 0.81941,-0.23063z" fill="#335e45" stroke="none" stroke-width="0.5" stroke-linecap="butt"/><path d="M389.22664,164.3012c1.51231,1.13697 0.50411,2.84244 0.50411,2.84244l-1.34144,1.49078c-6.31625,2.37185 -12.26061,4.2034 -18.68073,1.06725c0,0 -1.66091,-0.83247 -0.92273,-2.70552c0.73818,-1.87305 2.39909,-1.04058 2.39909,-1.04058c5.42872,2.81339 10.73295,0.79235 16.05484,-1.2102l-0.53364,0.12431c0,0 1.0082,-1.70547 2.52051,-0.56849z" fill="#264633" stroke="none" stroke-width="0.5" stroke-linecap="butt"/><path d="M371.80569,149.43025c3.90127,-4.87256 11.7268,-4.35058 16.46429,-0.80501c1.88075,1.8729 2.64976,3.59805 2.92308,5.71306c1.46704,3.15624 0.0438,7.45335 -1.47133,10.28894c-3.08887,1.94584 -7.53383,4.88227 -11.19029,5.11901c-1.50449,0.09741 -1.84124,-0.73694 -3.1215,-1.20524c-5.39612,-1.97389 -8.82014,-5.20272 -8.01653,-11.28522c0.63353,-1.64988 1.48265,-3.54337 2.78589,-4.92408c0.02129,-1.18603 0.70248,-1.74754 1.62638,-2.90145z" fill="#ffdece" stroke="none" stroke-width="0.5" stroke-linecap="butt"/><path d="M378.49742,142.47633c0.25488,-0.28988 0.6722,-0.28988 0.6722,-0.28988h0.69192c2.55258,0.01609 4.04123,1.57932 6.20011,2.65388c1.817,1.21615 4.24894,1.64706 5.90104,3.09513c4.21462,3.69416 8.93099,8.24326 8.13325,14.34462c-0.23462,1.79446 -3.04326,10.40077 -3.78171,12.01032c-0.3178,4.95447 -4.75042,-4.45201 -6.15424,-5.85343c-3.62842,-3.62222 -0.39122,-8.24322 -2.42042,-12.96311c-0.78216,-1.81931 -6.60152,-3.8715 -7.58609,-5.56316c-0.55604,1.73018 -1.06273,1.60795 -1.92084,3.29928c-0.41349,0.81498 -1.59792,0.51479 -2.00743,1.33176c-0.04861,0.09696 -2.20794,-1.58668 -2.37787,-1.65353c-1.05641,-0.41565 -2.21612,1.57112 -2.50172,2.21204c-0.51099,1.14672 -0.92557,4.1939 -1.49974,5.24249c-1.55203,2.83448 0.23999,9.09779 -2.85576,10.62573c-1.32988,1.34671 -4.06503,4.65835 -6.08489,1.82881c-0.55734,-0.78075 0.02231,-2.70541 0.10568,-3.53825c0.45328,-4.52834 1.3337,-9.75898 3.02996,-13.99963c0.28651,-1.40821 0.93997,-3.10173 1.69625,-4.34053c0.44403,-0.72732 1.49345,-1.00888 1.8188,-1.79645c0.18482,-0.44741 -0.20708,-1.03421 0.03786,-1.45174c0.22272,-0.37962 2.19331,-1.17145 2.53642,-1.40013c3.31932,-2.21241 4.84217,-3.51055 8.3672,-3.79426z" fill="#3d271c" stroke="none" stroke-width="0.5" stroke-linecap="butt"/><g stroke="none" stroke-width="0.5" stroke-linecap="butt"><path d="M367.09516,149.2316c-0.19713,-0.16503 -0.28659,-0.33962 -0.315,-0.50349c-0.05133,-0.11136 -0.06896,-0.19714 -0.06896,-0.19714c-0.60828,-2.97253 -1.65055,-5.49637 -0.64465,-8.53092c0.25844,-0.77967 0.75799,-2.32041 1.81015,-2.51511c1.7042,-0.31534 6.64445,4.57768 6.56959,6.43821c-0.05716,1.42083 -1.77061,1.76527 -2.68675,2.36378c-1.09702,0.7066 -2.2802,1.48524 -3.13262,2.4617l-0.31339,0.375c0,0 -0.55521,0.66317 -1.21838,0.10796zM368.07776,146.86001c0.83951,-0.75851 1.79484,-1.40758 2.74066,-2.02445c0.59771,-0.3851 2.18387,-0.3199 1.89908,-0.9714c-0.39784,-0.91012 -3.55962,-4.70619 -4.47204,-4.68919c-0.28414,0.00529 -0.77859,2.3237 -0.8163,2.49411c-0.3887,1.75647 0.1779,3.48226 0.64859,5.19092z" fill="#3d271c"/><path d="M367.37787,141.64273c0.03771,-0.17041 0.56809,-2.51803 0.85223,-2.52333c0.91243,-0.01701 4.14371,3.85445 4.54154,4.76457c0.28479,0.6515 -1.32179,0.61324 -1.91949,0.99834c-0.94582,0.61687 -1.9493,1.27502 -2.78879,2.03353c-0.47069,-1.70866 -1.07418,-3.51662 -0.68548,-5.27311z" data-paper-data="{&quot;noHover&quot;:false,&quot;origItem&quot;:[&quot;Path&quot;,{&quot;applyMatrix&quot;:true,&quot;segments&quot;:[[[737.68624,294.07203],[-0.81633,-2.96334],[1.45595,-1.31548]],[[742.43938,290.56101],[-1.64034,1.06983],[1.03662,-0.66789]],[[745.73297,288.87631],[0.49392,1.12991],[-0.68997,-1.57841]],[[737.97709,280.74384],[1.58243,-0.02949],[-0.49278,0.00918]],[[736.56137,285.06938],[0.0654,-0.29555],[-0.67411,3.04627]]],&quot;closed&quot;:true}]}" fill="#ff75fc"/></g><g data-paper-data="{&quot;index&quot;:null}" stroke="none" stroke-width="0.5" stroke-linecap="butt"><path d="M390.23203,148.54704l-0.31341,-0.375c-0.85242,-0.97646 -2.03561,-1.7551 -3.13262,-2.4617c-0.91614,-0.59851 -2.6296,-0.94295 -2.68676,-2.36378c-0.07485,-1.86053 4.8654,-6.75355 6.56959,-6.43821c1.05218,0.19469 1.55171,1.73544 1.81015,2.51511c1.00591,3.03455 -0.03636,5.55839 -0.64465,8.53092c0,0 -0.01763,0.08577 -0.06896,0.19714c-0.0284,0.16387 -0.11788,0.33844 -0.315,0.50349c-0.66317,0.55521 -1.21838,-0.10796 -1.21838,-0.10796zM391.1164,141.09248c-0.03771,-0.17041 -0.53217,-2.48881 -0.8163,-2.49411c-0.91243,-0.01701 -4.07421,3.77907 -4.47204,4.68919c-0.28479,0.6515 1.30137,0.5863 1.89908,0.9714c0.94582,0.61687 1.90117,1.26595 2.74066,2.02445c0.47069,-1.70866 1.03729,-3.43445 0.64859,-5.19092z" fill="#3d271c"/><path d="M390.4822,146.33924c-0.83951,-0.75851 -1.84297,-1.41666 -2.78879,-2.03353c-0.59771,-0.3851 -2.20428,-0.34684 -1.91949,-0.99834c0.39784,-0.91012 3.62912,-4.78157 4.54155,-4.76457c0.28414,0.00529 0.81453,2.35291 0.85223,2.52333c0.3887,1.75647 -0.21479,3.56445 -0.6855,5.27311z" data-paper-data="{&quot;noHover&quot;:false,&quot;origItem&quot;:[&quot;Path&quot;,{&quot;applyMatrix&quot;:true,&quot;segments&quot;:[[[737.68624,294.07203],[-0.81633,-2.96334],[1.45595,-1.31548]],[[742.43938,290.56101],[-1.64034,1.06983],[1.03662,-0.66789]],[[745.73297,288.87631],[0.49392,1.12991],[-0.68997,-1.57841]],[[737.97709,280.74384],[1.58243,-0.02949],[-0.49278,0.00918]],[[736.56137,285.06938],[0.0654,-0.29555],[-0.67411,3.04627]]],&quot;closed&quot;:true}]}" fill="#ff75fc"/></g><path d="M367.06313,151.78005c-0.47081,0 -0.68534,-0.25628 -0.78308,-0.48983c-0.11239,0.36327 -0.22667,0.73427 -0.34006,1.11537c0,0 -0.24854,0.82842 -1.07696,0.5799c-0.82842,-0.24853 -0.57989,-1.07695 -0.57989,-1.07695c0.50494,-1.67095 1.03359,-3.10342 1.30082,-4.56202c-0.17047,-1.38139 -0.21521,-2.81075 -0.1146,-4.167c-0.03202,-0.12827 -0.06693,-0.25802 -0.10484,-0.38933l-0.0433,0.00667l-0.17504,-1.13782c-0.00818,-0.04774 -0.01242,-0.09683 -0.01242,-0.14691c0,-0.47768 0.38722,-0.8649 0.8649,-0.8649c0.43004,0 0.78678,0.31387 0.85364,0.72502l0.16822,0.92519c0.34617,1.15144 0.4821,2.20156 0.47364,3.20603c0.14207,1.67354 0.10248,3.57877 0.3974,4.54219l0.03648,0.86948c0,0 0,0.8649 -0.8649,0.8649z" fill="#3d271c" stroke="none" stroke-width="0.5" stroke-linecap="butt"/><path d="M389.484,137.96382c0,0.73715 -0.62826,0.84603 -0.81387,0.86211c-0.62998,0.20163 -1.09177,0.46569 -1.43975,0.77433l-0.08926,0.29753l-0.16009,-0.04802c-1.26756,1.43291 -0.66247,3.61565 -2.60991,5.09256c-0.06633,0.0503 -0.13549,0.09508 -0.20702,0.13519l0.01187,0.02033l-1.05172,0.6135c-0.13078,0.07949 -0.28433,0.12526 -0.44857,0.12526c-0.47768,0 -0.8649,-0.38722 -0.8649,-0.8649c0,-0.12049 0.02464,-0.23521 0.06915,-0.33942l0.01213,-0.03031c-0.01604,0.00655 -0.03215,0.01308 -0.04835,0.01957c0,0 -0.80303,0.32122 -1.12425,-0.48182c-0.32122,-0.80304 0.48183,-1.12427 0.48183,-1.12427c1.55233,-0.61946 2.19665,-1.55334 2.98923,-2.6035c0.33483,-0.50544 0.73191,-0.98145 1.16383,-1.40874l0.50899,-0.72713c0.15565,-0.22866 0.41803,-0.37883 0.7155,-0.37883c0.04074,0 0.08084,0.00281 0.12008,0.00827c0.53052,-0.35061 1.071,-0.61637 1.58295,-0.77016l0.33724,-0.03648c0,0 0.8649,0 0.8649,0.8649z" fill="#3d271c" stroke="none" stroke-width="0.5" stroke-linecap="butt"/><path d="M387.22643,158.04079c0.60658,0.20133 0.40526,0.80791 0.40526,0.80791c-0.82756,2.3642 -4.36179,3.42919 -6.18741,1.31341c-1.42817,-1.65514 0.36416,-3.44508 2.09784,-3.1558c0.99175,0.16548 1.98155,0.43274 2.9571,0.67837c0.16907,0.13025 0.41289,0.22107 0.62472,0.32877c0.0328,0.00653 0.06694,0.01556 0.10248,0.02735z" data-paper-data="{&quot;index&quot;:null}" fill="#ffffff" stroke="none" stroke-width="0.5" stroke-linecap="butt"/><path d="M384.66488,157.34534c0.82212,0.2044 1.27683,1.22168 1.01565,2.27215c-0.26119,1.05047 -1.13935,1.73635 -1.96147,1.53195c-0.82212,-0.2044 -1.27683,-1.22168 -1.01566,-2.27215c0.26119,-1.05047 1.13936,-1.73635 1.96147,-1.53195z" data-paper-data="{&quot;index&quot;:null}" fill="#000000" stroke="#000000" stroke-width="0" stroke-linecap="butt"/><path d="M383.45137,156.00639l-0.12927,0.0327c1.2851,-0.32351 1.96316,0.49576 3.0632,0.96181c0,0 0.19684,0.08528 0.27704,0.27303c0.38946,0.20559 0.75907,0.41433 1.09617,0.59285c0,0 0.44219,0.23511 0.20708,0.67731c-0.2351,0.44219 -0.67731,0.20708 -0.67731,0.20708c-1.04581,-0.55803 -3.40713,-2.20235 -4.52736,-1.13282l-0.62581,0.19955c0,0 -0.48874,0.10927 -0.59801,-0.37947c-0.10928,-0.48874 0.37947,-0.59801 0.37947,-0.59801l0.19384,0.01631c0.22944,-0.18368 0.47015,-0.31516 0.71882,-0.4031c0.00314,-0.02612 0.00814,-0.05345 0.01526,-0.08205c0.12083,-0.48602 0.60685,-0.36517 0.60685,-0.36517z" data-paper-data="{&quot;index&quot;:null}" fill="#000000" stroke="none" stroke-width="0.5" stroke-linecap="butt"/><path d="M371.71811,159.06229c-0.07695,-0.05039 -0.15093,-0.12629 -0.21568,-0.23728c-0.32426,-0.55582 0.23157,-0.88006 0.23157,-0.88006c0.76549,-0.43454 1.24509,-1.38008 2.06487,-1.66961c1.45273,-0.51307 5.18519,1.03045 4.50185,3.059c-0.92088,2.73371 -6.15001,2.52426 -6.5765,-0.21195z" fill="#ffffff" stroke="none" stroke-width="0.5" stroke-linecap="butt"/><path d="M376.98485,158.83978c0.24338,1.06233 -0.23328,2.07792 -1.06467,2.2684c-0.83138,0.19049 -1.70265,-0.5163 -1.94604,-1.57863c-0.24338,-1.06233 0.23328,-2.07792 1.06466,-2.26839c0.83138,-0.19049 1.70266,0.51629 1.94605,1.57862z" fill="#000000" stroke="#000000" stroke-width="0" stroke-linecap="butt"/><path d="M372.62522,157.10027c1.1149,-1.52837 2.27783,-1.69837 4.01418,-1.1735l0.1009,-0.00007c0,0 0.48228,0.04669 0.45554,0.52129c0.18765,0.09506 0.38368,0.20601 0.5893,0.33423l0.29833,0.24571c0,0 0.38498,0.32563 0.05936,0.71061c-0.32564,0.38498 -0.71062,0.05936 -0.71062,0.05936l-0.1829,-0.16133c-2.59157,-1.6361 -3.34645,0.13483 -5.70495,1.25309c0,0 -0.457,0.21309 -0.67009,-0.2439c-0.21309,-0.457 0.24391,-0.67009 0.24391,-0.67009c0.54799,-0.25041 1.02385,-0.52648 1.45977,-0.79148c0.0243,-0.05218 0.04728,-0.08392 0.04728,-0.08392z" fill="#000000" stroke="none" stroke-width="0.5" stroke-linecap="butt"/><path d="M381.28223,165.06268c0,0.5766 -0.5766,0.5766 -0.5766,0.5766h-0.35483c-0.92524,0 -1.82722,0.08711 -2.74994,0.0887c0,0 -0.5766,0 -0.5766,-0.5766c0,-0.5766 0.5766,-0.5766 0.5766,-0.5766c0.92088,0.00176 1.82543,-0.0887 2.74994,-0.0887h0.35483c0,0 0.5766,0 0.5766,0.5766z" fill="#000000" stroke="none" stroke-width="0.5" stroke-linecap="butt"/><path d="M370.54008,164.40592c-0.40771,-0.40773 0,-0.81544 0,-0.81544l0.06941,-0.02756c0.45173,-0.87952 0.87671,-1.17744 1.74373,-1.6655c0,0 0.50404,-0.28002 0.78406,0.22402c0.28002,0.50404 -0.22402,0.78406 -0.22402,0.78406c-0.6978,0.38157 -0.94116,0.48555 -1.27233,1.17314l-0.28542,0.32727c0,0 -0.40773,0.40773 -0.81544,0z" fill="#ff7575" stroke="none" stroke-width="0.5" stroke-linecap="butt"/><path d="M372.66905,164.84946c-0.40771,-0.40773 0,-0.81544 0,-0.81544l0.23518,-0.23263c0.43104,-0.50469 0.89243,-0.98332 1.36156,-1.45281c0,0 0.40773,-0.40773 0.81544,0c0.40771,0.40773 0,0.81544 0,0.81544c-0.448,0.44764 -0.88893,0.90379 -1.29968,1.38582l-0.29706,0.29962c0,0 -0.40773,0.40773 -0.81544,0z" fill="#ff7575" stroke="none" stroke-width="0.5" stroke-linecap="butt"/><path d="M374.44757,165.36846c-0.48318,-0.31465 -0.16853,-0.79783 -0.16853,-0.79783l0.45331,-0.62658c0.78014,-0.56737 1.48476,-1.09391 2.34452,-1.52606c0,0 0.51572,-0.25787 0.77359,0.25787c0.25787,0.51572 -0.25787,0.77359 -0.25787,0.77359c-0.80411,0.39969 -1.45237,0.89662 -2.18197,1.42723l-0.16523,0.32325c0,0 -0.31465,0.48318 -0.79784,0.16853z" fill="#ff7575" stroke="none" stroke-width="0.5" stroke-linecap="butt"/><path d="M383.02029,165.57842c-0.51573,-0.25786 -0.25787,-0.77359 -0.25787,-0.77359l0.08872,-0.17741c0.25345,-0.50424 0.5694,-0.92909 0.78425,-1.4209c-0.04113,0.03326 -0.07115,0.05042 -0.07115,0.05042c-0.61697,0.34604 -0.92619,0.6502 -1.31435,1.23853l-0.02146,0.12863c0,0 -0.18234,0.54701 -0.72934,0.36468c-0.54701,-0.18234 -0.36468,-0.72935 -0.36468,-0.72935l0.15596,-0.40362c0.48903,-0.72716 0.94259,-1.15981 1.70172,-1.60011c0,0 0.50063,-0.28607 0.7867,0.21455c0.03375,0.05907 0.05655,0.11516 0.07052,0.16814c0.08776,-0.15261 0.28139,-0.36488 0.65174,-0.25907c0.55441,0.1584 0.39601,0.71282 0.39601,0.71282c-0.23178,0.77784 -0.65509,1.328 -1.01447,2.05103l-0.08872,0.17741c0,0 -0.25786,0.51572 -0.77359,0.25787z" fill="#ff7575" stroke="none" stroke-width="0.5" stroke-linecap="butt"/><path d="M384.78619,166.61509c-0.5766,0 -0.5766,-0.5766 -0.5766,-0.5766l0.06088,-0.52398c0.50699,-1.01401 1.04044,-1.98428 1.61548,-2.96183c0,0 0.29235,-0.49699 0.78933,-0.20465c0.49699,0.29235 0.20465,0.78934 0.20465,0.78934c-0.56205,0.95547 -1.08251,1.90189 -1.578,2.89287l0.06087,0.00826c0,0 0,0.5766 -0.5766,0.5766z" fill="#ff7575" stroke="none" stroke-width="0.5" stroke-linecap="butt"/><path d="M393.35667,168.22605c-0.22713,0.52999 -0.75711,0.30285 -0.75711,0.30285l-0.87647,-0.38134c-1.55536,-1.34231 -1.08748,-4.08512 -1.08748,-6.02997c0,-3.3675 -0.89545,-4.77608 -2.48564,-7.61082c-1.13362,-2.02083 -1.69246,-4.23223 -4.29771,-4.62094c0,0 -0.56876,-0.0948 -0.47397,-0.66355c0.09479,-0.56875 0.66355,-0.47395 0.66355,-0.47395c5.08562,0.91313 7.74697,8.90457 7.74697,13.36926c0,1.12387 -0.45199,4.38929 0.52699,5.04075l0.73801,0.31059c0,0 0.52998,0.22713 0.30284,0.75711z" fill="#271d19" stroke="none" stroke-width="0.5" stroke-linecap="butt"/><path d="M394.35307,167.1308c-0.51573,0.25786 -0.77359,-0.25787 -0.77359,-0.25787l-0.06087,-0.14254c-3.00806,-4.01075 1.27047,-9.5849 -2.5988,-13.43067c0,0 -0.40771,-0.40773 0,-0.81544c0.40771,-0.40773 0.81543,0 0.81543,0c4.09296,4.11519 -0.25143,9.61106 2.70593,13.5542l0.16976,0.31874c0,0 0.25787,0.51572 -0.25787,0.77359z" fill="#271d19" stroke="none" stroke-width="0.5" stroke-linecap="butt"/><path d="M398.19843,165.77824c-0.54701,0.18234 -0.72934,-0.36468 -0.72934,-0.36468l-0.13371,-0.41521c-0.17527,-1.0777 -1.24817,-1.99222 -1.68847,-2.98627c-0.85409,-1.92827 -0.24646,-5.28916 -1.72877,-6.63661c0,0 -0.40771,-0.40773 0,-0.81544c0.40771,-0.40773 0.81544,0 0.81544,0c1.70381,1.81725 0.94137,4.70469 1.96148,6.97114c0.50169,1.11465 1.49808,2.01971 1.77113,3.24102l0.09693,0.2767c0,0 0.18233,0.54701 -0.36468,0.72934z" fill="#271d19" stroke="none" stroke-width="0.5" stroke-linecap="butt"/><path d="M365.1982,168.08464c-0.54701,-0.18234 -0.36468,-0.72934 -0.36468,-0.72934l0.08573,-0.16363c0.02251,-1.73288 0.7619,-3.42862 0.85697,-5.20554c0.64291,-2.38231 2.03543,-3.59351 2.9945,-5.7447c0.65984,-1.48002 -0.15867,-3.33551 0.20015,-4.86575c0.33717,-1.43796 3.83671,-3.0572 5.06089,-3.31592c0,0 0.5654,-0.11307 0.67849,0.45232c0.11308,0.5654 -0.45233,0.67847 -0.45233,0.67847c-0.66083,0.12287 -4.07287,1.63358 -4.1647,2.45008c-0.18382,1.6345 0.41473,3.48453 -0.26114,5.05178c-0.89375,2.07248 -2.29596,3.2237 -2.91706,5.47539c-0.07878,1.6948 -0.87177,3.38789 -0.84257,5.02388l-0.14491,0.52829c0,0 -0.18234,0.54701 -0.72934,0.36468z" fill="#271d19" stroke="none" stroke-width="0.5" stroke-linecap="butt"/><path d="M363.42234,167.29581c-0.5654,-0.11308 -0.45232,-0.67849 -0.45232,-0.67849l0.12344,-0.61152c0.74986,-2.18348 0.8143,-4.45706 1.52476,-6.63368c0.62313,-1.90904 1.45424,-3.08713 1.45424,-5.2116c0,0 0,-0.5766 0.5766,-0.5766c0.5766,0 0.5766,0.5766 0.5766,0.5766c0,2.24166 -0.82596,3.56496 -1.51098,5.56887c-0.33231,0.97209 0.05808,2.06924 -0.11096,3.05717c-0.22181,1.29636 -1.01351,2.31598 -1.39571,3.51524l-0.1072,0.54168c0,0 -0.11308,0.5654 -0.67849,0.45232z" fill="#271d19" stroke="none" stroke-width="0.5" stroke-linecap="butt"/><path d="M348.60082,169.36762c-0.01519,-0.06697 -0.01519,-0.11564 -0.01519,-0.11564l0.27639,-0.53812c0.79928,-0.39929 2.86012,-1.47321 3.49573,-0.21695c0.38526,0.76146 -1.06635,3.73528 -1.98857,3.61226c-0.27175,-0.03625 -1.33554,-1.92979 -1.6371,-2.2309c0,0 -0.23344,-0.23344 -0.13126,-0.51064z" fill="#140c09" stroke="none" stroke-width="0.5" stroke-linecap="butt"/><path d="M355.58339,169.23599c-0.00565,-0.05761 -0.00119,-0.12272 0.01717,-0.19617c0.12127,-0.48507 0.60634,-0.3638 0.60634,-0.3638l0.65839,0.29863c0.44791,0.67251 1.10948,1.39225 0.77319,2.28687c-0.26259,0.69857 -3.16955,1.82615 -3.73172,1.24584c-0.85038,-0.87783 1.51739,-2.20621 1.59299,-3.05334c0,0 0.01563,-0.10942 0.08364,-0.21802z" fill="#140c09" stroke="none" stroke-width="0.5" stroke-linecap="butt"/><path d="M356.96807,175.11599c0.09976,-0.08175 0.24769,-0.13555 0.45749,-0.06561c0.47434,0.15811 0.31623,0.63246 0.31623,0.63246l-0.09091,0.27273c-0.26597,0.79792 -0.55518,2.15877 -1.59852,2.33855c-1.07811,0.18577 -3.15507,-1.68039 -2.16818,-2.72047c0.27943,-0.29449 2.59561,-0.44868 3.08388,-0.45765z" fill="#140c09" stroke="none" stroke-width="0.5" stroke-linecap="butt"/><path d="M355.85424,180.83305l-0.00234,0.2263c-0.21539,0.668 -0.43576,1.06545 -0.4192,1.55987l0.09739,0.09739l-0.08137,0.08137c0.02334,0.16136 0.07201,0.3361 0.15314,0.53505l-0.50829,-0.01397l-0.07515,0.22545l-0.54545,-0.18182l0.02005,-0.06014l-0.14792,-0.00407c-0.4607,-0.55926 -2.55279,-1.61905 -2.15485,-2.64607c0.13838,-0.35714 2.13746,-0.62104 3.00121,-0.6966c0.04829,-0.014 0.10359,-0.02202 0.1669,-0.02202c0.02616,0 0.05095,0.00137 0.07444,0.00396c0.04545,-0.00258 0.08173,-0.00391 0.10738,-0.00396c0,0 0.5,0 0.5,0.5c0,0.20686 -0.08559,0.32814 -0.18594,0.39925z" fill="#140c09" stroke="none" stroke-width="0.5" stroke-linecap="butt"/><path d="M356.02822,185.41364l0.03162,0.03564c0.25069,0.42548 1.28785,1.26308 1.02519,1.83051c-0.51569,1.11405 -6.36479,0.45932 -2.90523,-1.7217c0.39299,-0.24775 0.83139,-0.4522 1.28968,-0.52835c0,0 0.46758,-0.0668 0.55875,0.38391z" fill="#140c09" stroke="none" stroke-width="0.5" stroke-linecap="butt"/><path d="M394.2405,176.83333c0,-2.15391 1.74609,-3.9 3.9,-3.9c2.15391,0 3.9,1.74609 3.9,3.9c0,2.15391 -1.74609,3.9 -3.9,3.9c-2.15391,0 -3.9,-1.74609 -3.9,-3.9z" fill="#ffdece" stroke="#000000" stroke-width="0" stroke-linecap="butt"/><path d="M397.50203,174.43419c-2.2443,0.26401 -2.89628,-5.86367 -0.8458,-6.87028c2.04608,-1.00445 1.99497,5.40905 1.88501,6.58356c0,0 -0.05935,0.58683 -0.58546,0.50333c-0.23622,-0.03749 -0.35441,-0.17645 -0.41294,-0.3182c-0.01335,0.0339 -0.02696,0.06776 -0.04081,0.10158z" data-paper-data="{&quot;index&quot;:null}" fill="#ffdece" stroke="none" stroke-width="0.5" stroke-linecap="butt"/><path d="M401.55234,172.97168c-0.029,0.3103 -0.16884,0.68572 -0.37651,1.03197c-0.22192,0.69155 -0.50396,1.25517 -0.78022,1.47988c0,0 -0.43996,0.31532 -0.7345,-0.1866c-0.05905,-0.10063 -0.08857,-0.19376 -0.09804,-0.27835c-0.24721,-0.0796 -0.48598,-0.29044 -0.69461,-0.68007c-0.54598,-1.0197 0.43854,-4.27029 1.45058,-4.57054c0.6236,-0.185 0.98361,0.12121 1.15605,0.67531c0.07891,0.0831 0.13687,0.19292 0.16077,0.31953c0.01533,0.08123 0.01519,0.16162 0.0018,0.23735l-0.03903,0.25153c0.01314,0.32894 -0.00631,0.68843 -0.05108,1.05518c0.00417,0.31933 0.0075,0.63563 0.00478,0.66479z" data-paper-data="{&quot;index&quot;:null}" fill="#ffdece" stroke="none" stroke-width="0.5" stroke-linecap="butt"/><path d="M393.9405,206.33333c0,-0.13407 0.03595,-0.2322 0.08857,-0.30401c-0.08857,-0.13827 -0.08857,-0.29599 -0.08857,-0.29599c0,-5.6217 0.79327,-11.14293 0.80102,-16.6899c-0.22158,-1.62806 -0.20938,-4.15899 -0.92635,-5.64724c-0.24525,-0.50907 -1.6955,-0.29993 -1.85654,-1.3294c-0.34266,-2.1906 3.892,-3.35162 5.47122,-3.43336c0.94031,-0.00018 4.85751,-0.56036 5.5642,0.14633c1.25723,1.25724 -0.63432,4.17011 -1.10965,4.98365c-0.48091,0.8231 -0.35662,3.74658 -0.34391,4.7699c0,2.47884 -0.76122,5.30051 -0.40645,7.71991c0.37903,2.5849 1.60645,5.05407 1.60645,7.68009c-0.04365,4.59769 -5.50968,1.14649 -7.82265,2.81602l-0.47735,0.08397c0,0 -0.5,0 -0.5,-0.5z" fill="#284a36" stroke="none" stroke-width="0.5" stroke-linecap="butt"/><g fill="none" stroke="#000000" stroke-width="2"><path d="M345,241.53909v-106.16129h70v106.16129z" stroke-linecap="butt"/><path d="M413.66666,205.91614h-68.33333" stroke-linecap="round"/></g></g></g></svg>