<svg version="1.1" xmlns="http://www.w3.org/2000/svg" xmlns:xlink="http://www.w3.org/1999/xlink" width="72" height="108.16129" viewBox="0,0,72,108.16129"><g transform="translate(-344,-134.54441)"><g data-paper-data="{&quot;isPaintingLayer&quot;:true}" fill-rule="nonzero" stroke-linejoin="miter" stroke-miterlimit="10" stroke-dasharray="" stroke-dashoffset="0" style="mix-blend-mode: normal"><path d="M344.91667,242.04169v-106h70.25v106z" fill="#006eff" stroke="none" stroke-width="0" stroke-linecap="butt"/><path d="M345.47132,205.66666v-69.5h69.75v69.5z" fill="#c0008d" stroke="#000000" stroke-width="0" stroke-linecap="butt"/><text transform="translate(355.41667,216.78367) scale(0.26141,0.26141)" font-size="40" xml:space="preserve" fill="#000000" fill-rule="nonzero" stroke="none" stroke-width="1" stroke-linecap="butt" stroke-linejoin="miter" stroke-miterlimit="10" stroke-dasharray="" stroke-dashoffset="0" font-family="Serif" font-weight="normal" text-anchor="start" style="mix-blend-mode: normal"><tspan x="0" dy="0">Minh UWU</tspan></text><path d="M414.16667,220.66671h-69" fill="none" stroke="#000000" stroke-width="2" stroke-linecap="round"/><path d="M379.86404,241.16671v-20" fill="none" stroke="#000000" stroke-width="2" stroke-linecap="round"/><text transform="translate(363.70833,235.28339) scale(0.335,0.335)" font-size="40" xml:space="preserve" fill="#000000" fill-rule="nonzero" stroke="none" stroke-width="1" stroke-linecap="butt" stroke-linejoin="miter" stroke-miterlimit="10" stroke-dasharray="" stroke-dashoffset="0" font-family="Serif" font-weight="normal" text-anchor="start" style="mix-blend-mode: normal"><tspan x="0" dy="0">40</tspan></text><text transform="translate(398.95834,235.53339) scale(0.335,0.335)" font-size="40" xml:space="preserve" fill="#000000" fill-rule="nonzero" stroke="none" stroke-width="1" stroke-linecap="butt" stroke-linejoin="miter" stroke-miterlimit="10" stroke-dasharray="" stroke-dashoffset="0" font-family="Serif" font-weight="normal" text-anchor="start" style="mix-blend-mode: normal"><tspan x="0" dy="0">10</tspan></text><text transform="translate(384.43895,236.72918) scale(0.42958,0.42958)" font-size="40" xml:space="preserve" fill="#ff8500" fill-rule="nonzero" stroke="none" stroke-width="1" stroke-linecap="butt" stroke-linejoin="miter" stroke-miterlimit="10" stroke-dasharray="" stroke-dashoffset="0" font-family="Serif" font-weight="normal" text-anchor="start" style="mix-blend-mode: normal"><tspan x="0" dy="0">C</tspan></text><g fill="#ffcf00" stroke-linecap="butt"><text transform="translate(350.22619,236.87738) scale(0.42958,0.42958)" font-size="40" xml:space="preserve" fill="#ffcf00" fill-rule="nonzero" stroke="none" stroke-width="1" stroke-linecap="butt" stroke-linejoin="miter" stroke-miterlimit="10" stroke-dasharray="" stroke-dashoffset="0" font-family="Serif" font-weight="normal" text-anchor="start" style="mix-blend-mode: normal"><tspan x="0" dy="0">S</tspan></text><path d="M353.71054,238.02289v-13.69875h0.66823v13.69875z" stroke="#000000" stroke-width="0"/><path d="M354.95154,238.02289v-13.69875h0.66823v13.69875z" stroke="#000000" stroke-width="0"/></g><path d="M391.08791,146.78003c0.11705,-0.45436 -0.37762,-1.9572 -0.14208,-2.68711c-0.71931,0.45964 -1.96117,1.15369 -2.00963,1.18256c-0.8843,0.52672 -1.82416,0.97547 -2.76624,1.42521c1.44295,0.73083 2.51986,1.78766 3.08996,3.59182c0.78179,-1.13697 1.53456,-2.37339 1.82799,-3.51248zM389.13341,142.49839c0.80363,-0.35243 2.84813,-1.45553 3.62369,-0.90269c0.70616,0.50337 0.50929,1.66111 0.67752,2.51184c0.70733,3.577 -1.4801,6.66516 -3.44476,9.47596l-0.27271,0.49861c-0.00399,2.56103 -0.02992,5.26305 0.32811,7.76891c0.24807,1.73625 1.48765,2.84088 1.49167,4.69872c-0.01179,1.95267 -1.48791,3.31825 -1.48543,5.13449c0.00164,1.20712 1.74254,3.33512 0.91123,4.51849c-0.31594,0.44972 -1.05269,0.47943 -1.5965,0.39485c0.11737,0.78589 0.19113,1.59113 0.18059,2.4398c0.73627,2.12575 -2.65437,7.23687 -3.49965,9.81796c-0.60027,1.18526 -1.26184,2.16978 -1.97424,3.0541l0.04878,0.07508c0.08093,0.31728 0.13295,0.63782 0.1684,0.96014c0.79355,-1.78247 8.01937,1.16916 9.14162,1.72436l0.00003,0.00003c3.6135,1.8411 7.30434,4.10546 10.93585,5.88915c3.27319,1.40306 11.41592,3.84424 4.01631,5.70835c-3.85426,0.94041 -8.92726,-0.81371 -12.91543,-0.71327c-3.07813,0.76511 -7.22354,0.51335 -10.50787,0.48712c-0.3537,0.32568 -0.8151,0.57214 -1.40713,0.71658c-2.83083,0.01344 -5.38814,-0.00562 -8.05358,-0.32543c2.64317,-0.04388 5.34374,-0.51009 7.95255,-0.49542c0.10207,-0.02627 0.19867,-0.05753 0.29005,-0.09352c-0.03139,-0.05543 -0.05154,-0.12655 -0.05154,-0.21782l-0.00001,0.00002c0,-0.41351 0.41351,-0.41351 0.41351,-0.41351h0.36088c0.04246,0 0.08507,0.00005 0.12787,0.00015c1.41056,-1.8263 -0.20049,-6.23184 -0.76963,-8.50842c-0.32376,-1.32694 -0.14557,-2.71112 -0.38652,-4.04305c-1.39476,1.57027 -2.95873,2.88941 -4.62217,4.62718c-1.72201,1.14798 -3.83066,3.44565 -6.11756,3.06566c-1.79132,-0.29765 -2.86089,-1.84183 -4.45169,-2.37209c-1.29241,-1.2426 -2.39453,-2.39342 -3.31223,-3.63472c-0.37765,0.56524 -0.68448,1.54945 -0.90595,2.6741c0.01092,0.02516 0.02041,0.053 0.0281,0.08379c0.05106,0.20423 -0.02785,0.33048 -0.11762,0.40521c-0.34697,2.04313 -0.4222,4.3992 -0.14597,5.54251c0.57357,0.9071 -0.31978,2.24562 -0.0148,2.85682c0.00205,0.00379 0.00407,0.00759 0.00602,0.01145c0.41581,0.74848 4.94027,0.44061 7.2106,0.30613c-2.60126,0.43639 -6.80945,1.26608 -7.78433,0.29346h-0.18247c-0.23239,0.15878 -0.50491,-0.50347 -0.77748,-0.5309c0.12635,-0.04542 0.24949,-0.10107 0.36801,-0.16449c0.05776,-0.06218 0.13125,-0.09498 0.19271,-0.11228c0.00084,-0.00053 0.00169,-0.00108 0.00253,-0.0016l0.00134,0.00053c0.06681,-0.01826 0.1185,-0.01826 0.1185,-0.01826h0.01345c0.05883,-0.74684 0.61377,-1.56944 0.08957,-2.30625c-0.32353,-1.26813 -0.28511,-3.52382 0.03318,-5.5968c-2.59722,0.75727 -5.45356,2.24439 -7.73419,3.61363v-0.00002c-2.00045,1.29916 -4.39035,1.82392 -6.36908,3.00315c-0.81052,0.48301 -1.02481,1.56561 -0.08417,1.79314c1.81548,0.94805 4.97753,-0.44934 6.88876,-0.74229c1.65749,-0.25406 3.49192,0.69325 5.20746,0.72003c-1.70042,0.12616 -3.46344,-0.19782 -5.0772,0.09665c-2.09808,0.38286 -5.78399,0.80057 -7.80598,-0.17375c-1.6605,-0.42732 -0.85768,-1.55994 0.41583,-2.38423c1.92824,-1.24808 4.41626,-1.65521 6.38211,-3.01156c2.46389,-1.47748 5.56795,-3.04416 8.33473,-3.81357c0.25003,-1.25001 0.60528,-2.36061 1.04559,-3.04345c0,0 0.0719,-0.10784 0.19557,-0.16253c-0.96213,-1.44157 -1.69113,-3.0387 -2.19555,-5.05264c-0.53436,-2.14151 -0.70441,-4.61319 -1.43924,-6.66447c-0.1709,-0.47703 -1.96837,-0.61612 -2.18983,-2.36249c-0.26023,0.53651 -1.25023,0.04618 -2.01986,-0.14394l-0.09536,0.03179c-0.0437,0.01571 -0.09081,0.02426 -0.13992,0.02426c-0.22837,0 -0.41351,-0.18514 -0.41351,-0.41351c0,-0.04911 0.00857,-0.09622 0.02428,-0.13992l0.16234,-0.48705l0.0197,0.00657l0.00632,-0.06772c0.6046,-0.77211 1.01449,-4.64582 0.78986,-5.67194c-0.57647,-2.34698 0.46323,-4.92787 0.15842,-7.318c-0.28574,-2.24071 -1.04602,-4.07605 -0.45485,-6.35913c0.8265,-2.07064 1.41317,-3.90309 2.20117,-5.48163c-0.44056,-2.96443 -0.8304,-6.39395 -0.14164,-9.29907c0.4059,-1.71203 0.83407,-3.10063 3.32378,-2.87357c0.81247,0.07409 1.2897,0.99954 1.93272,1.50165c1.66458,1.29982 3.27504,3.06061 5.13984,4.10898c3.71542,-1.13563 7.51735,-2.08545 11.28578,-2.07214c0.84062,0.21016 1.64574,0.39934 2.40589,0.59586c2.02649,-1.16896 4.28445,-2.16209 6.30481,-3.04811zM361.64504,143.87674c-0.7111,-0.43026 -0.59914,1.57674 -0.65419,2.40605c-0.09336,1.40643 -0.05824,2.86163 0.06017,4.30331c1.00509,-0.92999 2.31792,-1.70236 4.14062,-2.3099c0.37209,-0.11956 0.74552,-0.2401 1.12018,-0.36076c-1.56358,-1.36683 -2.9252,-2.98493 -4.66678,-4.0387zM370.99381,206.22601c0.78024,-0.1309 1.41589,-0.2264 1.77637,-0.22728c0.93162,0.18475 1.83674,0.32566 2.72973,0.43281c-1.14828,0.01906 -2.28575,-0.04159 -3.40014,-0.25601c-0.21295,-0.00047 -0.60446,0.02077 -1.10596,0.05048zM395.35578,204.73397c3.91584,-0.12313 9.07262,1.6968 12.82755,0.73026c6.00831,-1.48911 -1.37355,-2.9602 -4.1637,-4.15576c-3.66429,-1.85892 -7.26049,-4.07951 -10.95773,-5.89969c-1.47419,-0.74634 -3.24694,-1.82058 -4.84214,-2.25299c-0.55015,-0.14913 -3.44138,0.10674 -3.14398,0.37499c0,0 0.18494,0.36986 -0.18494,0.55478c-0.29252,0.14627 -0.46937,-0.05453 -0.53054,-0.14488c0.03851,0.86095 0.0499,1.72395 0.26559,2.56179c0.59954,2.3982 2.05727,6.44407 0.94046,8.71829c3.13779,0.04729 6.94298,0.22902 9.78941,-0.48677zM362.24953,205.98857c-0.0851,0.03059 -0.17165,0.05654 -0.25925,0.07712c-0.33123,0.08526 -0.66958,0.11673 -1.01268,0.11137c0.40902,-0.03035 0.81443,-0.08674 1.21326,-0.18405c0.01954,-0.00511 0.03911,-0.00641 0.05867,-0.00444zM383.27359,191.44689c0.09296,-0.06198 0.17755,-0.08209 0.2515,-0.07843c0.63663,-0.8259 1.22409,-1.74368 1.75804,-2.8296c0.87504,-2.58402 4.09178,-7.37563 3.44735,-9.36899c-0.0333,-3.50751 -1.32858,-6.28758 -1.32858,-9.99051c0.04532,-3.65057 -1.89625,-6.89809 -3.6418,-9.76108c-3.52904,-1.01317 -7.02701,-1.33192 -10.23574,-2.40153c-3.62842,0.03255 -7.58296,3.32725 -9.32119,6.05889c-0.73208,2.19621 -2.17552,3.84263 -2.78088,6.19871c-0.22571,0.87843 -0.20016,1.80554 -0.30825,2.67658c0.1524,0.15581 0.16006,0.511 -0.09713,1.13873c0,0 -0.08793,0.17586 -0.26379,0.22442c-0.17267,0.36339 -0.42041,0.70204 -0.7824,1.00533l-0.18122,0.14498c0,0 -0.00653,0.00523 -0.01849,0.01327l0.00002,0.00003c-0.17083,1.67672 -0.32252,3.96768 -0.32252,4.79138c-0.01274,1.02657 1.4874,1.4314 2.0885,2.26366c1.00187,1.38722 1.10833,5.18301 1.53805,6.8987c0.99858,4.00213 2.89624,5.9709 5.6054,8.8458c1.67199,0.55731 3.08956,2.77175 5.14594,2.26497c1.64048,-0.4043 3.11467,-1.99496 4.46419,-2.89463c1.79453,-1.73333 3.41268,-3.07258 4.81248,-4.75282c-0.03576,-0.12109 -0.0418,-0.3063 0.17052,-0.44783z" fill="#000000" stroke="none" stroke-width="0.5" stroke-linecap="butt"/><path d="M385.49205,205.25703c1.11681,-2.27422 -0.34722,-6.37485 -0.94676,-8.77305c-0.21569,-0.83784 -0.2227,-1.71445 -0.26121,-2.5754c0.06115,0.09034 0.23818,0.29075 0.5307,0.14448c0.36986,-0.18492 0.18638,-0.55799 0.18638,-0.55799c-0.2974,-0.26825 2.60013,-0.53505 3.15027,-0.38592c1.59518,0.43242 3.37551,1.49718 4.8497,2.24352c3.69724,1.8202 7.43375,4.1195 11.09805,5.97842c2.79015,1.19556 10.1646,2.68447 4.15629,4.17358c-3.75495,0.96654 -8.76385,0.18326 -12.67967,0.30639c-2.84643,0.71579 -6.94595,-0.50671 -10.08374,-0.55402z" data-paper-data="{&quot;noHover&quot;:false,&quot;origItem&quot;:[&quot;Path&quot;,{&quot;applyMatrix&quot;:true,&quot;segments&quot;:[[[349.90569,189.17052],[-1.72089,0.43275],[2.36743,-0.07444]],[[357.66094,189.61201],[-2.27016,0.58435],[3.63249,-0.90028]],[[355.14366,187.09953],[1.68686,0.72281],[-2.21535,-1.12386]],[[348.51886,183.5327],[2.23527,1.10045],[-0.89126,-0.45122]],[[345.59141,182.17059],[0.96441,0.26143],[-0.33261,-0.09016]],[[343.69064,182.3973],[-0.1798,-0.16218],[0,0]],[[343.57883,182.73271],[0.22361,-0.1118],[-0.17685,0.08843]],[[343.25808,182.64511],[0.03697,0.05462],[0.02328,0.52051]],[[343.41865,184.19392],[-0.1304,-0.50654],[0.36247,1.4499]],[[343.98723,189.4648],[0.6752,-1.37494],[1.89704,0.02859]]],&quot;closed&quot;:true}]}" fill="#ab3a3a" stroke="none" stroke-width="0.5" stroke-linecap="butt"/><path d="M363.13981,197.74697c-0.31829,2.07298 -0.34614,4.38486 -0.02261,5.65301c0.5242,0.73681 -0.03808,1.58216 -0.09691,2.32898l-0.01346,0.00005c0,0 -0.05199,0.00065 -0.11881,0.01891l-0.00134,-0.00051c-0.00084,0.00053 -0.0017,0.00109 -0.00255,0.00162c-0.06148,0.01732 -0.13586,0.05189 -0.19364,0.11405c-0.19837,0.10614 -0.41247,0.19543 -0.63014,0.24655c-1.98739,0.51156 -4.30099,-0.87478 -6.28996,-0.5699c-1.91124,0.29295 -5.14482,1.64955 -6.9603,0.70148c-0.94064,-0.22753 -0.73354,-1.32603 0.07696,-1.80905c1.97872,-1.17922 4.40647,-1.80199 6.40692,-3.10114c2.28063,-1.36924 5.24866,-2.82678 7.84586,-3.58406z" data-paper-data="{&quot;noHover&quot;:false,&quot;origItem&quot;:[&quot;Path&quot;,{&quot;applyMatrix&quot;:true,&quot;segments&quot;:[[[325.7098,187.15671],[1.37882,-0.82781],[-1.20943,0.78544]],[[321.8592,188.97235],[1.19629,-0.71293],[-0.49002,0.29202]],[[321.80831,190.05644],[-0.56869,-0.13756],[1.0976,0.57317]],[[325.9731,189.60767],[-1.15549,0.17711],[1.20249,-0.18432]],[[329.73366,189.97565],[-1.20153,0.30928],[0.1316,-0.03091]],[[330.1129,189.82958],[-0.11993,0.06417],[0.03492,-0.03759]],[[330.22941,189.7617],[-0.03717,0.01047],[0.00051,-0.00032]],[[330.23094,189.76073],[-0.00051,0.00032],[0,0]],[[330.23175,189.76105],[0,0],[0.04039,-0.01104]],[330.30339,189.75],[[330.31151,189.75],[0,0],[0.03557,-0.45152]],[[330.36567,188.35569],[0.31692,0.44546],[-0.1956,-0.76668]],[[330.38572,184.97199],[-0.19243,1.25328],[-1.57022,0.45783]]],&quot;closed&quot;:true}]}" fill="#ab3a3a" stroke="none" stroke-width="0.5" stroke-linecap="butt"/><path d="M364.86097,194.30616c0.91772,1.24128 2.17243,2.45241 3.46483,3.69501c1.5908,0.53025 2.65491,2.01848 4.44623,2.31613c2.2869,0.37998 4.24721,-1.84454 5.96923,-2.99252c1.66344,-1.73778 3.36685,-3.14463 4.76161,-4.71491c0.24093,1.33194 0.07612,2.74233 0.3999,4.06927c0.67598,2.70397 2.81021,8.48282 -0.38271,9.30466c-3.74217,-0.02104 -7.76774,0.97789 -11.4473,0.26992c-1.18087,-0.00261 -7.89637,0.62683 -8.36528,-0.30034c-0.30853,-0.6101 0.58031,-1.96751 0.00599,-2.87579c-0.45529,-1.88439 0.0503,-7.12918 1.14751,-8.77143z" data-paper-data="{&quot;noHover&quot;:false,&quot;origItem&quot;:[&quot;Path&quot;,{&quot;applyMatrix&quot;:true,&quot;segments&quot;:[[[742.44586,403.10683],[-0.55051,-2.27852],[0.69444,1.09827]],[[742.42944,406.56408],[-0.37307,-0.7377],[0.56697,1.12111]],[[752.49125,406.88415],[-1.42785,-0.00316],[4.44916,0.85604]],[[766.21841,406.59467],[-4.52485,-0.02544],[3.86075,-0.99375]],[[766.66717,395.43038],[0.81737,3.26952],[-0.39149,-1.60448]],[[766.19982,390.5417],[0.29132,1.61053],[-1.68648,1.89871]],[[760.61091,396.13669],[2.01136,-2.10125],[-2.08218,1.38808]],[[753.21383,399.84355],[2.76522,0.45946],[-2.16598,-0.3599]],[[747.83105,396.97533],[1.92352,0.64116],[-1.56273,-1.50251]],[[743.82604,392.58039],[1.10966,1.50091],[-1.3267,1.98575]]],&quot;closed&quot;:true}]}" fill="#f7d4c0" stroke="none" stroke-width="0.5" stroke-linecap="butt"/><path d="M359.70965,174.44295l0.18152,-0.146c1.56175,-1.30847 1.00908,-3.30095 1.46375,-5.07053c0.60536,-2.35607 2.07107,-4.02387 2.80315,-6.22006c1.73821,-2.73164 5.73554,-6.03972 9.36396,-6.07226c3.20874,1.06961 6.7466,1.39734 10.27565,2.41051c1.74555,2.86299 3.71769,6.13729 3.67235,9.78788c0,3.70293 1.30972,6.53473 1.34302,10.04224c0.64443,1.99336 -2.59391,6.83603 -3.46895,9.42007c-1.78626,3.63285 -4.21412,5.40859 -7.03521,8.13346c-1.34952,0.89967 -2.84319,2.49238 -4.48368,2.89667c-2.05638,0.50678 -3.4956,-1.71086 -5.16761,-2.26818c-2.70916,-2.8749 -4.645,-4.86732 -5.64356,-8.86947c-0.42972,-1.71569 -0.5553,-5.54685 -1.55717,-6.93406c-0.6011,-0.83228 -2.10365,-1.25221 -2.0909,-2.27878c0,-0.82372 0.15434,-3.14137 0.32517,-4.81809c0.01196,-0.00804 0.01851,-0.01335 0.01851,-0.01335z" data-paper-data="{&quot;noHover&quot;:false,&quot;origItem&quot;:[&quot;Path&quot;,{&quot;applyMatrix&quot;:true,&quot;segments&quot;:[[[737.58391,368.55648],[0.01446,-0.00972],[-0.20656,2.02743]],[[737.19392,374.35001],[0,-0.99599],[-0.01541,1.24128]],[[739.71924,377.08714],[-0.72681,-1.00636],[1.21142,1.67737]],[[741.57899,385.42874],[-0.51961,-2.07454],[1.20743,4.83921]],[[748.35679,396.12468],[-3.27581,-3.47621],[2.02171,0.67389]],[[754.57904,398.86339],[-2.48648,0.61278],[1.98361,-0.48885]],[[759.97693,395.36333],[-1.63178,1.08784],[3.41113,-3.29479]],[[768.43199,385.55866],[-2.15986,4.39268],[1.05806,-3.12449]],[[772.60038,374.23009],[0.77922,2.41029],[-0.04026,-4.24113]],[[770.99392,362.15001],[0,4.47741],[0.05481,-4.41411]],[[766.59043,350.34735],[2.11063,3.4618],[-4.26717,-1.22507]],[[754.21383,347.44354],[3.87986,1.29332],[-4.38732,0.03935]],[[742.94308,354.76967],[2.10177,-3.30297],[-0.8852,2.65556]],[[739.58055,362.26488],[0.73199,-2.84887],[-0.54977,2.13969]],[[737.8254,368.36513],[1.8884,-1.58214],[0,0]],[737.60627,368.54044]],&quot;closed&quot;:true}]}" fill="#f7d4c0" stroke="none" stroke-width="0.5" stroke-linecap="butt"/><path d="M369.85831,174.70029l-0.31882,0.15477c-2.40748,0.80248 -3.37826,-0.37588 -5.2889,-1.6604c-0.05202,-0.07215 -0.09957,-0.14164 -0.14279,-0.20856l-0.15399,-0.10267c-0.114,-0.07362 -0.18947,-0.20181 -0.18947,-0.34761c0,-0.06239 0.01381,-0.12156 0.03856,-0.1746c-0.21372,-0.75269 0.45321,-0.97139 1.47108,-0.9257c0.97152,-0.4064 2.05997,0.00801 3.11783,0.54511c1.44096,0.35441 2.72769,0.74856 3.0018,0.7454c0,0 0.41351,0 0.41351,0.41351c0,0.41351 -0.41351,0.41351 -0.41351,0.41351c-0.11621,-0.00104 -0.23188,-0.00698 -0.34705,-0.01732c-0.00273,0.03789 -0.01083,0.07893 -0.02562,0.12331c-0.13077,0.39229 -0.52306,0.26152 -0.52306,0.26152c-0.00268,-0.00091 -0.00536,-0.00182 -0.00804,-0.00275c-0.02268,0.0212 -0.04544,0.04205 -0.06826,0.06246l0.00324,0.00581c0,0 -0.02964,0.02964 -0.07951,0.06062l-0.00002,-0.00002c-0.08642,0.07336 -0.17394,0.14114 -0.26243,0.20358c0.07551,0.30004 -0.22452,0.45005 -0.22452,0.45005zM366.95077,172.44656l0.13393,-0.14781c0.01381,0.02651 0.02658,0.05357 0.03836,0.0811c0.0387,-0.02425 0.07544,-0.04286 0.11034,-0.05622c-0.77084,-0.26293 -1.52437,-0.28623 -2.20337,0.27475c0.4131,0.06285 0.8164,0.26946 1.22161,0.50576c-0.00412,-0.02342 -0.00627,-0.04754 -0.00627,-0.07213c0,-0.1142 0.0463,-0.21757 0.12111,-0.2924l0.33081,-0.33081l0.09426,0.09428c0.05657,-0.03277 0.10981,-0.05015 0.1592,-0.05652zM368.38458,173.10241c0.09107,0.49598 0.04707,0.77221 -0.07499,0.9003c0.42521,0.02637 0.86988,-0.0921 1.34441,-0.4563c-0.44297,-0.22988 -0.90117,-0.50319 -1.36251,-0.74717c0.03955,0.08381 0.07127,0.18428 0.09311,0.30319z" fill="#000000" stroke="none" stroke-width="0.5" stroke-linecap="butt"/><path d="M367.03159,172.42901c-0.04939,0.00637 -0.2648,0.05627 -0.32136,0.08904l0.06434,-0.13869l-0.33384,0.39669c-0.07481,0.07483 -0.17315,0.22144 -0.17315,0.33564c0,0.0246 -0.00002,0.04927 0.0041,0.0727c-0.40521,-0.2363 -0.91125,-0.52508 -1.32435,-0.58795c0.679,-0.56099 1.595,-0.55751 2.36583,-0.29459c-0.0349,0.01336 -0.23172,0.07357 -0.27042,0.0978c-0.01178,-0.02752 0.13401,-0.10115 0.1202,-0.12766l-0.13136,0.157z" data-paper-data="{&quot;noHover&quot;:false,&quot;origItem&quot;:[&quot;Path&quot;,{&quot;applyMatrix&quot;:true,&quot;segments&quot;:[[703.44685,366.64211],[[703.60879,366.46339],[0,0],[0.0167,0.03206]],[[703.65517,366.56145],[-0.01424,-0.03328],[0.0468,-0.02932]],[[703.78859,366.49347],[-0.0422,0.01616],[-0.93206,-0.31792]],[[701.12437,366.82569],[0.82102,-0.67832],[0.4995,0.076]],[[702.60149,367.43723],[-0.48996,-0.28572],[-0.00498,-0.02832]],[[702.59391,367.35001],[0,0.02974],[0,-0.13808]],[[702.74035,366.99645],[-0.09046,0.09048],[0,0]],[703.14035,366.59645],[[703.25433,366.71045],[0,0],[0.0684,-0.03962]],[[703.44683,366.64211],[-0.05972,0.0077],[0,0]]],&quot;closed&quot;:true,&quot;fillColor&quot;:[0,0,0,1],&quot;strokeWidth&quot;:0.5}]}" fill="#f7f7f7" stroke="none" stroke-width="0.25" stroke-linecap="butt"/><path d="M367.9374,185.03376c0.27735,0.41602 -0.13867,0.69338 -0.13867,0.69338l-0.61068,0.3062c-2.55512,0 -3.67316,1.41036 -5.02842,3.44402c0,0 -0.27735,0.41603 -0.69337,0.13868c-0.41602,-0.27735 -0.13868,-0.69338 -0.13868,-0.69338c1.54404,-2.31516 2.94268,-3.88932 5.86047,-3.88932l0.05598,-0.13825c0,0 0.41602,-0.27735 0.69338,0.13868z" fill="#000000" stroke="none" stroke-width="0.5" stroke-linecap="butt"/><path d="M360.35471,184.2c0,-0.5 0.5,-0.5 0.5,-0.5l0.01305,0.00971c2.13441,-0.36691 3.86216,-1.4572 6.19612,-1c0,0 0.49029,0.09806 0.39223,0.58835c-0.09806,0.49029 -0.58835,0.39223 -0.58835,0.39223c-2.1406,-0.4386 -3.84096,0.56993 -5.80388,1l-0.20916,0.00971c0,0 -0.5,0 -0.5,-0.5z" fill="#000000" stroke="none" stroke-width="0.5" stroke-linecap="butt"/><path d="M360.79915,180.2c0,-0.5 0.5,-0.5 0.5,-0.5h0.22222c2.3422,0 4.34814,0.2921 6.63776,0.67347c0,0 0.49319,0.0822 0.41099,0.5754c-0.0822,0.49319 -0.57539,0.411 -0.57539,0.411c-2.24275,-0.37401 -4.1776,-0.65987 -6.47336,-0.65987h-0.22222c0,0 -0.5,0 -0.5,-0.5z" fill="#000000" stroke="none" stroke-width="0.5" stroke-linecap="butt"/><path d="M381.80116,185.0062l0.05599,0.13825c2.9178,0 4.31643,1.57416 5.86047,3.88932c0,0 0.27735,0.41602 -0.13868,0.69338c-0.41602,0.27735 -0.69338,-0.13868 -0.69338,-0.13868c-1.35526,-2.03366 -2.4733,-3.44402 -5.02842,-3.44402l-0.61068,-0.3062c0,0 -0.41603,-0.27735 -0.13868,-0.69338c0.27735,-0.41602 0.69338,-0.13868 0.69338,-0.13868z" data-paper-data="{&quot;index&quot;:null}" fill="#000000" stroke="none" stroke-width="0.5" stroke-linecap="butt"/><path d="M388.19048,184.81111l-0.20916,-0.00971c-1.96292,-0.43007 -3.66328,-1.4386 -5.80388,-1c0,0 -0.49029,0.09806 -0.58835,-0.39223c-0.09806,-0.49029 0.39224,-0.58835 0.39224,-0.58835c2.33396,-0.4572 4.06171,0.63309 6.19612,1l0.01305,-0.00971c0,0 0.5,0 0.5,0.5c0,0.5 -0.5,0.5 -0.5,0.5z" data-paper-data="{&quot;index&quot;:null}" fill="#000000" stroke="none" stroke-width="0.5" stroke-linecap="butt"/><path d="M387.74603,180.81111h-0.22222c-2.29576,0 -4.23061,0.28585 -6.47336,0.65986c0,0 -0.4932,0.08219 -0.5754,-0.411c-0.0822,-0.49319 0.411,-0.5754 0.411,-0.5754c2.28962,-0.38137 4.29556,-0.67347 6.63776,-0.67347h0.22222c0,0 0.5,0 0.5,0.5c0,0.5 -0.5,0.5 -0.5,0.5z" data-paper-data="{&quot;index&quot;:null}" fill="#000000" stroke="none" stroke-width="0.5" stroke-linecap="butt"/><path d="M368.31094,173.06481c-0.02183,-0.11891 -0.04181,-0.23661 -0.08136,-0.32042c0.46133,0.24397 1.06236,0.5892 1.50533,0.81908c-0.47453,0.3642 -1.06145,0.52107 -1.48666,0.49471c0.12207,-0.12809 0.15374,-0.49741 0.06267,-0.99339z" data-paper-data="{&quot;noHover&quot;:false,&quot;origItem&quot;:[&quot;Path&quot;,{&quot;applyMatrix&quot;:true,&quot;segments&quot;:[[[705.18055,367.43513],[0,0],[0.11012,0.59972]],[[705.08987,368.52373],[0.1476,-0.15488],[0.51414,0.03188]],[[706.71547,367.97199],[-0.57378,0.44038],[-0.53562,-0.27796]],[[705.06799,367.06855],[0.55782,0.295],[0.04782,0.10134]],[[705.18057,367.43515],[-0.0264,-0.14378],[0,0]]],&quot;closed&quot;:true,&quot;fillColor&quot;:[0,0,0,1],&quot;strokeWidth&quot;:0.5}]}" fill="#f7f7f7" stroke="none" stroke-width="0.25" stroke-linecap="butt"/><path d="M380.47132,175.36191c-0.20765,-0.10382 -0.24042,-0.26594 -0.22923,-0.38817c-2.16073,-0.80081 -2.2148,-1.54759 -1.43608,-2.09667c-0.11648,-0.29073 0.16532,-0.47858 0.16532,-0.47858c1.64292,-1.07903 3.25523,-1.38282 4.95776,-0.26465v0.00002v-0.00002l0.39163,0.26109c0.114,0.07362 0.18947,0.20181 0.18947,0.34761c0,0.16253 -0.09377,0.30315 -0.23016,0.37074c0.33192,0.87203 -0.42251,1.80867 -3.23092,1.82087c-0.0181,-0.00013 -0.03606,-0.00038 -0.05389,-0.00071l0.03088,0.24351c0,0 -0.18494,0.36986 -0.5548,0.18494zM380.15788,173.25748c-0.01207,-0.03139 -0.02324,-0.06279 -0.03344,-0.09405c-0.37932,0.06803 -0.64455,0.16041 -0.70868,0.28719c0.20892,0.1928 0.40613,0.34704 0.63075,0.45748c-0.12359,-0.20039 -0.04711,-0.4322 0.11135,-0.65062zM381.74983,174.09357c2.06165,-0.09767 2.2628,-0.69382 1.66751,-1.13421c-0.45409,0.00953 -0.9896,0.02081 -1.51904,0.04396c0.11618,0.40509 0.0934,0.84924 -0.14847,1.09025z" fill="#000000" stroke="none" stroke-width="0.5" stroke-linecap="butt"/><path d="M381.82832,172.95929c0.52944,-0.02316 1.19875,-0.04302 1.65284,-0.05255c0.59528,0.44037 0.25876,1.13059 -1.8029,1.22826c0.24187,-0.24101 0.26624,-0.77062 0.15006,-1.17571z" data-paper-data="{&quot;noHover&quot;:false,&quot;origItem&quot;:[&quot;Path&quot;,{&quot;applyMatrix&quot;:true,&quot;segments&quot;:[[[341.67984,170.64602],[0.14623,-0.14571],[1.24643,-0.05905]],[[342.68798,169.9603],[0.35989,0.26624],[-0.27453,0.00576]],[[341.76961,169.98688],[0.32009,-0.014],[0.07024,0.24491]]],&quot;closed&quot;:true}]}" fill="#f7f7f7" stroke="none" stroke-width="0.5" stroke-linecap="butt"/><path d="M380.23557,173.22916c-0.15846,0.21842 -0.27308,0.55119 -0.14948,0.75158c-0.23716,-0.11661 -0.56593,-0.35067 -0.78804,-0.55875c0.08629,-0.03844 0.14484,-0.12147 0.14484,-0.12147c0.16463,-0.17468 0.46672,-0.36601 0.65958,-0.48206c0.01497,0.11825 0.08515,0.28595 0.13312,0.4107z" data-paper-data="{&quot;noHover&quot;:false,&quot;origItem&quot;:[&quot;Path&quot;,{&quot;applyMatrix&quot;:true,&quot;segments&quot;:[[[719.41629,367.62263],[0,0],[-0.058,-0.15084]],[[719.29951,367.17851],[0.0181,0.14298],[-0.2332,0.14032]],[[718.64747,367.70357],[0.19906,-0.21122],[0,0]],[[718.47649,367.81669],[0.10434,-0.04648],[0.26856,0.2516]],[[719.28163,368.40933],[-0.28676,-0.141],[-0.14944,-0.2423]],[[719.41627,367.62263],[-0.1916,0.2641],[0,0]]],&quot;closed&quot;:true,&quot;fillColor&quot;:[0,0,0,1],&quot;strokeWidth&quot;:0.5}]}" fill="#f7f7f7" stroke="none" stroke-width="0.25" stroke-linecap="butt"/><path d="M371.04212,168.23528c0,0.41351 -0.41351,0.41351 -0.41351,0.41351l-0.02324,-0.00288c-0.0565,0.13557 -0.19791,0.28524 -0.44325,0.45017c-0.7864,0.52865 -4.2885,-1.42499 -5.52649,0.09322c0,0 -0.2924,0.29239 -0.58479,0c-0.2924,-0.29239 0,-0.58481 0,-0.58481c0.03181,-0.02875 0.08227,-0.06044 0.14896,-0.09423c-0.0651,-0.07308 -0.10468,-0.16941 -0.10468,-0.27499c0,-0.18601 0.12283,-0.34335 0.29181,-0.39532l0.48717,-0.16238c0.12675,-0.04218 0.25348,-0.08434 0.38023,-0.1265c1.14022,-1.09777 4.26485,-0.33187 5.27286,0.34015l0.10143,-0.06945c0,0 0.41351,0 0.41351,0.41351z" fill="#000000" stroke="none" stroke-width="0.5" stroke-linecap="butt"/><path d="M384.11322,168.77284c0,0.41351 -0.41351,0.41351 -0.41351,0.41351l-0.36171,-0.06944c-0.71243,-0.48391 -1.5315,-0.03197 -2.19633,-0.02297c-0.15702,0.06856 -0.31529,0.13542 -0.47551,0.19951l-0.01328,-0.00141l0.0018,0.00543l-0.38782,0.12928c-0.0437,0.01571 -0.09082,0.02426 -0.13993,0.02426c-0.10263,0 -0.19652,-0.03738 -0.26882,-0.09928c-0.07976,0.09079 -0.21562,0.17382 -0.42845,0.10288c-0.39229,-0.13077 -0.26152,-0.52306 -0.26152,-0.52306c0.04449,-0.12589 0.09618,-0.24339 0.15439,-0.35291c0.00619,-0.04203 0.01515,-0.06887 0.01515,-0.06887c0.12438,-0.31485 0.38521,-0.56219 0.71883,-0.74723c0.86039,-0.57677 2.08693,-0.56171 3.10819,-0.25034l0.20006,-0.02122c0,0 0.41351,0 0.41351,0.41351h0.00002c0,0.22576 -0.12324,0.32826 -0.23517,0.37481c0.08517,0.04464 0.16977,0.09441 0.25365,0.14949l-0.09704,-0.06945c0,0 0.41351,0 0.41351,0.41351z" fill="#000000" stroke="none" stroke-width="0.5" stroke-linecap="butt"/><path d="M374.80206,182.16454c-0.28936,-0.6429 0.03005,-0.84834 0.49497,-0.81798c0.24425,-0.18942 0.59969,-0.19361 0.98128,0.20601c0.13659,0.08315 0.24955,0.19357 0.31852,0.32666c0.12584,0.11028 0.21185,0.22738 0.2337,0.34078c0.5072,0.30266 0.98224,0.63821 1.16491,0.23544c0.25537,-0.56309 0.30401,-0.90519 -0.21602,-1.19159c-1.16189,-1.74287 -3.2547,-3.16345 -2.488,-5.54964c-0.10073,0.06133 -0.24812,0.0963 -0.42626,-0.02246c-0.34406,-0.22938 -0.11469,-0.57344 -0.11469,-0.57344l0.63413,-0.67834c1.49084,1.08191 0.47465,2.63956 0.91899,4.22297c0.19151,0.68243 1.6606,1.41606 2.06063,2.01612c0.58682,0.44194 1.01363,1.89302 0.11479,2.4473c-0.77188,0.476 -1.14837,-0.29884 -1.74846,-0.52468c-0.32376,0.59554 -1.15148,0.5293 -1.61051,0.14822c-0.59069,0.17057 -1.16602,0.41141 -1.76475,0.583c-0.02278,0.20684 -0.19811,0.36774 -0.41101,0.36774h-0.13727c-0.49016,0.17083 -1.18484,0.05379 -1.54678,-0.23487c-0.14106,-0.02957 -0.28481,-0.06823 -0.43157,-0.11716c-3.31584,-1.17161 0.64197,-3.44699 1.07197,-4.68565c0.43874,-1.26381 -0.95405,-3.48187 1.04365,-3.72877c0,0 0.41351,0 0.41351,0.41351c0,0.41351 -0.41351,0.41351 -0.41351,0.41351c-0.45314,-0.18147 -0.12488,2.74147 -0.27958,3.21823c-0.2342,0.72174 -3.65811,2.94937 -1.5745,3.58459c0.02957,0.00986 0.0592,0.01929 0.08886,0.02828c0.10181,-0.17095 0.21752,-0.27846 0.34131,-0.33658c0.22639,-0.67093 2.76003,-1.42753 2.37935,0.26275c0.31606,-0.08322 0.62133,-0.1807 0.90981,-0.27851c-0.00384,-0.02476 -0.00635,-0.04992 -0.00746,-0.07541z" fill="#000000" stroke="none" stroke-width="0.5" stroke-linecap="butt"/><path d="M373.02698,186.09899c0,-0.19945 0.09618,-0.30269 0.19577,-0.35613c0.05162,-0.34995 0.1372,-0.63077 -0.00916,-1.00174c0,0 -0.13075,-0.39229 0.26154,-0.52306c0.39229,-0.13077 0.52304,0.26154 0.52304,0.26154c0.2027,0.68099 0.01292,0.95066 0.02122,1.6194l-0.57892,0.41351c0,0 -0.41351,0 -0.41351,-0.41351z" fill="#000000" stroke="none" stroke-width="0.5" stroke-linecap="butt"/><path d="M374.63675,185.89519c-0.2924,-0.29239 -0.00003,-0.58481 -0.00003,-0.58481l0.04431,0.12698c0.01265,-0.26855 -0.10401,-0.54506 -0.26136,-0.76306c0,0 -0.22937,-0.34406 0.11469,-0.57344c0.34406,-0.22938 0.57344,0.11469 0.57344,0.11469c0.2288,0.36237 0.38792,0.79341 0.40025,1.2218l-0.28651,0.45779c0,0 -0.29239,0.2924 -0.58479,0.00002z" fill="#000000" stroke="none" stroke-width="0.5" stroke-linecap="butt"/><path d="M370.2978,189.8206c0,0 -0.24141,0 -0.35532,-0.18446c-0.04062,0.01211 -0.08728,0.01905 -0.14089,0.01905c-0.41351,0 -0.41351,-0.41351 -0.41351,-0.41351c0.18181,-2.56892 7.92868,-2.76259 9.63775,-1.11941c0.14825,0.24152 0.10177,0.61488 -0.05743,0.89128c0.01975,0.00981 0.03907,0.02011 0.05784,0.03088c0.04689,-0.01436 0.09264,-0.02951 0.13719,-0.04552l0.06624,0.02771v-0.03305h0.4962c0.22837,0 0.41351,0.18514 0.41351,0.41351c0,0.22837 -0.18514,0.41351 -0.41351,0.41351h-0.44722c-0.31799,0.09757 -0.67622,0.16183 -1.06436,0.20014c-2.68455,3.92841 -5.21703,-0.23365 -7.91649,-0.20014zM377.70196,189.22216c0,0 0.04752,-0.09503 0.14255,-0.16466c-0.01318,-0.04193 -0.02081,-0.09048 -0.02081,-0.14661c0,-0.35933 0.31223,-0.40642 0.39408,-0.41259c-1.49101,-1.22901 -4.32934,-0.64683 -5.77759,-0.03211c-0.31177,0.13234 -0.96876,0.14569 -1.48934,0.23924c1.99627,0.15019 4.75469,0.64023 6.73854,0.54251zM372.27224,189.64858c1.64407,0.87894 3.31445,2.14193 4.86331,0.41801c-1.51244,-0.00503 -3.28051,-0.24902 -4.86331,-0.41801z" fill="#000000" stroke="none" stroke-width="0.5" stroke-linecap="butt"/><path d="M377.21792,190.05914c-1.54887,1.72391 -3.3816,0.44739 -5.02567,-0.43156c1.58281,0.16899 3.51323,0.42653 5.02567,0.43156z" data-paper-data="{&quot;noHover&quot;:false,&quot;origItem&quot;:[&quot;Path&quot;,{&quot;applyMatrix&quot;:true,&quot;segments&quot;:[[[709.88133,387.44201],[1.91386,0.20434],[1.98794,1.06278]],[[715.76183,387.94745],[-1.87282,2.08448],[-1.82878,-0.00608]]],&quot;closed&quot;:true,&quot;fillColor&quot;:[0,0,0,1],&quot;strokeWidth&quot;:0.5}]}" fill="#f7806e" stroke="none" stroke-width="0.25" stroke-linecap="butt"/><path d="M377.76991,189.26687c-1.98385,0.09772 -4.90538,-0.40698 -6.90165,-0.55717c0.52058,-0.09355 1.17748,-0.11317 1.48925,-0.24551c1.44825,-0.61473 4.45195,-1.19535 5.94296,0.03366c-0.08184,0.00617 -0.39467,0.06366 -0.39467,0.42299c0,0.05614 0.00711,0.10822 0.0203,0.15015c-0.09503,0.06964 -0.14346,0.16937 -0.14346,0.16937z" data-paper-data="{&quot;noHover&quot;:false,&quot;origItem&quot;:[&quot;Path&quot;,{&quot;applyMatrix&quot;:true,&quot;segments&quot;:[[716.44671,386.92641],[[716.61907,386.72731],[-0.1149,0.0842],[-0.01594,-0.0507]],[[716.59391,386.55003],[0,0.06788],[0,-0.43448]],[[717.07041,386.05115],[-0.09896,0.00746],[-1.80286,-1.48606]],[[710.08441,386.01233],[1.75116,-0.7433],[-0.37698,0.16002]],[[708.28357,386.30161],[0.62946,-0.11312],[2.4138,0.1816]],[[716.43151,386.95759],[-2.39878,0.11816],[0,0]]],&quot;closed&quot;:true,&quot;fillColor&quot;:[0,0,0,1],&quot;strokeWidth&quot;:0.5}]}" fill="#f7806e" stroke="none" stroke-width="0.25" stroke-linecap="butt"/><g fill="none" stroke="#000000" stroke-width="2"><path d="M345,241.7057v-106.16129h70v106.16129z" stroke-linecap="butt"/><path d="M413.66666,206.08273h-68.33333" stroke-linecap="round"/></g><path d="M360.92346,146.01527c-0.03319,-0.06118 -0.06067,-0.12596 -0.08156,-0.19447c-0.06608,-0.21678 -0.08526,-0.43612 -0.07277,-0.65716h-0.11392v-1.27273c0,-0.69036 0.55964,-1.25 1.25,-1.25c0.34518,0 0.65767,0.13991 0.88388,0.36612l0.82705,0.82705c1.28886,0.76341 3.99089,2.20373 3.49503,4.20391c-0.26645,1.07479 -2.80064,2.04589 -4.79148,2.71415l-0.6578,0.60298c-0.22278,0.20562 -0.52051,0.33124 -0.84758,0.33124c-0.69036,0 -1.25,-0.55964 -1.25,-1.25c0,-0.14846 0.02587,-0.29086 0.07337,-0.42297l0.53623,-1.60868l0.00408,0.00136l0.0002,-0.01395c0.32378,-0.90672 0.64721,-1.57119 0.74528,-2.37686z" fill="#a25792" stroke="none" stroke-width="0.5" stroke-linecap="butt"/><path d="M384.71936,146.92256c-0.39529,-1.18586 0.79057,-1.58114 0.79057,-1.58114c0.97021,-0.3209 3.90228,-2.02174 4.80865,-1.45881c0.05466,0.03395 0.10668,0.07898 0.15598,0.13397c0.21596,-0.17792 0.49264,-0.28476 0.79429,-0.28476c0.69036,0 1.25,0.55964 1.25,1.25c0,0.34518 -0.13991,0.65768 -0.36611,0.88388l-1.05706,1.05706c-0.02823,1.33706 -0.35323,2.69261 -1.03744,3.12834c-0.22591,0.2241 -0.53694,0.36254 -0.88029,0.36254c-0.31761,0 -0.60755,-0.11845 -0.82806,-0.31359c-0.9538,-0.17142 -1.41233,-0.56053 -1.54724,-1.0548l-0.92681,-0.331c-0.49782,-0.16474 -0.85699,-0.63391 -0.85699,-1.18696c0,-0.02739 0.00088,-0.05457 0.00261,-0.08152c-0.1206,-0.12519 -0.226,-0.29489 -0.3021,-0.52319z" fill="#a25792" stroke="none" stroke-width="0.5" stroke-linecap="butt"/><path d="M360.98248,186.98c-0.4,-0.3 -0.1,-0.7 -0.1,-0.7l0.30473,-0.40621c1.16703,-1.45361 1.79714,-3.19821 3.14172,-4.54735c0,0 0.35355,-0.35356 0.70711,0c0.35355,0.35356 0,0.70711 0,0.70711c-1.31378,1.30888 -1.9232,3.02913 -3.05829,4.45265l-0.29527,0.39379c0,0 -0.3,0.4 -0.7,0.1z" fill="#ff7ca5" stroke="none" stroke-width="0.5" stroke-linecap="butt"/><path d="M363.16122,187.06507c-0.48507,-0.12127 -0.36381,-0.60634 -0.36381,-0.60634l0.09187,-0.36093c0.28688,-1.37922 2.35996,-3.5343 3.56959,-4.16502c0,0 0.44722,-0.2236 0.67082,0.22361c0.22361,0.44721 -0.22361,0.67082 -0.22361,0.67082c-0.84449,0.39884 -2.94192,2.48929 -3.03041,3.43499l-0.10813,0.43907c0,0 -0.12126,0.48507 -0.60634,0.3638z" fill="#ff7ca5" stroke="none" stroke-width="0.5" stroke-linecap="butt"/><path d="M365.09679,187.14424c-0.46424,-0.1857 -0.27854,-0.64993 -0.27854,-0.64993l0.23477,-0.57035c1.22159,-1.48299 1.39551,-3.04319 3.37135,-3.7183c0,0 0.47434,-0.15812 0.63246,0.31623c0.15812,0.47434 -0.31623,0.63245 -0.31623,0.63245c-1.64538,0.53202 -1.76641,2.02323 -2.82865,3.28171l-0.16523,0.42964c0,0 -0.18569,0.46424 -0.64993,0.27855z" fill="#ff7ca5" stroke="none" stroke-width="0.5" stroke-linecap="butt"/><path d="M367.00513,187.79603c-0.41602,-0.27735 -0.13868,-0.69337 -0.13868,-0.69337l0.38357,-0.57362c0.68442,-1.3599 1.66137,-2.68621 2.97521,-3.47778c0,0 0.42874,-0.25725 0.68599,0.17149c0.25725,0.42874 -0.17149,0.686 -0.17149,0.686c-1.16607,0.69639 -2.02643,1.91707 -2.6248,3.12222l-0.41643,0.62638c0,0 -0.27735,0.41602 -0.69338,0.13867z" fill="#ff7ca5" stroke="none" stroke-width="0.5" stroke-linecap="butt"/><path d="M377.92437,186.55434c-0.47434,-0.15812 -0.31623,-0.63245 -0.31623,-0.63245l0.11011,-0.32758c0.63187,-1.57172 1.97279,-3.22382 3.69352,-3.50928c0,0 0.49498,-0.07071 0.56569,0.42426c0.07071,0.49498 -0.42427,0.56569 -0.42427,0.56569c-1.33211,0.1453 -2.43602,1.70787 -2.90647,2.89072l-0.0899,0.27242c0,0 -0.15812,0.47434 -0.63246,0.31623z" fill="#ff7ca5" stroke="none" stroke-width="0.5" stroke-linecap="butt"/><path d="M379.73527,186.10361c-0.22361,-0.44721 0.22361,-0.67082 0.22361,-0.67082l0.11126,-0.04322c1.08499,-0.84551 1.85542,-2.04177 3.01234,-2.90957c0,0 0.4,-0.3 0.7,0.1c0.3,0.4 -0.1,0.7 -0.1,0.7c-1.16451,0.87327 -1.90232,2.00459 -2.98765,2.89043l-0.28874,0.15678c0,0 -0.44722,0.2236 -0.67082,-0.22361z" fill="#ff7ca5" stroke="none" stroke-width="0.5" stroke-linecap="butt"/><path d="M381.65374,186.63725c-0.25725,-0.42874 0.1715,-0.68599 0.1715,-0.68599l0.4718,-0.28177c1.08873,-0.83402 1.59987,-1.85162 2.96184,-2.5367c0,0 0.44721,-0.22361 0.67082,0.22361c0.22361,0.44721 -0.2236,0.67082 -0.2236,0.67082c-1.34111,0.66611 -1.76708,1.58253 -2.83817,2.4633l-0.52819,0.31823c0,0 -0.42874,0.25725 -0.68599,-0.17149z" fill="#ff7ca5" stroke="none" stroke-width="0.5" stroke-linecap="butt"/><path d="M383.53527,186.90361c-0.22361,-0.44721 0.22361,-0.67082 0.22361,-0.67082l0.11126,-0.04322c1.24547,-0.99383 2.40143,-1.93607 3.73499,-2.82559c0,0 0.41602,-0.27735 0.69338,0.13867c0.27735,0.41602 -0.13867,0.69338 -0.13867,0.69338c-1.31223,0.87436 -2.44185,1.79359 -3.665,2.77441l-0.28874,0.15678c0,0 -0.44722,0.2236 -0.67083,-0.22361z" fill="#ff7ca5" stroke="none" stroke-width="0.5" stroke-linecap="butt"/><path d="M374.23729,181.52367c0.41602,0.27735 0.13868,0.69338 0.13868,0.69338l-0.26213,0.39238c-0.96661,1.31182 -1.83163,2.98755 -2.43966,4.51597c0,0 -0.18569,0.46424 -0.64993,0.27854c-0.46424,-0.1857 -0.27854,-0.64993 -0.27854,-0.64993c0.649,-1.61454 1.54852,-3.3356 2.56034,-4.73404l0.23787,-0.35762c0,0 0.27735,-0.41602 0.69338,-0.13867z" fill="#ff7ca5" stroke="none" stroke-width="0.5" stroke-linecap="butt"/><path d="M377.20801,182.38058c0.43412,0.24807 0.18606,0.68219 0.18606,0.68219l-0.00387,0.00675c-0.71625,1.19935 -2.10409,2.77265 -2.59102,4.05587c0,0 -0.18569,0.46424 -0.64993,0.27854c-0.46424,-0.1857 -0.27854,-0.64993 -0.27854,-0.64993c0.59575,-1.43419 1.8997,-2.81886 2.65125,-4.18062l0.00386,-0.00675c0,0 0.24807,-0.43412 0.68219,-0.18605z" fill="#ff7ca5" stroke="none" stroke-width="0.5" stroke-linecap="butt"/><path d="M378.4088,193.66364c-0.5,0 -0.5,-0.5 -0.5,-0.5v-0.54545c0.00209,-0.30558 0.45938,-2.00009 0.18714,-2.24634c-0.08232,-0.07446 -3.32088,-0.3414 -3.5154,-0.12738c-0.00328,0.00361 -0.00654,0.00722 -0.00977,0.01082c0.00897,0.17296 -0.00144,0.35551 -0.03362,0.54302c-0.13279,0.77377 -0.49996,1.42493 -0.54039,2.2378l-0.05815,0.00377c-0.00176,0.00473 -0.00355,0.00946 -0.00536,0.0142l0.05966,0.00994l-0.00972,0.0583l0.20527,0.13685l-0.35933,0.539c-0.08903,0.13785 -0.24402,0.2291 -0.42033,0.2291c-0.27614,0 -0.5,-0.22386 -0.5,-0.5c0,-0.03125 0.00287,-0.06183 0.00835,-0.09149l0.08592,-0.5155c0.02112,-0.37615 0.07475,-0.75206 0.15741,-1.12084c-0.00113,-0.46435 0.08782,-0.97203 0.23375,-1.40242c-0.01313,-0.53689 -0.15877,-0.87303 -0.4227,0.02302c-0.41357,1.40405 -0.26648,3.0881 -0.44566,4.65268h0.11021v0.72727c0,0.27614 -0.22386,0.5 -0.5,0.5c-0.15962,0 -0.30178,-0.0748 -0.39332,-0.19126l-0.36075,-0.45094l0.05447,-0.04358l-0.13585,-0.10327c-0.05003,-1.26512 -0.3823,-2.71477 -0.0036,-3.95673c0.06041,-0.19811 0.80677,-1.25767 0.76438,-1.51362c-0.09182,-0.55449 -0.97042,-0.37416 -1.60927,-0.43763c-0.02968,2.47236 -0.36152,4.76258 -0.36152,7.19703v0.09091c0,0 0,0.5 -0.5,0.5c-0.5,0 -0.5,-0.5 -0.5,-0.5v-0.09091c0,-2.55584 0.36364,-4.93607 0.36364,-7.54545c0,0 0,-0.47832 0.46783,-0.49929c0.19316,-0.26801 0.54285,-0.16042 0.54285,-0.16042c0.29629,0.09123 1.5954,0.38184 2.18982,0.71661c0.68275,-0.58918 1.28993,-0.45648 1.63055,0.0309c1.13499,-0.32139 3.9105,-0.22312 4.43636,0.24945c0.80635,0.72464 0.17987,2.17354 0.18714,3.02638v0.54545c0,0 0,0.5 -0.5,0.5z" fill="#00aab0" stroke="none" stroke-width="0.5" stroke-linecap="butt"/><path d="M378.22698,196.66364c-0.5,0 -0.5,-0.5 -0.5,-0.5c0,-0.21212 0,-1.15152 0,-1.36364c0,0 0,-0.5 0.5,-0.5c0.5,0 0.5,0.5 0.5,0.5c0,0.21212 0,0.42424 0,0.63636v0.72727c0,0 0,0.5 -0.5,0.5z" fill="#00aab0" stroke="none" stroke-width="0.5" stroke-linecap="butt"/><path d="M378.04516,203.11818c-0.5,0 -0.5,-0.5 -0.5,-0.5l0.0068,-0.37235c-0.11429,-0.69808 -0.09771,-1.3763 -0.09771,-2.0822c0,0 0,-0.5 0.5,-0.5c0.5,0 0.5,0.5 0.5,0.5c0,0.64961 -0.02504,1.2761 0.08411,1.9178l0.0068,0.53674c0,0 0,0.5 -0.5,0.5z" fill="#00aab0" stroke="none" stroke-width="0.5" stroke-linecap="butt"/></g></g></svg>